<svg xmlns="http://www.w3.org/2000/svg" viewBox="0 0 500 500"><defs><style>.cls-1{fill:#84b9fb;opacity:0.29;}.cls-2{fill:#fafafa;}.cls-3{fill:#e8e5e2;}.cls-4{fill:#f29e91;}.cls-5{fill:#ffaf9d;}.cls-6{fill:#312553;}.cls-7{fill:#d37a71;}.cls-8{fill:#3f3468;}.cls-9{fill:#304387;}.cls-10{fill:#404a91;}.cls-11{fill:#282f78;}</style></defs><g id="OBJECTS"><path class="cls-1" d="M155.75,110.64c-9.13,20.06-8.79,43.49-2.87,64.73,1.86,6.65,4.26,13.36,3.77,20.24-.78,11-8.59,19.94-15.5,28.49A266.91,266.91,0,0,0,82.74,374.65c-1.14,18.88-.13,38.44,7.75,55.63,15.54,33.94,55.14,51.5,92.47,52.06s74.76-9.11,108.45-25.17c76.09-36.26,173.81-122.42,100.07-206.06-12.08-13.7-23.62-29-26.5-47-2.4-15.07,1.21-30.34,3.39-45.44,2.83-19.68,3.2-40.06-2.46-59.12C338,5.44,189,37.48,155.75,110.64Z"/><path class="cls-2" d="M174.29,218.84c-7.83,3.72-19.68,9.44-23.08,17.42-3.86,9.08-4.51,11-2.21,20.58,9.93,41.38,18.39,80.6,28.45,122,4.56,18.76-4.18,87.1-2.24,106.31,45.4,2.42,167,2.53,166.89.62-2.9-43.92.7-135.19,6.23-163.7,6.4-33-13.84-112.46-16.78-113.49-21.53-7.61-18-6.76-40.79-8-22.37-1.28-50.61-3.77-73-2.76C198.84,198.59,191.3,209.11,174.29,218.84Z"/><path class="cls-3" d="M224.83,483.61a105.57,105.57,0,0,0,19.84,1.7c5.59,0,11.59.81,17.13.09a72,72,0,0,0,11.41-2.64c2.87-.88,6.51-1.77,8.76-3.89.9-.85-.46-2.22-1.37-1.36-2.35,2.22-6.52,3-9.53,3.86a52.71,52.71,0,0,1-10.66,2.26c-4.88.32-10-.22-14.91-.24a107.11,107.11,0,0,1-20.15-1.64c-1.22-.24-1.74,1.62-.52,1.86Z"/><path class="cls-3" d="M234.6,373.33c3.89,2,7.26,5.07,10.85,7.56q5.79,4,11.85,7.58c3.53,2.08,7.22,4.5,11,6,1.9.75,3.4,1,4.84-.53.85-.9-.52-2.27-1.36-1.36-2.39,2.57-17-7.88-19.54-9.47-5.61-3.59-10.8-8.43-16.7-11.46-1.11-.57-2.08,1.1-1,1.67Z"/><path class="cls-3" d="M234.64,405.46a64.94,64.94,0,0,0,39.64,23.37c1.22.21,1.74-1.65.52-1.86A63.25,63.25,0,0,1,236,404.09c-.78-1-2.14.41-1.37,1.37Z"/><path class="cls-3" d="M230.32,220.88a48.16,48.16,0,0,0,46.38,1.54c1.11-.56.13-2.22-1-1.66a46.14,46.14,0,0,1-44.43-1.55,1,1,0,0,0-1,1.67Z"/><path class="cls-3" d="M249.17,239.05l16.07,2.7c1.22.21,1.74-1.65.51-1.86l-16.06-2.7c-1.22-.21-1.74,1.65-.52,1.86Z"/><path class="cls-4" d="M221.47,193.41c-.05,1.58-3.39,2.78-3.73,4.32,10.09,6.05,12.26,17.78,36.54,17.79,30.91,0,38.13-12.82,36.48-15-.85-1.14-2.12-1.89-3-3-1.57-2,.46-33.4-.92-42-.12-.72-45.44,7.1-64.46,2.65C223.44,167.88,224.6,193.78,221.47,193.41Z"/><path class="cls-5" d="M219.14,155.09c2.32,7.29,4.87,14.91,10.46,20.13,8.13,7.62,20.56,19.07,31.7,19.25,7.45.11,15.47-10.88,21.08-15.79,5.85-5.13,6.89-13.69,7.55-21.44.69-8.25,3.33-13.56,4-21.8,1.1-13,2.93-41.15-17.81-53-11.8-6.75-30.59-3-43.44,1.43C199.58,95.26,212,132.63,219.14,155.09Z"/><path class="cls-6" d="M223.24,100.42c22.79,4.37,39.5,4.4,61.95-1.45,4.74,17.83,5.08,32.84,6.63,42.47,3.5-7.5,5.09-6.73,6.52-9.72s.27-30.23-1-35.75c5.58-3.8,4.15-11.62,2.24-18.1C297.29,70,289.11,65,281,63.87s-16.36.94-24.33,3l-23.23,5.92C227,74.39,220.48,76,213.87,75.9S200.42,73.63,196,68.76C196.16,80,201.19,90.25,210.83,96c-3.92,14.33-4.44,38.15,2.38,41.14C226.17,142.78,221.61,100.11,223.24,100.42Z"/><path class="cls-5" d="M222,142.14l-.06-4.1c-.82-4.47-2.63-8.87-5.73-11.37s-7.61-2.56-10.22.68c-2,2.45-2.51,6.25-2.08,9.67a38.82,38.82,0,0,0,3,9.66c1.27,3.09,2.58,6.27,4.72,8.49s5.32,3.27,7.75,1.58C223.06,154.13,222.77,147.4,222,142.14Z"/><path class="cls-5" d="M301.58,128a8.94,8.94,0,0,0-2.84-3.71c-3.08-2.06-6.38.93-9.15,3.6-5.9,5.69-3.54,29.38.34,29.37,5.68.37,8.08-4.79,11.12-10.38A21.71,21.71,0,0,0,301.58,128Z"/><path class="cls-7" d="M257.71,129.06a57.15,57.15,0,0,0,3,16.38,54.31,54.31,0,0,0,2.65,6.29c1.09,2.21,3,4,.37,6.65-1.36,1.36-4.56,1.75-6.26,1.87-1.23.09-1.24,2,0,1.93,3.81-.27,10.93-2.09,10-6.87-.26-1.39-1.86-3.26-2.5-4.55a53.16,53.16,0,0,1-3-7.4,55.47,55.47,0,0,1-2.41-14.3c-.05-1.24-2-1.24-1.93,0Z"/><path class="cls-7" d="M246.3,168.85a37.73,37.73,0,0,0,17.88,1.79c1.23-.17.7-2-.51-1.87A35.62,35.62,0,0,1,246.82,167c-1.18-.42-1.68,1.45-.52,1.86Z"/><path class="cls-7" d="M251.75,175.32l5.79,1c1.22.2,1.74-1.66.52-1.86l-5.8-1c-1.21-.2-1.73,1.66-.51,1.86Z"/><path class="cls-7" d="M215.41,131.86c-14.42-7.22-4.62,24.09.88,21.95,1.15-.44.65-2.31-.51-1.86-2.21.86-10.95-23.24-1.35-18.43,1.11.56,2.09-1.11,1-1.66Z"/><path class="cls-7" d="M293,131.81q3.54.78,3.36,3.45a21.35,21.35,0,0,1,0,2.4,28.54,28.54,0,0,1-.72,5.28c-.74,3.19-1.85,7.2-4.88,8.9a1,1,0,0,0,1,1.66c5.89-3.3,7.21-13.58,6.45-19.6-.4-3.19-4.75-7.85-6.86-3.07-.49,1.13,1.17,2.11,1.67,1Z"/><ellipse class="cls-6" cx="241.38" cy="136.61" rx="2.27" ry="3.69"/><path class="cls-6" d="M275.93,135.37c0,2-1,3.69-2.27,3.69s-2.27-1.65-2.27-3.69,1-3.68,2.27-3.68S275.93,133.34,275.93,135.37Z"/><path class="cls-6" d="M233.2,124.27a28.47,28.47,0,0,1,13.1-.81c1.22.2,1.74-1.66.52-1.86a31,31,0,0,0-14.13.81,1,1,0,0,0,.51,1.86Z"/><path class="cls-6" d="M267.77,123.33l11.89-.87c1.24-.09,1.24-2,0-1.93l-11.89.87c-1.23.09-1.24,2,0,1.93Z"/><path class="cls-8" d="M209.62,82.28A76.73,76.73,0,0,0,237,96.14a1,1,0,0,0,.51-1.86A74.4,74.4,0,0,1,211,80.91c-1-.76-2.34.6-1.36,1.37Z"/><path class="cls-8" d="M230.1,81.14a64.15,64.15,0,0,0,22.06,16.25c1.12.5,2.11-1.16,1-1.67a62.86,62.86,0,0,1-21.67-16c-.82-.93-2.18.44-1.36,1.37Z"/><path class="cls-8" d="M245.71,81.33l16.73,12.22c1,.74,2-.94,1-1.67L246.68,79.66c-1-.74-2,.94-1,1.67Z"/><path class="cls-8" d="M260.87,75.13A44.19,44.19,0,0,0,274,87.78c1.05.66,2-1,1-1.67a41.73,41.73,0,0,1-12.45-12c-.7-1-2.37-.06-1.67,1Z"/><path class="cls-8" d="M273.16,72.19a52.22,52.22,0,0,1,9,11.28,1,1,0,0,0,1.66-1,54.31,54.31,0,0,0-9.31-11.67c-.9-.85-2.27.51-1.36,1.37Z"/><path class="cls-5" d="M223.24,293.71c2.71.43,5.54.79,8.15-.06s4.9-3.28,4.68-6c-.15-1.89-1.42-3.51-1.76-5.38-.53-2.95,1.32-5.75,2-8.67.46-1.94,1.39-8.92-1.42-9.44-2.66-.49-4.3,4.64-5.13,6.31-1.61,3.19-3.92,5.16-4.63,8.78C224.21,284,223.87,288.92,223.24,293.71Z"/><path class="cls-9" d="M285.19,490.71c19.52-1.75,45,0,64.38-3,3.65-76.14-1.68-158.78-7.06-239.09-.36-5.35,8.69-21.9,5.16-25.88-2.73-3.09-61.21-29.31-59.91-25.2,3,9.52,5.89,41.54,5.3,51.11-2.37,37.76-.93,55.6-2.5,93.41C288.77,385.14,287,447.58,285.19,490.71Z"/><path class="cls-10" d="M294.82,205.81c4.42,11.74,9.95,23.06,13.95,35a103.12,103.12,0,0,1,4.33,17.5c.54,3.57,1.51,6.47-1.09,9.06-2,2-4.68,4.79-7.26,5.79a1,1,0,0,0-.42,1.61c2.11,2.51,5,4.26,6.88,7,3.5,5.12,1.31,11-.61,16.32-.42,1.17,1.44,1.68,1.86.52,1.79-4.94,3.88-10.58,1.66-15.74-1.74-4-5.71-6.22-8.43-9.45l-.42,1.61c4-1.54,6.53-5.44,10.14-7.62a1,1,0,0,0,.48-.83c-1.52-22-11.57-41-19.21-61.23-.44-1.15-2.3-.65-1.86.51Z"/><path class="cls-10" d="M306,405.13a147.81,147.81,0,0,1,19.47-25.36c.85-.9-.51-2.27-1.37-1.36a149.73,149.73,0,0,0-19.76,25.75c-.65,1.06,1,2,1.66,1Z"/><path class="cls-10" d="M305.91,437.28a69.16,69.16,0,0,1,26.43-24.44c1.1-.58.13-2.25-1-1.67a71.09,71.09,0,0,0-27.12,25.14c-.67,1.05,1,2,1.66,1Z"/><path class="cls-11" d="M407.36,386.53c0,6.3-3.75,7.4-13.58,15.44C379,414,367.17,387.54,360.9,374.57c-4-8.3-41.32-69-36.5-114.84,1.43-13.58,6.13-44.38,23.27-37,12.89,5.51,21.14,23.37,25.32,33.14C394.23,305.53,407.58,347,407.36,386.53Z"/><path class="cls-5" d="M283.69,275.64c-4.85-1.15-7.32-8.23-12.25-8.88a13.34,13.34,0,0,0-4.88,0c-4.77,1.15-7,6.72-11.18,9.29-2.35,1.44-5.22,1.86-7.54,3.34s-3.93,4.85-2.15,7c1.59,1.89,4.63,1.38,6.88.36s4.65-2.42,7-1.77q-.44,5.88-.88,11.75c-.2,2.54-.29,5.39,1.42,7.27a9.85,9.85,0,0,0,2.85,1.94c14,7.41,22.15,18.19,33.89,28.86,7.26-7.19,18.29-14.38,25.55-21.57-2.18,2.16-18.65-14.74-20.24-16.8C297.37,290.13,285.46,276.05,283.69,275.64Z"/><path class="cls-11" d="M349.57,394.49c5.6,7.17,41.32,33.41,55.8,0,9.76-22.51-17.26-43.46-29.08-50.57-8.82-5.3-43.73-31.85-66.05-43.28-2.77-1.42-26.93,26.86-17.18,34.86C322.44,359.61,333.58,374,349.57,394.49Z"/><path class="cls-10" d="M331.17,230.77c-8.72,10.85-8.89,26.55-9,39.82,0,8.72.59,17.58,3.29,25.92,2.81,8.73,8,16.3,13.22,23.74.71,1,2.38,0,1.67-1-4.78-6.82-9.64-13.74-12.48-21.63-2.91-8.1-3.73-16.76-3.77-25.32-.06-13.14-.27-29.4,8.4-40.18.77-1-.59-2.33-1.37-1.37Z"/><path class="cls-10" d="M338.76,320.38c17.26,9,36.69,19.69,40.94,40.43.25,1.21,2.11.7,1.86-.51-4.35-21.23-24.13-32.4-41.83-41.59-1.1-.57-2.08,1.1-1,1.67Z"/><path class="cls-10" d="M370.12,339.72A18.35,18.35,0,0,1,383.58,350c.53,1.13,2.2.15,1.67-1a20.12,20.12,0,0,0-14.62-11.2c-1.21-.22-1.73,1.64-.51,1.86Z"/><path class="cls-9" d="M225,243.14c2.77,73.5,1.08,166.48-5.05,239.78a5.9,5.9,0,0,1-1,3.36c-1.13,1.36-3.15,1.42-4.91,1.37l-47.53-1.33c-1.64-.05-3.46-.17-4.59-1.36s-1.15-3-1.11-4.65c1.7-68.93,3.39-157.17,5.09-226.11.09-3.8.17-7.73-1.23-11.27-2.58-6.52-13.21-9-13.43-16-.05-1.87,70.2-33.48,70.2-33.48C217.74,206.17,224.5,229.37,225,243.14Z"/><path class="cls-10" d="M214.16,200.65c-9.33,20.49-11.25,43.89-15.76,65.73a1,1,0,0,0,.45,1.09c2.12,1.32,4.25,2.64,6.34,4,.83.54,2.63,1.32,3.16,2.17.82,1.31.82.27,0,1.9-1.28,2.61-4.24,5.18-6.23,7.22-.84.86-1.76,1.46-2,2.63-.63,2.79,1.65,7.3,2.55,9.86,1.18,3.35,2.4,7.23,4.84,9.89.84.91,2.21-.45,1.37-1.37-2.86-3.1-4.12-8.11-5.34-12-.47-1.5-1.35-3.39-1.33-5,0-2.05,1.61-2.9,3.08-4.49s6.22-5.75,5.79-8.33c-.35-2.11-4.93-4.14-6.41-5.09a24.1,24.1,0,0,1-2.9-1.84c-1.54-1.35-1-.55-1-2.68,0-2.61,1.08-5.61,1.56-8.19,1.14-6.19,2.24-12.38,3.44-18.56,2.37-12.15,4.88-24.63,10-36,.51-1.12-1.15-2.1-1.67-1Z"/><path class="cls-10" d="M177.26,408.46a121.2,121.2,0,0,0,28.6,30c1,.74,2-.94,1-1.67a118.2,118.2,0,0,1-27.92-29.26c-.68-1-2.36-.06-1.66,1Z"/><path class="cls-10" d="M176,434.53A112,112,0,0,0,203.22,454c1.1.56,2.08-1.1,1-1.67a110.58,110.58,0,0,1-26.87-19.14c-.89-.87-2.26.5-1.36,1.36Z"/><rect class="cls-6" x="235.73" y="252.66" width="51.13" height="91.29" rx="4.82"/><path class="cls-2" d="M276,262.27h-4.64a3.15,3.15,0,0,0,0,6.29H276a3.15,3.15,0,1,0,0-6.29Z"/><path class="cls-5" d="M231.41,283.51c2.89-1.93,7,8.62,12.23,8.37,3.52-.17,12.27,1.15,17.66.32,8.73-1.35,17.83-6.11,17.83,1.29-5.47,2.57-10.29,5.47-15.38,6.27-10.07,1.59-12.69,1.89-15.13,2.24,1.46.48,6.7,1.76,15,1.46,6.75-.24,12.55-5.95,14.8-.64.81,1.91-6.22,5.58-12.55,6.92a99.5,99.5,0,0,1-17.22,2.41,130.91,130.91,0,0,0,16.58.22c6.18-.4,11.42-3.28,11.62,3.13-1.33,4-28.2,2.77-28.2,6,1.1.33,2.71,2.12,7.3,3.41,4.1,1.16,14.1-3.3,12.28,3-.62,2.14-21.06,1.7-23.27,2-5.16.72-5.46,1.52-10.6.67a12.31,12.31,0,0,0-4.9-.23,11,11,0,0,0-4.19,2.49L203,351l-9.62-16.91a6,6,0,0,1-1-2.57c-.08-1.59,1.07-2.94,2.16-4.1,5.3-5.63.85-6.27,6-11.95C205.16,310.33,225.44,287.49,231.41,283.51Z"/><path class="cls-11" d="M123,408c12.75,11.42,36.35.4,50.49-9.26,31.2-21.33,49.16-61.5,48-64-3-6.17-3.07-23.55-13.39-29.37-2.43-1.37-36,23.73-44.23,32.67,1.16-.36,11.77-24.12,15.25-34,6.31-17.9,8.8-45.66,2.41-64.63-6.88-20.44-21.07-18.86-30.26-12.54C124.1,245.58,93.89,381.91,123,408Z"/><path class="cls-10" d="M176.67,233.37c8.37,15.45,7.77,33.15,3.69,49.78C176.16,300.32,170,317,165.19,334a1,1,0,0,0,1.86.51c5.22-18.29,12.13-36.24,16.11-54.87,3.4-15.91,3.06-32.66-4.82-47.23-.6-1.09-2.26-.12-1.67,1Z"/><path class="cls-10" d="M174.49,329.05a70.45,70.45,0,0,0-32.09,42.07,1,1,0,0,0,1.86.52,68.44,68.44,0,0,1,31.21-40.92,1,1,0,0,0-1-1.67Z"/><path class="cls-10" d="M156.08,338.58a45.38,45.38,0,0,0-20.56,19.52c-.59,1.09,1.07,2.07,1.67,1a43.63,43.63,0,0,1,19.86-18.83c1.13-.53.15-2.19-1-1.66Z"/></g></svg>