<svg width="25" height="25" viewBox="0 0 25 25" fill="none" xmlns="http://www.w3.org/2000/svg">
<path d="M21.1492 13.6866C20.8953 13.6866 20.6299 13.6056 20.376 13.5477C19.8618 13.4341 19.3565 13.2832 18.864 13.0963C18.3286 12.9009 17.7401 12.9111 17.2116 13.1248C16.6832 13.3385 16.2523 13.7406 16.0017 14.2538L15.7478 14.7747C14.6237 14.1475 13.5907 13.3686 12.6778 12.4597C11.7715 11.5441 10.9949 10.5081 10.3695 9.3807L10.8543 9.0566C11.366 8.80533 11.7669 8.37313 11.98 7.84318C12.1931 7.31323 12.2032 6.72297 12.0084 6.18599C11.8252 5.69107 11.6748 5.18451 11.5583 4.66966C11.5006 4.41501 11.4544 4.14878 11.4198 3.88256C11.2796 3.06723 10.8538 2.32888 10.2191 1.80048C9.58427 1.27208 8.78223 0.988339 7.95737 1.00037H4.49494C3.99754 0.995683 3.50497 1.09854 3.05077 1.30193C2.59657 1.50533 2.1914 1.80448 1.86283 2.17903C1.53427 2.55359 1.29004 2.99474 1.14676 3.47247C1.00347 3.95019 0.964506 4.45327 1.03251 4.94746C1.64737 9.79669 3.85558 14.3023 7.30834 17.7525C10.7611 21.2028 15.2616 23.401 20.099 24H20.5375C21.3886 24.0012 22.2103 23.6881 22.8458 23.1203C23.2109 22.7928 23.5026 22.3913 23.7016 21.9423C23.9005 21.4934 24.0022 21.0072 24 20.5159V17.0434C23.9858 16.2394 23.6939 15.4652 23.174 14.853C22.6541 14.2408 21.9384 13.8286 21.1492 13.6866ZM21.7263 20.6317C21.7261 20.796 21.691 20.9584 21.6233 21.1081C21.5557 21.2578 21.457 21.3913 21.3339 21.4998C21.2049 21.6115 21.0541 21.6949 20.8912 21.7447C20.7282 21.7945 20.5566 21.8097 20.3875 21.7892C16.0651 21.2333 12.0502 19.2502 8.97615 16.1524C5.90207 13.0547 3.94373 9.0188 3.41004 4.68123C3.39168 4.51168 3.40777 4.34015 3.45737 4.17701C3.50696 4.01388 3.58902 3.86252 3.69858 3.73208C3.80674 3.60861 3.93987 3.50965 4.08912 3.4418C4.23837 3.37394 4.40032 3.33874 4.56419 3.33853H8.02662C8.29501 3.33254 8.55709 3.42057 8.76774 3.58747C8.9784 3.75438 9.12445 3.98971 9.18076 4.25296C9.22693 4.56934 9.28463 4.88187 9.35388 5.19054C9.48721 5.80071 9.66465 6.40034 9.88479 6.98467L8.26899 7.73705C8.13083 7.80062 8.00656 7.89093 7.90331 8.00281C7.80005 8.11468 7.71985 8.2459 7.6673 8.38895C7.61475 8.53199 7.5909 8.68404 7.5971 8.83636C7.60331 8.98867 7.63945 9.13826 7.70346 9.27653C9.3645 12.8448 12.2245 15.7132 15.7825 17.3791C16.0635 17.4948 16.3786 17.4948 16.6596 17.3791C16.8035 17.3274 16.9358 17.2476 17.0488 17.1443C17.1617 17.041 17.253 16.9162 17.3175 16.7772L18.033 15.1567C18.6297 15.3707 19.2386 15.5485 19.8566 15.6891C20.1644 15.7586 20.476 15.8164 20.7914 15.8627C21.0539 15.9192 21.2886 16.0657 21.455 16.277C21.6214 16.4882 21.7092 16.7511 21.7032 17.0202L21.7263 20.6317Z" fill="#FFFFFF"/>
</svg>
