<svg width="183" height="184" viewBox="0 0 183 184" fill="none" xmlns="http://www.w3.org/2000/svg">
<path opacity="0.3" d="M172.542 125.748C155.613 166.261 110.52 188.957 71.4169 182.835C65.0539 181.838 47.6091 178.871 32.1638 164.872C2.42806 137.922 -3.93041 84.5589 20.0544 46.9492C37.511 19.5779 68.8033 4.06184 98.5377 4.83784C104.943 5.00525 129.488 6.03532 151.06 24.1144C154.228 26.7693 161.218 33.0797 167.514 43.0876C182.303 66.5961 183.574 99.3455 172.542 125.748Z" fill="url(#paint0_linear_870_120)"/>
<path d="M1.0045 138.311C3.89536 125.953 13.3465 116.252 25.3786 113.285C33.6508 111.245 41.5874 112.34 48.2958 115.648C50.5241 116.745 53.1646 115.504 53.7813 113.049C59.7112 89.4409 80.581 72 105.419 72C134.87 72 158.746 96.5228 158.746 126.772C158.746 127.575 158.73 128.672 158.716 129.727C158.82 131.989 159.782 132.949 161.218 133.19C172.756 134.424 181.825 144.195 182.328 156.246C182.906 170.082 171.941 181.547 158.457 181.547H33.7294C12.3772 181.541 -4.3401 161.164 1.0045 138.311Z" fill="url(#paint1_linear_870_120)"/>
<path d="M10.6646 142.942C13.2455 131.908 21.6841 123.247 32.4277 120.598C39.8138 118.776 46.8997 119.753 52.8892 122.704C54.8756 123.683 57.2363 122.573 57.7868 120.384C63.0816 99.3049 81.7159 83.7324 103.893 83.7324C130.189 83.7324 151.507 105.628 151.507 132.637C151.507 133.354 151.493 134.333 151.48 135.273C151.573 137.293 152.432 138.15 153.714 138.365C164.017 139.467 172.113 148.191 172.563 158.95C173.079 171.305 163.289 181.541 151.249 181.541H39.8832C20.819 181.541 5.89213 163.347 10.6646 142.942Z" fill="url(#paint2_linear_870_120)"/>
<path d="M25.1467 176.223C25.1492 176.71 25.3439 177.177 25.6885 177.521C26.0331 177.866 26.4996 178.06 26.9864 178.061H126.473C126.959 178.06 127.426 177.866 127.77 177.521C128.115 177.177 128.31 176.71 128.312 176.223L129.14 118.952C129.14 117.939 127.949 115.962 125.767 116.111L28.5377 113.591C27.9097 113.574 27.285 113.686 26.7014 113.918C26.1178 114.151 25.5875 114.5 25.1426 114.944C24.6977 115.388 24.3475 115.918 24.1133 116.502C23.8792 117.086 23.7659 117.712 23.7803 118.341L25.1467 176.223Z" fill="url(#paint3_linear_870_120)"/>
<path d="M26.9628 174.456C26.9642 174.918 27.148 175.361 27.4742 175.687C27.8003 176.014 28.2422 176.198 28.7035 176.2H124.075C124.536 176.198 124.978 176.014 125.305 175.687C125.631 175.361 125.815 174.918 125.816 174.456L126.597 122.465C126.505 119.336 123.767 118.212 122.107 118.278L28.9198 115.774C28.4784 115.762 28.0393 115.841 27.6291 116.004C27.2189 116.168 26.8462 116.414 26.5336 116.726C26.221 117.038 25.975 117.411 25.8106 117.821C25.6462 118.232 25.5669 118.672 25.5773 119.114L26.9628 174.456Z" fill="white"/>
<path d="M124.783 149.757C124.749 149.756 124.716 149.749 124.684 149.736C124.653 149.722 124.625 149.703 124.602 149.678C124.578 149.654 124.56 149.625 124.548 149.593C124.535 149.562 124.53 149.528 124.531 149.494L124.592 145.278C124.593 145.211 124.62 145.147 124.668 145.1C124.716 145.052 124.78 145.026 124.847 145.026C124.881 145.026 124.915 145.033 124.946 145.047C124.977 145.06 125.005 145.08 125.029 145.104C125.052 145.129 125.071 145.157 125.083 145.189C125.095 145.221 125.101 145.255 125.1 145.288L125.039 149.505C125.038 149.572 125.01 149.636 124.962 149.684C124.914 149.731 124.85 149.757 124.783 149.757Z" fill="white"/>
<path d="M124.934 139.424H124.93C124.897 139.424 124.864 139.417 124.833 139.404C124.802 139.39 124.774 139.371 124.751 139.347C124.728 139.323 124.709 139.294 124.697 139.263C124.685 139.232 124.679 139.199 124.679 139.165L124.916 123.015C124.911 122.056 124.621 121.289 124.052 120.744C122.99 119.724 121.304 119.777 121.233 119.78L91.4499 118.98C91.3822 118.978 91.318 118.949 91.2715 118.9C91.2249 118.851 91.1997 118.785 91.2015 118.717C91.201 118.683 91.2075 118.649 91.2207 118.618C91.2338 118.587 91.2533 118.558 91.278 118.535C91.3026 118.512 91.3319 118.494 91.3638 118.482C91.3958 118.471 91.4298 118.466 91.4637 118.468L121.23 119.269C121.415 119.257 123.21 119.227 124.406 120.374C125.078 121.02 125.421 121.909 125.427 123.017L125.189 139.173C125.188 139.24 125.161 139.304 125.113 139.351C125.066 139.398 125.001 139.424 124.934 139.424Z" fill="white"/>
<g clip-path="url(#clip0_870_120)">
<path d="M165.92 81.07L134.46 61.97L104.01 81.07C103.23 120.17 135.37 137.46 135.37 137.46C166.85 117.54 165.92 81.07 165.92 81.07Z" fill="#FFAD21"/>
<path d="M160.2 83.2699L134.55 67.1899L109.69 83.2699C109.06 116.27 135.25 130.8 135.25 130.8C160.96 113.97 160.2 83.2699 160.2 83.2699Z" stroke="#E6911E" stroke-miterlimit="10"/>
<path opacity="0.11" d="M157.11 114.31C151.76 113.7 145.43 112.57 139.2 108.72C123.87 99.2499 122.54 81.6399 119.46 71.3999L104.01 81.0699C103.23 120.17 135.37 137.46 135.37 137.46C144.476 131.728 151.961 123.758 157.11 114.31Z" fill="white"/>
<path d="M136.67 82.47H133.8C131.155 82.47 129.01 84.6145 129.01 87.26V95.5C129.01 98.1454 131.155 100.29 133.8 100.29H136.67C139.315 100.29 141.46 98.1454 141.46 95.5V87.26C141.46 84.6145 139.315 82.47 136.67 82.47Z" stroke="white" stroke-width="2" stroke-miterlimit="10"/>
<path d="M143.48 91.48H126.3C124.113 91.48 122.34 93.2529 122.34 95.44V108.72C122.34 110.907 124.113 112.68 126.3 112.68H143.48C145.667 112.68 147.44 110.907 147.44 108.72V95.44C147.44 93.2529 145.667 91.48 143.48 91.48Z" fill="white"/>
<path d="M135.05 108.4C138.507 108.4 141.31 105.597 141.31 102.14C141.31 98.6826 138.507 95.8799 135.05 95.8799C131.593 95.8799 128.79 98.6826 128.79 102.14C128.79 105.597 131.593 108.4 135.05 108.4Z" fill="#FFAD21"/>
<path d="M135.04 103.62C136.388 103.62 137.48 102.528 137.48 101.18C137.48 99.8324 136.388 98.74 135.04 98.74C133.693 98.74 132.6 99.8324 132.6 101.18C132.6 102.528 133.693 103.62 135.04 103.62Z" fill="white"/>
<path d="M135.04 101.18V105.02" stroke="white" stroke-width="2" stroke-miterlimit="10" stroke-linecap="round"/>
<path d="M127.78 91.1799H130.17" stroke="#FFAD21" stroke-width="0.5" stroke-miterlimit="10"/>
<path d="M140.25 91.1799H142.64" stroke="#FFAD21" stroke-width="0.5" stroke-miterlimit="10"/>
</g>
<path d="M17.4461 182.818L133.995 182.818C134.199 182.818 134.365 182.652 134.365 182.447V178.157C134.365 177.952 134.199 177.786 133.995 177.786H17.4461C17.2416 177.786 17.0758 177.952 17.0758 178.157V182.447C17.0758 182.652 17.2416 182.818 17.4461 182.818Z" fill="url(#paint4_linear_870_120)"/>
<path d="M68.3387 173.664H31.6192C30.969 173.664 30.3454 173.405 29.8856 172.944C29.4258 172.484 29.1675 171.859 29.1675 171.208V123.194C29.1675 122.864 29.2341 122.537 29.3632 122.233C29.4924 121.929 29.6814 121.654 29.9191 121.425C30.1568 121.196 30.4381 121.017 30.7464 120.899C31.0546 120.782 31.3834 120.727 31.713 120.74L68.4337 122.148C69.0675 122.172 69.6674 122.441 70.1074 122.898C70.5474 123.356 70.7932 123.966 70.7931 124.602V171.208C70.7931 171.53 70.7297 171.85 70.6064 172.148C70.483 172.446 70.3022 172.717 70.0742 172.945C69.8463 173.173 69.5756 173.354 69.2778 173.478C68.98 173.601 68.6609 173.664 68.3387 173.664Z" fill="#E0E0E0"/>
<path d="M61.0351 139.575H36.7121C36.5192 139.575 36.3628 139.732 36.3628 139.925V142.463C36.3628 142.657 36.5192 142.813 36.7121 142.813H61.0351C61.228 142.813 61.3844 142.657 61.3844 142.463V139.925C61.3844 139.732 61.228 139.575 61.0351 139.575Z" fill="#F0BF4C"/>
<path d="M61.0844 144.746H36.7614C36.5685 144.746 36.4121 144.903 36.4121 145.096V147.634C36.4121 147.827 36.5685 147.984 36.7614 147.984H61.0844C61.2773 147.984 61.4337 147.827 61.4337 147.634V145.096C61.4337 144.903 61.2773 144.746 61.0844 144.746Z" fill="#F0BF4C"/>
<path d="M61.2304 150.026H36.9074C36.7145 150.026 36.5581 150.182 36.5581 150.376V152.914C36.5581 153.107 36.7145 153.264 36.9074 153.264H61.2304C61.4233 153.264 61.5797 153.107 61.5797 152.914V150.376C61.5797 150.182 61.4233 150.026 61.2304 150.026Z" fill="#F0BF4C"/>
<path d="M61.2802 155.197H36.9572C36.7643 155.197 36.6079 155.353 36.6079 155.546V158.085C36.6079 158.278 36.7643 158.434 36.9572 158.434H61.2802C61.4731 158.434 61.6295 158.278 61.6295 158.085V155.546C61.6295 155.353 61.4731 155.197 61.2802 155.197Z" fill="#F0BF4C"/>
<path d="M114.376 139.572H79.1013C78.9083 139.572 78.752 139.728 78.752 139.921V142.46C78.752 142.653 78.9083 142.809 79.1013 142.809H114.376C114.569 142.809 114.726 142.653 114.726 142.46V139.921C114.726 139.728 114.569 139.572 114.376 139.572Z" fill="#006BE8"/>
<path d="M114.488 144.746H79.2128C79.0199 144.746 78.8635 144.903 78.8635 145.096V147.634C78.8635 147.827 79.0199 147.984 79.2128 147.984H114.488C114.681 147.984 114.837 147.827 114.837 147.634V145.096C114.837 144.903 114.681 144.746 114.488 144.746Z" fill="#006BE8"/>
<path d="M99.8303 150.026H79.2128C79.0199 150.026 78.8635 150.182 78.8635 150.376V152.914C78.8635 153.107 79.0199 153.264 79.2128 153.264H99.8303C100.023 153.264 100.18 153.107 100.18 152.914V150.376C100.18 150.182 100.023 150.026 99.8303 150.026Z" fill="#006BE8"/>
<path d="M97.8491 127.503H97.3012C97.1706 127.503 97.0454 127.451 96.9531 127.358C96.8608 127.266 96.809 127.14 96.809 127.01V125.131C96.8088 124.809 96.6808 124.5 96.4531 124.272C96.2253 124.044 95.9166 123.915 95.5946 123.915H92.1997C91.8778 123.915 91.569 124.044 91.3412 124.272C91.1135 124.5 90.9855 124.809 90.9853 125.131V127.008C90.9853 127.138 90.9335 127.264 90.8412 127.356C90.7489 127.449 90.6237 127.501 90.4931 127.501H89.9452C89.8145 127.501 89.6892 127.449 89.5967 127.357C89.5043 127.264 89.4524 127.139 89.4524 127.008V125.131C89.4524 124.77 89.5235 124.412 89.6615 124.078C89.7996 123.744 90.002 123.441 90.2571 123.186C90.5122 122.93 90.8151 122.727 91.1484 122.589C91.4817 122.451 91.839 122.38 92.1997 122.38H95.5946C95.9553 122.38 96.3126 122.451 96.6459 122.589C96.9792 122.727 97.2821 122.93 97.5372 123.186C97.7923 123.441 97.9947 123.744 98.1328 124.078C98.2709 124.412 98.3419 124.77 98.3419 125.131V127.008C98.3422 127.073 98.3296 127.137 98.305 127.197C98.2803 127.257 98.2441 127.312 98.1983 127.358C98.1525 127.404 98.0981 127.441 98.0381 127.466C97.9782 127.49 97.914 127.503 97.8491 127.503Z" fill="#006BE8"/>
<path d="M98.5288 127.946H89.2657C88.9931 127.946 88.7317 128.055 88.539 128.248C88.3463 128.441 88.238 128.703 88.238 128.976V136.095C88.238 136.368 88.3463 136.63 88.539 136.823C88.7317 137.016 88.9931 137.125 89.2657 137.125H98.5288C98.8013 137.125 99.0627 137.016 99.2554 136.823C99.4481 136.63 99.5564 136.368 99.5564 136.095V128.976C99.5564 128.703 99.4481 128.441 99.2554 128.248C99.0627 128.055 98.8014 127.946 98.5288 127.946ZM95.2224 134.829C95.2359 134.885 95.2365 134.943 95.2241 135C95.2118 135.056 95.1869 135.109 95.1513 135.154C95.1156 135.2 95.0702 135.236 95.0184 135.261C94.9665 135.287 94.9097 135.3 94.8521 135.3H92.9449C92.8874 135.3 92.8305 135.287 92.7787 135.261C92.7269 135.236 92.6814 135.2 92.6458 135.154C92.6101 135.109 92.5852 135.056 92.5729 135C92.5606 134.943 92.5612 134.885 92.5747 134.829L93.0203 132.97C92.6975 132.777 92.4467 132.484 92.3066 132.134C92.1664 131.785 92.1446 131.399 92.2444 131.036C92.3443 130.673 92.5603 130.353 92.8594 130.125C93.1584 129.897 93.5239 129.773 93.8998 129.773C94.2757 129.773 94.6413 129.897 94.9403 130.125C95.2393 130.353 95.4554 130.673 95.5552 131.036C95.6551 131.399 95.6333 131.785 95.4931 132.134C95.3529 132.484 95.1022 132.777 94.7793 132.97L95.2224 134.829Z" fill="#006BE8"/>
<path d="M124.812 44.3677C124.775 44.368 124.738 44.3584 124.706 44.3402C124.654 44.3117 124.617 44.264 124.601 44.2076C124.584 44.1512 124.591 44.0908 124.62 44.0395C124.762 43.7834 124.9 43.5256 125.033 43.2661C125.06 43.2139 125.107 43.1745 125.162 43.1565C125.218 43.1386 125.279 43.1437 125.331 43.1706C125.383 43.1975 125.423 43.244 125.441 43.3C125.458 43.3559 125.453 43.4167 125.427 43.469C125.291 43.7316 125.151 43.9942 125.006 44.2568C124.987 44.291 124.959 44.3193 124.925 44.3388C124.89 44.3583 124.852 44.3683 124.812 44.3677Z" fill="#91B3FA"/>
<path d="M99.0019 59.5858C98.8709 59.5858 98.7398 59.5858 98.6087 59.5858C98.5523 59.5827 98.4992 59.5581 98.4604 59.517C98.4215 59.4759 98.3999 59.4214 98.3999 59.3648C98.3999 59.3083 98.4215 59.2538 98.4604 59.2127C98.4992 59.1716 98.5523 59.147 98.6087 59.1439C99.1795 59.1518 99.7556 59.1439 100.325 59.1164C100.383 59.1144 100.44 59.1353 100.483 59.1747C100.526 59.2141 100.552 59.2688 100.556 59.3271C100.558 59.3856 100.538 59.4428 100.498 59.4861C100.459 59.5294 100.404 59.5553 100.345 59.5582C99.9057 59.5759 99.4509 59.5858 99.0019 59.5858ZM95.8089 59.4144H95.7847C95.2086 59.3488 94.6273 59.2713 94.0584 59.1761C94.0287 59.1726 94 59.1631 93.9741 59.1481C93.9482 59.1332 93.9256 59.1132 93.9076 59.0892C93.8897 59.0652 93.8768 59.0379 93.8697 59.0088C93.8626 58.9797 93.8615 58.9494 93.8664 58.9199C93.8714 58.8904 93.8822 58.8621 93.8984 58.8369C93.9145 58.8117 93.9356 58.79 93.9604 58.7732C93.9851 58.7564 94.013 58.7448 94.0424 58.7392C94.0717 58.7335 94.1019 58.7338 94.1312 58.7402C94.6922 58.8341 95.2643 58.9135 95.8351 58.9746C95.8912 58.9807 95.9428 59.0081 95.9794 59.0511C96.0159 59.0942 96.0346 59.1496 96.0317 59.206C96.0288 59.2624 96.0044 59.3156 95.9636 59.3546C95.9228 59.3936 95.8686 59.4155 95.8122 59.4157L95.8089 59.4144ZM103.143 59.2956C103.087 59.2948 103.034 59.2733 102.994 59.2352C102.954 59.1971 102.929 59.1452 102.925 59.0898C102.921 59.0345 102.938 58.9797 102.973 58.9364C103.008 58.893 103.057 58.8642 103.112 58.8557C103.677 58.7763 104.246 58.6785 104.805 58.5662C104.834 58.5589 104.864 58.5576 104.893 58.5624C104.923 58.5671 104.951 58.5778 104.976 58.5937C105.001 58.6097 105.023 58.6307 105.04 58.6553C105.057 58.6799 105.069 58.7078 105.075 58.7371C105.081 58.7664 105.081 58.7967 105.075 58.826C105.068 58.8553 105.056 58.883 105.039 58.9075C105.022 58.9321 105 58.9529 104.975 58.9687C104.95 58.9845 104.921 58.995 104.892 58.9995C104.325 59.1137 103.747 59.2129 103.173 59.2936L103.143 59.2956ZM91.3458 58.5813C91.3265 58.5813 91.3074 58.5786 91.2888 58.5734C90.7291 58.4244 90.1674 58.2563 89.6189 58.0738C89.5914 58.0647 89.566 58.0503 89.544 58.0313C89.5221 58.0124 89.5041 57.9893 89.4911 57.9634C89.4781 57.9375 89.4703 57.9093 89.4681 57.8803C89.466 57.8514 89.4696 57.8223 89.4786 57.7948C89.4877 57.7673 89.5021 57.7418 89.521 57.7198C89.54 57.6978 89.563 57.6798 89.5889 57.6668C89.6147 57.6537 89.6429 57.6459 89.6718 57.6438C89.7007 57.6416 89.7297 57.6452 89.7572 57.6543C90.2985 57.8335 90.8517 57.9996 91.4022 58.1467C91.4536 58.1608 91.4982 58.1931 91.5277 58.2375C91.5572 58.282 91.5697 58.3356 91.5628 58.3886C91.556 58.4415 91.5302 58.4902 91.4903 58.5256C91.4504 58.561 91.3991 58.5808 91.3458 58.5813ZM107.572 58.3187C107.519 58.3188 107.468 58.2999 107.427 58.2653C107.387 58.2308 107.361 58.183 107.353 58.1306C107.345 58.0782 107.356 58.0248 107.384 57.9799C107.412 57.935 107.456 57.9017 107.506 57.8861C108.053 57.7206 108.601 57.5361 109.135 57.3392C109.189 57.3213 109.248 57.3252 109.3 57.3501C109.351 57.375 109.391 57.419 109.411 57.4728C109.431 57.5266 109.429 57.586 109.406 57.6384C109.383 57.6909 109.34 57.7324 109.287 57.7541C108.745 57.951 108.189 58.1408 107.635 58.3095C107.615 58.3145 107.595 58.3167 107.574 58.3161L107.572 58.3187ZM87.0649 57.0759C87.0342 57.076 87.0039 57.0697 86.9758 57.0575C86.4456 56.8232 85.916 56.5704 85.4029 56.3065C85.3507 56.2797 85.3113 56.2332 85.2934 56.1773C85.2755 56.1214 85.2804 56.0607 85.3072 56.0084C85.3339 55.9562 85.3803 55.9167 85.4361 55.8988C85.4919 55.8808 85.5526 55.8858 85.6047 55.9126C86.11 56.1752 86.6317 56.4214 87.154 56.6518C87.2003 56.6724 87.238 56.7082 87.2611 56.7533C87.2841 56.7984 87.2909 56.8501 87.2805 56.8997C87.2701 56.9492 87.243 56.9937 87.2037 57.0257C87.1645 57.0576 87.1155 57.0751 87.0649 57.0753V57.0759ZM111.8 56.6682C111.75 56.668 111.702 56.6509 111.663 56.6196C111.624 56.5884 111.597 56.5449 111.586 56.4962C111.575 56.4475 111.58 56.3965 111.602 56.3514C111.623 56.3063 111.66 56.2699 111.704 56.2481C112.218 56.0005 112.73 55.734 113.229 55.4556C113.28 55.4271 113.34 55.4201 113.397 55.4361C113.453 55.4522 113.501 55.49 113.529 55.5413C113.558 55.5926 113.565 55.6531 113.549 55.7096C113.533 55.766 113.495 55.8138 113.444 55.8423C112.937 56.1246 112.417 56.3951 111.895 56.6466C111.866 56.6597 111.835 56.6662 111.803 56.6656L111.8 56.6682ZM83.0684 54.9271C83.026 54.9273 82.9846 54.915 82.9491 54.8917C82.4622 54.5792 81.9779 54.2477 81.5073 53.9069C81.4838 53.8897 81.464 53.868 81.4489 53.8431C81.4339 53.8181 81.4238 53.7905 81.4194 53.7617C81.415 53.7329 81.4163 53.7035 81.4232 53.6752C81.4301 53.6469 81.4426 53.6202 81.4598 53.5967C81.477 53.5732 81.4987 53.5534 81.5235 53.5383C81.5484 53.5231 81.576 53.5131 81.6048 53.5087C81.6335 53.5043 81.6629 53.5056 81.6911 53.5125C81.7194 53.5194 81.746 53.5319 81.7695 53.5491C82.2282 53.8853 82.706 54.2115 83.1864 54.5201C83.2264 54.546 83.2569 54.5842 83.2735 54.6289C83.2901 54.6736 83.2918 54.7225 83.2784 54.7682C83.265 54.814 83.2372 54.8542 83.1991 54.8828C83.161 54.9115 83.1147 54.927 83.0671 54.9271H83.0684ZM115.724 54.3836C115.677 54.3836 115.631 54.3685 115.593 54.3406C115.555 54.3127 115.527 54.2733 115.513 54.2283C115.499 54.1833 115.5 54.135 115.515 54.0904C115.53 54.0458 115.559 54.0073 115.598 53.9805C116.067 53.6561 116.534 53.3134 116.983 52.9622C117.029 52.9256 117.088 52.9087 117.146 52.9152C117.205 52.9218 117.258 52.9514 117.294 52.9973C117.331 53.0433 117.348 53.1019 117.341 53.1604C117.335 53.2188 117.305 53.2722 117.259 53.3088C116.801 53.6653 116.33 54.0133 115.854 54.3429C115.816 54.3682 115.772 54.3815 115.726 54.3809L115.724 54.3836ZM79.4507 52.1862C79.397 52.1861 79.345 52.1666 79.3046 52.1311C78.8727 51.7477 78.4454 51.3432 78.0338 50.9362C78.0116 50.9161 77.9937 50.8917 77.9811 50.8645C77.9686 50.8373 77.9617 50.8078 77.9609 50.7778C77.9601 50.7479 77.9654 50.718 77.9764 50.6902C77.9875 50.6623 78.0041 50.637 78.0252 50.6158C78.0463 50.5945 78.0715 50.5778 78.0993 50.5666C78.127 50.5554 78.1568 50.55 78.1867 50.5507C78.2166 50.5514 78.2461 50.5581 78.2733 50.5706C78.3006 50.583 78.325 50.6009 78.3451 50.623C78.7501 51.0261 79.1715 51.4227 79.5975 51.7995C79.631 51.8293 79.6547 51.8686 79.6654 51.9122C79.6761 51.9558 79.6733 52.0016 79.6573 52.0436C79.6414 52.0856 79.6131 52.1217 79.5762 52.1471C79.5393 52.1726 79.4955 52.1862 79.4507 52.1862ZM119.254 51.5231C119.209 51.5232 119.166 51.51 119.13 51.4851C119.093 51.4603 119.065 51.425 119.048 51.3838C119.032 51.3426 119.028 51.2975 119.038 51.2542C119.047 51.2109 119.069 51.1715 119.102 51.141C119.517 50.7471 119.926 50.3394 120.317 49.9252C120.357 49.8852 120.412 49.8626 120.469 49.8621C120.526 49.8615 120.581 49.8831 120.623 49.9223C120.664 49.9615 120.689 50.0153 120.692 50.0723C120.695 50.1294 120.675 50.1854 120.638 50.2285C120.241 50.6493 119.826 51.0642 119.405 51.4627C119.364 51.4998 119.311 51.5204 119.256 51.5205L119.254 51.5231ZM76.2912 48.9233C76.2587 48.9232 76.2267 48.916 76.1974 48.9022C76.1681 48.8883 76.1421 48.8682 76.1214 48.8432C75.7518 48.3988 75.39 47.9366 75.0453 47.4698C75.0128 47.4225 75 47.3644 75.0095 47.3078C75.019 47.2512 75.0501 47.2005 75.0961 47.1665C75.1422 47.1324 75.1998 47.1176 75.2566 47.1252C75.3133 47.1328 75.365 47.1622 75.4005 47.2072C75.74 47.6668 76.0965 48.1224 76.4609 48.5609C76.4876 48.5933 76.5046 48.6325 76.5099 48.6742C76.5152 48.7158 76.5086 48.7581 76.4908 48.7961C76.473 48.8341 76.4448 48.8662 76.4094 48.8887C76.3741 48.9113 76.3331 48.9233 76.2912 48.9233ZM122.307 48.1618C122.258 48.1619 122.211 48.1455 122.172 48.1152C122.149 48.0973 122.13 48.0751 122.116 48.0499C122.101 48.0246 122.092 47.9968 122.089 47.9679C122.085 47.9391 122.087 47.9098 122.095 47.8818C122.102 47.8538 122.116 47.8276 122.133 47.8046C122.485 47.3523 122.826 46.8855 123.148 46.4174C123.182 46.3722 123.233 46.342 123.289 46.333C123.345 46.324 123.402 46.3369 123.449 46.369C123.495 46.4012 123.528 46.4501 123.54 46.5057C123.552 46.5612 123.541 46.6192 123.512 46.6676C123.184 47.1435 122.839 47.6175 122.481 48.0764C122.461 48.1022 122.435 48.123 122.405 48.1374C122.375 48.1517 122.343 48.1591 122.31 48.1592L122.307 48.1618ZM73.6624 45.218C73.6243 45.2179 73.5868 45.2079 73.5536 45.1891C73.5204 45.1702 73.4927 45.1431 73.473 45.1103C73.1742 44.6114 72.8871 44.0993 72.6211 43.5872C72.594 43.535 72.5888 43.4741 72.6066 43.418C72.6243 43.3619 72.6636 43.3152 72.7158 43.2882C72.7679 43.2611 72.8286 43.2559 72.8846 43.2737C72.9406 43.2914 72.9873 43.3308 73.0143 43.383C73.2764 43.8866 73.5602 44.3914 73.8545 44.8832C73.8747 44.9166 73.8857 44.9549 73.8863 44.994C73.8869 45.0332 73.8771 45.0718 73.8578 45.1058C73.8386 45.1399 73.8107 45.1683 73.7769 45.188C73.7432 45.2077 73.7048 45.218 73.6657 45.218H73.6624ZM71.6308 41.1515C71.5868 41.1515 71.5438 41.1382 71.5074 41.1136C71.471 41.0889 71.4427 41.0539 71.4263 41.013C71.2081 40.4747 71.0036 39.9245 70.8181 39.377C70.8017 39.3221 70.8072 39.2629 70.8335 39.212C70.8597 39.1611 70.9047 39.1223 70.9589 39.104C71.0131 39.0856 71.0723 39.089 71.124 39.1135C71.1757 39.1379 71.216 39.1816 71.2362 39.2352C71.4184 39.7742 71.6203 40.3164 71.8353 40.8469C71.8489 40.8805 71.8541 40.9169 71.8504 40.953C71.8467 40.9891 71.8342 41.0237 71.814 41.0537C71.7938 41.0838 71.7665 41.1085 71.7346 41.1255C71.7026 41.1426 71.667 41.1515 71.6308 41.1515Z" fill="#91B3FA"/>
<path d="M70.2564 36.8054C70.2067 36.8054 70.1584 36.7886 70.1194 36.7578C70.0804 36.7269 70.0529 36.6838 70.0414 36.6353C69.9741 36.3456 69.9108 36.0556 69.8513 35.7655C69.8397 35.7081 69.8513 35.6484 69.8835 35.5996C69.9158 35.5508 69.9661 35.5168 70.0234 35.5052C70.0807 35.4935 70.1402 35.5051 70.1889 35.5374C70.2377 35.5697 70.2716 35.6201 70.2832 35.6775C70.3413 35.9637 70.404 36.2482 70.4713 36.531C70.4836 36.5876 70.4732 36.6467 70.4425 36.6958C70.4117 36.7449 70.363 36.78 70.3068 36.7936C70.2904 36.7991 70.2735 36.8031 70.2564 36.8054Z" fill="#91B3FA"/>
<path d="M73.9971 14.2666C73.9577 14.2665 73.919 14.2559 73.8851 14.2358C73.8511 14.2157 73.8232 14.1869 73.8041 14.1523C73.7851 14.1177 73.7756 14.0787 73.7767 14.0392C73.7778 13.9997 73.7894 13.9613 73.8103 13.9278C73.9685 13.677 74.1302 13.4282 74.2953 13.1814C74.3288 13.1346 74.3791 13.1028 74.4356 13.0926C74.4921 13.0824 74.5504 13.0947 74.598 13.1268C74.6457 13.1589 74.679 13.2083 74.6908 13.2646C74.7027 13.3208 74.6923 13.3795 74.6617 13.4282C74.4978 13.6711 74.3386 13.9162 74.1839 14.1635C74.1639 14.195 74.1364 14.221 74.1037 14.239C74.0711 14.2571 74.0344 14.2665 73.9971 14.2666Z" fill="#91B3FA"/>
<path d="M127.323 21.6707C127.275 21.6708 127.228 21.6553 127.19 21.6267C127.152 21.598 127.124 21.5577 127.111 21.5119C126.942 20.9354 126.753 20.3577 126.549 19.7924C126.538 19.7649 126.533 19.7355 126.534 19.706C126.535 19.6764 126.542 19.6473 126.554 19.6204C126.566 19.5935 126.584 19.5693 126.605 19.5493C126.627 19.5292 126.652 19.5138 126.68 19.5037C126.708 19.4937 126.737 19.4894 126.767 19.491C126.796 19.4926 126.825 19.5001 126.852 19.5131C126.878 19.526 126.902 19.5442 126.921 19.5665C126.941 19.5887 126.955 19.6147 126.965 19.6428C127.172 20.2152 127.363 20.8022 127.534 21.3871C127.542 21.415 127.545 21.4442 127.542 21.473C127.539 21.5019 127.53 21.5299 127.516 21.5554C127.503 21.5809 127.484 21.6034 127.461 21.6216C127.439 21.6398 127.413 21.6534 127.385 21.6615C127.365 21.6678 127.344 21.6709 127.323 21.6707ZM125.613 17.2064C125.572 17.2062 125.531 17.1944 125.496 17.1723C125.462 17.1503 125.434 17.1189 125.416 17.0817C125.154 16.5394 124.875 15.9991 124.583 15.4765C124.556 15.4255 124.55 15.3659 124.567 15.3106C124.583 15.2553 124.62 15.2085 124.671 15.1803C124.721 15.1522 124.78 15.1448 124.836 15.1598C124.891 15.1747 124.939 15.2109 124.968 15.2605C125.265 15.791 125.549 16.3392 125.813 16.89C125.826 16.9161 125.833 16.9445 125.835 16.9734C125.836 17.0024 125.832 17.0314 125.823 17.0588C125.813 17.0861 125.798 17.1114 125.779 17.133C125.76 17.1546 125.736 17.1722 125.71 17.1848C125.68 17.2004 125.647 17.2087 125.613 17.2091V17.2064ZM123.203 13.0822C123.168 13.0823 123.133 13.0737 123.101 13.0573C123.07 13.0408 123.042 13.0169 123.022 12.9877C122.679 12.4966 122.315 12.0088 121.942 11.5388C121.907 11.4928 121.891 11.4348 121.898 11.3772C121.905 11.3196 121.934 11.2671 121.979 11.231C122.025 11.1948 122.082 11.178 122.14 11.1839C122.197 11.1899 122.25 11.2183 122.287 11.263C122.666 11.741 123.036 12.236 123.384 12.7343C123.407 12.7674 123.42 12.8062 123.423 12.8465C123.426 12.8868 123.417 12.927 123.399 12.9629C123.38 12.9987 123.352 13.0288 123.318 13.0498C123.283 13.0709 123.244 13.0821 123.203 13.0822ZM76.2484 11.1527C76.2066 11.1527 76.1656 11.1407 76.1303 11.1182C76.095 11.0957 76.0668 11.0636 76.0491 11.0257C76.0314 10.9877 76.0248 10.9455 76.0301 10.9039C76.0355 10.8624 76.0525 10.8232 76.0793 10.791C76.466 10.3236 76.8743 9.86072 77.2918 9.41232C77.3324 9.37216 77.387 9.34933 77.4441 9.34863C77.5012 9.34793 77.5564 9.36941 77.598 9.40856C77.6396 9.44772 77.6645 9.5015 77.6674 9.55863C77.6703 9.61576 77.651 9.67179 77.6135 9.71497C77.202 10.1542 76.8002 10.6105 76.4188 11.0707C76.3984 11.0966 76.3726 11.1176 76.3431 11.1323C76.3137 11.1469 76.2813 11.1548 76.2484 11.1554V11.1527ZM120.163 9.39919C120.133 9.39936 120.104 9.39365 120.077 9.38237C120.049 9.3711 120.025 9.3545 120.004 9.33354C119.588 8.90418 119.152 8.48007 118.709 8.07566C118.687 8.05613 118.67 8.03255 118.658 8.00626C118.645 7.97997 118.638 7.95149 118.637 7.92244C118.635 7.89339 118.639 7.86435 118.649 7.83696C118.659 7.80957 118.674 7.78438 118.694 7.76283C118.713 7.74128 118.737 7.72378 118.763 7.71134C118.789 7.6989 118.817 7.69176 118.846 7.69033C118.875 7.68889 118.904 7.6932 118.932 7.70299C118.959 7.71278 118.984 7.72787 119.006 7.7474C119.457 8.15904 119.899 8.5884 120.321 9.02432C120.362 9.06649 120.384 9.12307 120.383 9.18166C120.382 9.24024 120.358 9.29604 120.316 9.33682C120.296 9.35724 120.272 9.37349 120.246 9.38465C120.219 9.3958 120.191 9.40164 120.163 9.40182V9.39919ZM79.5797 7.7323C79.5349 7.73209 79.4912 7.71824 79.4545 7.69258C79.4177 7.66693 79.3896 7.63069 79.3739 7.58867C79.3582 7.54665 79.3556 7.50083 79.3665 7.45731C79.3774 7.41378 79.4012 7.3746 79.4348 7.34496C79.8936 6.94317 80.3707 6.55123 80.8511 6.17899C80.8741 6.16123 80.9003 6.14818 80.9283 6.14058C80.9564 6.13298 80.9856 6.13098 81.0144 6.1347C81.0432 6.13842 81.0709 6.14778 81.0961 6.16225C81.1213 6.17672 81.1434 6.19602 81.1611 6.21904C81.1788 6.24206 81.1918 6.26835 81.1994 6.29641C81.207 6.32448 81.209 6.35376 81.2053 6.3826C81.2016 6.41143 81.1922 6.43926 81.1778 6.46447C81.1634 6.48969 81.1441 6.51181 81.1211 6.52957C80.6473 6.89525 80.1774 7.28193 79.7252 7.67781C79.6853 7.71408 79.6335 7.73441 79.5797 7.73493V7.7323ZM116.577 6.2499C116.53 6.24971 116.484 6.23454 116.446 6.20656C115.965 5.84811 115.467 5.50081 114.965 5.17387C114.918 5.14073 114.886 5.09089 114.876 5.03477C114.865 4.97865 114.877 4.9206 114.908 4.87277C114.939 4.82493 114.987 4.79102 115.043 4.77813C115.099 4.76524 115.157 4.77436 115.206 4.8036C115.715 5.13579 116.221 5.48834 116.709 5.85402C116.746 5.88177 116.774 5.9205 116.788 5.96474C116.802 6.00897 116.801 6.05646 116.787 6.10051C116.772 6.14456 116.745 6.18294 116.707 6.21022C116.67 6.2375 116.625 6.25229 116.578 6.25252L116.577 6.2499ZM83.4149 4.88632C83.367 4.88628 83.3203 4.87061 83.282 4.84166C83.2437 4.81271 83.2159 4.77206 83.2027 4.72586C83.1896 4.67965 83.1918 4.63041 83.209 4.58557C83.2262 4.54073 83.2576 4.50273 83.2983 4.47731C83.8147 4.15562 84.3469 3.84509 84.8836 3.55819C84.9092 3.54291 84.9376 3.53296 84.9671 3.52895C84.9966 3.52493 85.0266 3.52693 85.0553 3.53482C85.084 3.54272 85.1108 3.55635 85.1341 3.57489C85.1574 3.59343 85.1768 3.6165 85.191 3.64272C85.2052 3.66893 85.2139 3.69775 85.2167 3.72744C85.2195 3.75713 85.2163 3.78708 85.2072 3.81549C85.1981 3.8439 85.1835 3.87017 85.164 3.89275C85.1445 3.91532 85.1207 3.93372 85.094 3.94685C84.5658 4.23243 84.0402 4.53771 83.5316 4.85546C83.4962 4.87749 83.4553 4.88909 83.4136 4.88894L83.4149 4.88632ZM112.532 3.72232C112.497 3.72232 112.462 3.71376 112.431 3.69737C111.899 3.42295 111.351 3.161 110.802 2.91941C110.749 2.89581 110.707 2.85188 110.686 2.79728C110.665 2.74268 110.666 2.68187 110.689 2.62824C110.713 2.57461 110.757 2.53255 110.811 2.51131C110.866 2.49008 110.927 2.4914 110.98 2.51499C111.537 2.75987 112.094 3.02576 112.634 3.30281C112.677 3.32565 112.712 3.36257 112.733 3.40765C112.753 3.45274 112.758 3.50339 112.746 3.55149C112.735 3.5996 112.707 3.64238 112.668 3.67299C112.629 3.70361 112.581 3.72028 112.532 3.72035V3.72232ZM87.6559 2.70013C87.6047 2.70041 87.5551 2.68285 87.5155 2.65048C87.4759 2.6181 87.4487 2.57291 87.4387 2.52268C87.4287 2.47244 87.4365 2.42029 87.4607 2.37516C87.4849 2.33004 87.524 2.29475 87.5713 2.27537C88.1317 2.04165 88.7084 1.82237 89.2845 1.62345C89.3119 1.61397 89.3408 1.60997 89.3697 1.6117C89.3986 1.61343 89.4269 1.62085 89.453 1.63353C89.479 1.64621 89.5023 1.66391 89.5215 1.68561C89.5408 1.70731 89.5555 1.73259 89.565 1.76C89.5745 1.78742 89.5784 1.81643 89.5767 1.84539C89.575 1.87435 89.5676 1.90269 89.5549 1.92878C89.5423 1.95487 89.5246 1.97821 89.5029 1.99746C89.4813 2.01672 89.456 2.03151 89.4287 2.04099C88.8605 2.23794 88.2929 2.45328 87.7404 2.68372C87.7135 2.69458 87.6848 2.70015 87.6559 2.70013ZM108.129 1.88671C108.106 1.88645 108.084 1.88291 108.063 1.87621C107.493 1.69107 106.911 1.52169 106.33 1.372C106.302 1.3648 106.276 1.35213 106.252 1.33471C106.229 1.31729 106.21 1.29545 106.195 1.27046C106.18 1.24546 106.17 1.2178 106.166 1.18904C106.162 1.16028 106.164 1.13098 106.171 1.10283C106.178 1.07468 106.191 1.04823 106.208 1.02498C106.226 1.00173 106.247 0.982135 106.272 0.967321C106.297 0.952507 106.325 0.94276 106.354 0.938639C106.382 0.934517 106.412 0.936102 106.44 0.943301C107.029 1.09561 107.619 1.26827 108.199 1.45604C108.249 1.47203 108.292 1.50532 108.319 1.54991C108.347 1.59451 108.358 1.6475 108.35 1.69937C108.342 1.75124 108.316 1.79859 108.276 1.83293C108.237 1.86726 108.186 1.88633 108.134 1.88671H108.129ZM92.195 1.2302C92.1413 1.2295 92.0898 1.20925 92.0499 1.17322C92.0101 1.1372 91.9847 1.08787 91.9785 1.03446C91.9723 0.981045 91.9857 0.927204 92.0163 0.883001C92.0469 0.838798 92.0925 0.807257 92.1445 0.794273C92.7383 0.654436 93.3426 0.531667 93.9409 0.428595C93.9986 0.41867 94.0578 0.432082 94.1055 0.465878C94.1533 0.499675 94.1856 0.551087 94.1955 0.608807C94.2055 0.666528 94.1921 0.725827 94.1583 0.773659C94.1246 0.821491 94.0733 0.853939 94.0156 0.863863C93.4258 0.964966 92.8307 1.08642 92.2461 1.22429C92.2294 1.22819 92.2122 1.23018 92.195 1.2302ZM103.488 0.787708C103.477 0.788658 103.465 0.788658 103.454 0.787708C102.865 0.696452 102.259 0.622923 101.662 0.568433C101.604 0.563122 101.55 0.534857 101.513 0.489857C101.475 0.444856 101.457 0.386807 101.462 0.328477C101.468 0.270148 101.496 0.216316 101.541 0.178826C101.586 0.141336 101.644 0.123257 101.702 0.128568C102.308 0.183715 102.92 0.259872 103.521 0.351127C103.577 0.358558 103.628 0.387092 103.663 0.430873C103.699 0.474654 103.716 0.530359 103.712 0.586556C103.707 0.642754 103.682 0.695181 103.64 0.733076C103.599 0.77097 103.544 0.791458 103.488 0.790334V0.787708ZM96.9118 0.516567C96.8534 0.51857 96.7966 0.49725 96.7538 0.457297C96.7111 0.417345 96.686 0.362033 96.684 0.303529C96.682 0.245026 96.7033 0.188122 96.7432 0.145337C96.7831 0.102553 96.8383 0.077393 96.8967 0.0753907C97.5023 0.0327173 98.1183 0.00973896 98.7278 0.00317383C98.7842 0.00625546 98.8373 0.0308748 98.8761 0.0719666C98.915 0.113058 98.9366 0.1675 98.9366 0.224092C98.9366 0.280684 98.915 0.335123 98.8761 0.376215C98.8373 0.417307 98.7842 0.441926 98.7278 0.445008C98.1275 0.45026 97.5206 0.473893 96.9235 0.51591L96.9118 0.516567Z" fill="#91B3FA"/>
<path d="M128.162 25.4341C128.109 25.4339 128.058 25.415 128.018 25.3807C127.978 25.3464 127.952 25.299 127.944 25.247C127.9 24.9581 127.851 24.6699 127.796 24.3823C127.787 24.3257 127.801 24.2681 127.834 24.2215C127.868 24.1749 127.918 24.143 127.974 24.1324C128.03 24.1219 128.088 24.1336 128.136 24.165C128.183 24.1964 128.217 24.2451 128.23 24.3009C128.284 24.5933 128.334 24.8859 128.38 25.1787C128.384 25.2074 128.383 25.2367 128.376 25.265C128.369 25.2932 128.357 25.3198 128.34 25.3433C128.323 25.3668 128.301 25.3866 128.277 25.4018C128.252 25.4169 128.224 25.427 128.196 25.4315C128.184 25.433 128.173 25.4338 128.162 25.4341Z" fill="#91B3FA"/>
<path d="M121.663 29.1321C121.669 29.0584 121.651 28.9847 121.613 28.9214C121.575 28.858 121.518 28.8082 121.45 28.7789L117.495 27.0575C117.186 25.0352 116.55 23.0769 115.612 21.2598L117.795 17.5374C117.832 17.4737 117.849 17.3999 117.842 17.3264C117.835 17.2528 117.806 17.1831 117.758 17.1271L114.396 13.188C114.348 13.1319 114.284 13.0922 114.212 13.0744C114.141 13.0566 114.065 13.0617 113.997 13.0889L109.985 14.6737C108.338 13.4635 106.505 12.5306 104.559 11.9117L103.474 7.73107C103.455 7.65998 103.415 7.59654 103.358 7.54949C103.302 7.50245 103.232 7.47414 103.159 7.46846L98.0017 7.06602C97.9282 7.06027 97.8547 7.0776 97.7915 7.1156C97.7283 7.15361 97.6785 7.2104 97.6491 7.27807L95.9307 11.2401C93.9122 11.5501 91.9576 12.1874 90.1437 13.1269L86.4277 10.9401C86.364 10.9029 86.2902 10.8864 86.2167 10.893C86.1432 10.8996 86.0736 10.9289 86.0174 10.9769L82.0852 14.3448C82.0289 14.3928 81.9891 14.4572 81.9712 14.529C81.9533 14.6008 81.9584 14.6764 81.9856 14.7453L83.5729 18.7592C82.365 20.4087 81.434 22.2446 80.8164 24.1944L76.6423 25.281C76.5713 25.3001 76.5079 25.3407 76.461 25.3974C76.414 25.4541 76.3858 25.524 76.3801 25.5974L75.9784 30.7629C75.9726 30.8366 75.99 30.9102 76.028 30.9736C76.0661 31.0369 76.123 31.0867 76.1907 31.1161L80.1459 32.8374C80.4549 34.8596 81.0909 36.8179 82.0288 38.6351L79.8464 42.3575C79.809 42.4212 79.7924 42.4949 79.7989 42.5685C79.8053 42.642 79.8345 42.7117 79.8825 42.7678L83.2452 46.7069C83.2931 46.763 83.3574 46.8028 83.4289 46.8205C83.5005 46.8383 83.5758 46.8332 83.6443 46.8061L87.6533 45.2225C89.3 46.4324 91.1327 47.3653 93.0791 47.9845L94.1644 52.1652C94.1832 52.2364 94.2236 52.2999 94.2801 52.347C94.3366 52.3941 94.4064 52.4223 94.4797 52.4278L99.6368 52.8302C99.7103 52.836 99.7838 52.8186 99.8469 52.7806C99.9101 52.7426 99.9599 52.6858 99.9894 52.6182L101.707 48.6561C103.726 48.347 105.68 47.7099 107.494 46.77L111.21 48.9568C111.274 48.994 111.347 49.0104 111.421 49.0038C111.494 48.9972 111.564 48.968 111.62 48.92L115.552 45.5521C115.608 45.5041 115.648 45.4398 115.665 45.3681C115.683 45.2965 115.678 45.2211 115.652 45.1523L114.071 41.1358C115.278 39.486 116.209 37.6502 116.827 35.7005L120.995 34.614C121.066 34.5949 121.129 34.5542 121.176 34.4975C121.223 34.4408 121.251 34.371 121.257 34.2975L121.663 29.1321Z" fill="#91B3FA"/>
<path opacity="0.7" d="M98.8079 34.8812C97.5362 34.8799 96.3141 34.3867 95.3966 33.5044C94.4792 32.6222 93.9374 31.4191 93.8842 30.1463C93.831 28.8735 94.2706 27.6293 95.1112 26.6733C95.9518 25.7173 97.1285 25.1235 98.3956 25.0158C99.6628 24.908 100.923 25.2946 101.912 26.095C102.901 26.8953 103.544 28.0475 103.706 29.3111C103.868 30.5747 103.536 31.852 102.78 32.8766C102.024 33.9011 100.903 34.5936 99.6494 34.8096C99.3714 34.8572 99.0899 34.8811 98.8079 34.8812ZM98.8276 25.6769C98.5835 25.6772 98.34 25.698 98.0994 25.7393C97.1272 25.9061 96.2429 26.4056 95.5971 27.1524C94.9513 27.8993 94.584 28.8473 94.5578 29.8351C94.5315 30.8228 94.8481 31.7891 95.4534 32.5692C96.0586 33.3494 96.9153 33.8952 97.8772 34.1135C98.8392 34.3319 99.847 34.2094 100.729 33.7668C101.611 33.3243 102.312 32.5891 102.714 31.6865C103.115 30.784 103.192 29.7699 102.93 28.8171C102.669 27.8644 102.086 27.0318 101.281 26.4614C100.564 25.951 99.7067 25.6768 98.8276 25.6769Z" fill="white"/>
<path opacity="0.7" d="M98.7293 42.7837C98.3915 42.7837 98.0529 42.7705 97.7134 42.7443C94.501 42.4931 91.501 41.0389 89.3108 38.6714C87.1206 36.304 85.9011 33.1969 85.895 29.9692C85.895 29.6313 85.9083 29.2919 85.935 28.9509C86.1535 26.1894 87.2577 23.5726 89.0827 21.4914C90.9078 19.4101 93.3559 17.9759 96.0615 17.4029C98.7671 16.8299 101.585 17.1488 104.095 18.312C106.605 19.4752 108.672 21.4204 109.987 23.857L109.405 24.1722C108.994 23.4102 108.502 22.6941 107.94 22.0359C106.378 20.2071 104.309 18.8834 101.996 18.2321C99.6827 17.5808 97.2286 17.6312 94.944 18.3768C92.6593 19.1225 90.6467 20.53 89.1605 22.4214C87.6743 24.3127 86.7813 26.6031 86.5943 29.0028C86.5694 29.3258 86.5569 29.6475 86.5569 29.9679C86.5627 32.8537 87.5916 35.6437 89.4602 37.8401C91.3289 40.0365 93.9157 41.4965 96.7592 41.9596C99.6027 42.4228 102.518 41.859 104.985 40.3688C107.452 38.8786 109.31 36.5589 110.229 33.8236L110.856 34.0343C110.002 36.5792 108.373 38.7919 106.198 40.3613C104.023 41.9307 101.412 42.7778 98.7319 42.7837H98.7293Z" fill="white"/>
<path d="M149.7 51.6229C149.662 51.6227 149.623 51.6123 149.59 51.5927C149.556 51.573 149.529 51.5449 149.509 51.511C149.49 51.4772 149.48 51.4389 149.48 51.4C149.481 51.3611 149.491 51.3229 149.511 51.2894C149.659 51.0386 149.801 50.7825 149.932 50.5278C149.946 50.502 149.964 50.479 149.986 50.4602C150.008 50.4414 150.034 50.4271 150.062 50.4183C150.089 50.4094 150.118 50.4061 150.147 50.4085C150.176 50.4109 150.204 50.419 150.23 50.4323C150.256 50.4456 150.279 50.4639 150.298 50.4861C150.317 50.5083 150.331 50.534 150.34 50.5617C150.349 50.5894 150.352 50.6186 150.349 50.6476C150.347 50.6766 150.339 50.7048 150.326 50.7307C150.191 50.9933 150.045 51.2559 149.892 51.5146C149.872 51.548 149.844 51.5757 149.811 51.5947C149.777 51.6137 149.739 51.6235 149.7 51.6229Z" fill="#91B3FA"/>
<path d="M135.459 59.0207H135.441C134.842 58.9733 134.245 58.8911 133.655 58.7745C133.599 58.7616 133.55 58.7275 133.519 58.6793C133.488 58.631 133.477 58.5726 133.488 58.5162C133.499 58.4598 133.531 58.4099 133.578 58.3772C133.625 58.3444 133.683 58.3312 133.74 58.3405C134.314 58.4539 134.893 58.5339 135.476 58.5802C135.532 58.5861 135.583 58.613 135.62 58.6554C135.657 58.6978 135.676 58.7527 135.674 58.8087C135.671 58.8648 135.648 58.918 135.608 58.9575C135.568 58.9969 135.515 59.0198 135.459 59.0213V59.0207ZM138.343 58.9741C138.286 58.9741 138.232 58.9525 138.191 58.9136C138.15 58.8747 138.125 58.8215 138.122 58.765C138.119 58.7085 138.138 58.6529 138.174 58.6097C138.211 58.5666 138.262 58.5391 138.319 58.5329C138.9 58.4677 139.476 58.3689 140.046 58.2368C140.074 58.2303 140.103 58.2293 140.132 58.2341C140.161 58.2388 140.188 58.2492 140.212 58.2645C140.237 58.2798 140.258 58.2999 140.275 58.3234C140.292 58.347 140.304 58.3737 140.311 58.4019C140.317 58.4302 140.318 58.4594 140.313 58.488C140.309 58.5166 140.298 58.544 140.283 58.5686C140.268 58.5932 140.248 58.6145 140.224 58.6314C140.201 58.6482 140.174 58.6603 140.146 58.6668C139.559 58.8032 138.966 58.9053 138.368 58.9728L138.343 58.9741ZM130.93 57.9499C130.901 57.9499 130.873 57.9446 130.847 57.9342C130.289 57.707 129.746 57.4472 129.219 57.1562C129.193 57.1422 129.171 57.1234 129.153 57.1008C129.135 57.0782 129.121 57.0522 129.113 57.0244C129.105 56.9965 129.103 56.9674 129.106 56.9386C129.109 56.9098 129.118 56.8819 129.132 56.8565C129.146 56.8311 129.165 56.8087 129.187 56.7906C129.21 56.7725 129.236 56.759 129.263 56.7509C129.291 56.7428 129.32 56.7403 129.349 56.7435C129.378 56.7467 129.406 56.7555 129.431 56.7695C129.943 57.0517 130.472 57.3038 131.013 57.5245C131.061 57.5436 131.1 57.5787 131.125 57.6239C131.149 57.669 131.157 57.7213 131.147 57.7718C131.138 57.8222 131.11 57.8676 131.071 57.9001C131.031 57.9327 130.981 57.9503 130.93 57.9499ZM142.833 57.753C142.782 57.7528 142.733 57.7354 142.694 57.7036C142.655 57.6718 142.628 57.6275 142.617 57.5781C142.607 57.5287 142.614 57.4772 142.636 57.4321C142.659 57.387 142.696 57.351 142.742 57.3302C143.276 57.0911 143.795 56.8208 144.298 56.5207C144.348 56.4941 144.406 56.4878 144.46 56.5031C144.515 56.5184 144.562 56.5541 144.591 56.6028C144.62 56.6515 144.629 56.7095 144.616 56.7649C144.604 56.8202 144.571 56.8686 144.524 56.9001C144.007 57.2091 143.472 57.4875 142.923 57.7339C142.895 57.7458 142.865 57.7518 142.835 57.7517L142.833 57.753ZM126.943 55.553C126.892 55.5529 126.842 55.5348 126.802 55.5018C126.34 55.1154 125.901 54.7025 125.488 54.2649C125.447 54.2224 125.426 54.1657 125.427 54.1071C125.429 54.0486 125.453 53.993 125.496 53.9527C125.538 53.9124 125.595 53.8906 125.653 53.8922C125.712 53.8937 125.767 53.9185 125.807 53.9609C126.21 54.3857 126.636 54.7868 127.085 55.1624C127.121 55.1912 127.147 55.2306 127.159 55.275C127.172 55.3194 127.17 55.3666 127.154 55.41C127.139 55.4534 127.11 55.4908 127.072 55.5171C127.034 55.5433 126.989 55.557 126.943 55.5563V55.553ZM146.736 55.2195C146.691 55.2196 146.647 55.206 146.61 55.1807C146.574 55.1553 146.545 55.1194 146.529 55.0775C146.513 55.0357 146.511 54.99 146.521 54.9466C146.532 54.9031 146.555 54.8639 146.589 54.8341L146.72 54.7166C147.109 54.3612 147.479 53.9859 147.829 53.592C147.869 53.5526 147.922 53.5299 147.978 53.5285C148.034 53.5271 148.088 53.5472 148.13 53.5846C148.172 53.622 148.198 53.6739 148.203 53.7298C148.208 53.7857 148.191 53.8414 148.156 53.8854C147.796 54.2909 147.415 54.6775 147.015 55.0435L146.884 55.1637C146.844 55.199 146.792 55.2184 146.739 55.2182L146.736 55.2195ZM123.866 52.0577C123.829 52.0579 123.793 52.0486 123.76 52.0308C123.727 52.013 123.7 51.9873 123.68 51.956C123.355 51.4486 123.061 50.9225 122.798 50.3803C122.785 50.3542 122.778 50.3259 122.776 50.297C122.775 50.2681 122.779 50.2391 122.788 50.2117C122.798 50.1843 122.812 50.1591 122.832 50.1375C122.851 50.1158 122.874 50.0982 122.9 50.0855C122.926 50.0729 122.954 50.0655 122.983 50.0639C123.012 50.0622 123.041 50.0662 123.068 50.0757C123.096 50.0852 123.121 50.1 123.143 50.1193C123.164 50.1385 123.182 50.1619 123.194 50.188C123.45 50.7145 123.737 51.2257 124.052 51.719C124.073 51.7523 124.085 51.7908 124.087 51.8305C124.088 51.8701 124.079 51.9094 124.06 51.9442C124.041 51.979 124.013 52.008 123.979 52.0283C123.945 52.0485 123.906 52.0591 123.866 52.059V52.0577Z" fill="#91B3FA"/>
<path d="M121.993 47.783C121.944 47.7829 121.897 47.7666 121.858 47.7368C121.82 47.707 121.792 47.6653 121.78 47.6182C121.703 47.3313 121.635 47.0372 121.576 46.7457C121.57 46.7173 121.57 46.688 121.575 46.6596C121.581 46.6311 121.592 46.604 121.608 46.5798C121.624 46.5557 121.644 46.5349 121.668 46.5187C121.692 46.5025 121.719 46.4912 121.748 46.4854C121.776 46.4796 121.805 46.4795 121.834 46.485C121.862 46.4906 121.889 46.5016 121.913 46.5176C121.937 46.5336 121.958 46.5543 121.974 46.5783C121.991 46.6023 122.002 46.6293 122.008 46.6577C122.065 46.9407 122.132 47.2256 122.204 47.5053C122.219 47.5619 122.211 47.6222 122.181 47.6728C122.152 47.7233 122.103 47.7601 122.047 47.7751C122.029 47.7802 122.011 47.7828 121.993 47.783Z" fill="#91B3FA"/>
<path d="M123.813 35.7879C123.774 35.7877 123.735 35.777 123.701 35.7569C123.667 35.7367 123.64 35.7079 123.621 35.6734C123.602 35.6388 123.592 35.5998 123.593 35.5604C123.594 35.521 123.606 35.4826 123.627 35.4492C123.785 35.1971 123.955 34.9469 124.126 34.7047C124.161 34.6601 124.212 34.6308 124.268 34.6228C124.324 34.6148 124.381 34.6288 124.427 34.6617C124.473 34.6947 124.505 34.7442 124.516 34.8C124.527 34.8558 124.516 34.9136 124.485 34.9614C124.317 35.1964 124.157 35.44 124 35.6835C123.98 35.7154 123.953 35.7418 123.92 35.7601C123.887 35.7783 123.851 35.7879 123.813 35.7879Z" fill="#91B3FA"/>
<path d="M150.612 37.9372C150.569 37.9376 150.527 37.9254 150.491 37.9021C150.455 37.8788 150.426 37.8453 150.409 37.8059C150.184 37.2758 149.928 36.7592 149.644 36.2585C149.618 36.2078 149.613 36.1493 149.63 36.095C149.646 36.0407 149.683 35.9947 149.732 35.9666C149.781 35.9386 149.839 35.9305 149.894 35.9442C149.949 35.9578 149.997 35.9921 150.027 36.0399C150.32 36.5553 150.583 37.0874 150.814 37.6332C150.837 37.6873 150.837 37.7482 150.815 37.8026C150.793 37.857 150.75 37.9004 150.697 37.9234C150.67 37.9336 150.641 37.9383 150.612 37.9372ZM148.204 34.0382C148.172 34.0382 148.141 34.0313 148.112 34.0179C148.083 34.0045 148.057 33.985 148.036 33.9607C147.924 33.8294 147.808 33.6981 147.69 33.5668C147.421 33.2707 147.137 32.9832 146.846 32.7133C146.824 32.6938 146.806 32.67 146.793 32.6433C146.779 32.6166 146.772 32.5875 146.77 32.5578C146.769 32.5281 146.773 32.4984 146.784 32.4704C146.794 32.4425 146.809 32.4169 146.83 32.3952C146.85 32.3735 146.874 32.3561 146.902 32.344C146.929 32.332 146.958 32.3255 146.988 32.3251C147.017 32.3246 147.047 32.3302 147.074 32.3414C147.102 32.3526 147.127 32.3692 147.148 32.3903C147.447 32.6713 147.738 32.9681 148.016 33.272C148.138 33.4033 148.257 33.5381 148.373 33.6764C148.4 33.7085 148.418 33.7479 148.424 33.7898C148.429 33.8318 148.423 33.8745 148.405 33.9129C148.388 33.9513 148.359 33.9838 148.324 34.0065C148.288 34.0292 148.246 34.0411 148.204 34.0408V34.0382ZM126.163 32.9044C126.119 32.9042 126.076 32.8908 126.039 32.8661C126.003 32.8413 125.975 32.8062 125.958 32.7653C125.942 32.7244 125.938 32.6795 125.948 32.6365C125.957 32.5934 125.979 32.5541 126.01 32.5236C126.098 32.4383 126.188 32.3538 126.281 32.2702C126.627 31.9551 126.989 31.6517 127.36 31.3701C127.383 31.3507 127.409 31.3361 127.438 31.3273C127.467 31.3185 127.497 31.3156 127.527 31.3189C127.557 31.3221 127.585 31.3315 127.612 31.3463C127.638 31.3611 127.661 31.3811 127.679 31.405C127.697 31.429 127.71 31.4563 127.717 31.4855C127.724 31.5147 127.726 31.5451 127.721 31.5747C127.716 31.6044 127.705 31.6327 127.689 31.6581C127.673 31.6834 127.651 31.7051 127.627 31.722C127.267 31.9958 126.914 32.2905 126.578 32.5965C126.49 32.6779 126.401 32.7606 126.316 32.8433C126.275 32.8827 126.22 32.9046 126.163 32.9044ZM144.75 31.03C144.709 31.03 144.668 31.0182 144.632 30.9959C144.146 30.6885 143.643 30.4095 143.125 30.1602C143.074 30.1335 143.036 30.0882 143.018 30.0337C143 29.9793 143.004 29.92 143.029 29.8684C143.053 29.8167 143.097 29.7767 143.151 29.7568C143.205 29.7369 143.264 29.7386 143.316 29.7616C143.85 30.0184 144.368 30.3057 144.868 30.6223C144.909 30.6478 144.94 30.6858 144.957 30.7307C144.974 30.7755 144.976 30.8247 144.963 30.8709C144.95 30.917 144.922 30.9575 144.883 30.9862C144.845 31.0149 144.798 31.0303 144.75 31.03ZM129.908 30.2652C129.858 30.2651 129.81 30.2483 129.771 30.2174C129.732 30.1865 129.705 30.1433 129.693 30.0949C129.682 30.0465 129.687 29.9956 129.708 29.9505C129.729 29.9054 129.765 29.8687 129.809 29.8463C130.339 29.5829 130.884 29.3501 131.441 29.1491C131.496 29.1311 131.555 29.1351 131.607 29.1604C131.659 29.1857 131.698 29.2302 131.718 29.2844C131.737 29.3386 131.735 29.3983 131.711 29.4508C131.687 29.5033 131.644 29.5444 131.59 29.5653C131.049 29.7605 130.52 29.9867 130.004 30.2429C129.974 30.2576 129.941 30.2653 129.908 30.2652ZM140.559 29.1957C140.539 29.1957 140.52 29.193 140.501 29.1879C139.946 29.0404 139.382 28.9249 138.813 28.8419C138.785 28.8377 138.757 28.8279 138.732 28.813C138.707 28.7982 138.685 28.7785 138.668 28.7552C138.651 28.7319 138.638 28.7055 138.631 28.6773C138.624 28.6491 138.622 28.6198 138.626 28.5911C138.63 28.5622 138.64 28.5344 138.654 28.5093C138.669 28.4842 138.689 28.4623 138.712 28.4449C138.735 28.4275 138.762 28.415 138.79 28.4081C138.818 28.4012 138.847 28.4 138.876 28.4046C139.462 28.4899 140.043 28.6087 140.615 28.7605C140.667 28.7741 140.712 28.8062 140.742 28.8509C140.772 28.8955 140.785 28.9496 140.778 29.0029C140.771 29.0563 140.745 29.1053 140.705 29.1408C140.664 29.1763 140.612 29.1958 140.559 29.1957ZM134.267 28.8721C134.212 28.8712 134.159 28.8497 134.119 28.812C134.079 28.7743 134.055 28.7229 134.05 28.668C134.046 28.6131 134.062 28.5586 134.096 28.5151C134.13 28.4716 134.179 28.4423 134.233 28.4329C134.818 28.3404 135.407 28.2814 135.998 28.2563C136.028 28.254 136.058 28.2577 136.086 28.2672C136.114 28.2766 136.14 28.2917 136.162 28.3114C136.184 28.331 136.202 28.355 136.215 28.3818C136.227 28.4086 136.235 28.4377 136.236 28.4673C136.237 28.497 136.233 28.5266 136.222 28.5544C136.212 28.5822 136.196 28.6076 136.176 28.6291C136.155 28.6507 136.131 28.6679 136.103 28.6797C136.076 28.6916 136.047 28.6978 136.017 28.6981C135.443 28.7225 134.87 28.7797 134.302 28.8694C134.29 28.8717 134.278 28.8731 134.266 28.8734L134.267 28.8721Z" fill="#91B3FA"/>
<path d="M151.633 41.5244C151.581 41.5242 151.53 41.5053 151.49 41.471C151.45 41.4367 151.424 41.3893 151.416 41.3373C151.371 41.0517 151.317 40.7635 151.257 40.4838C151.248 40.4278 151.261 40.3704 151.292 40.3235C151.324 40.2766 151.373 40.2438 151.428 40.2318C151.484 40.2198 151.542 40.2296 151.59 40.2592C151.638 40.2887 151.674 40.3358 151.688 40.3906C151.754 40.6814 151.806 40.9814 151.851 41.2716C151.856 41.3003 151.855 41.3296 151.848 41.3579C151.841 41.3861 151.829 41.4127 151.812 41.4362C151.795 41.4597 151.773 41.4795 151.748 41.4947C151.723 41.5098 151.696 41.5199 151.667 41.5244C151.656 41.525 151.645 41.525 151.633 41.5244Z" fill="#91B3FA"/>
<path d="M148.295 43.3168C148.298 43.2789 148.289 43.241 148.27 43.2084C148.25 43.1759 148.221 43.1502 148.186 43.135L146.154 42.2513C145.996 41.2123 145.669 40.2062 145.187 39.2727L146.308 37.3609C146.327 37.3282 146.336 37.2903 146.332 37.2525C146.329 37.2147 146.314 37.179 146.289 37.1502L144.562 35.1275C144.538 35.0985 144.505 35.078 144.468 35.0689C144.431 35.0597 144.392 35.0623 144.357 35.0763L142.298 35.8897C141.452 35.2682 140.511 34.789 139.511 34.4709L138.954 32.3235C138.944 32.2867 138.923 32.2537 138.894 32.2294C138.865 32.205 138.829 32.1904 138.791 32.1876L136.142 31.9808C136.104 31.9778 136.067 31.9867 136.034 32.0062C136.002 32.0258 135.976 32.055 135.961 32.0898L135.078 34.125C134.042 34.2843 133.038 34.6116 132.106 35.094L130.197 33.9707C130.164 33.9516 130.126 33.9431 130.088 33.9465C130.051 33.95 130.015 33.965 129.986 33.9897L127.967 35.7196C127.938 35.7443 127.918 35.7774 127.909 35.8143C127.9 35.8511 127.902 35.8899 127.916 35.9251L128.728 37.9885C128.108 38.8357 127.63 39.7786 127.312 40.78L125.168 41.3387C125.131 41.3485 125.099 41.3693 125.074 41.3983C125.05 41.4273 125.035 41.4632 125.032 41.5009L124.826 44.1545C124.823 44.1924 124.832 44.2302 124.852 44.2626C124.871 44.2951 124.9 44.3207 124.935 44.3357L126.967 45.22C127.125 46.2588 127.452 47.2647 127.934 48.198L126.813 50.1104C126.794 50.1431 126.785 50.1809 126.788 50.2187C126.792 50.2565 126.807 50.2923 126.831 50.3212L128.559 52.3439C128.583 52.3726 128.616 52.393 128.653 52.4022C128.69 52.4114 128.729 52.4089 128.764 52.3951L130.823 51.5817C131.669 52.2029 132.611 52.6821 133.61 53.0004L134.168 55.1472C134.178 55.184 134.198 55.2168 134.228 55.2412C134.257 55.2656 134.293 55.2802 134.331 55.2831L136.98 55.4899C137.017 55.4928 137.055 55.4838 137.087 55.4643C137.12 55.4448 137.145 55.4156 137.161 55.3809L138.043 53.3457C139.08 53.1864 140.084 52.8589 141.016 52.376L142.925 53.4993C142.958 53.5186 142.996 53.5272 143.033 53.5239C143.071 53.5206 143.107 53.5056 143.136 53.481L145.155 51.7504C145.184 51.7257 145.204 51.6927 145.213 51.6558C145.222 51.6189 145.219 51.5801 145.205 51.5449L144.392 49.4828C145.013 48.6354 145.491 47.6923 145.808 46.6906L147.953 46.1326C147.989 46.1229 148.022 46.1021 148.046 46.073C148.07 46.044 148.085 46.0082 148.088 45.9704L148.295 43.3168Z" fill="#91B3FA"/>
<path opacity="0.7" d="M136.555 46.4312C135.859 46.4313 135.19 46.1621 134.688 45.6799C134.185 45.1977 133.888 44.5398 133.858 43.8434C133.828 43.147 134.068 42.466 134.528 41.9425C134.987 41.419 135.631 41.0936 136.324 41.0341C137.017 40.9745 137.707 41.1855 138.249 41.623C138.79 42.0605 139.142 42.6907 139.231 43.382C139.32 44.0733 139.139 44.7724 138.726 45.3332C138.313 45.894 137.699 46.2733 137.014 46.3918C136.862 46.4179 136.709 46.4311 136.555 46.4312ZM136.563 41.7043C136.08 41.704 135.612 41.877 135.244 42.192C134.877 42.507 134.634 42.9433 134.56 43.422C134.485 43.9007 134.584 44.3903 134.839 44.8023C135.093 45.2143 135.486 45.5215 135.947 45.6685C136.408 45.8155 136.906 45.7925 137.352 45.6037C137.797 45.415 138.16 45.0728 138.376 44.6391C138.592 44.2055 138.645 43.7088 138.527 43.239C138.409 42.7691 138.127 42.3571 137.733 42.0772C137.391 41.8342 136.982 41.7039 136.563 41.7043Z" fill="white"/>
<path opacity="0.7" d="M136.515 50.4905C136.337 50.4905 136.159 50.4839 135.98 50.4695C134.875 50.3832 133.807 50.0252 132.873 49.4271C131.939 48.829 131.166 48.0093 130.623 47.0406C130.081 46.0719 129.785 44.9841 129.762 43.8736C129.74 42.763 129.991 41.664 130.494 40.6739C130.996 39.6838 131.735 38.8332 132.644 38.1974C133.553 37.5616 134.605 37.1602 135.706 37.0289C136.807 36.8975 137.924 37.0402 138.956 37.4443C139.989 37.8484 140.907 38.5014 141.627 39.3455C141.646 39.3672 141.665 39.3895 141.684 39.4112C141.945 39.7253 142.178 40.0626 142.379 40.4189V40.4229L142.388 40.4386C142.392 40.4478 142.398 40.457 142.403 40.4662L142.411 40.4813L142.437 40.5299L141.856 40.845C141.649 40.4636 141.404 40.1052 141.122 39.7755C140.249 38.7536 139.064 38.0498 137.75 37.7738C136.436 37.4978 135.067 37.6652 133.858 38.2499C132.649 38.8346 131.667 39.8036 131.066 41.0059C130.464 42.2083 130.277 43.5762 130.533 44.8964C130.789 46.2167 131.474 47.4149 132.481 48.3043C133.488 49.1937 134.76 49.7242 136.1 49.8131C137.439 49.902 138.771 49.5442 139.886 48.7957C141.002 48.0471 141.838 46.9498 142.266 45.675L142.894 45.8857C142.444 47.2249 141.586 48.3892 140.442 49.215C139.297 50.0408 137.923 50.4866 136.512 50.4898L136.515 50.4905Z" fill="white"/>
<path d="M23.3241 89.0889C23.3241 89.0889 25.5917 89.209 25.8703 93.8814C25.8703 93.8814 20.6109 98.6044 13.5066 99.7283C12.9731 99.813 14.2524 96.0814 14.4444 95.5759C15.3593 93.1711 18.2404 91.6224 23.3241 89.0889Z" fill="url(#paint5_linear_870_120)"/>
<path d="M48.8668 83.5912H44.0825C44.0825 83.5912 29.3929 67.3392 19.7582 65.6992C19.7582 65.6992 13.0511 74.2753 20.1154 90.2994C20.6836 91.5882 22.2729 92.1607 23.4578 91.4024C23.8024 91.1871 24.0697 90.8678 24.2214 90.4905L23.6518 76.812C23.6518 76.812 36.1826 87.7903 38.3611 89.9088C40.5396 92.0274 51.6102 90.7301 48.8668 83.5912Z" fill="#7D97F4"/>
<path d="M2.59465 117.713C4.60076 115.952 7.79637 113.977 12.4096 113.41L13.972 114.365C13.972 114.365 12.9771 115.835 11.1591 117.388C9.48921 118.36 6.90965 119.676 4.77116 119.962C2.69034 120.24 2.38362 118.981 2.59465 117.713Z" fill="url(#paint6_linear_870_120)"/>
<path d="M14.4444 95.5757C15.6798 95.9762 16.2238 97.7298 19.3597 96.5704C21.6492 95.7248 23.8173 94.5805 25.808 93.167C25.8335 93.3935 25.8558 93.6298 25.8735 93.8813C25.8735 93.8813 20.3277 99.1649 13.2248 100.29C13.1026 100.308 12.9778 100.293 12.8629 100.248C12.7479 100.203 12.6468 100.128 12.5696 100.032C12.4924 99.9351 12.4417 99.82 12.4227 99.6978C12.4037 99.5755 12.417 99.4504 12.4613 99.3349C12.9703 98.0071 13.6361 96.7451 14.4444 95.5757Z" fill="#91B3FA"/>
<path d="M1.08403 119.216C1.55373 118.683 2.05723 118.181 2.5914 117.713C2.38037 118.981 2.68708 120.24 4.76594 119.963C6.90443 119.677 9.48464 118.361 11.1539 117.389C9.06062 119.178 5.87483 121.076 1.85475 120.965C0.964751 120.94 0.493537 119.888 1.08403 119.216Z" fill="#91B3FA"/>
<path d="M48.6918 87.0603L26.2779 87.3032C26.2779 87.3032 13.4784 97.9112 11.1564 114.089C11.1564 114.089 10.771 115.279 13.0852 115.483C13.0852 115.483 20.8232 110.42 25.8696 101.468C32.0603 90.4906 44.3158 95.4308 44.3158 95.4308C50.2044 96.7327 54.891 96.2482 58.3212 90.9613L48.6918 87.0603Z" fill="#7D97F4"/>
<path d="M48.163 68.9731C48.163 68.9731 45.7499 81.0865 33.9276 85.8784L29.7227 85.382L28.7305 86.9669L38.5945 87.282C38.5945 87.282 47.026 83.9338 51.4937 74.8207C51.6411 74.5194 54.1014 69.4307 48.163 68.9731Z" fill="url(#paint7_linear_870_120)"/>
<path d="M46.8718 86.8619C46.8718 86.8619 49.6152 79.3908 50.2051 72.131C50.2051 72.131 48.1976 70.4031 46.9433 69.6573C46.7466 69.5411 46.601 69.3549 46.5352 69.1359C46.4695 68.9169 46.4886 68.6811 46.5887 68.4756C47.5115 66.5612 53.0894 59.0454 53.5075 58.941C55.7784 58.3731 65.0933 53.9364 71.6536 62.9254C74.4717 66.7831 71.0952 78.6588 58.3219 90.9585C54.212 91.6315 50.3669 90.4451 46.8718 86.8619Z" fill="url(#paint8_linear_870_120)"/>
<path d="M57.4424 73.7678C57.4424 73.7678 49.8191 82.81 40.0749 84.1315C40.0749 84.1315 37.5563 81.8337 35.6839 82.6524C33.8115 83.4711 31.2424 87.099 31.2424 87.099H43.7601C43.7601 87.099 55.5923 86.6814 61.5051 79.4939C61.0234 76.9788 59.5986 75.4761 57.4424 73.7678Z" fill="url(#paint9_linear_870_120)"/>
<path d="M61.8892 52.6025L63.5571 58.175C63.595 58.2992 63.5925 58.4323 63.5498 58.5549C63.5072 58.6776 63.4266 58.7834 63.3198 58.8571C62.517 59.4086 60.4178 60.5043 57.5388 59.4395C57.3776 59.3783 57.2371 59.2723 57.1338 59.1341C57.0306 58.9959 56.9687 58.831 56.9555 58.6589L56.5623 53.8007L61.8892 52.6025Z" fill="url(#paint10_linear_870_120)"/>
<path d="M52.1228 48.0889C52.1228 48.0889 52.9427 53.8662 55.1579 55.6388C57.373 57.4114 61.6893 56.078 63.1469 51.7227L60.2416 44.2798L52.1228 48.0889Z" fill="url(#paint11_linear_870_120)"/>
<path d="M60.5694 49.0987C60.5299 49.1117 60.4882 49.1159 60.447 49.111C60.4057 49.1061 60.3661 49.0923 60.3308 49.0705C60.2954 49.0486 60.2653 49.0194 60.2424 48.9847C60.2196 48.95 60.2046 48.9107 60.1984 48.8696C60.1185 48.3365 59.9186 47.2808 59.5149 46.5619C59.5149 46.5619 59.7259 45.8043 57.6025 46.9493C55.4791 48.0942 52.29 49.7723 50.4117 48.7744C48.5812 47.7981 46.7265 42.8841 51.5652 43.7941C51.6081 43.8025 51.6523 43.801 51.6945 43.7895C51.7367 43.7781 51.7758 43.7571 51.8086 43.7282C51.8414 43.6993 51.8671 43.6632 51.8838 43.6227C51.9004 43.5822 51.9076 43.5384 51.9046 43.4947C51.8457 42.6872 51.9256 40.8292 53.8052 40.2325C55.563 39.6744 56.525 40.4695 56.9215 40.9494C56.9487 40.9825 56.9829 41.009 57.0217 41.027C57.0604 41.0449 57.1027 41.0539 57.1455 41.0532C57.1882 41.0525 57.2302 41.0422 57.2684 41.0229C57.3065 41.0037 57.3399 40.9761 57.3659 40.9422C57.8902 40.2535 59.3222 38.7875 61.4292 39.7171C63.1627 40.4826 63.4327 41.5553 63.4039 42.2191C63.4014 42.2683 63.4117 42.3172 63.4338 42.3612C63.4559 42.4052 63.489 42.4428 63.5298 42.4701C63.5707 42.4975 63.6179 42.5138 63.667 42.5175C63.716 42.5211 63.7651 42.5119 63.8095 42.4909C64.3404 42.246 65.1944 42.1186 66.0129 43.1474C67.1441 44.5674 65.5273 45.7984 65.0423 46.1214C65.0028 46.147 64.9701 46.1819 64.9472 46.2231C64.9244 46.2644 64.912 46.3106 64.9112 46.3577C64.9067 47.0957 64.792 50.3165 63.1804 52.1351C63.1478 52.171 63.1068 52.198 63.061 52.2138C63.0152 52.2296 62.9662 52.2335 62.9185 52.2253C62.8708 52.217 62.826 52.1968 62.7881 52.1666C62.7502 52.1364 62.7206 52.0971 62.702 52.0523L61.4613 49.0908C61.4335 49.0245 61.3818 48.971 61.3165 48.941C61.2513 48.911 61.1771 48.9066 61.1087 48.9287L60.5694 49.0987Z" fill="url(#paint12_linear_870_120)"/>
<path d="M60.543 49.6981C60.543 49.6981 61.3006 46.6066 62.4514 47.6104C63.6023 48.6142 62.1519 50.8228 60.8333 51.2442L60.543 49.6981Z" fill="url(#paint13_linear_870_120)"/>
<path d="M31.8696 87.8006L26.251 69.0296C26.1391 68.6557 25.916 68.3249 25.6116 68.0813C25.3071 67.8377 24.9358 67.6928 24.5471 67.666L16.9611 67.1461C16.7833 67.1339 16.6054 67.1662 16.4432 67.2399C16.2809 67.3137 16.1395 67.4266 16.0316 67.5686C15.9237 67.7106 15.8527 67.8772 15.8249 68.0535C15.7972 68.2298 15.8135 68.4102 15.8725 68.5786L22.1536 86.5047C22.253 86.7874 22.4306 87.036 22.6657 87.2215C22.9008 87.4069 23.1837 87.5214 23.4814 87.5518L30.9527 88.3823L31.8696 87.8006Z" fill="url(#paint14_linear_870_120)"/>
<path d="M21.5089 75.392C21.9283 76.2402 22.6525 76.7372 23.127 76.5015C23.6015 76.2658 23.6454 75.3854 23.226 74.5398C22.8065 73.6943 22.0817 73.1946 21.6079 73.4297C21.134 73.6647 21.0881 74.5438 21.5089 75.392Z" fill="#91B3FA"/>
<path d="M30.9515 88.3824H30.9882L46.906 87.5788C47.0949 87.5692 47.2723 87.4849 47.3992 87.3443C47.526 87.2037 47.5919 87.0183 47.5823 86.8291C47.5728 86.6398 47.4885 86.4621 47.3482 86.335C47.2078 86.208 47.0228 86.142 46.8339 86.1515L30.9161 86.9577C30.7293 86.9657 30.5531 87.0467 30.4254 87.1835C30.2977 87.3203 30.2287 87.5019 30.2334 87.6891C30.238 87.8763 30.3159 88.0543 30.4502 88.1845C30.5845 88.3148 30.7645 88.3871 30.9515 88.3857V88.3824Z" fill="url(#paint15_linear_870_120)"/>
<path d="M50.2032 72.2414C50.1887 72.2414 50.1744 72.2386 50.1611 72.233C50.1477 72.2275 50.1356 72.2194 50.1253 72.2091C50.1151 72.1989 50.107 72.1867 50.1015 72.1733C50.0959 72.1599 50.0931 72.1456 50.0931 72.1311C50.0819 68.7652 51.375 64.3107 51.3881 64.2661C51.3963 64.238 51.4153 64.2143 51.4409 64.2002C51.4665 64.1861 51.4967 64.1827 51.5248 64.1909C51.5528 64.1991 51.5765 64.2181 51.5906 64.2438C51.6046 64.2695 51.608 64.2997 51.5998 64.3278C51.5867 64.3724 50.3022 68.7973 50.3133 72.1305C50.3134 72.145 50.3106 72.1594 50.3051 72.1729C50.2996 72.1863 50.2915 72.1986 50.2813 72.2089C50.271 72.2192 50.2589 72.2274 50.2455 72.233C50.2321 72.2385 50.2177 72.2414 50.2032 72.2414Z" fill="url(#paint16_linear_870_120)"/>
<path d="M57.4424 73.8787C57.4186 73.878 57.3956 73.8697 57.3768 73.8551C57.354 73.8368 57.3392 73.8101 57.3359 73.781C57.3326 73.7518 57.341 73.7225 57.3591 73.6995C57.3939 73.6555 60.8536 69.2496 62.0379 66.2435C62.0427 66.2296 62.0503 66.2168 62.0601 66.2059C62.07 66.195 62.082 66.1862 62.0953 66.1801C62.1087 66.174 62.1231 66.1706 62.1378 66.1702C62.1525 66.1698 62.1671 66.1724 62.1808 66.1778C62.1945 66.1829 62.2072 66.1906 62.218 66.2006C62.2288 66.2106 62.2375 66.2226 62.2436 66.236C62.2497 66.2494 62.253 66.2638 62.2535 66.2785C62.254 66.2932 62.2515 66.3079 62.2463 66.3216C61.0502 69.3573 57.5702 73.7888 57.5354 73.8334C57.5248 73.848 57.5107 73.8597 57.4945 73.8676C57.4783 73.8755 57.4604 73.8793 57.4424 73.8787Z" fill="url(#paint17_linear_870_120)"/>
<path d="M62.3468 80.6533L61.7176 79.7618C61.7002 79.7378 61.693 79.708 61.6977 79.6787C61.7023 79.6495 61.7183 79.6233 61.7422 79.6059C61.7661 79.5884 61.7959 79.5813 61.8251 79.5859C61.8543 79.5905 61.8805 79.6065 61.8978 79.6305L62.4221 80.3763C67.3316 78.2203 70.3705 72.3366 70.4013 72.2769C70.4146 72.2508 70.4377 72.231 70.4656 72.2219C70.4934 72.2129 70.5237 72.2153 70.5498 72.2286C70.5759 72.2419 70.5956 72.2651 70.6046 72.293C70.6136 72.3209 70.6112 72.3512 70.598 72.3773C70.5672 72.4384 67.4594 78.4566 62.4274 80.6146L62.3468 80.6533Z" fill="url(#paint18_linear_870_120)"/>
<defs>
<linearGradient id="paint0_linear_870_120" x1="137.31" y1="154.358" x2="56.0756" y2="25.4258" gradientUnits="userSpaceOnUse">
<stop stop-color="#E2E9FD"/>
<stop offset="1" stop-color="#96C0FF"/>
</linearGradient>
<linearGradient id="paint1_linear_870_120" x1="14.6724" y1="33.2348" x2="156.138" y2="252.37" gradientUnits="userSpaceOnUse">
<stop stop-color="#DFEEFF"/>
<stop offset="1" stop-color="#BEDBFF"/>
</linearGradient>
<linearGradient id="paint2_linear_870_120" x1="9.76737" y1="132.637" x2="172.583" y2="132.637" gradientUnits="userSpaceOnUse">
<stop stop-color="#E0EFFF"/>
<stop offset="1" stop-color="#B7D7FF"/>
</linearGradient>
<linearGradient id="paint3_linear_870_120" x1="85.8162" y1="173.661" x2="62.247" y2="103.074" gradientUnits="userSpaceOnUse">
<stop stop-color="#09005D"/>
<stop offset="1" stop-color="#1A0F91"/>
</linearGradient>
<linearGradient id="paint4_linear_870_120" x1="31.1467" y1="169.441" x2="135.787" y2="194.85" gradientUnits="userSpaceOnUse">
<stop stop-color="#09005D"/>
<stop offset="1" stop-color="#1A0F91"/>
</linearGradient>
<linearGradient id="paint5_linear_870_120" x1="21.0323" y1="93.5302" x2="12.7951" y2="102.118" gradientUnits="userSpaceOnUse">
<stop stop-color="#09005D"/>
<stop offset="1" stop-color="#1A0F91"/>
</linearGradient>
<linearGradient id="paint6_linear_870_120" x1="10.1249" y1="115.122" x2="-5.44667" y2="126.531" gradientUnits="userSpaceOnUse">
<stop stop-color="#09005D"/>
<stop offset="1" stop-color="#1A0F91"/>
</linearGradient>
<linearGradient id="paint7_linear_870_120" x1="35.2521" y1="72.8623" x2="45.8323" y2="85.4224" gradientUnits="userSpaceOnUse">
<stop stop-color="#FEBBBA"/>
<stop offset="1" stop-color="#FF928E"/>
</linearGradient>
<linearGradient id="paint8_linear_870_120" x1="46.4963" y1="74.245" x2="72.5777" y2="74.245" gradientUnits="userSpaceOnUse">
<stop stop-color="#CB236D"/>
<stop offset="1" stop-color="#4C246D"/>
</linearGradient>
<linearGradient id="paint9_linear_870_120" x1="47.5639" y1="84.3068" x2="26.4111" y2="55.4191" gradientUnits="userSpaceOnUse">
<stop stop-color="#FEBBBA"/>
<stop offset="1" stop-color="#FF928E"/>
</linearGradient>
<linearGradient id="paint10_linear_870_120" x1="60.4749" y1="60.3389" x2="59.6943" y2="53.3303" gradientUnits="userSpaceOnUse">
<stop stop-color="#FEBBBA"/>
<stop offset="1" stop-color="#FF928E"/>
</linearGradient>
<linearGradient id="paint11_linear_870_120" x1="56.3284" y1="54.2246" x2="59.7656" y2="42.907" gradientUnits="userSpaceOnUse">
<stop stop-color="#FEBBBA"/>
<stop offset="1" stop-color="#FF928E"/>
</linearGradient>
<linearGradient id="paint12_linear_870_120" x1="59.4205" y1="33.4376" x2="56.224" y2="51.6375" gradientUnits="userSpaceOnUse">
<stop stop-color="#09005D"/>
<stop offset="1" stop-color="#1A0F91"/>
</linearGradient>
<linearGradient id="paint13_linear_870_120" x1="59.8771" y1="55.3028" x2="63.315" y2="43.9852" gradientUnits="userSpaceOnUse">
<stop stop-color="#FEBBBA"/>
<stop offset="1" stop-color="#FF928E"/>
</linearGradient>
<linearGradient id="paint14_linear_870_120" x1="31.8702" y1="77.7632" x2="15.8102" y2="77.7632" gradientUnits="userSpaceOnUse">
<stop stop-color="#09005D"/>
<stop offset="1" stop-color="#1A0F91"/>
</linearGradient>
<linearGradient id="paint15_linear_870_120" x1="29.9206" y1="84.7958" x2="42.7658" y2="88.31" gradientUnits="userSpaceOnUse">
<stop stop-color="#09005D"/>
<stop offset="1" stop-color="#1A0F91"/>
</linearGradient>
<linearGradient id="paint16_linear_870_120" x1="53.6924" y1="24.0829" x2="48.7108" y2="100.662" gradientUnits="userSpaceOnUse">
<stop stop-color="#E1473D"/>
<stop offset="1" stop-color="#E9605A"/>
</linearGradient>
<linearGradient id="paint17_linear_870_120" x1="62.73" y1="24.6712" x2="57.7483" y2="101.25" gradientUnits="userSpaceOnUse">
<stop stop-color="#E1473D"/>
<stop offset="1" stop-color="#E9605A"/>
</linearGradient>
<linearGradient id="paint18_linear_870_120" x1="69.4543" y1="25.1084" x2="64.4727" y2="101.688" gradientUnits="userSpaceOnUse">
<stop stop-color="#E1473D"/>
<stop offset="1" stop-color="#E9605A"/>
</linearGradient>
<clipPath id="clip0_870_120">
<rect width="61.93" height="75.46" fill="white" transform="translate(104 62)"/>
</clipPath>
</defs>
</svg>
