<svg width="183" height="177" viewBox="0 0 183 177" fill="none" xmlns="http://www.w3.org/2000/svg">
<g clip-path="url(#clip0_694_2374)">
<path d="M74.0287 138.339L70.613 168.89H110.246L105.084 138.339H74.0287Z" fill="url(#paint0_linear_694_2374)"/>
<path d="M0.358887 63.768V140.012C0.359355 143.028 1.54083 145.924 3.65157 148.084C5.76231 150.244 8.63542 151.496 11.6587 151.575C39.5853 152.293 137.26 154.034 163.845 153.644C166.044 153.61 168.145 152.732 169.711 151.191C171.276 149.651 172.185 147.567 172.247 145.375C172.76 127.662 173.593 85.0687 170.511 65.2959C170.198 63.2777 169.187 61.4322 167.653 60.0786C166.12 58.7249 164.16 57.9482 162.113 57.8828C138.714 57.1362 35.1731 54.7663 8.60063 55.3611C6.39763 55.4105 4.30158 56.318 2.76119 57.8893C1.2208 59.4605 0.358496 61.5707 0.358887 63.768Z" fill="url(#paint1_linear_694_2374)"/>
<path opacity="0.65" d="M167.774 147.318H167.771L5.15254 144.555C5.12715 144.554 5.1021 144.549 5.07881 144.539C5.05553 144.528 5.03447 144.514 5.01684 144.496C4.99921 144.477 4.98536 144.456 4.97606 144.432C4.96677 144.409 4.96222 144.384 4.96268 144.358C4.96314 144.333 4.96859 144.308 4.97873 144.285C4.98887 144.262 5.0035 144.241 5.02177 144.223C5.04005 144.205 5.06162 144.192 5.08526 144.182C5.10889 144.173 5.13412 144.169 5.15951 144.169L167.777 146.931C167.827 146.935 167.873 146.957 167.907 146.993C167.941 147.029 167.959 147.077 167.959 147.126C167.958 147.175 167.939 147.223 167.905 147.258C167.87 147.294 167.824 147.315 167.774 147.318Z" fill="white"/>
<path d="M5.15649 63.397V135.834C5.1563 137.594 5.8505 139.284 7.0891 140.537C8.3277 141.791 10.0112 142.509 11.776 142.535L160.02 144.361C160.885 144.374 161.744 144.216 162.547 143.896C163.35 143.575 164.082 143.099 164.699 142.495C165.317 141.891 165.808 141.17 166.144 140.376C166.48 139.581 166.655 138.727 166.658 137.865L166.907 66.0729C166.911 64.8248 166.425 63.6247 165.553 62.7298C164.68 61.835 163.491 61.3167 162.24 61.2863L10.465 58.2305C9.77404 58.2138 9.08666 58.335 8.44335 58.5871C7.80005 58.8392 7.21381 59.2171 6.71916 59.6985C6.22451 60.1799 5.83143 60.7551 5.56306 61.3903C5.29469 62.0255 5.15646 62.7078 5.15649 63.397Z" fill="white"/>
<path opacity="0.65" d="M88.0694 150.692C87.6964 150.692 87.3317 150.582 87.0214 150.375C86.7112 150.169 86.4694 149.875 86.3265 149.532C86.1837 149.188 86.1463 148.81 86.2191 148.445C86.2918 148.08 86.4715 147.745 86.7352 147.482C86.999 147.219 87.3351 147.04 87.701 146.967C88.0669 146.894 88.4462 146.932 88.7908 147.074C89.1355 147.217 89.43 147.458 89.6372 147.767C89.8444 148.076 89.9549 148.44 89.9547 148.812C89.9542 149.311 89.7555 149.789 89.402 150.141C89.0485 150.493 88.5693 150.692 88.0694 150.692ZM88.0694 147.318C87.773 147.318 87.4833 147.405 87.2369 147.57C86.9904 147.734 86.7983 147.967 86.6849 148.24C86.5715 148.513 86.5418 148.814 86.5996 149.104C86.6574 149.394 86.8002 149.66 87.0098 149.869C87.2193 150.078 87.4864 150.22 87.7771 150.278C88.0678 150.335 88.3691 150.306 88.6429 150.193C88.9168 150.08 89.1508 149.888 89.3155 149.642C89.4802 149.397 89.5681 149.108 89.5681 148.812C89.5677 148.416 89.4097 148.036 89.1288 147.756C88.8478 147.476 88.4668 147.318 88.0694 147.318Z" fill="white"/>
<path d="M118.782 175.14H60.7776C59.2016 175.14 58.0181 174.022 58.323 172.82L59.0672 169.884C59.291 168.999 60.2654 168.354 61.4217 168.318L117.343 166.578C118.551 166.54 119.621 167.18 119.884 168.095L121.226 172.773C121.573 173.988 120.386 175.14 118.782 175.14Z" fill="url(#paint2_linear_694_2374)"/>
<path d="M92.0022 169.118C91.9528 169.115 91.9063 169.093 91.8723 169.057C91.8383 169.022 91.8193 168.974 91.8193 168.925C91.8193 168.875 91.8383 168.828 91.8723 168.792C91.9063 168.756 91.9528 168.734 92.0022 168.732L94.3985 168.697C94.448 168.699 94.4949 168.72 94.5296 168.755C94.5642 168.79 94.5839 168.838 94.5846 168.887C94.5853 168.937 94.567 168.985 94.5335 169.021C94.4999 169.057 94.4537 169.08 94.4042 169.083L92.0079 169.118H92.0022Z" fill="white"/>
<path d="M60.47 173.526C60.4596 173.527 60.4492 173.527 60.4389 173.526C60.4137 173.523 60.3894 173.514 60.3676 173.501C60.3458 173.488 60.3268 173.47 60.3118 173.45C60.2969 173.429 60.2862 173.406 60.2805 173.381C60.2748 173.356 60.2741 173.331 60.2785 173.306L60.6202 171.171C60.7084 170.615 60.9907 170.108 61.4173 169.74C61.844 169.371 62.3875 169.165 62.9518 169.158L88.3673 168.787C88.4182 168.788 88.467 168.807 88.5036 168.843C88.5402 168.878 88.5618 168.926 88.5639 168.977C88.5646 169.002 88.5603 169.027 88.5511 169.051C88.5418 169.075 88.528 169.096 88.5102 169.115C88.4925 169.133 88.4713 169.147 88.4478 169.157C88.4243 169.167 88.3991 169.172 88.3737 169.172L62.9581 169.543C62.485 169.549 62.0292 169.722 61.6714 170.031C61.3137 170.34 61.0769 170.765 61.0031 171.231L60.6614 173.366C60.6536 173.411 60.6301 173.451 60.5951 173.481C60.5601 173.51 60.5157 173.526 60.47 173.526Z" fill="white"/>
<path d="M155.411 31.2892L77.1455 30.9144C76.2023 30.9055 75.4339 31.946 75.4434 33.2261L75.6165 64.1044C75.6235 65.3915 76.4096 66.4187 77.3579 66.3801L155.177 64.7182C156.083 64.6816 156.806 63.6834 156.817 62.4545L157.09 33.613C157.102 32.3405 156.348 31.2981 155.411 31.2892Z" fill="#E0E0E0"/>
<path d="M77.3086 64.3996C77.1641 64.3996 77.0512 64.2631 77.05 64.0886L76.8769 33.2109C76.8745 33.1354 76.8967 33.0611 76.9403 32.9992C76.9613 32.9679 76.9895 32.9422 77.0226 32.9241C77.0558 32.9061 77.0927 32.8963 77.1305 32.8955L155.396 33.271C155.434 33.2718 155.471 33.2818 155.504 33.3C155.537 33.3183 155.566 33.3444 155.586 33.3759C155.63 33.4379 155.652 33.5121 155.65 33.5877L155.377 62.428C155.377 62.5993 155.269 62.732 155.129 62.7377L77.3086 64.3996ZM77.1343 33.0959C77.1298 33.0959 77.1197 33.0959 77.1038 33.1174C77.0852 33.1445 77.0761 33.1769 77.0778 33.2097L77.2509 64.088C77.2509 64.1562 77.2877 64.1999 77.3067 64.1999L155.129 62.5373C155.15 62.5373 155.183 62.4912 155.183 62.4261L155.456 33.5858C155.458 33.553 155.449 33.5205 155.43 33.4935C155.414 33.4714 155.404 33.4714 155.399 33.4714L77.1343 33.0959Z" fill="white"/>
<path d="M84.1277 47.2456H80.3191V61.7596H84.1277V47.2456Z" fill="#F0BF4C"/>
<path d="M90.4918 52.2339H86.6831V61.7597H90.4918V52.2339Z" fill="#F0BF4C"/>
<path d="M96.8558 39.906H93.0471V61.7598H96.8558V39.906Z" fill="#F0BF4C"/>
<path d="M103.22 56.509H99.4111V61.759H103.22V56.509Z" fill="#F0BF4C"/>
<path d="M109.584 42.8276H105.775V61.7597H109.584V42.8276Z" fill="#F0BF4C"/>
<path d="M115.949 46.1052H112.14V61.759H115.949V46.1052Z" fill="#F0BF4C"/>
<path d="M122.313 49.6687H118.504V61.7597H122.313V49.6687Z" fill="#F0BF4C"/>
<path d="M128.677 35.4878H124.868V61.7597H128.677V35.4878Z" fill="#F0BF4C"/>
<path d="M135.041 38.2668H131.232V61.7598H135.041V38.2668Z" fill="#F0BF4C"/>
<path d="M141.405 42.4712H137.596V61.7598H141.405V42.4712Z" fill="#F0BF4C"/>
<path d="M147.769 56.9966H143.96V61.7591H147.769V56.9966Z" fill="#F0BF4C"/>
<path d="M154.133 47.7444H150.325V61.7596H154.133V47.7444Z" fill="#F0BF4C"/>
<path d="M17.946 100.461H60.2456C60.8932 100.461 61.5142 100.205 61.9721 99.748C62.43 99.2914 62.6874 98.6721 62.6875 98.0263V34.85C62.6875 34.2053 62.4311 33.5869 61.9746 33.1304C61.518 32.6739 60.8985 32.4166 60.252 32.415L17.6144 32.3005C17.2921 32.2997 16.9727 32.3625 16.6748 32.4853C16.3769 32.6081 16.1063 32.7886 15.8787 33.0162C15.651 33.2437 15.4708 33.514 15.3484 33.8114C15.226 34.1088 15.1639 34.4274 15.1656 34.7488L15.5034 98.039C15.507 98.6826 15.7659 99.2988 16.2235 99.7527C16.6812 100.207 17.3005 100.461 17.946 100.461Z" fill="#006BE8"/>
<path d="M20.0189 35.4183L57.8411 35.6503C58.4977 35.6541 59.1259 35.9177 59.5877 36.3832C60.0495 36.8487 60.3071 37.4779 60.3039 38.1327L60.0402 94.8359C60.0371 95.4815 59.7809 96.1003 59.3262 96.5598C58.8715 97.0194 58.2545 97.2832 57.6072 97.295L20.8582 97.9631C20.5319 97.9692 20.2076 97.9108 19.904 97.7915C19.6004 97.6722 19.3234 97.4943 19.0889 97.2679C18.8545 97.0415 18.6672 96.7711 18.5379 96.4724C18.4085 96.1736 18.3396 95.8523 18.3352 95.5269L17.5256 37.9234C17.521 37.5948 17.5822 37.2685 17.7056 36.9637C17.829 36.6589 18.0122 36.3817 18.2444 36.1484C18.4766 35.9151 18.7531 35.7304 19.0578 35.605C19.3625 35.4796 19.6893 35.4161 20.0189 35.4183Z" fill="#E0E0E0"/>
<path opacity="0.6" d="M51.4404 37.856H22.298C21.8887 37.856 21.5569 38.1868 21.5569 38.5949V38.8554C21.5569 39.2635 21.8887 39.5943 22.298 39.5943H51.4404C51.8497 39.5943 52.1814 39.2635 52.1814 38.8554V38.5949C52.1814 38.1868 51.8497 37.856 51.4404 37.856Z" fill="#F0BF4C"/>
<path opacity="0.6" d="M24.8082 41.8654C24.8184 42.0519 24.899 42.2276 25.0337 42.3573C25.1685 42.487 25.3474 42.561 25.5347 42.5646L51.0187 43.0273C51.1171 43.0291 51.2149 43.0113 51.3064 42.9749C51.3978 42.9386 51.4811 42.8844 51.5513 42.8156C51.6216 42.7468 51.6774 42.6648 51.7154 42.5742C51.7535 42.4837 51.7731 42.3865 51.7731 42.2883V42.2251C51.7731 42.031 51.6966 41.8447 51.5601 41.7064C51.4236 41.568 51.238 41.4887 51.0434 41.4855L25.5594 41.0829C25.4574 41.0813 25.3562 41.1007 25.2622 41.1399C25.1681 41.1791 25.0831 41.2373 25.0126 41.3108C24.9421 41.3842 24.8875 41.4714 24.8524 41.5668C24.8172 41.6623 24.8022 41.7639 24.8082 41.8654Z" fill="#F0BF4C"/>
<path opacity="0.61" d="M22.2066 96.0617C21.6443 96.0596 21.1049 95.8385 20.7038 95.4455C20.3026 95.0524 20.0714 94.5186 20.0595 93.9579L19.2354 47.582C19.2259 47.0153 19.4417 46.4678 19.8357 46.0593C20.2297 45.6507 20.7699 45.4143 21.3382 45.4017L55.7492 44.7336C56.0313 44.7281 56.3117 44.7781 56.5744 44.8807C56.8371 44.9834 57.077 45.1366 57.2803 45.3316C57.4836 45.5267 57.6464 45.7598 57.7594 46.0176C57.8724 46.2754 57.9333 46.5529 57.9388 46.8342L58.8263 93.4655C58.8316 93.7479 58.7808 94.0286 58.6769 94.2914C58.5729 94.5542 58.4179 94.7939 58.2207 94.9967C58.0235 95.1995 57.788 95.3615 57.5278 95.4732C57.2676 95.5849 56.9878 95.6442 56.7045 95.6476L22.2333 96.0598L22.2066 96.0617ZM55.7917 45.506H55.7644L21.3534 46.1742C20.9902 46.1818 20.6449 46.3323 20.3925 46.5928C20.1402 46.8533 20.0013 47.2028 20.0063 47.5649L20.8304 93.9408C20.8377 94.2997 20.9855 94.6414 21.2422 94.8929C21.499 95.1444 21.8442 95.2857 22.2041 95.2867H22.2206L56.6918 94.8739C56.8731 94.8717 57.0521 94.8339 57.2185 94.7624C57.385 94.691 57.5357 94.5874 57.6618 94.4577C57.788 94.328 57.8872 94.1746 57.9536 94.0065C58.0201 93.8384 58.0525 93.6588 58.0491 93.4781L57.1616 46.8468C57.1546 46.4882 57.0069 46.1466 56.7502 45.8953C56.4935 45.644 56.1482 45.5031 55.7885 45.5029L55.7917 45.506Z" fill="#F0BF4C"/>
<path opacity="0.61" d="M57.6079 50.1718H20.0659C19.9633 50.1718 19.865 50.1312 19.7925 50.0589C19.7199 49.9866 19.6792 49.8885 19.6792 49.7862C19.6792 49.684 19.7199 49.5859 19.7925 49.5136C19.865 49.4413 19.9633 49.4006 20.0659 49.4006H57.6079C57.7105 49.4006 57.8088 49.4413 57.8813 49.5136C57.9539 49.5859 57.9946 49.684 57.9946 49.7862C57.9946 49.8885 57.9539 49.9866 57.8813 50.0589C57.8088 50.1312 57.7105 50.1718 57.6079 50.1718Z" fill="#F0BF4C"/>
<path opacity="0.73" d="M39.8921 87.0852C31.7575 87.0852 25.1399 80.4863 25.1399 72.3746C25.1399 64.263 31.7575 57.6653 39.8921 57.6653C48.0267 57.6653 54.6468 64.263 54.6468 72.3746C54.6468 80.4863 48.0267 87.0852 39.8921 87.0852ZM39.8921 62.2774C34.3084 62.2774 29.7663 66.8067 29.7663 72.3746C29.7663 77.9425 34.3084 82.4718 39.8921 82.4718C45.4758 82.4718 50.0191 77.9419 50.0191 72.3746C50.0191 66.8073 45.4758 62.2799 39.8921 62.2799V62.2774Z" fill="#006BE8"/>
<path opacity="0.65" d="M54.6031 71.2742L49.9893 71.6193C50.0084 71.8684 50.0179 72.1212 50.0179 72.3779C50.019 73.5468 49.8154 74.7069 49.4163 75.806L53.7682 77.3725C54.3493 75.7713 54.6458 74.0813 54.6443 72.3785C54.646 72.0056 54.6322 71.6374 54.6031 71.2742Z" fill="#8DC2FF"/>
<path d="M39.8921 82.4719C34.3084 82.4719 29.7663 77.942 29.7663 72.3747C29.7663 66.8074 34.3084 62.28 39.8921 62.28C40.7237 62.2796 41.5522 62.3816 42.3587 62.5835L43.4859 58.1085C42.3107 57.8142 41.1037 57.6656 39.8921 57.666C31.7575 57.666 25.1399 64.265 25.1399 72.3766C25.1399 80.4883 31.7575 87.0872 39.8921 87.0872C46.2688 87.0872 51.713 83.0314 53.7682 77.3712L49.4163 75.8047C48.0058 79.688 44.2688 82.4719 39.8921 82.4719Z" fill="#8DC2FF"/>
<path opacity="0.26" d="M49.9892 71.6192L54.6029 71.2741C54.4653 69.4178 53.973 67.6049 53.1525 65.9331L48.9939 67.956C49.5569 69.1026 49.8948 70.346 49.9892 71.6192Z" fill="#8DC2FF"/>
<mask id="mask0_694_2374" style="mask-type:luminance" maskUnits="userSpaceOnUse" x="5" y="58" width="162" height="87">
<path d="M5.15649 63.397V135.834C5.1563 137.594 5.8505 139.284 7.0891 140.537C8.3277 141.791 10.0112 142.509 11.776 142.535L160.02 144.361C160.885 144.374 161.744 144.216 162.547 143.896C163.35 143.575 164.082 143.099 164.699 142.495C165.317 141.891 165.808 141.17 166.144 140.376C166.48 139.581 166.655 138.727 166.658 137.865L166.907 66.0729C166.911 64.8248 166.425 63.6247 165.553 62.7298C164.68 61.835 163.491 61.3167 162.24 61.2863L10.465 58.2305C9.77404 58.2138 9.08666 58.335 8.44335 58.5871C7.80005 58.8392 7.21381 59.2171 6.71916 59.6985C6.22451 60.1799 5.83143 60.7551 5.56306 61.3903C5.29469 62.0255 5.15646 62.7078 5.15649 63.397Z" fill="white"/>
</mask>
<g mask="url(#mask0_694_2374)">
<path d="M17.4008 175.633H59.6998C60.3476 175.633 60.9689 175.377 61.427 174.92C61.885 174.463 62.1424 173.844 62.1424 173.198V110.022C62.1424 109.377 61.886 108.759 61.4294 108.302C60.9729 107.845 60.3534 107.588 59.7068 107.586L17.0693 107.472C16.7469 107.471 16.4275 107.534 16.1296 107.657C15.8316 107.78 15.561 107.96 15.3333 108.188C15.1057 108.415 14.9255 108.686 14.8031 108.983C14.6807 109.281 14.6186 109.599 14.6204 109.921L14.9583 173.211C14.962 173.854 15.2209 174.47 15.6786 174.924C16.1362 175.378 16.7554 175.633 17.4008 175.633Z" fill="#E0E0E0"/>
<path opacity="0.6" d="M19.4737 110.59L57.2959 110.822C57.9525 110.826 58.5807 111.09 59.0424 111.555C59.5042 112.021 59.7618 112.65 59.7587 113.305L59.495 170.008C59.492 170.653 59.2357 171.272 58.781 171.732C58.3263 172.191 57.7093 172.455 57.062 172.467L20.3131 173.136C19.9867 173.142 19.6625 173.083 19.3589 172.964C19.0552 172.845 18.7782 172.667 18.5437 172.44C18.3093 172.214 18.1219 171.944 17.9925 171.645C17.863 171.346 17.794 171.025 17.7894 170.699L16.9805 113.096C16.9757 112.767 17.0369 112.441 17.1602 112.136C17.2836 111.831 17.4667 111.554 17.6989 111.32C17.9311 111.087 18.2077 110.902 18.5125 110.777C18.8172 110.651 19.144 110.588 19.4737 110.59Z" fill="#E0E0E0"/>
<path opacity="0.6" d="M50.8952 113.027H21.7528C21.3435 113.027 21.0117 113.358 21.0117 113.766V114.027C21.0117 114.435 21.3435 114.765 21.7528 114.765H50.8952C51.3045 114.765 51.6363 114.435 51.6363 114.027V113.766C51.6363 113.358 51.3045 113.027 50.8952 113.027Z" fill="white"/>
<path opacity="0.6" d="M24.2632 117.037C24.2733 117.223 24.3538 117.399 24.4886 117.529C24.6234 117.659 24.8024 117.733 24.9897 117.736L50.4737 118.199C50.5722 118.201 50.6701 118.183 50.7616 118.147C50.8532 118.111 50.9365 118.056 51.0068 117.987C51.0771 117.919 51.1329 117.836 51.171 117.746C51.2091 117.655 51.2287 117.558 51.2287 117.46V117.397C51.2287 117.202 51.1522 117.016 51.0157 116.878C50.8792 116.74 50.6936 116.661 50.4991 116.658L25.0151 116.254C24.9131 116.253 24.8119 116.272 24.7177 116.311C24.6236 116.351 24.5386 116.409 24.4681 116.482C24.3975 116.556 24.3429 116.643 24.3077 116.738C24.2724 116.834 24.2573 116.935 24.2632 117.037Z" fill="white"/>
<path opacity="0.61" d="M21.6615 171.233C21.0992 171.231 20.5599 171.01 20.1588 170.617C19.7577 170.224 19.5264 169.69 19.5143 169.13L18.6902 122.753C18.681 122.186 18.8973 121.639 19.2917 121.231C19.686 120.822 20.2265 120.586 20.7949 120.574L55.2059 119.906C55.7754 119.896 56.3258 120.111 56.7369 120.504C56.9408 120.699 57.104 120.932 57.217 121.19C57.3299 121.448 57.3904 121.725 57.3949 122.007L58.2824 168.638C58.2878 168.92 58.2372 169.201 58.1333 169.464C58.0294 169.727 57.8744 169.967 57.6772 170.17C57.4799 170.372 57.2444 170.534 56.9841 170.646C56.7238 170.758 56.4439 170.817 56.1606 170.82L21.6893 171.233H21.6615ZM55.2465 120.677H55.2173L20.8063 121.346C20.443 121.353 20.0975 121.503 19.8451 121.764C19.5926 122.024 19.4539 122.374 19.4592 122.736L20.2833 169.112C20.2914 169.473 20.4418 169.817 20.7019 170.069C20.9621 170.32 21.3111 170.46 21.6735 170.457L56.1448 170.045C56.326 170.043 56.505 170.005 56.6715 169.933C56.838 169.862 56.9886 169.758 57.1148 169.629C57.2409 169.499 57.3401 169.345 57.4066 169.177C57.473 169.009 57.5055 168.829 57.502 168.649L56.6145 122.018C56.6077 121.659 56.4601 121.318 56.2033 121.066C55.9466 120.815 55.6012 120.674 55.2414 120.674L55.2465 120.677Z" fill="white"/>
<path opacity="0.61" d="M57.0627 125.344H19.5207C19.4685 125.346 19.4165 125.337 19.3677 125.319C19.3189 125.3 19.2744 125.272 19.2367 125.236C19.1991 125.2 19.1691 125.157 19.1487 125.109C19.1282 125.061 19.1177 125.01 19.1177 124.958C19.1177 124.906 19.1282 124.854 19.1487 124.806C19.1691 124.758 19.1991 124.715 19.2367 124.679C19.2744 124.643 19.3189 124.615 19.3677 124.597C19.4165 124.578 19.4685 124.57 19.5207 124.572H57.0627C57.1626 124.576 57.2571 124.618 57.3264 124.69C57.3957 124.762 57.4344 124.858 57.4344 124.958C57.4344 125.058 57.3957 125.153 57.3264 125.225C57.2571 125.297 57.1626 125.34 57.0627 125.344Z" fill="white"/>
<path d="M156.646 120.041L76.426 119.656C75.4593 119.647 74.6745 120.713 74.6814 122.026L74.8596 153.675C74.8665 154.994 75.6723 156.047 76.6447 156.007L156.407 154.304C157.335 154.266 158.076 153.243 158.088 151.984L158.367 122.423C158.381 121.118 157.609 120.05 156.646 120.041Z" fill="#E0E0E0"/>
<path d="M76.5953 153.977C76.447 153.977 76.3316 153.838 76.3309 153.661L76.1528 122.012C76.1501 121.935 76.1723 121.859 76.2162 121.796C76.238 121.763 76.2675 121.736 76.3021 121.718C76.3367 121.699 76.3753 121.69 76.4146 121.689L156.635 122.074C156.674 122.075 156.712 122.085 156.746 122.104C156.781 122.122 156.81 122.149 156.831 122.182C156.875 122.245 156.897 122.321 156.895 122.398L156.615 151.96C156.615 152.135 156.504 152.271 156.362 152.276L76.5953 153.977ZM76.4172 121.891C76.4121 121.891 76.4019 121.891 76.3855 121.913C76.3667 121.941 76.3574 121.974 76.3588 122.007L76.5363 153.656C76.5363 153.726 76.5737 153.771 76.5934 153.771L156.359 152.065C156.381 152.065 156.414 152.017 156.415 151.951L156.694 122.39C156.696 122.356 156.686 122.323 156.668 122.295C156.651 122.272 156.64 122.272 156.636 122.272L76.4172 121.891Z" fill="white"/>
<g opacity="0.6">
<path d="M108.027 142.831V144.115H114.733V142.831H108.027Z" fill="#F0BF4C"/>
<path d="M90.5515 140.684V141.969H114.732V140.684H90.5515Z" fill="#F0BF4C"/>
<path d="M94.7385 138.538V139.823H114.733V138.538H94.7385Z" fill="#F0BF4C"/>
<path d="M99.2896 136.391V137.676H114.733V136.391H99.2896Z" fill="#F0BF4C"/>
<path d="M81.1775 134.245V135.529H114.733V134.245H81.1775Z" fill="#F0BF4C"/>
<path d="M84.7268 132.098V133.383H114.733V132.098H84.7268Z" fill="#F0BF4C"/>
<path d="M90.0969 129.952V131.236H114.733V129.952H90.0969Z" fill="#F0BF4C"/>
<path d="M108.649 127.806V129.09H114.733V127.806H108.649Z" fill="#F0BF4C"/>
<path d="M96.8325 125.659V126.943H114.733V125.659H96.8325Z" fill="#F0BF4C"/>
</g>
<g opacity="0.6">
<path d="M119.211 142.831V144.115H125.917V142.831H119.211Z" fill="#F0BF4C"/>
<path d="M119.211 140.685V141.969H143.392V140.685H119.211Z" fill="#F0BF4C"/>
<path d="M119.211 138.538V139.823H139.206V138.538H119.211Z" fill="#F0BF4C"/>
<path d="M119.212 136.391V137.676H134.655V136.391H119.212Z" fill="#F0BF4C"/>
<path d="M119.212 134.245V135.53H152.768V134.245H119.212Z" fill="#F0BF4C"/>
<path d="M119.212 132.098V133.383H149.218V132.098H119.212Z" fill="#F0BF4C"/>
<path d="M119.212 129.952V131.237H143.848V129.952H119.212Z" fill="#F0BF4C"/>
<path d="M119.211 127.805V129.09H125.295V127.805H119.211Z" fill="#F0BF4C"/>
<path d="M119.212 125.659V126.943H137.113V125.659H119.212Z" fill="#F0BF4C"/>
</g>
</g>
<path d="M178.162 71.4941L77.7751 71.013C76.5656 71.0023 75.583 72.3367 75.5919 73.9784L75.8144 113.584C75.8239 115.235 76.8287 116.555 78.0483 116.503L177.863 114.372C179.024 114.324 179.951 113.044 179.967 111.468L180.317 74.4746C180.332 72.8424 179.365 71.5054 178.162 71.4941Z" fill="#E0E0E0"/>
<path d="M178.29 74.0746L178.29 74.0747L178.29 74.0746Z" fill="#15315E" stroke="#15315E"/>
<path d="M95.574 98.9462C101.314 98.9462 105.967 94.3061 105.967 88.5822C105.967 82.8584 101.314 78.2183 95.574 78.2183C89.8339 78.2183 85.1807 82.8584 85.1807 88.5822C85.1807 94.3061 89.8339 98.9462 95.574 98.9462Z" fill="white"/>
<path d="M121.315 98.9462C127.055 98.9462 131.708 94.3061 131.708 88.5822C131.708 82.8584 127.055 78.2183 121.315 78.2183C115.575 78.2183 110.921 82.8584 110.921 88.5822C110.921 94.3061 115.575 98.9462 121.315 98.9462Z" fill="white"/>
<path d="M147.145 99.2856C152.886 99.2856 157.539 94.6455 157.539 88.9216C157.539 83.1977 152.886 78.5576 147.145 78.5576C141.405 78.5576 136.752 83.1977 136.752 88.9216C136.752 94.6455 141.405 99.2856 147.145 99.2856Z" fill="white"/>
<path d="M101.748 86.3917C102.292 87.712 102.396 89.1716 102.044 90.5552C101.693 91.9389 100.905 93.1732 99.7963 94.0763C98.6878 94.9793 97.3177 95.5032 95.8879 95.5706C94.4581 95.638 93.0445 95.2454 91.8556 94.4507C90.6666 93.656 89.7653 92.5012 89.2845 91.1568C88.8038 89.8124 88.769 88.3496 89.1855 86.984C89.602 85.6184 90.4475 84.4225 91.5975 83.5726C92.7474 82.7227 94.1408 82.2639 95.5722 82.2638C95.685 82.2638 95.7979 82.2638 95.9088 82.2727V80.5848C95.7972 80.5804 95.685 80.5779 95.5722 80.5779C93.7783 80.5791 92.0324 81.1556 90.5923 82.2222C89.1521 83.2887 88.0942 84.7889 87.5747 86.5011C87.0551 88.2132 87.1016 90.0466 87.7071 91.7304C88.3126 93.4142 89.4452 94.8592 90.9375 95.852C92.4297 96.8447 94.2026 97.3325 95.9943 97.2435C97.7859 97.1544 99.5014 96.4931 100.887 95.3572C102.273 94.2214 103.256 92.6712 103.69 90.9357C104.125 89.2001 103.988 87.3712 103.3 85.7191L101.748 86.3917Z" fill="url(#paint3_linear_694_2374)"/>
<path d="M124.848 94.5533C123.972 95.103 122.98 95.4422 121.951 95.5442C120.921 95.6461 119.882 95.508 118.915 95.1407C117.948 94.7734 117.08 94.187 116.379 93.4278C115.679 92.6686 115.164 91.7574 114.878 90.7661C114.591 89.7748 114.539 88.7306 114.726 87.7158C114.913 86.7011 115.334 85.7437 115.956 84.9191C116.578 84.0945 117.384 83.4254 118.31 82.9646C119.235 82.5038 120.256 82.2639 121.291 82.2638C121.403 82.2638 121.516 82.2638 121.627 82.2727V80.5848C121.516 80.5804 121.403 80.5779 121.291 80.5779C119.996 80.5775 118.72 80.8765 117.561 81.4513C116.402 82.0261 115.393 82.8611 114.613 83.8906C113.832 84.9202 113.302 86.1162 113.063 87.3846C112.825 88.6531 112.885 89.9594 113.238 91.2009C113.592 92.4424 114.229 93.5853 115.1 94.5396C115.972 95.4939 117.053 96.2337 118.259 96.7008C119.466 97.1678 120.765 97.3495 122.053 97.2315C123.342 97.1135 124.586 96.6989 125.687 96.0205L124.848 94.5533Z" fill="url(#paint4_linear_694_2374)"/>
<path d="M152.806 92.6638C152.159 93.613 151.276 94.3792 150.245 94.8881C149.213 95.3969 148.067 95.6311 146.917 95.5679C145.768 95.5047 144.655 95.1462 143.685 94.5273C142.716 93.9084 141.924 93.0501 141.385 92.0357C140.846 91.0213 140.58 89.8853 140.612 88.7379C140.643 87.5905 140.972 86.4708 141.566 85.4875C142.159 84.5041 142.998 83.6905 144 83.1257C145.002 82.5608 146.133 82.2639 147.284 82.2638C147.398 82.2638 147.51 82.2638 147.622 82.2727V80.5848C147.509 80.5804 147.397 80.5779 147.284 80.5779C145.843 80.5773 144.427 80.9478 143.172 81.6534C141.916 82.359 140.865 83.3759 140.12 84.6056C139.374 85.8352 138.96 87.236 138.917 88.6722C138.874 90.1084 139.203 91.5314 139.873 92.8034C140.544 94.0753 141.532 95.1532 142.742 95.9325C143.953 96.7118 145.345 97.1662 146.783 97.2517C148.222 97.3372 149.658 97.0508 150.953 96.4204C152.247 95.7899 153.357 94.8367 154.174 93.6531L152.806 92.6638Z" fill="url(#paint5_linear_694_2374)"/>
<path opacity="0.5" d="M104.116 103.336H87.1795C86.9268 103.336 86.6765 103.386 86.443 103.483C86.2095 103.579 85.9973 103.72 85.8186 103.899C85.6399 104.077 85.4981 104.288 85.4014 104.521C85.3047 104.754 85.2549 105.004 85.2549 105.256C85.2549 105.508 85.3047 105.757 85.4014 105.99C85.4981 106.223 85.6399 106.434 85.8186 106.613C85.9973 106.791 86.2095 106.932 86.443 107.029C86.6765 107.125 86.9268 107.175 87.1795 107.175H104.116C104.627 107.175 105.116 106.973 105.477 106.613C105.838 106.253 106.041 105.765 106.041 105.256C106.041 104.747 105.838 104.258 105.477 103.899C105.116 103.539 104.627 103.336 104.116 103.336Z" fill="white"/>
<path opacity="0.5" d="M129.947 103.336H113.01C112.499 103.336 112.01 103.539 111.649 103.899C111.288 104.258 111.085 104.747 111.085 105.256C111.085 105.765 111.288 106.253 111.649 106.613C112.01 106.973 112.499 107.175 113.01 107.175H129.947C130.457 107.175 130.947 106.973 131.308 106.613C131.669 106.253 131.872 105.765 131.872 105.256C131.872 104.747 131.669 104.258 131.308 103.899C130.947 103.539 130.457 103.336 129.947 103.336Z" fill="white"/>
<path opacity="0.5" d="M138.677 107.175H155.614C155.866 107.175 156.117 107.125 156.35 107.029C156.584 106.932 156.796 106.791 156.974 106.613C157.153 106.434 157.295 106.223 157.392 105.99C157.488 105.757 157.538 105.508 157.538 105.256C157.538 105.004 157.488 104.754 157.392 104.521C157.295 104.288 157.153 104.077 156.974 103.899C156.796 103.72 156.584 103.579 156.35 103.483C156.117 103.386 155.866 103.336 155.614 103.336H138.677C138.166 103.336 137.677 103.539 137.316 103.899C136.955 104.258 136.752 104.747 136.752 105.256C136.752 105.765 136.955 106.253 137.316 106.613C137.677 106.973 138.166 107.175 138.677 107.175Z" fill="white"/>
<path d="M37.1685 175.97C35.3403 176.128 32.1668 176.384 29.6647 176.494C28.161 176.557 27.295 176.413 26.7961 176.214C26.7961 176.27 26.7961 176.323 26.8006 176.372C26.8075 176.499 26.8616 176.62 26.9525 176.71C27.0434 176.8 27.1645 176.853 27.2925 176.859C30.5651 177.045 33.8455 177.049 37.1184 176.869C37.1817 176.866 37.243 176.847 37.2966 176.813C37.3502 176.78 37.3942 176.733 37.4244 176.678C37.4546 176.622 37.47 176.56 37.469 176.497C37.4681 176.434 37.4508 176.372 37.4189 176.317C37.3439 176.196 37.2603 176.08 37.1685 175.97Z" fill="url(#paint6_linear_694_2374)"/>
<path d="M29.6647 176.494C32.1668 176.384 35.3403 176.128 37.1685 175.97C35.3707 173.77 29.6647 172.288 29.6647 172.288H28.0532C26.9445 173.882 26.7854 175.399 26.7961 176.214C27.295 176.413 28.161 176.559 29.6647 176.494Z" fill="url(#paint7_linear_694_2374)"/>
<path d="M27.782 169.665L27.9329 172.641C27.9404 172.798 28.0026 172.948 28.1086 173.064C28.2147 173.181 28.358 173.257 28.5142 173.28C28.9201 173.34 29.3346 173.306 29.725 173.18C29.8627 173.135 29.9858 173.054 30.0812 172.945C30.1766 172.836 30.2408 172.704 30.267 172.562L30.7881 169.665H27.782Z" fill="url(#paint8_linear_694_2374)"/>
<path d="M6.84841 176.471C6.056 176.361 5.6972 175.95 5.54632 175.511V175.523C5.42968 175.986 5.69973 176.466 6.24364 176.695C6.89723 176.97 7.61166 177.018 8.16635 176.995C8.76161 176.97 9.30743 176.724 9.60854 176.332L9.61298 176.325C9.01011 176.621 8.17206 176.655 6.84841 176.471Z" fill="url(#paint9_linear_694_2374)"/>
<path d="M10.5885 169.646H9.25722C7.23245 169.605 5.96078 173.862 5.54492 175.511C5.6958 175.95 6.05207 176.361 6.84701 176.472C8.17003 176.655 9.00809 176.621 9.60588 176.326C10.6994 174.891 11.2414 172.786 11.5026 171.562C11.8005 170.167 10.5885 169.646 10.5885 169.646Z" fill="url(#paint10_linear_694_2374)"/>
<path d="M9.42976 166.883L8.69186 169.811C8.64842 169.985 8.66579 170.17 8.74112 170.333C8.81645 170.497 8.94526 170.63 9.10645 170.711C9.51914 170.922 10.1005 171.144 10.6349 171.08C10.7576 171.064 10.8734 171.014 10.9693 170.936C11.0651 170.858 11.1372 170.754 11.1775 170.638L12.2609 167.558L9.42976 166.883Z" fill="url(#paint11_linear_694_2374)"/>
<path d="M8.54907 167.73C9.46764 168.542 12.4541 168.649 12.4541 168.649C23.2119 142.901 27.6126 139.243 27.6126 139.243C26.0595 148.962 27.3622 170.477 27.3622 170.477C29.1372 171.258 31.4264 170.477 31.4264 170.477C31.5577 156.728 33.4031 143.048 36.92 129.752C29.6488 129.59 25.7825 127.109 24.5197 126.113C18.4587 135.857 8.54907 167.73 8.54907 167.73Z" fill="url(#paint12_linear_694_2374)"/>
<path d="M26.3665 96.5029C24.9903 103.348 25.4834 115.601 25.8074 121.189C25.8987 122.76 24.7988 124.937 23.91 126.423C23.877 126.478 23.8557 126.539 23.8474 126.602C23.8391 126.666 23.8441 126.73 23.8619 126.792C23.8798 126.853 23.9101 126.911 23.9511 126.96C23.9921 127.009 24.0429 127.05 24.1002 127.078C25.588 127.841 30.6297 130.204 36.472 130.499C36.6617 130.506 36.8482 130.449 37.0006 130.336C37.1531 130.223 37.2622 130.061 37.3101 129.878C41.6442 113.741 46.6777 103.43 46.6777 103.43C41.1193 94.5824 26.3665 96.5029 26.3665 96.5029Z" fill="url(#paint13_linear_694_2374)"/>
<path d="M28.3468 138.634C28.2858 138.634 28.2259 138.617 28.1733 138.586C28.1208 138.555 28.0773 138.511 28.0474 138.458C28.0176 138.405 28.0023 138.345 28.0032 138.284C28.0041 138.224 28.0212 138.164 28.0526 138.112C28.111 138.017 29.5024 135.773 32.3184 134.419C32.4001 134.383 32.4926 134.38 32.5764 134.411C32.6601 134.442 32.7286 134.504 32.7675 134.584C32.8063 134.664 32.8125 134.756 32.7846 134.841C32.7568 134.926 32.6971 134.996 32.6182 135.038C29.9925 136.302 28.6549 138.448 28.6416 138.469C28.6107 138.519 28.5674 138.561 28.5158 138.59C28.4642 138.619 28.406 138.634 28.3468 138.634Z" fill="url(#paint14_linear_694_2374)"/>
<path d="M17.7336 116.149C18.1774 119.339 19.482 122.817 22.0951 126.512L23.0878 125.704C23.0878 125.704 21.9417 121.066 22.5934 115.801C20.9851 115.488 19.0782 115.811 17.7336 116.149Z" fill="url(#paint15_linear_694_2374)"/>
<path d="M27.9038 104.95L26.3665 96.5029C26.3665 96.5029 16.0968 104.331 17.7336 116.149C19.0782 115.81 20.9819 115.487 22.5934 115.801C23.0631 112.008 24.4654 107.891 27.9038 104.95Z" fill="url(#paint16_linear_694_2374)"/>
<path d="M46.6764 103.432L42.7124 111.947C43.3533 117.087 46.1223 119.309 49.1081 120.161C49.2551 118.255 49.7044 116.383 50.4394 114.617C46.6244 110.687 46.6764 103.432 46.6764 103.432Z" fill="url(#paint17_linear_694_2374)"/>
<path d="M50.4394 114.615C49.7044 116.381 49.2551 118.252 49.1082 120.159C57.0741 123.241 59.1813 117.264 59.1813 117.264L57.7093 117.005C54.385 117.354 52.0623 116.286 50.4394 114.615Z" fill="url(#paint18_linear_694_2374)"/>
<path d="M43.0242 92.9187L41.1104 99.9355C41.0596 100.121 40.97 100.294 40.8474 100.443C40.7249 100.592 40.5721 100.713 40.3992 100.799C40.2263 100.885 40.0372 100.933 39.8442 100.941C39.6513 100.949 39.4588 100.916 39.2796 100.844C38.3378 100.475 37.4168 100.056 36.5207 99.5872C36.2949 99.4649 36.0973 99.297 35.9404 99.0941C35.7835 98.8912 35.6708 98.6579 35.6096 98.4091C35.5483 98.1603 35.5399 97.9014 35.5848 97.6492C35.6297 97.3969 35.7269 97.1568 35.8703 96.9442L39.8495 91.0273L43.0242 92.9187Z" fill="url(#paint19_linear_694_2374)"/>
<path d="M62.8327 112.569L13.7893 130.369C13.3028 130.545 12.8582 130.82 12.4834 131.176C12.1086 131.532 11.8117 131.962 11.6113 132.438C11.4109 132.914 11.3114 133.426 11.319 133.942C11.3266 134.458 11.4412 134.967 11.6555 135.437L11.8045 135.763C11.9949 136.181 12.2664 136.557 12.6033 136.87C12.9402 137.183 13.3358 137.426 13.7673 137.586C14.1989 137.746 14.6579 137.819 15.1178 137.801C15.5778 137.783 16.0296 137.674 16.4474 137.482L64.0676 115.515L62.8327 112.569Z" fill="url(#paint20_linear_694_2374)"/>
<path opacity="0.14" d="M85.3746 125.568C98.7453 125.568 109.584 114.955 109.584 101.862C109.584 88.7698 98.7453 78.1562 85.3746 78.1562C72.0039 78.1562 61.1648 88.7698 61.1648 101.862C61.1648 114.955 72.0039 125.568 85.3746 125.568Z" fill="url(#paint21_linear_694_2374)"/>
<path d="M85.3747 75.4836C70.4963 75.4836 58.4358 87.294 58.4358 101.862C58.4358 116.431 70.4963 128.241 85.3779 128.241C100.259 128.241 112.32 116.431 112.32 101.862C112.32 87.294 100.253 75.4836 85.3747 75.4836ZM85.3747 124.366C72.6821 124.366 62.3928 114.291 62.3928 101.862C62.3928 89.4325 72.6821 79.3574 85.3747 79.3574C98.0672 79.3574 108.357 89.4325 108.357 101.862C108.357 114.291 98.0672 124.366 85.3747 124.366Z" fill="url(#paint22_linear_694_2374)"/>
<path d="M60.4839 105.13C60.4398 105.13 60.3973 105.114 60.3642 105.085C60.3311 105.056 60.3096 105.016 60.3038 104.973C60.2239 104.34 60.1675 103.708 60.1365 103.081C60.134 103.033 60.1508 102.986 60.183 102.951C60.2152 102.915 60.2603 102.894 60.3083 102.891C60.3324 102.889 60.3568 102.891 60.38 102.898C60.4031 102.906 60.4244 102.918 60.4425 102.934C60.4605 102.95 60.4748 102.97 60.4845 102.992C60.4941 103.015 60.4989 103.039 60.4984 103.063C60.5289 103.68 60.584 104.307 60.6633 104.926C60.6692 104.974 60.656 105.022 60.6267 105.059C60.5974 105.097 60.5542 105.122 60.5067 105.128C60.4991 105.129 60.4915 105.13 60.4839 105.13ZM60.6683 97.7541C60.6576 97.755 60.6468 97.755 60.636 97.7541C60.5888 97.7455 60.5469 97.7185 60.5196 97.6792C60.4923 97.6398 60.4817 97.5913 60.4902 97.5442C60.7965 95.8442 61.2836 94.1815 61.9432 92.5844C65.8266 83.1901 75.0243 77.1197 85.3739 77.1197C90.1705 77.1116 94.8723 78.4518 98.94 80.9865C98.9759 81.0137 99.0004 81.0533 99.0086 81.0975C99.0168 81.1418 99.0082 81.1875 98.9844 81.2257C98.9607 81.2639 98.9235 81.292 98.8801 81.3043C98.8367 81.3166 98.7902 81.3124 98.7498 81.2924C94.7391 78.7934 90.1032 77.4723 85.3739 77.4806C75.1676 77.4806 66.1024 83.4639 62.2779 92.7222C61.6279 94.2955 61.1481 95.9333 60.8465 97.6081C60.8384 97.6491 60.8163 97.6861 60.7839 97.7127C60.7516 97.7394 60.7109 97.754 60.669 97.7541H60.6683Z" fill="white"/>
<path d="M47.2115 87.5886C47.2286 87.7087 45.6152 95.5946 45.6152 95.5946L41.1194 94.5826L41.5352 86.8818C41.5352 86.8818 46.9192 85.5714 47.2115 87.5886Z" fill="url(#paint23_linear_694_2374)"/>
<path d="M42.5463 88.5954L42.0088 92.6316C42.0018 92.683 42.0018 92.7351 42.0088 92.7865C42.0544 93.1025 42.2902 94.1772 43.3806 93.8718C44.3702 93.5924 45.2773 93.3522 45.9043 93.5431C46.0399 93.5845 46.1553 93.6747 46.2278 93.7963C46.3004 93.9178 46.3249 94.0619 46.2967 94.2006C46.1496 94.9174 45.7895 96.5256 45.2615 97.8752C45.2089 98.0068 45.1091 98.1141 44.9814 98.1762C44.8537 98.2383 44.7074 98.2507 44.5711 98.2109C43.7185 97.9631 41.9346 97.3891 40.6078 96.5939C40.5195 96.5413 40.4472 96.4661 40.3983 96.3759C40.3494 96.2858 40.3259 96.1842 40.3301 96.0818C40.3732 95.0628 40.4924 91.9653 40.3935 91.0967C40.299 90.2813 39.2955 89.7933 38.86 89.6182C38.7895 89.59 38.7254 89.5478 38.6718 89.4941C38.6181 89.4404 38.5761 89.3764 38.5481 89.3059C38.3459 88.8002 38.0676 87.6345 39.5428 87.1566C39.6159 87.1332 39.6836 87.0952 39.7417 87.0451C39.7998 86.9949 39.8471 86.9336 39.8808 86.8648C39.9146 86.7959 39.934 86.721 39.938 86.6445C39.942 86.568 39.9305 86.4915 39.9041 86.4195C39.686 85.8133 39.5935 84.8878 40.7346 84.3777C41.8947 83.86 42.7631 84.4763 43.2284 84.977C43.3203 85.0741 43.4434 85.1359 43.5763 85.1516C43.7093 85.1673 43.8435 85.1359 43.9556 85.0629C44.0887 84.9789 44.2611 84.951 44.469 85.08C44.5362 85.1201 44.611 85.1457 44.6887 85.1552C44.7664 85.1648 44.8452 85.158 44.9201 85.1354C44.995 85.1128 45.0644 85.0748 45.1237 85.0239C45.183 84.973 45.231 84.9103 45.2646 84.8398C45.5423 84.2709 46.1084 83.6621 47.2438 83.8562C49.2584 84.2001 49.4866 86.4265 48.9554 87.7312C48.4241 89.036 46.2612 88.5391 45.1759 87.881C44.3518 87.381 43.2811 87.9051 42.8151 88.1851C42.7423 88.2289 42.6803 88.2886 42.6338 88.3596C42.5872 88.4306 42.5573 88.5112 42.5463 88.5954Z" fill="url(#paint24_linear_694_2374)"/>
<path d="M40.2115 92.5685C40.2115 92.5685 41.04 90.2555 40.1887 89.6891C39.3373 89.1227 38.0777 89.4172 38.3553 91.0924C38.7002 93.1766 40.2115 92.5685 40.2115 92.5685Z" fill="url(#paint25_linear_694_2374)"/>
<path d="M22.6781 125.564L27.3147 125.185L29.3224 127.03C29.3224 127.03 28.8476 127.685 27.3623 127.309C25.877 126.932 23.8433 126.84 23.8433 126.84C23.8433 126.84 21.7925 127.761 21.7678 126.037L22.6781 125.564Z" fill="url(#paint26_linear_694_2374)"/>
<path d="M58.5912 118.357C58.9918 118.673 60.3662 118.018 61.2061 117.567C61.4047 117.461 61.56 117.29 61.6454 117.082C61.7308 116.874 61.7409 116.644 61.674 116.429C61.4717 115.793 61.1345 114.972 60.7193 114.868C60.0302 114.695 56.9385 117.07 58.5912 118.357Z" fill="url(#paint27_linear_694_2374)"/>
<path d="M14.7573 136.798C14.737 136.798 14.7169 136.794 14.6977 136.788C12.7819 136.127 12.3363 134.998 12.3002 134.168C12.2475 132.954 13.0127 131.83 14.202 131.365L20.0912 129.075C20.1361 129.058 20.1863 129.059 20.2306 129.078C20.2749 129.097 20.3097 129.133 20.3273 129.178C20.345 129.223 20.344 129.273 20.3247 129.317C20.3054 129.361 20.2693 129.396 20.2243 129.414L14.3351 131.703C13.2891 132.11 12.6171 133.094 12.6634 134.155C12.709 135.2 13.4336 135.971 14.8188 136.449C14.8594 136.462 14.8939 136.49 14.9159 136.527C14.938 136.564 14.9462 136.607 14.9391 136.649C14.932 136.691 14.9101 136.73 14.8772 136.757C14.8444 136.785 14.8027 136.8 14.7598 136.799L14.7573 136.798Z" fill="white"/>
<path d="M21.9714 128.718C21.9294 128.718 21.8891 128.702 21.8571 128.675C21.8251 128.648 21.8036 128.611 21.7961 128.57C21.7886 128.529 21.7957 128.486 21.8161 128.45C21.8365 128.413 21.869 128.385 21.908 128.369L22.6687 128.073C22.7134 128.055 22.7632 128.057 22.8071 128.076C22.8511 128.095 22.8855 128.131 22.9029 128.176C22.9203 128.22 22.9193 128.27 22.8999 128.314C22.8806 128.357 22.8446 128.392 22.7999 128.409L22.0392 128.706C22.0176 128.715 21.9945 128.719 21.9714 128.718Z" fill="white"/>
</g>
<defs>
<linearGradient id="paint0_linear_694_2374" x1="91.2171" y1="184.442" x2="89.1715" y2="143.831" gradientUnits="userSpaceOnUse">
<stop stop-color="#2B3582"/>
<stop offset="1" stop-color="#150E42"/>
</linearGradient>
<linearGradient id="paint1_linear_694_2374" x1="0.358887" y1="104.483" x2="172.75" y2="104.483" gradientUnits="userSpaceOnUse">
<stop stop-color="#2B3582"/>
<stop offset="1" stop-color="#150E42"/>
</linearGradient>
<linearGradient id="paint2_linear_694_2374" x1="91.3445" y1="169.118" x2="72.5106" y2="210.588" gradientUnits="userSpaceOnUse">
<stop stop-color="#2B3582"/>
<stop offset="1" stop-color="#150E42"/>
</linearGradient>
<linearGradient id="paint3_linear_694_2374" x1="104.171" y1="76.2875" x2="83.205" y2="107.271" gradientUnits="userSpaceOnUse">
<stop stop-color="#8DC2FF"/>
<stop offset="1" stop-color="#006BE8"/>
</linearGradient>
<linearGradient id="paint4_linear_694_2374" x1="157.144" y1="29.8914" x2="82.5685" y2="151.585" gradientUnits="userSpaceOnUse">
<stop stop-color="#8DC2FF"/>
<stop offset="1" stop-color="#4182BE"/>
</linearGradient>
<linearGradient id="paint5_linear_694_2374" x1="176.389" y1="41.6846" x2="101.813" y2="163.379" gradientUnits="userSpaceOnUse">
<stop stop-color="#8DC2FF"/>
<stop offset="1" stop-color="#006BE8"/>
</linearGradient>
<linearGradient id="paint6_linear_694_2374" x1="26.7968" y1="176.485" x2="37.4703" y2="176.485" gradientUnits="userSpaceOnUse">
<stop stop-color="#53D8FF"/>
<stop offset="1" stop-color="#3840F7"/>
</linearGradient>
<linearGradient id="paint7_linear_694_2374" x1="26.7961" y1="174.399" x2="37.1685" y2="174.399" gradientUnits="userSpaceOnUse">
<stop stop-color="#2B3582"/>
<stop offset="1" stop-color="#150E42"/>
</linearGradient>
<linearGradient id="paint8_linear_694_2374" x1="27.782" y1="171.486" x2="30.7887" y2="171.486" gradientUnits="userSpaceOnUse">
<stop stop-color="#F9B776"/>
<stop offset="1" stop-color="#F47960"/>
</linearGradient>
<linearGradient id="paint9_linear_694_2374" x1="5.51779" y1="176.255" x2="9.60791" y2="176.255" gradientUnits="userSpaceOnUse">
<stop stop-color="#53D8FF"/>
<stop offset="1" stop-color="#3840F7"/>
</linearGradient>
<linearGradient id="paint10_linear_694_2374" x1="5.54746" y1="173.115" x2="11.5508" y2="173.115" gradientUnits="userSpaceOnUse">
<stop stop-color="#2B3582"/>
<stop offset="1" stop-color="#150E42"/>
</linearGradient>
<linearGradient id="paint11_linear_694_2374" x1="8.66777" y1="168.987" x2="12.2615" y2="168.987" gradientUnits="userSpaceOnUse">
<stop stop-color="#F9B776"/>
<stop offset="1" stop-color="#F47960"/>
</linearGradient>
<linearGradient id="paint12_linear_694_2374" x1="0.344737" y1="179.465" x2="47.397" y2="126.081" gradientUnits="userSpaceOnUse">
<stop stop-color="#5AB6FF"/>
<stop offset="1" stop-color="#2F68E3"/>
</linearGradient>
<linearGradient id="paint13_linear_694_2374" x1="53.855" y1="94.1911" x2="-28.3168" y2="165.862" gradientUnits="userSpaceOnUse">
<stop stop-color="#CB236D"/>
<stop offset="1" stop-color="#4C246D"/>
</linearGradient>
<linearGradient id="paint14_linear_694_2374" x1="20.7764" y1="155.718" x2="22.4904" y2="152.281" gradientUnits="userSpaceOnUse">
<stop stop-color="#53D8FF"/>
<stop offset="1" stop-color="#3840F7"/>
</linearGradient>
<linearGradient id="paint15_linear_694_2374" x1="25.1297" y1="116.76" x2="12.3706" y2="128.091" gradientUnits="userSpaceOnUse">
<stop stop-color="#F9B776"/>
<stop offset="1" stop-color="#F47960"/>
</linearGradient>
<linearGradient id="paint16_linear_694_2374" x1="46.9876" y1="86.6206" x2="-34.813" y2="157.968" gradientUnits="userSpaceOnUse">
<stop stop-color="#CB236D"/>
<stop offset="1" stop-color="#4C246D"/>
</linearGradient>
<linearGradient id="paint17_linear_694_2374" x1="59.878" y1="101.399" x2="-21.9226" y2="172.747" gradientUnits="userSpaceOnUse">
<stop stop-color="#CB236D"/>
<stop offset="1" stop-color="#4C246D"/>
</linearGradient>
<linearGradient id="paint18_linear_694_2374" x1="49.1082" y1="117.828" x2="59.1819" y2="117.828" gradientUnits="userSpaceOnUse">
<stop stop-color="#F9B776"/>
<stop offset="1" stop-color="#F47960"/>
</linearGradient>
<linearGradient id="paint19_linear_694_2374" x1="39.3164" y1="90.9844" x2="39.2073" y2="109.743" gradientUnits="userSpaceOnUse">
<stop stop-color="#F9B776"/>
<stop offset="1" stop-color="#F47960"/>
</linearGradient>
<linearGradient id="paint20_linear_694_2374" x1="11.3176" y1="125.187" x2="64.0676" y2="125.187" gradientUnits="userSpaceOnUse">
<stop stop-color="#2B3582"/>
<stop offset="1" stop-color="#150E42"/>
</linearGradient>
<linearGradient id="paint21_linear_694_2374" x1="61.1648" y1="101.862" x2="109.585" y2="101.862" gradientUnits="userSpaceOnUse">
<stop stop-color="#B37CFF"/>
<stop offset="1" stop-color="#F895E7"/>
</linearGradient>
<linearGradient id="paint22_linear_694_2374" x1="58.4358" y1="101.862" x2="112.314" y2="101.862" gradientUnits="userSpaceOnUse">
<stop stop-color="#2B3582"/>
<stop offset="1" stop-color="#150E42"/>
</linearGradient>
<linearGradient id="paint23_linear_694_2374" x1="45.4269" y1="87.9145" x2="38.0434" y2="101.341" gradientUnits="userSpaceOnUse">
<stop stop-color="#F9B776"/>
<stop offset="1" stop-color="#F47960"/>
</linearGradient>
<linearGradient id="paint24_linear_694_2374" x1="36.9785" y1="89.9102" x2="69.1033" y2="93.9836" gradientUnits="userSpaceOnUse">
<stop stop-color="#2B3582"/>
<stop offset="1" stop-color="#150E42"/>
</linearGradient>
<linearGradient id="paint25_linear_694_2374" x1="33.3895" y1="99.4201" x2="39.6291" y2="90.8246" gradientUnits="userSpaceOnUse">
<stop stop-color="#F9B776"/>
<stop offset="1" stop-color="#F47960"/>
</linearGradient>
<linearGradient id="paint26_linear_694_2374" x1="30.1814" y1="122.448" x2="17.4217" y2="133.779" gradientUnits="userSpaceOnUse">
<stop stop-color="#F9B776"/>
<stop offset="1" stop-color="#F47960"/>
</linearGradient>
<linearGradient id="paint27_linear_694_2374" x1="58.1119" y1="116.649" x2="61.719" y2="116.649" gradientUnits="userSpaceOnUse">
<stop stop-color="#F9B776"/>
<stop offset="1" stop-color="#F47960"/>
</linearGradient>
<clipPath id="clip0_694_2374">
<rect width="183" height="177" fill="white"/>
</clipPath>
</defs>
</svg>
