<svg width="50" height="35" viewBox="0 0 50 35" fill="none" xmlns="http://www.w3.org/2000/svg">
<path fill-rule="evenodd" clip-rule="evenodd" d="M29.6652 34.3018C32.5641 34.3018 36.6895 33.0838 36.6895 29.6673C36.6895 26.365 35.4566 17.0731 25.0008 17.0731C14.5449 17.0731 13.312 26.365 13.312 29.6673C13.312 33.0838 17.4359 34.3018 20.3364 34.3018C23.4455 34.3018 26.5561 34.3018 29.6652 34.3018ZM8.04698 6.11702C5.23662 6.11702 2.96052 8.31097 2.96052 11.0165C2.96052 13.722 5.2382 15.9159 8.04698 15.9159C10.8558 15.9159 13.1334 13.722 13.1334 11.0165C13.1334 8.30945 10.8558 6.11702 8.04698 6.11702ZM41.953 6.11702C44.7634 6.11702 47.0395 8.31097 47.0395 11.0165C47.0395 13.722 44.7618 15.9159 41.953 15.9159C39.1443 15.9159 36.8666 13.722 36.8666 11.0165C36.8666 8.30945 39.1443 6.11702 41.953 6.11702ZM45.1649 29.3095C47.1612 29.3095 50 28.4706 50 26.1183C50 23.8452 49.1512 17.4476 41.953 17.4476C39.1158 17.4476 37.2665 18.4418 36.0652 19.7847C36.3465 20.1607 36.6121 20.5596 36.8618 20.9814C38.3081 23.4296 39.0399 26.4776 39.0968 29.308H45.1649V29.3095ZM4.83514 29.3095C2.83881 29.3095 0 28.4706 0 26.1183C0 23.8452 0.848797 17.4476 8.04698 17.4476C10.8842 17.4476 12.7335 18.4418 13.9348 19.7847C13.6535 20.1607 13.3879 20.5596 13.1382 20.9814C11.6919 23.4296 10.9601 26.4776 10.9032 29.308H4.83514V29.3095ZM24.9992 0.875C29.0804 0.875 32.3886 4.06163 32.3886 7.99276C32.3886 11.9224 29.0804 15.1105 24.9992 15.1105C20.918 15.1105 17.6098 11.9239 17.6098 7.99276C17.6098 4.06163 20.918 0.875 24.9992 0.875Z" fill="#282F78"/>
</svg>
