<svg width="622" height="815" viewBox="0 0 522 715" fill="none" xmlns="http://www.w3.org/2000/svg">
<path d="M467.304 107.629C464.52 107.617 461.741 107.389 458.992 106.947L459.258 105.261C461.92 105.678 464.61 105.888 467.304 105.889H467.611V107.595L467.304 107.629ZM476.257 106.878L475.97 105.192C478.729 104.727 481.447 104.042 484.097 103.145L484.643 104.762C481.907 105.686 479.103 106.394 476.257 106.878ZM450.551 104.96C447.805 104.059 445.135 102.941 442.567 101.616L443.345 100.1C445.835 101.382 448.422 102.464 451.083 103.336L450.551 104.96ZM492.566 101.309L491.767 99.8069C494.239 98.4921 496.6 96.981 498.83 95.2883L499.861 96.6534C497.565 98.3945 495.135 99.9511 492.593 101.309H492.566ZM435.245 97.0425C432.92 95.327 430.738 93.4255 428.721 91.3566L429.943 90.1621C431.894 92.1665 434.005 94.0087 436.255 95.6705L435.245 97.0425ZM506.336 90.8992L505.101 89.7252C507.026 87.6934 508.785 85.5113 510.363 83.1997L511.768 84.1622C510.139 86.5394 508.322 88.7831 506.336 90.872V90.8992ZM423.194 84.7151C421.537 82.3477 420.074 79.8505 418.82 77.2476L420.355 76.5036C421.572 79.0246 422.99 81.4441 424.593 83.739L423.194 84.7151ZM516.06 76.6128L514.511 75.8893C515.691 73.3526 516.665 70.7253 517.425 68.0328L519.063 68.5038C518.278 71.2819 517.274 73.9934 516.06 76.6128ZM415.687 69.1454C414.855 66.3758 414.25 63.5428 413.879 60.6746L415.565 60.4561C415.931 63.2286 416.518 65.9675 417.318 68.6471L415.687 69.1454ZM520.776 60.0125L519.077 59.8145C519.316 57.7984 519.437 55.7699 519.438 53.7396C519.438 52.9751 519.438 52.1969 519.384 51.4324L521.09 51.3574C521.124 52.1423 521.144 52.9478 521.144 53.7396C521.152 55.8446 521.036 57.9484 520.796 60.0398L520.776 60.0125ZM415.142 52.0809L413.436 52.0263C413.529 49.1356 413.855 46.2571 414.411 43.4189L416.083 43.7466C415.555 46.4958 415.247 49.2827 415.162 52.0809H415.142ZM518.353 43.1118C517.78 40.3725 516.988 37.6837 515.985 35.071L517.575 34.4566C518.612 37.156 519.431 39.9339 520.025 42.7637L518.353 43.1118ZM418.376 35.6716L416.779 35.0846C417.782 32.3736 418.998 29.7465 420.416 27.2281L421.904 28.0677C420.529 30.5052 419.349 33.0478 418.376 35.6716ZM515.828 34.6683C514.804 32.0727 513.577 29.5621 512.157 27.1599L513.624 26.293C515.093 28.7824 516.361 31.3844 517.418 34.0744L515.828 34.6683ZM426.599 21.1327L425.234 20.0679C427.041 17.8123 429.027 15.7055 431.171 13.7676L432.317 15.0304C430.251 16.9083 428.339 18.949 426.599 21.1327ZM507.319 20.2999C505.524 18.1549 503.559 16.1576 501.444 14.3274L502.556 13.0373C504.743 14.9178 506.774 16.9722 508.629 19.1805L507.319 20.2999ZM438.998 9.9247L438.07 8.48447C440.501 6.91942 443.052 5.54995 445.699 4.38898L446.381 5.9521C443.819 7.07769 441.35 8.40609 438.998 9.9247ZM494.681 9.35817C492.299 7.8872 489.803 6.61118 487.216 5.54255L487.898 3.96579C490.562 5.07194 493.134 6.38894 495.589 7.90427L494.681 9.35817ZM454.311 3.21495L453.888 1.56309C456.686 0.838493 459.539 0.343133 462.418 0.0819029L462.568 1.78152C459.781 2.04027 457.02 2.52191 454.311 3.22178V3.21495ZM479.239 2.96239C476.516 2.31851 473.745 1.89394 470.954 1.69278L471.07 -0.00683594C473.956 0.212455 476.82 0.662115 479.634 1.33785L479.239 2.96239Z" fill="#9192FF"/>
<path d="M263.118 504.4C260.259 504.4 257.373 504.263 254.541 504.052L254.67 502.345C257.461 502.564 260.307 502.68 263.132 502.693L263.118 504.4ZM271.703 504.147L271.594 502.448C274.391 502.263 277.23 501.977 280.014 501.594L280.246 503.287C277.421 503.656 274.548 503.942 271.703 504.127V504.147ZM246.011 503.089C243.186 502.666 240.347 502.14 237.57 501.519L237.938 499.854C240.668 500.468 243.479 500.987 246.263 501.403L246.011 503.089ZM288.701 501.813L288.353 500.147C291.083 499.567 293.86 498.878 296.542 498.1L297.013 499.738C294.283 500.509 291.492 501.205 288.701 501.792V501.813ZM229.265 499.342C226.535 498.523 223.806 497.588 221.124 496.571L221.731 494.973C224.358 495.977 227.061 496.898 229.756 497.704L229.265 499.342ZM305.201 497.048L304.615 495.444C307.242 494.475 309.876 493.397 312.435 492.236L313.117 493.793C310.538 494.967 307.863 496.065 305.201 497.048ZM213.215 493.199C210.629 491.991 208.056 490.673 205.559 489.281L206.391 487.793C208.848 489.158 211.386 490.462 213.932 491.649L213.215 493.199ZM320.821 489.984L320.009 488.482C322.48 487.117 324.929 485.697 327.297 484.182L328.219 485.622C325.81 487.158 323.319 488.625 320.815 489.984H320.821ZM198.202 484.83C195.821 483.267 193.46 481.602 191.194 479.868L192.231 478.503C194.463 480.209 196.79 481.854 199.137 483.397L198.202 484.83ZM335.274 480.735L334.258 479.37C336.51 477.69 338.734 475.909 340.863 474.08L341.976 475.37C339.819 477.24 337.561 479.042 335.274 480.748V480.735ZM184.555 474.414C182.419 472.53 180.324 470.537 178.324 468.503L179.539 467.308C181.511 469.315 183.579 471.274 185.681 473.138L184.555 474.414ZM348.281 469.547L347.08 468.332C349.072 466.353 351.017 464.271 352.867 462.189L354.149 463.308C352.286 465.424 350.301 467.54 348.281 469.547ZM172.531 462.169C170.682 459.991 168.887 457.725 167.201 455.431L168.566 454.421C170.224 456.681 171.978 458.919 173.814 461.063L172.531 462.169ZM359.561 456.619L358.196 455.588C359.888 453.343 361.519 451.008 363.048 448.647L364.481 449.575C362.939 451.957 361.28 454.326 359.561 456.619ZM162.35 448.353C160.828 445.937 159.381 443.439 158.037 440.927L159.545 440.121C160.862 442.599 162.274 445.063 163.789 447.438L162.35 448.353ZM368.875 442.21L367.381 441.391C368.746 438.92 370.015 436.374 371.189 433.821L372.738 434.504C371.571 437.097 370.268 439.684 368.896 442.183L368.875 442.21ZM154.29 433.207C153.13 430.599 152.052 427.923 151.09 425.248L152.694 424.668C153.642 427.302 154.707 429.944 155.846 432.51L154.29 433.207ZM376.068 426.565L374.471 425.971C375.461 423.337 376.361 420.634 377.153 417.937L378.791 418.422C377.979 421.125 377.064 423.896 376.061 426.586L376.068 426.565ZM148.463 417.07C147.692 414.34 147.009 411.514 146.416 408.723L148.088 408.381C148.654 411.112 149.323 413.896 150.087 416.572L148.463 417.07ZM380.906 410.101L379.241 409.74C379.842 407.009 380.34 404.19 380.742 401.405L382.428 401.644C382.025 404.47 381.513 407.316 380.906 410.101ZM145.017 400.252C144.648 397.426 144.375 394.552 144.205 391.706L145.911 391.603C146.074 394.409 146.347 397.248 146.709 400.026L145.017 400.252ZM383.342 393.139L381.636 393.023C381.834 390.225 381.936 387.378 381.936 384.559H383.677C383.677 387.385 383.54 390.272 383.342 393.139ZM145.706 383.133H144C144.034 380.273 144.171 377.385 144.403 374.553L146.102 374.689C145.877 377.474 145.74 380.32 145.706 383.133ZM381.814 378.846C381.684 376.027 381.445 373.187 381.131 370.409L382.824 370.204C383.158 373.03 383.397 375.904 383.506 378.764L381.814 378.846ZM147.105 366.273L145.419 366.013C145.856 363.188 146.402 360.355 147.037 357.577L148.702 357.959C148.067 360.696 147.569 363.495 147.105 366.273ZM379.801 362.041C379.268 359.31 378.627 356.505 377.904 353.788L379.548 353.352C380.292 356.082 380.913 358.921 381.479 361.72L379.801 362.041ZM150.892 349.754L149.261 349.249C150.101 346.519 151.049 343.789 152.08 341.127L153.67 341.748C152.653 344.396 151.718 347.092 150.892 349.782V349.754ZM375.399 345.659C374.478 343.01 373.447 340.355 372.335 337.775L373.905 337.092C375.031 339.714 376.075 342.403 377.01 345.092L375.399 345.659ZM157.034 333.946L155.491 333.215C156.713 330.642 158.044 328.069 159.449 325.584L160.937 326.424C159.538 328.915 158.228 331.448 157.02 333.987L157.034 333.946ZM368.739 330.137C367.442 327.639 366.009 325.161 364.576 322.772L366.03 321.878C367.518 324.308 368.944 326.82 370.254 329.386L368.739 330.137ZM165.386 319.216L163.946 318.301C165.523 315.926 167.208 313.578 168.948 311.318L170.313 312.363C168.566 314.588 166.908 316.902 165.352 319.243L165.386 319.216ZM359.916 315.735C358.278 313.448 356.504 311.195 354.743 309.032L356.053 307.946C357.875 310.137 359.643 312.424 361.301 314.738L359.916 315.735ZM175.697 305.844L174.428 304.711C176.325 302.581 178.324 300.499 180.372 298.513L181.559 299.735C179.546 301.673 177.594 303.721 175.697 305.844ZM349.072 302.745C347.121 300.697 345.08 298.731 342.992 296.848L344.139 295.585C346.254 297.496 348.329 299.51 350.28 301.564L349.072 302.745ZM187.83 294.056L186.731 292.752C188.908 290.916 191.187 289.141 193.494 287.462L194.497 288.827C192.231 290.5 189.986 292.254 187.83 294.056ZM336.503 291.394C334.285 289.66 331.979 287.981 329.679 286.418L330.634 285.005C333.002 286.595 335.336 288.295 337.588 290.049L336.503 291.394ZM201.526 284.124L200.625 282.67C203.047 281.169 205.552 279.728 208.07 278.404L208.868 279.913C206.384 281.196 203.914 282.636 201.526 284.124ZM322.473 281.947C320.03 280.547 317.505 279.216 314.966 278.001L315.703 276.459C318.276 277.701 320.835 279.046 323.312 280.466L322.473 281.947ZM216.491 276.24L215.808 274.677C218.415 273.537 221.097 272.479 223.785 271.524L224.352 273.135C221.704 274.07 219.056 275.121 216.491 276.24ZM307.249 274.602C304.635 273.565 301.946 272.616 299.265 271.776L299.77 270.145C302.499 270.998 305.229 271.967 307.876 273.012L307.249 274.602ZM232.465 270.595L232.008 268.95C234.738 268.193 237.57 267.531 240.367 266.971L240.695 268.643C237.897 269.196 235.127 269.851 232.424 270.595H232.465ZM291.103 269.531C288.374 268.889 285.576 268.336 282.799 267.886L283.072 266.2C285.883 266.657 288.722 267.217 291.492 267.872L291.103 269.531ZM249.054 267.292L248.843 265.599C251.661 265.251 254.541 264.991 257.393 264.841L257.482 266.548C254.629 266.691 251.797 266.944 249.013 267.292H249.054ZM274.357 266.862C271.566 266.609 268.721 266.466 265.909 266.411V264.705C268.762 264.759 271.648 264.91 274.48 265.162L274.357 266.862Z" fill="#9192FF"/>
<g clip-path="url(#clip0_694_2848)">
<path d="M231.005 200H151.735V334.213H231.005V200Z" fill="#EBEBFF"/>
<path d="M215.8 219.437H163.816V267.106H215.8V219.437Z" fill="white"/>
<path d="M164.19 218.999L163.449 219.81L215.436 267.477L216.178 266.665L164.19 218.999Z" fill="#EBEBFF"/>
<path d="M215.423 219.031L163.444 266.707L164.186 267.518L216.165 219.843L215.423 219.031Z" fill="#EBEBFF"/>
<path d="M189.832 254.816H8.52295V374.476H189.832V254.816Z" fill="white"/>
<path d="M190.359 375H8V254.292H190.359V375ZM9.04996 373.953H189.309V255.34H9.04996V373.953Z" fill="#9192FF"/>
<path d="M27.6284 345.579L39.3405 323.577L63.5028 346.314L79.6124 299.375L109.631 332.378L129.4 324.312L165.279 277.373" fill="white"/>
<path d="M63.7491 347.299L39.4902 324.47L28.112 345.839L27.1411 345.324L39.1959 322.684L63.2615 345.328L79.3931 298.318L109.78 331.726L129.057 323.858L164.844 277.038L165.714 277.707L129.747 324.765L109.486 333.033L109.227 332.752L79.8324 300.431L63.7491 347.299Z" fill="#9192FF"/>
<path d="M39.4331 326.512C41.1 326.512 42.4512 325.158 42.4512 323.489C42.4512 321.819 41.1 320.466 39.4331 320.466C37.7663 320.466 36.415 321.819 36.415 323.489C36.415 325.158 37.7663 326.512 39.4331 326.512Z" fill="#9192FF"/>
<path d="M63.3228 348.787C64.9896 348.787 66.3409 347.433 66.3409 345.764C66.3409 344.094 64.9896 342.74 63.3228 342.74C61.6559 342.74 60.3047 344.094 60.3047 345.764C60.3047 347.433 61.6559 348.787 63.3228 348.787Z" fill="#9192FF"/>
<path d="M79.7969 302.582C81.4637 302.582 82.815 301.229 82.815 299.559C82.815 297.89 81.4637 296.536 79.7969 296.536C78.13 296.536 76.7788 297.89 76.7788 299.559C76.7788 301.229 78.13 302.582 79.7969 302.582Z" fill="#9192FF"/>
<path d="M137.62 273.892H60.7397V274.992H137.62V273.892Z" fill="#9192FF"/>
</g>
<g clip-path="url(#clip1_694_2848)">
<path d="M277.034 485.631H179.946V492.175H277.034V485.631Z" fill="#9192FF"/>
<path d="M277.029 485.632H195.041L226.09 409.84H308.083L277.029 485.632Z" fill="white"/>
<path d="M277.498 486.33H193.997L225.621 409.142H309.121L277.498 486.33ZM196.085 484.933H276.56L307.039 410.539H226.559L196.085 484.933Z" fill="#9192FF"/>
<path d="M269.951 479.266H205.514L229.92 419.698H294.356L269.951 479.266Z" fill="#EBEBFF"/>
<path d="M244.389 494.266H242.993V715H244.389V494.266Z" fill="#1B1B43"/>
<path d="M321.995 492.181H165.382V504.649H321.995V492.181Z" fill="#D1D1FF"/>
<path d="M38.9981 586.984H37.6025V715H38.9981V586.984Z" fill="#1B1B43"/>
<path d="M76.6231 592.919H0C0.788674 589.142 2.85247 585.751 5.84439 583.318C8.83632 580.884 12.5739 579.556 16.4288 579.557H60.1719C64.0304 579.552 67.7727 580.878 70.769 583.312C73.7653 585.746 75.8327 589.138 76.6231 592.919Z" fill="#D1D1FF"/>
<path d="M27.1694 705.863H49.4317C51.7532 705.863 53.9796 706.786 55.6211 708.429C57.2626 710.073 58.1848 712.302 58.1848 714.626H18.4219C18.4219 712.302 19.3433 710.075 20.9836 708.431C22.6239 706.788 24.8489 705.864 27.1694 705.863Z" fill="#D1D1FF"/>
<path d="M97.3951 397.048C99.3545 399.842 102.162 403.855 102.475 407.348C102.927 412.422 94.8161 408.862 94.7212 409.304L97.3951 397.048Z" fill="#D28572"/>
<path d="M85.0134 403.017H59.3794V440.627H85.0134V403.017Z" fill="#FFBC96"/>
<path d="M84.9965 409.488V436.313C76.9189 431.233 69.9242 423.689 63.9009 414.982L84.9965 409.488Z" fill="#1B1B43"/>
<path d="M99.4215 399.328C98.6232 412.322 93.6326 427.019 80.0061 423.392C69.2992 420.548 57.5205 411.522 57.5205 398.507C57.5205 385.491 66.5192 374.935 77.6169 374.935C84.5557 374.935 93.2921 378.288 97.4063 384.821C99.8737 388.727 99.7732 393.662 99.4215 399.328Z" fill="#FFBC96"/>
<path d="M76.7346 395.561C80.3631 385.921 88.6696 384.977 88.6696 384.977C88.6696 384.977 107.884 404.023 106.712 384.34C105.768 368.692 90.523 370.179 90.523 370.179C83.065 360.46 71.102 364.26 66.7422 369.899C62.3824 375.538 63.9232 372.291 53.6517 375.957C43.3802 379.623 48.8676 395.254 47.0366 396.383C33.3878 396.383 35.9222 409.907 35.9222 409.907L68.2383 420.458L76.0201 399.188L76.7346 395.561Z" fill="#1B1B43"/>
<path d="M78.8954 405.728C81.5601 404.188 82.1007 400.131 80.1029 396.667C78.1051 393.203 74.3254 391.643 71.6607 393.184C68.9961 394.724 68.4555 398.78 70.4533 402.245C72.4511 405.709 76.2308 407.268 78.8954 405.728Z" fill="#FFBC96"/>
<path d="M75.9755 400.837C75.6177 399.99 75.1299 399.203 74.5297 398.507C74.2213 398.203 73.8695 397.947 73.4858 397.747C73.0895 397.534 72.6485 397.356 72.1963 397.143L72.2689 396.774C72.7909 396.744 73.314 396.814 73.8096 396.981C74.3359 397.153 74.8128 397.451 75.1996 397.847C75.5773 398.242 75.8666 398.712 76.0481 399.228C76.2239 399.716 76.3219 400.229 76.3384 400.748L75.9755 400.837Z" fill="#1B1B43"/>
<path d="M63.8826 377.559C69.8724 377.275 74.479 371.777 74.1717 365.278C73.8644 358.779 68.7596 353.74 62.7698 354.024C56.78 354.308 52.1734 359.807 52.4807 366.305C52.788 372.804 57.8928 377.843 63.8826 377.559Z" fill="#1B1B43"/>
<path opacity="0.2" d="M88.2791 411.584C90.9767 411.584 93.1636 409.395 93.1636 406.694C93.1636 403.993 90.9767 401.804 88.2791 401.804C85.5814 401.804 83.3945 403.993 83.3945 406.694C83.3945 409.395 85.5814 411.584 88.2791 411.584Z" fill="#FE5B52"/>
<path d="M107.466 533.134L25.3662 522.655L40.8404 440.963C41.3313 438.373 42.3871 435.923 43.9327 433.789C45.4782 431.654 47.4753 429.888 49.7815 428.615C52.0876 427.343 54.646 426.595 57.2739 426.427C59.9018 426.258 62.5344 426.672 64.984 427.64L92.9627 440.085C95.6092 441.26 97.9031 443.107 99.6167 445.443C101.33 447.779 102.404 450.523 102.732 453.403L104.312 480.082L106.115 510.333L107.466 533.134Z" fill="#DC4279"/>
<path d="M182.592 474.455L204.324 468.061C205.097 467.832 205.91 467.774 206.707 467.894C207.504 468.014 208.264 468.308 208.935 468.754C214.881 472.705 230.706 483.893 226.721 488.465C224.722 490.751 206.552 485.397 206.552 485.397L180.242 492.757L182.592 474.455Z" fill="#FFBC96"/>
<path d="M106.115 510.333C99.2707 501.614 95.2123 490.102 93.8335 475.852L104.284 480.082L106.115 510.333Z" fill="#1B1B43"/>
<path d="M90.4838 439.062L93.7551 440.471C100.49 443.377 106.526 447.693 111.457 453.129L138.403 482.837L182.592 474.454L188.409 498.206L132.882 515.58C130.724 515.965 128.504 515.799 126.427 515.097C124.351 514.394 122.485 513.178 121.002 511.562L80.9492 467.933L90.4838 439.062Z" fill="#DC4279"/>
<path d="M137.889 483.312C137.755 483.167 124.609 468.838 113.226 456.057C101.967 443.427 84.8122 437.285 84.6392 437.224L85.1025 435.905C85.2756 435.967 102.765 442.22 114.265 455.129C125.647 467.899 138.782 482.222 138.916 482.362L137.889 483.312Z" fill="#1B1B43"/>
<path d="M84.2407 472.584L83.2383 473.556L120.499 512.061L121.501 511.089L84.2407 472.584Z" fill="#1B1B43"/>
<path d="M104.49 656.695L86.7773 691.232L131.52 714.229L119.618 686.974L129.331 665.369L104.49 656.695Z" fill="#D1D1FF"/>
<path d="M119.386 686.323L106.672 690.069L107.066 691.409L119.78 687.663L119.386 686.323Z" fill="#1B1B43"/>
<path d="M132.352 679.413L91.8184 664.273L119.607 577.786C124.375 564.983 139.073 558.651 152.437 563.641C165.795 568.626 172.757 583.056 167.984 595.853L132.352 679.413Z" fill="#263238"/>
<path d="M171.662 673.545L175.62 714.642H225.911L202.89 695.837L197.48 672.147L171.662 673.545Z" fill="#D1D1FF"/>
<path d="M202.574 695.201L190.656 701.779L191.33 703.003L203.248 696.424L202.574 695.201Z" fill="#1B1B43"/>
<path d="M207.947 678.435L163.986 685.42L133.881 596.798L128.399 580.636L53.6349 581.239C49.2733 581.339 44.9402 580.51 40.9222 578.809C36.9041 577.107 33.2925 574.571 30.3261 571.369C27.3597 568.166 25.106 564.37 23.714 560.23C22.322 556.091 21.8234 551.703 22.251 547.356L25.366 522.655L99.3319 531.971L147.937 537.325C168.173 540.818 174.381 553.085 178.595 568.844L207.947 678.435Z" fill="#263238"/>
<path d="M133.881 596.798L128.399 580.636L138.52 580.284C139.452 586.375 137.041 593.182 133.881 596.798Z" fill="#222A2E"/>
</g>
<g clip-path="url(#clip2_694_2848)">
<path d="M320 158.288C320 204.518 282.406 242 236.006 242C189.606 242 152 204.537 152 158.288C152 114.919 185.106 79.2484 227.506 75L230.309 102.472C218.812 103.641 207.956 108.31 199.216 115.844C190.476 123.377 184.276 133.411 181.459 144.579C178.642 155.747 179.345 167.509 183.471 178.266C187.598 189.022 194.949 198.252 204.525 204.699C214.1 211.146 225.435 214.498 236.99 214.3C248.544 214.102 259.757 210.362 269.104 203.591C278.451 196.819 285.479 187.343 289.232 176.451C292.985 165.56 293.281 153.781 290.08 142.715L316.717 135.049C318.902 142.603 320.008 150.426 320 158.288Z" fill="#282F78"/>
<path d="M236.002 225.875C273.461 225.875 303.827 195.615 303.827 158.288C303.827 120.96 273.461 90.6997 236.002 90.6997C198.543 90.6997 168.177 120.96 168.177 158.288C168.177 195.615 198.543 225.875 236.002 225.875Z" fill="white"/>
<path opacity="0.5" d="M236.002 225.875C273.461 225.875 303.827 195.615 303.827 158.288C303.827 120.96 273.461 90.6997 236.002 90.6997C198.543 90.6997 168.177 120.96 168.177 158.288C168.177 195.615 198.543 225.875 236.002 225.875Z" fill="#89BCFC"/>
<path d="M236.002 206.175C262.533 206.175 284.041 184.735 284.041 158.288C284.041 131.84 262.533 110.401 236.002 110.401C209.47 110.401 187.962 131.84 187.962 158.288C187.962 184.735 209.47 206.175 236.002 206.175Z" fill="white"/>
<g clip-path="url(#clip3_694_2848)">
<path d="M219.151 133C217.411 133 216 134.412 216 136.151C216 137.89 217.411 139.301 219.151 139.301H233.054C236.105 139.353 238.879 141.23 240.088 143.997H219.336C217.596 143.997 216.185 145.409 216.185 147.148C216.185 148.887 217.596 150.298 219.336 150.298H240.054C238.794 153.095 236.007 154.933 232.92 154.933H221.953C220.213 154.933 218.802 156.344 218.802 158.084C218.802 159.041 219.23 159.898 219.904 160.476L241.853 182.335C243.083 183.559 245.072 183.554 246.295 182.323C247.519 181.093 247.514 179.105 246.283 177.881L229.569 161.235H232.921C239.481 161.235 245.195 156.664 246.674 150.298H252.849C254.589 150.298 256 148.888 256 147.148C256 145.408 254.589 143.997 252.849 143.997H246.687C246.299 142.298 245.6 140.712 244.655 139.301H252.664C254.404 139.301 255.815 137.891 255.815 136.151C255.815 134.411 254.404 133 252.664 133H219.151Z" fill="#282F78"/>
</g>
</g>
<defs>
<clipPath id="clip0_694_2848">
<rect width="223" height="175" fill="white" transform="translate(8 200)"/>
</clipPath>
<clipPath id="clip1_694_2848">
<rect width="322" height="361" fill="white" transform="translate(0 354)"/>
</clipPath>
<clipPath id="clip2_694_2848">
<rect width="168" height="167" fill="white" transform="translate(152 75)"/>
</clipPath>
<clipPath id="clip3_694_2848">
<rect width="40" height="50.2496" fill="white" transform="translate(216 133)"/>
</clipPath>
</defs>
</svg>
