<svg width="483" height="617" viewBox="0 0 483 617" fill="none" xmlns="http://www.w3.org/2000/svg">
<path d="M185.756 602V600.294C188.581 600.246 191.433 600.13 194.231 599.952L194.34 601.652C191.488 601.836 188.608 601.952 185.756 602ZM177.185 601.952C174.346 601.87 171.466 601.72 168.634 601.502L168.764 599.802C171.569 600.014 174.421 600.164 177.239 600.246L177.185 601.952ZM202.849 600.908L202.658 599.208C205.463 598.901 208.288 598.526 211.072 598.075L211.338 599.761C208.534 600.205 205.675 600.594 202.849 600.908ZM160.111 600.662C157.293 600.314 154.441 599.891 151.636 599.413L151.923 597.734C154.707 598.205 157.532 598.621 160.316 598.962L160.111 600.662ZM219.766 598.218L219.418 596.546C222.148 595.973 224.959 595.324 227.682 594.621L228.105 596.273C225.362 596.983 222.557 597.618 219.773 598.218H219.766ZM143.229 597.768C140.452 597.16 137.647 596.471 134.904 595.72L135.354 594.075C138.084 594.812 140.813 595.488 143.591 596.123L143.229 597.768ZM236.348 593.939L235.843 592.307C238.573 591.475 241.248 590.567 243.889 589.577L244.475 591.181C241.8 592.157 239.071 593.099 236.348 593.939ZM126.695 593.297C123.965 592.423 121.235 591.475 118.581 590.471L119.181 588.874C121.829 589.864 124.538 590.806 127.213 591.673L126.695 593.297ZM252.439 588.116L251.757 586.54C254.343 585.468 256.943 584.307 259.495 583.127L260.225 584.669C257.68 585.864 255.046 587.031 252.439 588.116ZM110.59 587.263C107.97 586.137 105.349 584.929 102.79 583.679L103.541 582.144C106.073 583.386 108.673 584.581 111.266 585.693L110.59 587.263ZM267.861 580.813L267.063 579.304C269.547 577.98 272.03 576.574 274.453 575.147L275.32 576.615C272.904 578.069 270.399 579.475 267.888 580.813H267.861ZM95.1681 579.734C92.6773 578.369 90.1798 576.922 87.7505 575.434L88.6375 573.98C91.0464 575.454 93.5235 576.888 95.9937 578.239L95.1681 579.734ZM282.573 572.076L281.632 570.649C283.993 569.093 286.333 567.468 288.599 565.816L289.609 567.182C287.33 568.861 284.982 570.506 282.601 572.076H282.573ZM80.5649 570.792C78.2174 569.202 75.87 567.523 73.584 565.816L74.6076 564.451C76.8663 566.144 79.1933 567.803 81.5202 569.379L80.5649 570.792ZM296.433 561.987L295.368 560.622C297.559 558.861 299.742 557.018 301.851 555.161L302.984 556.438C300.848 558.349 298.644 560.206 296.433 561.987ZM66.842 560.52C64.6447 558.704 62.461 556.82 60.3592 554.909L61.5056 553.646C63.5528 555.537 65.7501 557.407 67.9269 559.202L66.842 560.52ZM309.269 550.649L308.081 549.421C310.128 547.462 312.1 545.428 314.032 543.373L315.274 544.54C313.329 546.615 311.309 548.67 309.269 550.649ZM54.1495 549.011C52.1023 546.964 50.1302 544.916 48.2195 542.827L49.475 541.674C51.3721 543.721 53.3511 545.81 55.3505 547.817L54.1495 549.011ZM320.965 538.151L319.668 537.046C321.504 534.895 323.305 532.684 325.032 530.459L326.397 531.503C324.663 533.749 322.814 535.988 320.992 538.151H320.965ZM42.5488 536.37C40.7337 534.186 38.9389 531.926 37.2261 529.667L38.5909 528.636C40.2833 530.875 42.0575 533.114 43.8658 535.278L42.5488 536.37ZM331.501 524.582L330.136 523.599C331.76 521.292 333.35 518.916 334.858 516.541L336.298 517.456C334.742 519.879 333.139 522.275 331.501 524.582ZM32.2651 522.684C30.6615 520.343 29.092 517.906 27.5976 515.51L29.0443 514.616C30.5251 517.012 32.0809 519.394 33.6709 521.722L32.2651 522.684ZM340.706 510.104L339.226 509.258C340.59 506.814 341.955 504.302 343.265 501.783L344.78 502.555C343.477 505.128 342.105 507.667 340.699 510.131L340.706 510.104ZM23.2781 508.125C21.9133 505.64 20.5485 503.094 19.3065 500.548L20.8351 499.797C22.077 502.316 23.4009 504.841 24.7657 507.306L23.2781 508.125ZM348.499 494.821L346.943 494.139C348.11 491.558 349.223 488.924 350.26 486.309L351.85 486.937C350.792 489.586 349.666 492.241 348.492 494.848L348.499 494.821ZM15.6966 492.773C14.557 490.166 13.472 487.504 12.4553 484.856L14.0521 484.248C15.0553 486.869 16.0993 489.511 17.2593 492.084L15.6966 492.773ZM354.845 478.828L353.228 478.275C354.136 475.613 354.996 472.89 355.78 470.18L357.425 470.658C356.592 473.443 355.726 476.194 354.811 478.883L354.845 478.828ZM9.61659 476.781C8.72948 474.05 7.89696 471.32 7.1395 468.59L8.78409 468.132C9.53472 470.863 10.3604 473.593 11.2407 476.255L9.61659 476.781ZM359.609 462.371L357.95 461.975C358.633 459.245 359.199 456.446 359.725 453.675L361.403 453.989C360.837 456.842 360.236 459.661 359.574 462.426L359.609 462.371ZM5.05134 460.269C4.42354 457.539 3.85717 454.679 3.35902 451.866L5.03768 451.573C5.529 454.358 6.09545 457.156 6.71642 459.893L5.05134 460.269ZM362.795 445.539L361.11 445.3C361.499 442.515 361.833 439.682 362.093 436.863L363.792 437.027C363.491 439.942 363.157 442.781 362.761 445.593L362.795 445.539ZM2.06246 443.402C1.7008 440.59 1.38011 437.723 1.16857 434.877L2.86772 434.74C3.09974 437.553 3.39994 440.399 3.75478 443.184L2.06246 443.402ZM364.413 428.474L362.713 428.399C362.843 425.594 362.905 422.741 362.905 419.915H364.611C364.549 422.823 364.488 425.703 364.351 428.529L364.413 428.474ZM0.697679 426.324C0.622616 424.208 0.581726 422.051 0.581726 419.915C0.581726 419.191 0.581726 418.475 0.581726 417.751H2.28771C2.28771 418.468 2.28771 419.178 2.28771 419.894C2.28771 422.01 2.32859 424.147 2.39683 426.242L0.697679 426.324ZM362.85 415.717C362.789 412.898 362.659 410.045 362.461 407.239L364.16 407.116C364.358 409.949 364.495 412.83 364.556 415.683L362.85 415.717ZM2.59475 409.287L0.8956 409.191C1.05937 406.345 1.29139 403.471 1.57799 400.652L3.27031 400.83C2.93594 403.676 2.70396 406.495 2.54019 409.342L2.59475 409.287ZM361.676 398.789C361.349 395.997 360.953 393.164 360.496 390.38L362.181 390.106C362.638 392.912 363.041 395.772 363.369 398.591L361.676 398.789ZM4.36895 392.414L2.68346 392.154C3.11337 389.342 3.61838 386.502 4.17794 383.718L5.8566 384.052C5.24245 386.864 4.7443 389.676 4.31439 392.468L4.36895 392.414ZM358.919 382.038C358.333 379.308 357.671 376.509 356.947 373.786L358.599 373.349C359.322 376.079 359.963 378.905 360.584 381.683L358.919 382.038ZM7.72635 375.772L6.07493 375.356C6.75732 372.626 7.53523 369.82 8.36093 367.103L9.99185 367.595C9.12522 370.318 8.361 373.097 7.67179 375.827L7.72635 375.772ZM354.593 365.629C353.74 362.94 352.819 360.237 351.863 357.595L353.46 357.008C354.443 359.677 355.378 362.401 356.231 365.117L354.593 365.629ZM12.6464 359.486L11.0428 358.919C11.9981 356.23 13.0285 353.534 14.1067 350.899L15.6831 351.541C14.5639 354.23 13.5403 356.899 12.5918 359.561L12.6464 359.486ZM348.738 349.705C347.646 347.118 346.473 344.524 345.251 341.978L346.793 341.241C348.022 343.807 349.202 346.428 350.308 349.036L348.738 349.705ZM19.095 343.752L17.5528 343.029C18.7538 340.456 20.0367 337.869 21.3605 335.336L22.8686 336.135C21.5038 338.715 20.2346 341.275 19.0404 343.828L19.095 343.752ZM341.409 334.428C340.044 331.957 338.68 329.48 337.212 327.063L338.68 326.183C340.147 328.626 341.573 331.125 342.91 333.616L341.409 334.428ZM26.9971 328.702L25.5299 327.841C26.9698 325.384 28.4915 322.934 30.0474 320.545L31.4736 321.48C29.8768 323.903 28.3687 326.347 26.9425 328.777L26.9971 328.702ZM332.675 319.903C331.112 317.562 329.474 315.227 327.802 312.961L329.167 311.944C330.853 314.238 332.504 316.593 334.08 318.954L332.675 319.903ZM36.2776 314.442L34.9128 313.446C36.571 311.146 38.3248 308.845 40.0854 306.62L41.4502 307.685C39.6214 309.985 37.8744 312.299 36.2094 314.545L36.2776 314.442ZM322.609 306.251C320.835 304.067 318.986 301.89 317.109 299.794L318.385 298.654C320.276 300.777 322.145 302.968 323.933 305.173L322.609 306.251ZM46.8479 301.18L45.5649 300.06C47.4415 297.917 49.3863 295.787 51.3585 293.74L52.5868 294.927C50.5806 297.03 48.6494 299.132 46.7933 301.255L46.8479 301.18ZM311.309 293.596C309.337 291.549 307.29 289.59 305.229 287.672L306.389 286.423C308.47 288.354 310.531 290.368 312.53 292.402L311.309 293.596ZM58.6123 288.941L57.4386 287.706C59.4858 285.747 61.6422 283.815 63.7917 281.958L64.904 283.255C62.7203 285.167 60.6049 287.078 58.5577 289.016L58.6123 288.941ZM298.869 282.047C296.726 280.231 294.502 278.436 292.256 276.716L293.294 275.351C295.559 277.085 297.804 278.894 299.974 280.73L298.869 282.047ZM71.4549 277.863L70.404 276.498C72.6423 274.744 74.9488 273.023 77.228 271.378L78.2175 272.744C75.9042 274.491 73.6181 276.204 71.4003 277.938L71.4549 277.863ZM285.398 271.72C283.085 270.109 280.697 268.532 278.315 267.037L279.223 265.59C281.625 267.099 284 268.689 286.374 270.32L285.398 271.72ZM85.2802 268.047L84.3522 266.614C86.7474 265.078 89.2039 263.576 91.6606 262.157L92.5135 263.638C90.0228 265.106 87.5935 266.566 85.2256 268.109L85.2802 268.047ZM270.952 262.751C268.496 261.385 265.971 260.02 263.446 258.751L264.21 257.229C266.755 258.505 269.301 259.863 271.785 261.263L270.952 262.751ZM99.8902 259.631L99.1055 258.116C101.624 256.812 104.21 255.556 106.789 254.368L107.472 255.918C104.954 257.092 102.401 258.375 99.897 259.631H99.8902ZM255.769 255.112C253.19 253.959 250.549 252.86 247.921 251.836L248.536 250.246C251.19 251.283 253.858 252.389 256.458 253.549L255.769 255.112ZM115.278 252.573L114.643 250.99C117.284 249.932 119.987 248.942 122.668 247.986L123.228 249.597C120.58 250.519 117.905 251.549 115.285 252.573H115.278ZM239.924 248.942C237.249 248.041 234.519 247.201 231.817 246.43L232.281 244.792C235.011 245.563 237.74 246.416 240.47 247.324L239.924 248.942ZM131.308 246.997L130.823 245.358C133.553 244.553 136.323 243.802 139.094 243.126L139.496 244.778C136.767 245.454 134.01 246.198 131.314 246.997H131.308ZM223.594 244.307C220.865 243.672 218.06 243.092 215.29 242.58L215.597 240.901C218.394 241.413 221.213 242 223.983 242.649L223.594 244.307ZM147.787 242.942L147.439 241.311C150.23 240.765 153.069 240.28 155.88 239.87L156.133 241.556C153.369 241.939 150.558 242.416 147.794 242.956L147.787 242.942ZM206.91 241.236C204.119 240.853 201.28 240.553 198.475 240.294L198.619 238.58C201.451 238.826 204.317 239.147 207.128 239.529L206.91 241.236ZM164.601 240.485L164.431 238.785C167.256 238.505 170.129 238.287 172.974 238.103L173.063 239.809C170.224 240.007 167.379 240.219 164.581 240.498L164.601 240.485ZM190.034 239.748C187.557 239.652 185.039 239.597 182.528 239.597H181.559V237.898H182.582C185.087 237.898 187.625 237.952 190.089 238.055L190.034 239.748Z" fill="#9192FF"/>
<g clip-path="url(#clip0_508_53)">
<path d="M482.51 0.48999H297.49V113.51H482.51V0.48999Z" fill="white"/>
<path d="M483 114H297.004V0H483V114ZM297.981 113.024H482.015V0.980021H297.981V113.024Z" fill="#9192FF"/>
<path d="M331.433 77.5354H320.783V97.0731H331.433V77.5354Z" fill="#E7922B"/>
<path d="M352.728 68.6094H342.079V97.0731H352.728V68.6094Z" fill="#E7922B"/>
<path d="M374.027 75.9047H363.378V97.0692H374.027V75.9047Z" fill="#E7922B"/>
<path d="M395.327 61.0122H384.677V97.0691H395.327V61.0122Z" fill="#E7922B"/>
<path d="M416.622 51.4865H405.973V97.0731H416.622V51.4865Z" fill="#E7922B"/>
<path d="M437.921 37.8798H427.272V97.0691H437.921V37.8798Z" fill="#E7922B"/>
<path d="M459.221 16.9269H448.571V97.0691H459.221V16.9269Z" fill="#E7922B"/>
<path d="M329.247 26.437H320.783V36.0099H329.247V26.437Z" fill="#E7922B"/>
<path d="M399.635 30.8707H342.322V33.3247H399.635V30.8707Z" fill="#E7922B"/>
</g>
<g clip-path="url(#clip1_508_53)">
<path d="M340.177 581.164V617H293.708L314.983 599.642L316.102 577.801L340.177 581.164Z" fill="#D1D1FF"/>
<path d="M315.424 599.243L314.535 600.177L323.407 608.618L324.295 607.683L315.424 599.243Z" fill="#1B1B43"/>
<path d="M335.67 590.671H319.769V591.961H335.67V590.671Z" fill="#1B1B43"/>
<path d="M394.48 582.841L396.162 617H349.693L369.286 600.199V579.483L394.48 582.841Z" fill="#D1D1FF"/>
<path d="M369.719 599.795L368.866 600.761L376.082 607.138L376.936 606.171L369.719 599.795Z" fill="#1B1B43"/>
<path d="M390.256 591.316H374.567V592.606H390.256V591.316Z" fill="#1B1B43"/>
<path d="M344.855 375.173C345.653 446.583 351.67 516.832 362.906 585.921H402.057C393.913 533.098 390.231 468.953 394.785 383.906L366.511 360.745L344.855 375.173Z" fill="url(#paint0_linear_508_53)"/>
<path d="M313.905 384.618L296.189 463.428C291.93 482.366 291.634 501.98 295.317 521.038L307.783 585.41H346.939L335.077 500.899L363.412 372.078L313.905 384.618Z" fill="url(#paint1_linear_508_53)"/>
<path d="M347.496 460.163C347.398 458.538 345.17 422.295 344.917 417.704L334.685 413.98L335.123 412.773L346.186 416.791V417.245C346.186 418.039 347.872 445.616 348.764 460.06L347.496 460.163Z" fill="#BE443D"/>
<path d="M432.269 206.688L434.363 201.695C434.363 201.695 426.792 185.735 429.206 183.64C431.619 181.546 435.493 187.509 435.493 187.509C435.493 187.509 434.363 168.165 438.071 168C441.197 167.866 440.975 173.483 441.295 181.866C441.295 181.866 443.229 179.287 446.788 181.954C448.386 179.287 451.77 181.061 452.739 182.671C453.869 181.381 458.542 181.706 457.897 187.184C457.077 194.138 453.869 207.013 453.869 207.013L443.554 215.556L432.269 206.688Z" fill="#FFBC96"/>
<path d="M349.43 273.428L365.114 273.304C392.624 270.849 414.11 248.497 414.11 248.497L432.264 206.714L453.864 207.039L441.187 256.173C439.364 263.229 435.441 269.564 429.938 274.341L384.882 313.432L349.43 273.428Z" fill="#DC4279"/>
<path d="M306.432 309.001L313.9 384.618L394.769 383.906L391.974 292.772L349.425 273.428L319.986 285.896L306.432 309.001Z" fill="#DC4279"/>
<path d="M256.358 316.346C255.041 315.171 253.377 314.458 251.618 314.314C242.68 313.566 214.732 311.409 215 313.576C215.32 316.155 236.594 325.827 236.594 325.827L250.246 341.189L262.748 322.02L256.358 316.346Z" fill="#FFBC96"/>
<path d="M317.314 280.707C314.473 281.202 311.786 282.352 309.466 284.067C307.147 285.782 305.258 288.013 303.951 290.585L280.118 337.434L262.753 322.02L250.251 341.189L254.811 346.348C261.562 353.946 269.437 364.16 279.979 366.373C285.348 367.497 290.351 365.269 294.198 361.57C297.052 358.767 299.526 355.602 301.558 352.156L311.063 336.49L341.364 276.523L317.314 280.707Z" fill="#DC4279"/>
<path d="M307.097 308.906L305.813 309.031L310.342 355.562L311.626 355.437L307.097 308.906Z" fill="#D1D1FF"/>
<path d="M392.459 306.633L384.882 313.406L392.943 326.787L392.459 306.633Z" fill="#CB236D"/>
<path d="M444.09 191.486C441.047 191.486 440.815 187.499 440.81 181.866H441.78C441.78 188.494 442.295 190.517 444.09 190.517C444.267 190.516 444.442 190.477 444.602 190.402C444.763 190.327 444.905 190.219 445.019 190.083C445.88 189.16 446.215 186.988 446.318 185.064C446.251 183.661 446.282 182.438 446.318 181.933H447.288C447.338 182.942 447.338 183.952 447.288 184.961C447.422 187.587 447.86 190.181 448.737 190.444C448.953 190.522 449.184 190.545 449.411 190.512C449.638 190.478 449.853 190.39 450.037 190.253C451.068 189.5 451.667 187.375 451.971 185.477C452.007 184.518 452.102 183.561 452.255 182.614L453.219 182.702C453.181 183.565 453.099 184.426 452.971 185.281C452.904 187.293 453.131 189.242 453.946 189.583C454.179 189.71 454.439 189.776 454.704 189.776C454.969 189.776 455.23 189.71 455.462 189.583C456.571 188.907 456.974 186.627 457.036 185.807L458 185.879C458 186.018 457.721 189.335 455.968 190.408C455.605 190.618 455.197 190.735 454.778 190.747C454.359 190.76 453.944 190.668 453.57 190.48C453.343 190.382 452.631 189.965 452.234 188.463C451.956 189.466 451.387 190.364 450.599 191.043C450.295 191.266 449.942 191.414 449.57 191.472C449.197 191.531 448.816 191.498 448.459 191.378C447.608 191.12 447.082 190.037 446.762 188.68C446.581 189.438 446.228 190.144 445.73 190.744C445.526 190.977 445.274 191.164 444.991 191.292C444.708 191.421 444.401 191.487 444.09 191.486Z" fill="#D28572"/>
<path d="M342.606 291.776C339.315 292.037 336.054 290.981 333.54 288.84C331.026 286.699 329.464 283.648 329.197 280.356L329.058 278.612L327.098 254.29L342.245 253.078L351.967 252.289L354.056 278.339C354.189 279.973 353.997 281.618 353.493 283.179C352.989 284.74 352.183 286.185 351.119 287.434C350.055 288.682 348.756 289.708 347.295 290.453C345.835 291.199 344.241 291.648 342.606 291.776Z" fill="#FFBC96"/>
<path d="M347.068 261.28C342.349 269.595 335.592 275.584 329.017 278.612L327.057 254.29L342.204 253.078L347.068 261.28Z" fill="#1B1B43"/>
<path d="M352.009 235.808L349.002 261.177C349.002 261.177 339.331 270.426 325.148 269.982C319.991 269.827 316.938 264.927 315.158 258.701C314.421 255.992 313.882 253.234 313.544 250.447C312.83 244.305 312.615 238.115 312.899 231.939L334.819 224.645L352.009 235.808Z" fill="#FFBC96"/>
<path d="M348.677 246.238C346.392 238.103 342.292 234.007 336.748 233.13C319.13 242.694 307.685 236.999 299.356 226.357C319.774 230.334 328.692 201.318 348.249 220.683C362.752 225.088 362.483 238.949 354.262 250.236L348.677 246.238Z" fill="#1B1B43"/>
<path d="M357.722 249.304C358.469 245.476 356.385 241.847 353.066 241.199C349.748 240.551 346.452 243.129 345.705 246.957C344.957 250.784 347.042 254.413 350.36 255.061C353.678 255.709 356.974 253.132 357.722 249.304Z" fill="#FFBC96"/>
<path d="M354.025 245.572C352.994 245.743 352.359 246.511 351.869 247.378C351.388 248.294 351.055 249.282 350.884 250.303H350.508C350.357 249.732 350.334 249.135 350.441 248.554C350.538 247.966 350.739 247.4 351.034 246.883C351.328 246.341 351.747 245.878 352.256 245.531C352.513 245.348 352.806 245.221 353.115 245.159C353.424 245.097 353.743 245.101 354.051 245.17L354.025 245.572Z" fill="#1B1B43"/>
<path d="M318.16 247.259C318.16 248.358 317.644 249.245 316.979 249.245C316.314 249.245 315.798 248.358 315.798 247.259C315.798 246.161 316.314 245.273 316.979 245.273C317.644 245.273 318.16 246.161 318.16 247.259Z" fill="#1B1B43"/>
<path d="M327.928 246.449C327.928 247.641 327.356 248.606 326.649 248.606C325.943 248.606 325.37 247.641 325.37 246.449C325.37 245.258 325.943 244.293 326.649 244.293C327.356 244.293 327.928 245.258 327.928 246.449Z" fill="#1B1B43"/>
<path d="M320.847 248.874C320.833 249.257 320.717 249.629 320.512 249.952C320.323 250.256 320.104 250.539 319.857 250.798C319.416 251.187 319.079 251.68 318.877 252.232C318.83 252.49 318.845 252.755 318.92 253.006C318.995 253.257 319.129 253.487 319.31 253.676C319.738 254.163 320.197 254.623 320.682 255.054L320.476 255.368C319.813 255.111 319.204 254.731 318.681 254.249C318.394 253.973 318.168 253.641 318.016 253.274C317.861 252.871 317.834 252.429 317.938 252.01C318.044 251.615 318.24 251.25 318.511 250.942C318.747 250.678 319.004 250.433 319.279 250.21C319.79 249.857 320.201 249.377 320.47 248.817L320.847 248.874Z" fill="#1B1B43"/>
<path d="M321.775 259.619C323.098 259.358 324.367 258.871 325.525 258.18C326.093 257.828 326.631 257.432 327.134 256.993C327.65 256.55 328.135 256.075 328.645 255.585L328.949 255.807C328.303 257.132 327.288 258.243 326.025 259.005C324.758 259.779 323.275 260.126 321.796 259.995L321.775 259.619Z" fill="#1B1B43"/>
<path d="M325.097 241.11C324.818 242.565 329.393 243.035 330.213 243.174C330.894 243.292 331.858 243.37 331.997 242.343C332.178 241.069 330.791 240.935 330.007 240.765C329.223 240.595 325.36 239.738 325.097 241.11Z" fill="#1B1B43"/>
<path d="M318.738 242.008C318.738 243.411 315.076 243.556 314.411 243.638C313.864 243.705 313.101 243.71 313.157 242.725C313.229 241.497 314.328 241.461 314.968 241.353C315.607 241.245 318.758 240.677 318.738 242.008Z" fill="#1B1B43"/>
<path opacity="0.2" d="M335.809 255.451C338.39 255.451 340.482 253.358 340.482 250.777C340.482 248.196 338.39 246.104 335.809 246.104C333.228 246.104 331.136 248.196 331.136 250.777C331.136 253.358 333.228 255.451 335.809 255.451Z" fill="#FE5B52"/>
<path opacity="0.2" d="M317.067 254.976C317.068 255.701 316.899 256.417 316.572 257.064C316.245 257.711 315.769 258.272 315.184 258.701C314.447 255.992 313.907 253.234 313.57 250.447C314.571 250.709 315.457 251.296 316.09 252.116C316.723 252.935 317.066 253.941 317.067 254.976Z" fill="#FE5B52"/>
<g clip-path="url(#clip2_508_53)">
<path d="M249.705 275.144L239.933 248.003C234.443 250.001 229.689 253.634 226.305 258.418C222.922 263.203 221.07 268.91 220.997 274.78C220.924 280.65 222.633 286.402 225.895 291.271C229.158 296.139 233.82 299.891 239.259 302.027C244.698 304.162 250.655 304.58 256.336 303.224C262.017 301.868 267.151 298.802 271.055 294.436C274.958 290.071 277.444 284.612 278.182 278.789C278.92 272.966 277.874 267.055 275.184 261.845L249.705 275.144Z" fill="#FAE3C8"/>
<path d="M279 251.566C275.793 245.355 270.45 240.527 263.966 237.98C257.482 235.433 250.299 235.341 243.752 237.721L253.521 264.862L279 251.566Z" fill="#E7922B"/>
</g>
</g>
<g clip-path="url(#clip3_508_53)">
<path d="M190.425 561.276C186.407 535.073 191.775 508.299 205.589 485.636C219.403 462.973 240.785 445.864 265.995 437.301C251.865 447.139 243.241 463.05 237.219 479.132C231.197 495.214 227.256 512.099 219.825 527.592C212.394 543.086 200.695 557.552 184.457 563.351L190.425 561.276Z" fill="url(#paint2_linear_508_53)"/>
<path d="M186.511 561.489C185.932 531.438 180.111 501.716 169.306 473.648C165.478 463.708 160.881 453.789 153.407 446.165C145.933 438.542 135.072 433.529 124.539 435.39C137.653 445.16 144.433 461.231 148.278 477.083C152.122 492.935 153.579 509.391 158.966 524.789C164.354 540.186 174.661 555.027 190.087 560.532L186.511 561.489Z" fill="url(#paint3_linear_508_53)"/>
<path d="M184.463 563.485C176.935 543.385 168.811 522.783 153.73 507.471C138.648 492.159 114.749 483.396 95 491.956C111.134 495.66 125.522 504.716 135.798 517.636C143.24 527.041 148.24 538.19 155.891 547.424C163.542 556.659 175.215 564.1 187.038 561.869L184.463 563.485Z" fill="#F9D175"/>
<path d="M182.065 562.083C178.995 540.025 175.919 517.614 179.156 495.583C182.393 473.552 192.866 451.553 211.626 439.408C201.243 449.541 197.775 464.885 197.77 479.357C197.764 493.828 200.711 508.166 200.958 522.638C201.206 537.11 198.318 552.475 188.484 563.137L182.065 562.083Z" fill="#F9D175"/>
<path d="M192.425 558.868C199.614 540.641 207.276 521.718 221.917 508.632C231.398 500.197 243.191 494.767 255.79 493.036C247.01 499.991 241.515 510.221 236.971 520.434C232.428 530.647 228.476 541.299 221.874 550.324C215.271 559.35 205.356 566.802 194.135 567.284L192.425 558.868Z" fill="#F9D175"/>
<path d="M228.955 614.331H148.208L135.755 552.523H241.407L228.955 614.331Z" fill="white"/>
<path d="M229.525 615H147.654L134.938 551.87H242.224L229.525 615ZM148.778 613.662H228.428L240.606 553.208H136.578L148.778 613.662Z" fill="#9192FF"/>
</g>
<defs>
<linearGradient id="paint0_linear_508_53" x1="373.456" y1="360.745" x2="373.456" y2="585.921" gradientUnits="userSpaceOnUse">
<stop stop-color="#5AB6FF"/>
<stop offset="1" stop-color="#2F68E3"/>
</linearGradient>
<linearGradient id="paint1_linear_508_53" x1="328.085" y1="372.078" x2="328.085" y2="585.41" gradientUnits="userSpaceOnUse">
<stop stop-color="#5AB6FF"/>
<stop offset="1" stop-color="#2F68E3"/>
</linearGradient>
<linearGradient id="paint2_linear_508_53" x1="225.226" y1="437.301" x2="225.226" y2="563.351" gradientUnits="userSpaceOnUse">
<stop stop-color="#E59449"/>
<stop offset="1" stop-color="#FC5F08"/>
</linearGradient>
<linearGradient id="paint3_linear_508_53" x1="157.313" y1="435.001" x2="157.313" y2="561.489" gradientUnits="userSpaceOnUse">
<stop stop-color="#E69B46"/>
<stop offset="1" stop-color="#E37A59"/>
</linearGradient>
<clipPath id="clip0_508_53">
<rect width="186" height="114" fill="white" transform="translate(297)"/>
</clipPath>
<clipPath id="clip1_508_53">
<rect width="243" height="449" fill="white" transform="translate(215 168)"/>
</clipPath>
<clipPath id="clip2_508_53">
<rect width="58" height="68" fill="white" transform="translate(221 236)"/>
</clipPath>
<clipPath id="clip3_508_53">
<rect width="171" height="180" fill="white" transform="translate(95 435)"/>
</clipPath>
</defs>
</svg>
