<svg width="86" height="86" viewBox="0 0 86 86" fill="none" xmlns="http://www.w3.org/2000/svg">
<path d="M43.5256 38.8302C43.4632 38.7505 43.3835 38.686 43.2925 38.6416C43.2014 38.5973 43.1015 38.5742 43.0002 38.5742C42.8989 38.5742 42.799 38.5973 42.708 38.6416C42.6169 38.686 42.5372 38.7505 42.4748 38.8302L33.1337 50.6483C33.0567 50.7467 33.0089 50.8647 32.9959 50.9889C32.9828 51.1131 33.0049 51.2385 33.0597 51.3507C33.1145 51.463 33.1998 51.5575 33.3058 51.6235C33.4118 51.6896 33.5343 51.7245 33.6592 51.7242H39.8226V71.9409C39.8226 72.3079 40.1228 72.6081 40.4898 72.6081H45.4939C45.8609 72.6081 46.1612 72.3079 46.1612 71.9409V51.7325H52.3413C52.9001 51.7325 53.2086 51.0903 52.8667 50.6567L43.5256 38.8302Z" fill="black"/>
<path d="M67.9715 31.1322C64.1517 21.0572 54.4187 13.8929 43.0176 13.8929C31.6165 13.8929 21.8835 21.0489 18.0637 31.1238C10.9161 33.0004 5.63672 39.5141 5.63672 47.2538C5.63672 56.4698 13.1012 63.9343 22.3088 63.9343H25.6533C26.0202 63.9343 26.3205 63.634 26.3205 63.2671V58.2629C26.3205 57.896 26.0202 57.5957 25.6533 57.5957H22.3088C19.4982 57.5957 16.8543 56.4781 14.886 54.4514C12.9261 52.4331 11.8835 49.7142 11.9753 46.8952C12.0504 44.6934 12.801 42.625 14.1604 40.8819C15.5532 39.1054 17.5049 37.8127 19.6733 37.2372L22.8343 36.4115L23.9936 33.359C24.7108 31.4575 25.7116 29.681 26.971 28.0713C28.2143 26.4759 29.687 25.0734 31.3413 23.9096C34.7691 21.4992 38.8058 20.2232 43.0176 20.2232C47.2294 20.2232 51.2661 21.4992 54.6939 23.9096C56.3536 25.0772 57.8215 26.4783 59.0642 28.0713C60.3236 29.681 61.3244 31.4658 62.0416 33.359L63.1926 36.4032L66.3452 37.2372C70.8656 38.4549 74.0266 42.5666 74.0266 47.2538C74.0266 50.0145 72.9507 52.6166 70.999 54.5682C70.042 55.5309 68.9034 56.2942 67.6493 56.8139C66.3952 57.3335 65.0505 57.5993 63.693 57.5957H60.3486C59.9816 57.5957 59.6814 57.896 59.6814 58.2629V63.2671C59.6814 63.634 59.9816 63.9343 60.3486 63.9343H63.693C72.9006 63.9343 80.3651 56.4698 80.3651 47.2538C80.3651 39.5224 75.1024 33.0171 67.9715 31.1322Z" fill="black"/>
</svg>
