<svg width="160" height="160" viewBox="0 0 160 160" fill="none" xmlns="http://www.w3.org/2000/svg">
<circle cx="79.7802" cy="79.9121" r="79.7802" fill="#282F78"/>
<circle cx="80" cy="80.1318" r="69.5" stroke="white" stroke-width="3"/>
<mask id="path-3-outside-1_1219_514" maskUnits="userSpaceOnUse" x="32" y="31.3242" width="96" height="86" fill="black">
<rect fill="white" x="32" y="31.3242" width="96" height="86"/>
<path d="M126.56 83.083L112.174 59.5016C111.747 58.8008 111.063 58.304 110.25 58.1021C109.438 57.9003 108.592 58.0174 107.873 58.4337L102.424 61.5789C101.266 62.2473 100.715 63.5307 100.941 64.7503L98.7378 65.699H86.3574C86.1305 65.699 85.9079 65.7576 85.7111 65.8674L81.6657 68.1392H62.3794L59.7975 66.6895C60.1137 66.0463 60.1879 65.3235 60.004 64.6227C59.7965 63.8319 59.2857 63.1667 58.5652 62.7515L53.1164 59.6052C52.396 59.1899 51.5518 59.0717 50.7388 59.2736C49.9259 59.4755 49.242 59.9723 48.8151 60.6731L33.4398 85.8757C33.0129 86.5755 32.8914 87.3976 33.0989 88.1884C33.3065 88.9802 33.8173 89.6444 34.5377 90.0596L39.9865 93.2048C40.4876 93.4946 41.0382 93.6316 41.5834 93.6316C42.6566 93.6316 43.7029 93.0971 44.2889 92.1369L44.2922 92.1327L50.2786 95.4945C49.7872 96.2842 49.5237 97.1952 49.5237 98.1491C49.5237 99.5225 50.0678 100.808 51.0561 101.768C52.0465 102.733 53.3681 103.263 54.7768 103.263C55.3155 103.263 55.8424 103.185 56.3425 103.035C56.4704 104.149 56.9726 105.229 57.849 106.082C58.8394 107.046 60.161 107.576 61.5697 107.576C62.1095 107.576 62.6354 107.499 63.1354 107.348C63.2634 108.462 63.7656 109.543 64.642 110.395C66.07 111.784 68.1218 112.207 69.9294 111.662C70.0574 112.776 70.5596 113.856 71.436 114.709C72.4274 115.672 73.748 116.204 75.1567 116.204C76.5653 116.204 77.8869 115.673 78.8773 114.709L80.9345 112.708L84.3723 114.639C85.2649 115.14 86.2402 115.378 87.2037 115.378C89.1694 115.378 91.0836 114.387 92.1342 112.616C92.7374 111.599 92.9708 110.471 92.8729 109.381C93.8708 109.672 94.9365 109.688 95.971 109.418C97.441 109.036 98.6669 108.122 99.4228 106.848C100.011 105.857 100.263 104.736 100.158 103.612C102.624 104.332 105.371 103.341 106.713 101.081C107.316 100.064 107.548 98.9357 107.451 97.8458C108.448 98.1366 109.514 98.1523 110.549 97.8824C112.02 97.4996 113.246 96.5865 114.002 95.3135C114.759 94.0395 114.958 92.5501 114.565 91.1202C114.463 90.751 114.325 90.3975 114.154 90.0638L115.641 89.2291L115.711 89.3431C116.297 90.3033 117.343 90.8378 118.417 90.8378C118.961 90.8378 119.512 90.6997 120.013 90.4111L125.462 87.2658C126.183 86.8506 126.694 86.1853 126.901 85.3946C127.109 84.6049 126.987 83.7838 126.56 83.083ZM41.3059 91.0428L35.8572 87.8976C35.6873 87.7993 35.626 87.6486 35.6045 87.5671C35.583 87.4855 35.5625 87.3244 35.6636 87.1591L51.0389 61.9565C51.14 61.7913 51.2948 61.7316 51.3787 61.7107C51.4131 61.7023 51.4615 61.694 51.5195 61.694C51.6002 61.694 51.6981 61.7107 51.7981 61.7682L57.2468 64.9135C57.4167 65.0118 57.478 65.1624 57.4995 65.244C57.521 65.3256 57.5415 65.4867 57.4404 65.6519L42.0651 90.8545C41.9092 91.1098 41.5683 91.1945 41.3059 91.0428ZM56.6694 99.9911C56.1672 100.48 55.494 100.749 54.7768 100.749C54.0584 100.749 53.3863 100.481 52.8842 99.9911C52.3852 99.5058 52.1099 98.851 52.1099 98.1502C52.1099 97.4483 52.3852 96.7946 52.8842 96.3093L60.2029 89.1904C61.2471 88.1758 62.9451 88.1758 63.9892 89.1904C64.4893 89.6757 64.7635 90.3305 64.7635 91.0313C64.7635 91.7332 64.4882 92.3869 63.9892 92.8722L56.6694 99.9911ZM63.4634 104.306C62.9612 104.794 62.288 105.064 61.5708 105.064C60.8524 105.064 60.1804 104.795 59.6782 104.306C58.6523 103.308 58.6523 101.621 59.6782 100.623L65.8173 94.6514L65.8205 94.6472C66.3227 94.1609 66.9937 93.8931 67.7099 93.8931C68.4282 93.8931 69.1003 94.1619 69.6025 94.6514C70.1025 95.1367 70.3768 95.7915 70.3768 96.4923C70.3768 97.1931 70.1015 97.8479 69.6025 98.3332L69.6004 98.3353L63.4634 104.306ZM70.2563 108.619C69.2122 109.635 67.5142 109.635 66.47 108.619C65.4442 107.621 65.4442 105.934 66.47 104.936L71.4284 100.113L71.4306 100.111C72.4747 99.0957 74.1727 99.0957 75.2169 100.111C76.2427 101.109 76.2427 102.796 75.2169 103.794L70.2563 108.619ZM77.0493 112.934C76.5471 113.423 75.8739 113.692 75.1567 113.692C74.4383 113.692 73.7662 113.423 73.264 112.934C72.2382 111.936 72.2382 110.25 73.264 109.252L77.0439 105.576L77.046 105.573C78.0902 104.559 79.7882 104.559 80.8323 105.573C81.3313 106.059 81.6066 106.714 81.6066 107.414C81.6066 108.116 81.3313 108.77 80.8323 109.255L77.0493 112.934ZM111.765 94.0583C111.354 94.7497 110.686 95.2455 109.882 95.4558C109.078 95.665 108.244 95.5604 107.533 95.1618L104.635 93.5343L89.1963 84.8643C88.578 84.5181 87.7876 84.7231 87.4306 85.3245C87.0736 85.9259 87.2854 86.6947 87.9038 87.042L103.341 95.712L103.347 95.7152C104.821 96.5478 105.326 98.3908 104.475 99.8269C103.621 101.265 101.723 101.76 100.243 100.929L85.5348 92.6693C84.9165 92.322 84.1261 92.5281 83.7691 93.1295C83.4121 93.731 83.6239 94.4998 84.2422 94.847L96.042 101.473L96.0506 101.478C96.7614 101.878 97.2711 102.528 97.4872 103.31C97.7023 104.091 97.5948 104.903 97.1851 105.594C96.7743 106.287 96.1054 106.784 95.3032 106.993C94.501 107.202 93.6665 107.096 92.9547 106.697L85.9649 102.771C85.3466 102.425 84.5562 102.63 84.1992 103.231C83.8422 103.833 84.054 104.602 84.6724 104.949L88.763 107.246C90.2416 108.076 90.7502 109.923 89.8964 111.361C89.0425 112.8 87.1446 113.294 85.6649 112.463L82.8217 110.866C84.7078 108.86 84.6541 105.734 82.6582 103.793C81.5388 102.705 80.0376 102.211 78.5698 102.309C78.6719 100.882 78.1622 99.421 77.0439 98.3322C75.9234 97.2423 74.419 96.7465 72.949 96.8479C72.9576 96.7298 72.9608 96.6105 72.9608 96.4902C72.9608 95.1169 72.4167 93.8314 71.4284 92.8712C70.438 91.9078 69.1165 91.3765 67.7078 91.3765C67.583 91.3765 67.4583 91.3807 67.3346 91.389C67.3432 91.2698 67.3475 91.1506 67.3475 91.0292C67.3475 89.6559 66.8034 88.3704 65.8152 87.4102C63.7634 85.4145 60.4245 85.4145 58.3727 87.4102L52.0336 93.5762L45.6095 89.9686L58.4888 68.8568L61.3858 70.4833C61.5826 70.5941 61.8052 70.6517 62.0321 70.6517H77.1858L74.419 72.206C72.9296 73.0427 71.8629 74.3973 71.4155 76.0227C70.9682 77.6471 71.1951 79.3405 72.0543 80.7881C73.8351 83.788 77.7934 84.8193 80.8775 83.0882L89.6512 78.1607L110.629 89.9414C111.341 90.341 111.852 90.9916 112.067 91.7719C112.284 92.5542 112.175 93.3659 111.765 94.0583ZM112.466 88.111C112.293 87.9865 112.112 87.8714 111.924 87.7648L90.2996 75.6211C89.8996 75.3962 89.4071 75.3962 89.0071 75.6211L79.5871 80.9116C77.7375 81.9502 75.3631 81.331 74.2953 79.5319C73.2275 77.7329 73.863 75.4234 75.7137 74.3847L86.7037 68.2125H99.0099C99.1906 68.2125 99.368 68.1758 99.5336 68.1047L102.084 67.0065L114.323 87.0681L112.466 88.111ZM124.396 84.7743C124.374 84.8559 124.313 85.0065 124.143 85.1049L118.694 88.2501C118.431 88.4028 118.091 88.317 117.935 88.0618L103.549 64.4794C103.393 64.2242 103.48 63.8926 103.742 63.7409L109.191 60.5957C109.455 60.444 109.795 60.5288 109.95 60.784L124.336 84.3664C124.437 84.5317 124.417 84.6927 124.396 84.7743ZM66.3066 61.7097H93.6934C94.087 61.7097 94.4591 61.535 94.7042 61.2358C94.9494 60.9367 95.0419 60.5455 94.9537 60.1721L92.931 51.5512C92.389 49.2428 90.9438 47.4803 88.7511 46.4532L86.4488 45.3748C87.5822 43.9993 88.2619 42.2557 88.2619 40.3604C88.2619 35.9297 84.5551 32.3242 80 32.3242C75.4448 32.3242 71.7381 35.9297 71.7381 40.3604C71.7381 42.2557 72.4178 43.9993 73.5512 45.3748L71.2489 46.4532C69.0562 47.4803 67.6099 49.2438 67.069 51.5512L65.0463 60.1721C64.9592 60.5455 65.0506 60.9367 65.2958 61.2358C65.5409 61.536 65.913 61.7097 66.3066 61.7097ZM80 34.8398C83.1303 34.8398 85.6767 37.3166 85.6767 40.3614C85.6767 43.4063 83.1303 45.8821 80 45.8821C76.8697 45.8821 74.3233 43.4052 74.3233 40.3604C74.3233 37.3156 76.8697 34.8398 80 34.8398ZM69.5896 52.1119C69.9552 50.5544 70.8908 49.4133 72.3704 48.7198L75.6449 47.1864C76.9105 47.9531 78.402 48.3976 80 48.3976C81.5969 48.3976 83.0895 47.9531 84.3551 47.1864L87.6296 48.7198C89.1092 49.4133 90.0448 50.5544 90.4104 52.1119L92.0729 59.1952H67.9271L69.5896 52.1119Z"/>
</mask>
<path d="M126.56 83.083L112.174 59.5016C111.747 58.8008 111.063 58.304 110.25 58.1021C109.438 57.9003 108.592 58.0174 107.873 58.4337L102.424 61.5789C101.266 62.2473 100.715 63.5307 100.941 64.7503L98.7378 65.699H86.3574C86.1305 65.699 85.9079 65.7576 85.7111 65.8674L81.6657 68.1392H62.3794L59.7975 66.6895C60.1137 66.0463 60.1879 65.3235 60.004 64.6227C59.7965 63.8319 59.2857 63.1667 58.5652 62.7515L53.1164 59.6052C52.396 59.1899 51.5518 59.0717 50.7388 59.2736C49.9259 59.4755 49.242 59.9723 48.8151 60.6731L33.4398 85.8757C33.0129 86.5755 32.8914 87.3976 33.0989 88.1884C33.3065 88.9802 33.8173 89.6444 34.5377 90.0596L39.9865 93.2048C40.4876 93.4946 41.0382 93.6316 41.5834 93.6316C42.6566 93.6316 43.7029 93.0971 44.2889 92.1369L44.2922 92.1327L50.2786 95.4945C49.7872 96.2842 49.5237 97.1952 49.5237 98.1491C49.5237 99.5225 50.0678 100.808 51.0561 101.768C52.0465 102.733 53.3681 103.263 54.7768 103.263C55.3155 103.263 55.8424 103.185 56.3425 103.035C56.4704 104.149 56.9726 105.229 57.849 106.082C58.8394 107.046 60.161 107.576 61.5697 107.576C62.1095 107.576 62.6354 107.499 63.1354 107.348C63.2634 108.462 63.7656 109.543 64.642 110.395C66.07 111.784 68.1218 112.207 69.9294 111.662C70.0574 112.776 70.5596 113.856 71.436 114.709C72.4274 115.672 73.748 116.204 75.1567 116.204C76.5653 116.204 77.8869 115.673 78.8773 114.709L80.9345 112.708L84.3723 114.639C85.2649 115.14 86.2402 115.378 87.2037 115.378C89.1694 115.378 91.0836 114.387 92.1342 112.616C92.7374 111.599 92.9708 110.471 92.8729 109.381C93.8708 109.672 94.9365 109.688 95.971 109.418C97.441 109.036 98.6669 108.122 99.4228 106.848C100.011 105.857 100.263 104.736 100.158 103.612C102.624 104.332 105.371 103.341 106.713 101.081C107.316 100.064 107.548 98.9357 107.451 97.8458C108.448 98.1366 109.514 98.1523 110.549 97.8824C112.02 97.4996 113.246 96.5865 114.002 95.3135C114.759 94.0395 114.958 92.5501 114.565 91.1202C114.463 90.751 114.325 90.3975 114.154 90.0638L115.641 89.2291L115.711 89.3431C116.297 90.3033 117.343 90.8378 118.417 90.8378C118.961 90.8378 119.512 90.6997 120.013 90.4111L125.462 87.2658C126.183 86.8506 126.694 86.1853 126.901 85.3946C127.109 84.6049 126.987 83.7838 126.56 83.083ZM41.3059 91.0428L35.8572 87.8976C35.6873 87.7993 35.626 87.6486 35.6045 87.5671C35.583 87.4855 35.5625 87.3244 35.6636 87.1591L51.0389 61.9565C51.14 61.7913 51.2948 61.7316 51.3787 61.7107C51.4131 61.7023 51.4615 61.694 51.5195 61.694C51.6002 61.694 51.6981 61.7107 51.7981 61.7682L57.2468 64.9135C57.4167 65.0118 57.478 65.1624 57.4995 65.244C57.521 65.3256 57.5415 65.4867 57.4404 65.6519L42.0651 90.8545C41.9092 91.1098 41.5683 91.1945 41.3059 91.0428ZM56.6694 99.9911C56.1672 100.48 55.494 100.749 54.7768 100.749C54.0584 100.749 53.3863 100.481 52.8842 99.9911C52.3852 99.5058 52.1099 98.851 52.1099 98.1502C52.1099 97.4483 52.3852 96.7946 52.8842 96.3093L60.2029 89.1904C61.2471 88.1758 62.9451 88.1758 63.9892 89.1904C64.4893 89.6757 64.7635 90.3305 64.7635 91.0313C64.7635 91.7332 64.4882 92.3869 63.9892 92.8722L56.6694 99.9911ZM63.4634 104.306C62.9612 104.794 62.288 105.064 61.5708 105.064C60.8524 105.064 60.1804 104.795 59.6782 104.306C58.6523 103.308 58.6523 101.621 59.6782 100.623L65.8173 94.6514L65.8205 94.6472C66.3227 94.1609 66.9937 93.8931 67.7099 93.8931C68.4282 93.8931 69.1003 94.1619 69.6025 94.6514C70.1025 95.1367 70.3768 95.7915 70.3768 96.4923C70.3768 97.1931 70.1015 97.8479 69.6025 98.3332L69.6004 98.3353L63.4634 104.306ZM70.2563 108.619C69.2122 109.635 67.5142 109.635 66.47 108.619C65.4442 107.621 65.4442 105.934 66.47 104.936L71.4284 100.113L71.4306 100.111C72.4747 99.0957 74.1727 99.0957 75.2169 100.111C76.2427 101.109 76.2427 102.796 75.2169 103.794L70.2563 108.619ZM77.0493 112.934C76.5471 113.423 75.8739 113.692 75.1567 113.692C74.4383 113.692 73.7662 113.423 73.264 112.934C72.2382 111.936 72.2382 110.25 73.264 109.252L77.0439 105.576L77.046 105.573C78.0902 104.559 79.7882 104.559 80.8323 105.573C81.3313 106.059 81.6066 106.714 81.6066 107.414C81.6066 108.116 81.3313 108.77 80.8323 109.255L77.0493 112.934ZM111.765 94.0583C111.354 94.7497 110.686 95.2455 109.882 95.4558C109.078 95.665 108.244 95.5604 107.533 95.1618L104.635 93.5343L89.1963 84.8643C88.578 84.5181 87.7876 84.7231 87.4306 85.3245C87.0736 85.9259 87.2854 86.6947 87.9038 87.042L103.341 95.712L103.347 95.7152C104.821 96.5478 105.326 98.3908 104.475 99.8269C103.621 101.265 101.723 101.76 100.243 100.929L85.5348 92.6693C84.9165 92.322 84.1261 92.5281 83.7691 93.1295C83.4121 93.731 83.6239 94.4998 84.2422 94.847L96.042 101.473L96.0506 101.478C96.7614 101.878 97.2711 102.528 97.4872 103.31C97.7023 104.091 97.5948 104.903 97.1851 105.594C96.7743 106.287 96.1054 106.784 95.3032 106.993C94.501 107.202 93.6665 107.096 92.9547 106.697L85.9649 102.771C85.3466 102.425 84.5562 102.63 84.1992 103.231C83.8422 103.833 84.054 104.602 84.6724 104.949L88.763 107.246C90.2416 108.076 90.7502 109.923 89.8964 111.361C89.0425 112.8 87.1446 113.294 85.6649 112.463L82.8217 110.866C84.7078 108.86 84.6541 105.734 82.6582 103.793C81.5388 102.705 80.0376 102.211 78.5698 102.309C78.6719 100.882 78.1622 99.421 77.0439 98.3322C75.9234 97.2423 74.419 96.7465 72.949 96.8479C72.9576 96.7298 72.9608 96.6105 72.9608 96.4902C72.9608 95.1169 72.4167 93.8314 71.4284 92.8712C70.438 91.9078 69.1165 91.3765 67.7078 91.3765C67.583 91.3765 67.4583 91.3807 67.3346 91.389C67.3432 91.2698 67.3475 91.1506 67.3475 91.0292C67.3475 89.6559 66.8034 88.3704 65.8152 87.4102C63.7634 85.4145 60.4245 85.4145 58.3727 87.4102L52.0336 93.5762L45.6095 89.9686L58.4888 68.8568L61.3858 70.4833C61.5826 70.5941 61.8052 70.6517 62.0321 70.6517H77.1858L74.419 72.206C72.9296 73.0427 71.8629 74.3973 71.4155 76.0227C70.9682 77.6471 71.1951 79.3405 72.0543 80.7881C73.8351 83.788 77.7934 84.8193 80.8775 83.0882L89.6512 78.1607L110.629 89.9414C111.341 90.341 111.852 90.9916 112.067 91.7719C112.284 92.5542 112.175 93.3659 111.765 94.0583ZM112.466 88.111C112.293 87.9865 112.112 87.8714 111.924 87.7648L90.2996 75.6211C89.8996 75.3962 89.4071 75.3962 89.0071 75.6211L79.5871 80.9116C77.7375 81.9502 75.3631 81.331 74.2953 79.5319C73.2275 77.7329 73.863 75.4234 75.7137 74.3847L86.7037 68.2125H99.0099C99.1906 68.2125 99.368 68.1758 99.5336 68.1047L102.084 67.0065L114.323 87.0681L112.466 88.111ZM124.396 84.7743C124.374 84.8559 124.313 85.0065 124.143 85.1049L118.694 88.2501C118.431 88.4028 118.091 88.317 117.935 88.0618L103.549 64.4794C103.393 64.2242 103.48 63.8926 103.742 63.7409L109.191 60.5957C109.455 60.444 109.795 60.5288 109.95 60.784L124.336 84.3664C124.437 84.5317 124.417 84.6927 124.396 84.7743ZM66.3066 61.7097H93.6934C94.087 61.7097 94.4591 61.535 94.7042 61.2358C94.9494 60.9367 95.0419 60.5455 94.9537 60.1721L92.931 51.5512C92.389 49.2428 90.9438 47.4803 88.7511 46.4532L86.4488 45.3748C87.5822 43.9993 88.2619 42.2557 88.2619 40.3604C88.2619 35.9297 84.5551 32.3242 80 32.3242C75.4448 32.3242 71.7381 35.9297 71.7381 40.3604C71.7381 42.2557 72.4178 43.9993 73.5512 45.3748L71.2489 46.4532C69.0562 47.4803 67.6099 49.2438 67.069 51.5512L65.0463 60.1721C64.9592 60.5455 65.0506 60.9367 65.2958 61.2358C65.5409 61.536 65.913 61.7097 66.3066 61.7097ZM80 34.8398C83.1303 34.8398 85.6767 37.3166 85.6767 40.3614C85.6767 43.4063 83.1303 45.8821 80 45.8821C76.8697 45.8821 74.3233 43.4052 74.3233 40.3604C74.3233 37.3156 76.8697 34.8398 80 34.8398ZM69.5896 52.1119C69.9552 50.5544 70.8908 49.4133 72.3704 48.7198L75.6449 47.1864C76.9105 47.9531 78.402 48.3976 80 48.3976C81.5969 48.3976 83.0895 47.9531 84.3551 47.1864L87.6296 48.7198C89.1092 49.4133 90.0448 50.5544 90.4104 52.1119L92.0729 59.1952H67.9271L69.5896 52.1119Z" fill="white"/>
<path d="M126.56 83.083L112.174 59.5016C111.747 58.8008 111.063 58.304 110.25 58.1021C109.438 57.9003 108.592 58.0174 107.873 58.4337L102.424 61.5789C101.266 62.2473 100.715 63.5307 100.941 64.7503L98.7378 65.699H86.3574C86.1305 65.699 85.9079 65.7576 85.7111 65.8674L81.6657 68.1392H62.3794L59.7975 66.6895C60.1137 66.0463 60.1879 65.3235 60.004 64.6227C59.7965 63.8319 59.2857 63.1667 58.5652 62.7515L53.1164 59.6052C52.396 59.1899 51.5518 59.0717 50.7388 59.2736C49.9259 59.4755 49.242 59.9723 48.8151 60.6731L33.4398 85.8757C33.0129 86.5755 32.8914 87.3976 33.0989 88.1884C33.3065 88.9802 33.8173 89.6444 34.5377 90.0596L39.9865 93.2048C40.4876 93.4946 41.0382 93.6316 41.5834 93.6316C42.6566 93.6316 43.7029 93.0971 44.2889 92.1369L44.2922 92.1327L50.2786 95.4945C49.7872 96.2842 49.5237 97.1952 49.5237 98.1491C49.5237 99.5225 50.0678 100.808 51.0561 101.768C52.0465 102.733 53.3681 103.263 54.7768 103.263C55.3155 103.263 55.8424 103.185 56.3425 103.035C56.4704 104.149 56.9726 105.229 57.849 106.082C58.8394 107.046 60.161 107.576 61.5697 107.576C62.1095 107.576 62.6354 107.499 63.1354 107.348C63.2634 108.462 63.7656 109.543 64.642 110.395C66.07 111.784 68.1218 112.207 69.9294 111.662C70.0574 112.776 70.5596 113.856 71.436 114.709C72.4274 115.672 73.748 116.204 75.1567 116.204C76.5653 116.204 77.8869 115.673 78.8773 114.709L80.9345 112.708L84.3723 114.639C85.2649 115.14 86.2402 115.378 87.2037 115.378C89.1694 115.378 91.0836 114.387 92.1342 112.616C92.7374 111.599 92.9708 110.471 92.8729 109.381C93.8708 109.672 94.9365 109.688 95.971 109.418C97.441 109.036 98.6669 108.122 99.4228 106.848C100.011 105.857 100.263 104.736 100.158 103.612C102.624 104.332 105.371 103.341 106.713 101.081C107.316 100.064 107.548 98.9357 107.451 97.8458C108.448 98.1366 109.514 98.1523 110.549 97.8824C112.02 97.4996 113.246 96.5865 114.002 95.3135C114.759 94.0395 114.958 92.5501 114.565 91.1202C114.463 90.751 114.325 90.3975 114.154 90.0638L115.641 89.2291L115.711 89.3431C116.297 90.3033 117.343 90.8378 118.417 90.8378C118.961 90.8378 119.512 90.6997 120.013 90.4111L125.462 87.2658C126.183 86.8506 126.694 86.1853 126.901 85.3946C127.109 84.6049 126.987 83.7838 126.56 83.083ZM41.3059 91.0428L35.8572 87.8976C35.6873 87.7993 35.626 87.6486 35.6045 87.5671C35.583 87.4855 35.5625 87.3244 35.6636 87.1591L51.0389 61.9565C51.14 61.7913 51.2948 61.7316 51.3787 61.7107C51.4131 61.7023 51.4615 61.694 51.5195 61.694C51.6002 61.694 51.6981 61.7107 51.7981 61.7682L57.2468 64.9135C57.4167 65.0118 57.478 65.1624 57.4995 65.244C57.521 65.3256 57.5415 65.4867 57.4404 65.6519L42.0651 90.8545C41.9092 91.1098 41.5683 91.1945 41.3059 91.0428ZM56.6694 99.9911C56.1672 100.48 55.494 100.749 54.7768 100.749C54.0584 100.749 53.3863 100.481 52.8842 99.9911C52.3852 99.5058 52.1099 98.851 52.1099 98.1502C52.1099 97.4483 52.3852 96.7946 52.8842 96.3093L60.2029 89.1904C61.2471 88.1758 62.9451 88.1758 63.9892 89.1904C64.4893 89.6757 64.7635 90.3305 64.7635 91.0313C64.7635 91.7332 64.4882 92.3869 63.9892 92.8722L56.6694 99.9911ZM63.4634 104.306C62.9612 104.794 62.288 105.064 61.5708 105.064C60.8524 105.064 60.1804 104.795 59.6782 104.306C58.6523 103.308 58.6523 101.621 59.6782 100.623L65.8173 94.6514L65.8205 94.6472C66.3227 94.1609 66.9937 93.8931 67.7099 93.8931C68.4282 93.8931 69.1003 94.1619 69.6025 94.6514C70.1025 95.1367 70.3768 95.7915 70.3768 96.4923C70.3768 97.1931 70.1015 97.8479 69.6025 98.3332L69.6004 98.3353L63.4634 104.306ZM70.2563 108.619C69.2122 109.635 67.5142 109.635 66.47 108.619C65.4442 107.621 65.4442 105.934 66.47 104.936L71.4284 100.113L71.4306 100.111C72.4747 99.0957 74.1727 99.0957 75.2169 100.111C76.2427 101.109 76.2427 102.796 75.2169 103.794L70.2563 108.619ZM77.0493 112.934C76.5471 113.423 75.8739 113.692 75.1567 113.692C74.4383 113.692 73.7662 113.423 73.264 112.934C72.2382 111.936 72.2382 110.25 73.264 109.252L77.0439 105.576L77.046 105.573C78.0902 104.559 79.7882 104.559 80.8323 105.573C81.3313 106.059 81.6066 106.714 81.6066 107.414C81.6066 108.116 81.3313 108.77 80.8323 109.255L77.0493 112.934ZM111.765 94.0583C111.354 94.7497 110.686 95.2455 109.882 95.4558C109.078 95.665 108.244 95.5604 107.533 95.1618L104.635 93.5343L89.1963 84.8643C88.578 84.5181 87.7876 84.7231 87.4306 85.3245C87.0736 85.9259 87.2854 86.6947 87.9038 87.042L103.341 95.712L103.347 95.7152C104.821 96.5478 105.326 98.3908 104.475 99.8269C103.621 101.265 101.723 101.76 100.243 100.929L85.5348 92.6693C84.9165 92.322 84.1261 92.5281 83.7691 93.1295C83.4121 93.731 83.6239 94.4998 84.2422 94.847L96.042 101.473L96.0506 101.478C96.7614 101.878 97.2711 102.528 97.4872 103.31C97.7023 104.091 97.5948 104.903 97.1851 105.594C96.7743 106.287 96.1054 106.784 95.3032 106.993C94.501 107.202 93.6665 107.096 92.9547 106.697L85.9649 102.771C85.3466 102.425 84.5562 102.63 84.1992 103.231C83.8422 103.833 84.054 104.602 84.6724 104.949L88.763 107.246C90.2416 108.076 90.7502 109.923 89.8964 111.361C89.0425 112.8 87.1446 113.294 85.6649 112.463L82.8217 110.866C84.7078 108.86 84.6541 105.734 82.6582 103.793C81.5388 102.705 80.0376 102.211 78.5698 102.309C78.6719 100.882 78.1622 99.421 77.0439 98.3322C75.9234 97.2423 74.419 96.7465 72.949 96.8479C72.9576 96.7298 72.9608 96.6105 72.9608 96.4902C72.9608 95.1169 72.4167 93.8314 71.4284 92.8712C70.438 91.9078 69.1165 91.3765 67.7078 91.3765C67.583 91.3765 67.4583 91.3807 67.3346 91.389C67.3432 91.2698 67.3475 91.1506 67.3475 91.0292C67.3475 89.6559 66.8034 88.3704 65.8152 87.4102C63.7634 85.4145 60.4245 85.4145 58.3727 87.4102L52.0336 93.5762L45.6095 89.9686L58.4888 68.8568L61.3858 70.4833C61.5826 70.5941 61.8052 70.6517 62.0321 70.6517H77.1858L74.419 72.206C72.9296 73.0427 71.8629 74.3973 71.4155 76.0227C70.9682 77.6471 71.1951 79.3405 72.0543 80.7881C73.8351 83.788 77.7934 84.8193 80.8775 83.0882L89.6512 78.1607L110.629 89.9414C111.341 90.341 111.852 90.9916 112.067 91.7719C112.284 92.5542 112.175 93.3659 111.765 94.0583ZM112.466 88.111C112.293 87.9865 112.112 87.8714 111.924 87.7648L90.2996 75.6211C89.8996 75.3962 89.4071 75.3962 89.0071 75.6211L79.5871 80.9116C77.7375 81.9502 75.3631 81.331 74.2953 79.5319C73.2275 77.7329 73.863 75.4234 75.7137 74.3847L86.7037 68.2125H99.0099C99.1906 68.2125 99.368 68.1758 99.5336 68.1047L102.084 67.0065L114.323 87.0681L112.466 88.111ZM124.396 84.7743C124.374 84.8559 124.313 85.0065 124.143 85.1049L118.694 88.2501C118.431 88.4028 118.091 88.317 117.935 88.0618L103.549 64.4794C103.393 64.2242 103.48 63.8926 103.742 63.7409L109.191 60.5957C109.455 60.444 109.795 60.5288 109.95 60.784L124.336 84.3664C124.437 84.5317 124.417 84.6927 124.396 84.7743ZM66.3066 61.7097H93.6934C94.087 61.7097 94.4591 61.535 94.7042 61.2358C94.9494 60.9367 95.0419 60.5455 94.9537 60.1721L92.931 51.5512C92.389 49.2428 90.9438 47.4803 88.7511 46.4532L86.4488 45.3748C87.5822 43.9993 88.2619 42.2557 88.2619 40.3604C88.2619 35.9297 84.5551 32.3242 80 32.3242C75.4448 32.3242 71.7381 35.9297 71.7381 40.3604C71.7381 42.2557 72.4178 43.9993 73.5512 45.3748L71.2489 46.4532C69.0562 47.4803 67.6099 49.2438 67.069 51.5512L65.0463 60.1721C64.9592 60.5455 65.0506 60.9367 65.2958 61.2358C65.5409 61.536 65.913 61.7097 66.3066 61.7097ZM80 34.8398C83.1303 34.8398 85.6767 37.3166 85.6767 40.3614C85.6767 43.4063 83.1303 45.8821 80 45.8821C76.8697 45.8821 74.3233 43.4052 74.3233 40.3604C74.3233 37.3156 76.8697 34.8398 80 34.8398ZM69.5896 52.1119C69.9552 50.5544 70.8908 49.4133 72.3704 48.7198L75.6449 47.1864C76.9105 47.9531 78.402 48.3976 80 48.3976C81.5969 48.3976 83.0895 47.9531 84.3551 47.1864L87.6296 48.7198C89.1092 49.4133 90.0448 50.5544 90.4104 52.1119L92.0729 59.1952H67.9271L69.5896 52.1119Z" stroke="white" mask="url(#path-3-outside-1_1219_514)"/>
</svg>
