<svg width="160" height="160" viewBox="0 0 160 160" fill="none" xmlns="http://www.w3.org/2000/svg">
<circle cx="79.7802" cy="79.9335" r="79.7802" fill="#282F78"/>
<circle cx="80" cy="80.1318" r="69.5" stroke="white" stroke-width="3"/>
<path d="M102.53 110.922L110.514 103.307H102.53V110.922ZM107.053 94.1817C108.105 94.1817 108.957 94.9935 108.957 95.9969C108.957 97.0002 108.105 97.8121 107.053 97.8121H78.6503C77.5983 97.8121 76.7471 97.0002 76.7471 95.9969C76.7471 94.9935 77.5983 94.1817 78.6503 94.1817H107.053ZM80.937 87.9774C81.9889 87.9774 82.8401 88.7893 82.8401 89.7926C82.8401 90.7959 81.9889 91.6078 80.937 91.6078H79.4501C78.3981 91.6078 77.5469 90.7959 77.5469 89.7926C77.5469 88.7892 78.3981 87.9774 79.4501 87.9774H80.937ZM107.053 87.9809C108.105 87.9809 108.957 88.7928 108.957 89.7961C108.957 90.7995 108.105 91.6113 107.053 91.6113H87.129C86.077 91.6113 85.2258 90.7995 85.2258 89.7961C85.2258 88.7928 86.077 87.9809 87.129 87.9809H107.053ZM107.053 81.7767C108.105 81.7767 108.957 82.5885 108.957 83.5919C108.957 84.5952 108.105 85.4071 107.053 85.4071H77.8367C76.7847 85.4071 75.9335 84.5952 75.9335 83.5919C75.9335 82.5885 76.7847 81.7767 77.8367 81.7767H107.053ZM88.4897 75.5724C89.5417 75.5724 90.3929 76.3843 90.3929 77.3876C90.3929 78.3909 89.5417 79.2028 88.4897 79.2028H81.7989C80.7469 79.2028 79.8957 78.3909 79.8957 77.3876C79.8957 76.3842 80.7469 75.5724 81.7989 75.5724H88.4897ZM107.053 75.5759C108.105 75.5759 108.957 76.3878 108.957 77.3911C108.957 78.3945 108.105 79.2063 107.053 79.2063H95.8018C94.7498 79.2063 93.8986 78.3945 93.8986 77.3911C93.8986 76.3878 94.7498 75.5759 95.8018 75.5759H107.053ZM107.053 67.9003C108.105 67.9003 108.957 68.7122 108.957 69.7155C108.957 70.7189 108.105 71.5307 107.053 71.5307H66.1644C65.1124 71.5307 64.2612 70.7189 64.2612 69.7155C64.2612 68.7122 65.1125 67.9003 66.1644 67.9003H67.1123V58.9555C67.1123 57.9521 67.9635 57.1403 69.0155 57.1403H75.9108V52.5136C75.9108 51.5102 76.7621 50.6984 77.814 50.6984H86.6125C87.6645 50.6984 88.5157 51.5103 88.5157 52.5136V54.4246H93.5079V51.3897C93.5079 50.3864 94.3591 49.5745 95.4111 49.5745H104.21C105.262 49.5745 106.113 50.3864 106.113 51.3897V67.8972H107.061L107.053 67.9003ZM75.9078 60.7707H70.9156V67.9003H75.9078V60.7707ZM84.7063 54.3288H79.7142V67.8965H84.7063V54.3288ZM93.5048 58.055H88.5127V67.897H93.5048V58.055ZM102.303 53.2049H97.3112V67.8972H102.303V53.2049ZM62.5334 117.818C63.5519 117.584 64.5778 118.18 64.8232 119.151C65.0685 120.122 64.444 121.101 63.4255 121.335C62.5705 121.533 61.6933 121.689 60.8123 121.789C59.9276 121.888 59.0243 121.941 58.1137 121.941C57.203 121.941 56.2997 121.888 55.415 121.789L55.3593 121.782C54.4969 121.682 53.6382 121.53 52.8019 121.335C51.7834 121.101 51.1589 120.122 51.4042 119.151C51.6495 118.18 52.6754 117.584 53.6939 117.818C54.3556 117.97 55.0618 118.095 55.809 118.18L55.861 118.187C56.5822 118.268 57.3405 118.311 58.1174 118.311C58.8942 118.311 59.6489 118.268 60.37 118.187C61.1394 118.102 61.8643 117.974 62.537 117.818H62.5334ZM62.5334 108.724C63.5519 108.49 64.5778 109.085 64.8232 110.057C65.0685 111.028 64.444 112.007 63.4255 112.241C62.5705 112.439 61.6933 112.595 60.8123 112.695C59.9276 112.794 59.0243 112.847 58.1137 112.847C57.203 112.847 56.2997 112.794 55.415 112.695L55.3593 112.687C54.4969 112.588 53.6382 112.436 52.8019 112.241C51.7834 112.007 51.1589 111.028 51.4042 110.057C51.6495 109.085 52.6754 108.49 53.6939 108.724C54.3556 108.876 55.0618 109 55.809 109.085L55.861 109.093C56.5822 109.174 57.3405 109.217 58.1174 109.217C58.8942 109.217 59.6489 109.174 60.37 109.093C61.1394 109.007 61.8643 108.88 62.537 108.724H62.5334ZM62.5334 99.3574C63.5519 99.1234 64.5778 99.719 64.8232 100.69C65.0685 101.662 64.444 102.64 63.4255 102.874C62.5705 103.073 61.6933 103.229 60.8123 103.328C59.9276 103.427 59.0243 103.481 58.1137 103.481C57.203 103.481 56.2997 103.427 55.415 103.328L55.3593 103.321C54.4969 103.222 53.6382 103.069 52.8019 102.874C51.7834 102.64 51.1589 101.662 51.4042 100.69C51.6495 99.719 52.6754 99.1234 53.6939 99.3574C54.3556 99.5098 55.0618 99.6339 55.809 99.719L55.861 99.7261C56.5822 99.8076 57.3405 99.8502 58.1174 99.8502C58.8942 99.8502 59.6489 99.8076 60.37 99.7261C61.1394 99.641 61.8643 99.5134 62.537 99.3574H62.5334ZM74.2123 113.489H98.7235V101.491C98.7235 100.488 99.5747 99.6759 100.627 99.6759H113.206V48.5916C113.206 47.5918 112.778 46.6806 112.094 46.0283C111.403 45.3689 110.451 44.9612 109.399 44.9612H63.82C62.7717 44.9612 61.8164 45.3689 61.1325 46.0212C60.4411 46.6807 60.0136 47.5883 60.0136 48.5916V77.1847C63.5635 77.4683 66.7677 78.5248 69.2062 80.0847C72.284 82.0559 74.1909 84.839 74.2095 87.9695V113.485L74.2123 113.489ZM70.406 115.304V113.287C70.0305 113.588 69.6291 113.872 69.2053 114.145C66.3357 115.981 62.4067 117.119 58.1098 117.119C53.8127 117.119 49.8837 115.981 47.0142 114.145C46.5904 113.875 46.189 113.588 45.8136 113.287V115.304C45.8136 117.176 47.0811 118.924 49.1256 120.232C51.393 121.686 54.5713 122.582 58.1099 122.582C61.6486 122.582 64.8269 121.682 67.0943 120.232C68.8339 119.119 70.406 117.41 70.406 115.304ZM70.406 106.21V104.192C70.0305 104.494 69.6291 104.777 69.2053 105.05C66.3357 106.887 62.4067 108.025 58.1098 108.025C53.8127 108.025 49.8837 106.887 47.0142 105.05C46.5904 104.781 46.189 104.494 45.8136 104.192V106.21C45.8136 108.082 47.0811 109.83 49.1256 111.138C51.393 112.591 54.5713 113.488 58.1099 113.488C61.6486 113.488 64.8269 112.588 67.0943 111.138C69.1387 109.83 70.406 108.082 70.406 106.21ZM70.406 97.1156V95.0983C70.0305 95.3996 69.6291 95.6832 69.2053 95.9562C66.3357 97.7927 62.4104 98.9307 58.1098 98.9307C53.809 98.9307 49.8837 97.7927 47.0142 95.9562C46.5904 95.6868 46.189 95.3996 45.8136 95.0983V97.1156C45.8136 98.9875 47.0811 100.735 49.1256 102.044C51.393 103.497 54.5713 104.394 58.1099 104.394C61.6486 104.394 64.8269 103.494 67.0943 102.044C69.1387 100.735 70.406 98.9875 70.406 97.1156ZM42.0066 115.307V87.976C42.0252 84.842 43.9358 82.0625 47.0099 80.0913C49.4484 78.5277 52.6526 77.4713 56.2025 77.1912V48.5981C56.2025 46.6092 57.0574 44.794 58.4365 43.4787L58.4477 43.4681C59.8304 42.1563 61.7299 41.3408 63.8115 41.3408H109.391C111.476 41.3408 113.379 42.1562 114.758 43.4716L114.77 43.4822C116.145 44.8011 117 46.6127 117 48.5981V101.498C116.985 102.065 116.788 102.451 116.409 102.813L101.994 116.561C101.593 116.944 101.162 117.111 100.615 117.125H73.9858C73.4022 119.532 71.6811 121.652 69.1982 123.244C66.3285 125.081 62.3995 126.219 58.1026 126.219C53.8057 126.219 49.8765 125.081 47.007 123.244C43.9143 121.262 42 118.462 42 115.31L42.0066 115.307ZM67.0935 83.0977C64.826 81.6441 61.6515 80.7472 58.1091 80.7472C54.5666 80.7472 51.3922 81.6477 49.1247 83.0977C47.0803 84.4059 45.8127 86.1538 45.8127 88.0257C45.8127 89.8976 47.0802 91.6455 49.1247 92.9537C51.3922 94.4073 54.5667 95.3042 58.1091 95.3042C61.6516 95.3042 64.826 94.4037 67.0935 92.9537C69.1379 91.6455 70.4055 89.8976 70.4055 88.0257C70.4055 86.1538 69.138 84.4094 67.0935 83.0977Z" fill="white"/>
</svg>
