<svg width="160" height="160" viewBox="0 0 160 160" fill="none" xmlns="http://www.w3.org/2000/svg">
<circle cx="79.7802" cy="79.9121" r="79.7802" fill="#282F78"/>
<circle cx="80" cy="80.1318" r="69.5" stroke="white" stroke-width="3"/>
<mask id="path-3-outside-1_1219_515" maskUnits="userSpaceOnUse" x="34" y="38.3154" width="90" height="72" fill="black">
<rect fill="white" x="34" y="38.3154" width="90" height="72"/>
<path d="M118.104 39.3154H47.3811C44.6875 39.3154 42.4948 41.6321 42.4948 44.478V77.5604C37.9866 80.616 35 85.9583 35 92.0296C35 101.506 42.2963 109.215 51.2655 109.215C53.2691 109.215 55.1783 108.835 56.9551 108.126H118.114C120.807 108.126 123 105.81 123 102.964V44.478C122.991 41.6321 120.798 39.3154 118.104 39.3154ZM37.1927 92.0296C37.1927 84.2208 42.9201 77.8001 50.1692 77.2009V92.0296C50.1692 92.6687 50.6606 93.1879 51.2655 93.1879H65.2911C64.7334 100.847 58.6469 106.898 51.256 106.898C43.5061 106.898 37.1927 100.228 37.1927 92.0296ZM120.798 102.964C120.798 104.532 119.588 105.81 118.104 105.81H60.9624C64.9414 102.674 67.531 97.6615 67.531 92.0296C67.531 91.3905 67.0395 90.8713 66.4346 90.8713H52.3618V76.0027C52.3618 75.3636 51.8704 74.8443 51.2655 74.8443C48.931 74.8443 46.7006 75.3736 44.6875 76.3122V44.478C44.6875 42.9103 45.8972 41.6321 47.3811 41.6321H118.114C119.598 41.6321 120.807 42.9103 120.807 44.478V102.964H120.798ZM85.6962 79.8671H76.6514C76.0465 79.8671 75.555 80.3864 75.555 81.0254V100.747C75.555 101.386 76.0465 101.905 76.6514 101.905H85.6962C86.301 101.905 86.7925 101.386 86.7925 100.747V81.0254C86.7925 80.3864 86.301 79.8671 85.6962 79.8671ZM84.5998 99.5887H77.7477V82.1838H84.5998V99.5887ZM100.657 69.1126H91.6126C91.0077 69.1126 90.5163 69.6318 90.5163 70.2709V100.747C90.5163 101.386 91.0077 101.905 91.6126 101.905H100.657C101.262 101.905 101.754 101.386 101.754 100.747V70.2709C101.754 69.6318 101.262 69.1126 100.657 69.1126ZM99.5611 99.5887H92.7089V71.4292H99.5611V99.5887ZM115.619 73.7459H106.574C105.969 73.7459 105.478 74.2652 105.478 74.9042V100.747C105.478 101.386 105.969 101.905 106.574 101.905H115.619C116.223 101.905 116.715 101.386 116.715 100.747V74.9042C116.715 74.2652 116.223 73.7459 115.619 73.7459ZM114.522 99.5887H107.67V76.0626H114.522V99.5887ZM50.4432 54.6933H56.9551C57.56 54.6933 58.0514 54.1741 58.0514 53.535V46.6549C58.0514 46.0158 57.56 45.4965 56.9551 45.4965H50.4432C49.8384 45.4965 49.3469 46.0158 49.3469 46.6549V53.535C49.3469 54.184 49.8384 54.6933 50.4432 54.6933ZM51.5396 47.8232H55.8588V52.3866H51.5396V47.8232ZM60.5844 47.7433C60.5844 47.1042 61.0758 46.585 61.6807 46.585H77.9084C78.5133 46.585 79.0047 47.1042 79.0047 47.7433C79.0047 48.3824 78.5133 48.9016 77.9084 48.9016H61.6807C61.0758 48.9016 60.5844 48.3824 60.5844 47.7433ZM60.5844 52.4565C60.5844 51.8174 61.0758 51.2982 61.6807 51.2982H74.5154C75.1203 51.2982 75.6117 51.8174 75.6117 52.4565C75.6117 53.0956 75.1203 53.6149 74.5154 53.6149H61.6807C61.0758 53.6149 60.5844 53.0956 60.5844 52.4565ZM58.0514 64.609V57.7289C58.0514 57.0899 57.56 56.5706 56.9551 56.5706H50.4432C49.8384 56.5706 49.3469 57.0899 49.3469 57.7289V64.609C49.3469 65.2481 49.8384 65.7674 50.4432 65.7674H56.9551C57.56 65.7674 58.0514 65.2481 58.0514 64.609ZM55.8588 63.4507H51.5396V58.8873H55.8588V63.4507ZM60.5844 58.8174C60.5844 58.1783 61.0758 57.659 61.6807 57.659H77.9084C78.5133 57.659 79.0047 58.1783 79.0047 58.8174C79.0047 59.4565 78.5133 59.9757 77.9084 59.9757H61.6807C61.0758 59.9757 60.5844 59.4565 60.5844 58.8174ZM75.6117 63.5306C75.6117 64.1697 75.1203 64.6889 74.5154 64.6889H61.6807C61.0758 64.6889 60.5844 64.1697 60.5844 63.5306C60.5844 62.8915 61.0758 62.3723 61.6807 62.3723H74.5154C75.1203 62.3723 75.6117 62.8915 75.6117 63.5306ZM55.6414 70.211C55.0365 70.211 54.5451 70.7302 54.5451 71.3693V87.3963C54.5451 88.0353 55.0365 88.5546 55.6414 88.5546H70.8105C71.4154 88.5546 71.9069 88.0353 71.9069 87.3963C71.9069 77.9199 64.6106 70.211 55.6414 70.211ZM56.7377 86.2379V72.5776C63.6276 73.1368 69.1377 78.9684 69.6764 86.2479H56.7377V86.2379Z"/>
</mask>
<path d="M118.104 39.3154H47.3811C44.6875 39.3154 42.4948 41.6321 42.4948 44.478V77.5604C37.9866 80.616 35 85.9583 35 92.0296C35 101.506 42.2963 109.215 51.2655 109.215C53.2691 109.215 55.1783 108.835 56.9551 108.126H118.114C120.807 108.126 123 105.81 123 102.964V44.478C122.991 41.6321 120.798 39.3154 118.104 39.3154ZM37.1927 92.0296C37.1927 84.2208 42.9201 77.8001 50.1692 77.2009V92.0296C50.1692 92.6687 50.6606 93.1879 51.2655 93.1879H65.2911C64.7334 100.847 58.6469 106.898 51.256 106.898C43.5061 106.898 37.1927 100.228 37.1927 92.0296ZM120.798 102.964C120.798 104.532 119.588 105.81 118.104 105.81H60.9624C64.9414 102.674 67.531 97.6615 67.531 92.0296C67.531 91.3905 67.0395 90.8713 66.4346 90.8713H52.3618V76.0027C52.3618 75.3636 51.8704 74.8443 51.2655 74.8443C48.931 74.8443 46.7006 75.3736 44.6875 76.3122V44.478C44.6875 42.9103 45.8972 41.6321 47.3811 41.6321H118.114C119.598 41.6321 120.807 42.9103 120.807 44.478V102.964H120.798ZM85.6962 79.8671H76.6514C76.0465 79.8671 75.555 80.3864 75.555 81.0254V100.747C75.555 101.386 76.0465 101.905 76.6514 101.905H85.6962C86.301 101.905 86.7925 101.386 86.7925 100.747V81.0254C86.7925 80.3864 86.301 79.8671 85.6962 79.8671ZM84.5998 99.5887H77.7477V82.1838H84.5998V99.5887ZM100.657 69.1126H91.6126C91.0077 69.1126 90.5163 69.6318 90.5163 70.2709V100.747C90.5163 101.386 91.0077 101.905 91.6126 101.905H100.657C101.262 101.905 101.754 101.386 101.754 100.747V70.2709C101.754 69.6318 101.262 69.1126 100.657 69.1126ZM99.5611 99.5887H92.7089V71.4292H99.5611V99.5887ZM115.619 73.7459H106.574C105.969 73.7459 105.478 74.2652 105.478 74.9042V100.747C105.478 101.386 105.969 101.905 106.574 101.905H115.619C116.223 101.905 116.715 101.386 116.715 100.747V74.9042C116.715 74.2652 116.223 73.7459 115.619 73.7459ZM114.522 99.5887H107.67V76.0626H114.522V99.5887ZM50.4432 54.6933H56.9551C57.56 54.6933 58.0514 54.1741 58.0514 53.535V46.6549C58.0514 46.0158 57.56 45.4965 56.9551 45.4965H50.4432C49.8384 45.4965 49.3469 46.0158 49.3469 46.6549V53.535C49.3469 54.184 49.8384 54.6933 50.4432 54.6933ZM51.5396 47.8232H55.8588V52.3866H51.5396V47.8232ZM60.5844 47.7433C60.5844 47.1042 61.0758 46.585 61.6807 46.585H77.9084C78.5133 46.585 79.0047 47.1042 79.0047 47.7433C79.0047 48.3824 78.5133 48.9016 77.9084 48.9016H61.6807C61.0758 48.9016 60.5844 48.3824 60.5844 47.7433ZM60.5844 52.4565C60.5844 51.8174 61.0758 51.2982 61.6807 51.2982H74.5154C75.1203 51.2982 75.6117 51.8174 75.6117 52.4565C75.6117 53.0956 75.1203 53.6149 74.5154 53.6149H61.6807C61.0758 53.6149 60.5844 53.0956 60.5844 52.4565ZM58.0514 64.609V57.7289C58.0514 57.0899 57.56 56.5706 56.9551 56.5706H50.4432C49.8384 56.5706 49.3469 57.0899 49.3469 57.7289V64.609C49.3469 65.2481 49.8384 65.7674 50.4432 65.7674H56.9551C57.56 65.7674 58.0514 65.2481 58.0514 64.609ZM55.8588 63.4507H51.5396V58.8873H55.8588V63.4507ZM60.5844 58.8174C60.5844 58.1783 61.0758 57.659 61.6807 57.659H77.9084C78.5133 57.659 79.0047 58.1783 79.0047 58.8174C79.0047 59.4565 78.5133 59.9757 77.9084 59.9757H61.6807C61.0758 59.9757 60.5844 59.4565 60.5844 58.8174ZM75.6117 63.5306C75.6117 64.1697 75.1203 64.6889 74.5154 64.6889H61.6807C61.0758 64.6889 60.5844 64.1697 60.5844 63.5306C60.5844 62.8915 61.0758 62.3723 61.6807 62.3723H74.5154C75.1203 62.3723 75.6117 62.8915 75.6117 63.5306ZM55.6414 70.211C55.0365 70.211 54.5451 70.7302 54.5451 71.3693V87.3963C54.5451 88.0353 55.0365 88.5546 55.6414 88.5546H70.8105C71.4154 88.5546 71.9069 88.0353 71.9069 87.3963C71.9069 77.9199 64.6106 70.211 55.6414 70.211ZM56.7377 86.2379V72.5776C63.6276 73.1368 69.1377 78.9684 69.6764 86.2479H56.7377V86.2379Z" fill="white"/>
<path d="M118.104 39.3154H47.3811C44.6875 39.3154 42.4948 41.6321 42.4948 44.478V77.5604C37.9866 80.616 35 85.9583 35 92.0296C35 101.506 42.2963 109.215 51.2655 109.215C53.2691 109.215 55.1783 108.835 56.9551 108.126H118.114C120.807 108.126 123 105.81 123 102.964V44.478C122.991 41.6321 120.798 39.3154 118.104 39.3154ZM37.1927 92.0296C37.1927 84.2208 42.9201 77.8001 50.1692 77.2009V92.0296C50.1692 92.6687 50.6606 93.1879 51.2655 93.1879H65.2911C64.7334 100.847 58.6469 106.898 51.256 106.898C43.5061 106.898 37.1927 100.228 37.1927 92.0296ZM120.798 102.964C120.798 104.532 119.588 105.81 118.104 105.81H60.9624C64.9414 102.674 67.531 97.6615 67.531 92.0296C67.531 91.3905 67.0395 90.8713 66.4346 90.8713H52.3618V76.0027C52.3618 75.3636 51.8704 74.8443 51.2655 74.8443C48.931 74.8443 46.7006 75.3736 44.6875 76.3122V44.478C44.6875 42.9103 45.8972 41.6321 47.3811 41.6321H118.114C119.598 41.6321 120.807 42.9103 120.807 44.478V102.964H120.798ZM85.6962 79.8671H76.6514C76.0465 79.8671 75.555 80.3864 75.555 81.0254V100.747C75.555 101.386 76.0465 101.905 76.6514 101.905H85.6962C86.301 101.905 86.7925 101.386 86.7925 100.747V81.0254C86.7925 80.3864 86.301 79.8671 85.6962 79.8671ZM84.5998 99.5887H77.7477V82.1838H84.5998V99.5887ZM100.657 69.1126H91.6126C91.0077 69.1126 90.5163 69.6318 90.5163 70.2709V100.747C90.5163 101.386 91.0077 101.905 91.6126 101.905H100.657C101.262 101.905 101.754 101.386 101.754 100.747V70.2709C101.754 69.6318 101.262 69.1126 100.657 69.1126ZM99.5611 99.5887H92.7089V71.4292H99.5611V99.5887ZM115.619 73.7459H106.574C105.969 73.7459 105.478 74.2652 105.478 74.9042V100.747C105.478 101.386 105.969 101.905 106.574 101.905H115.619C116.223 101.905 116.715 101.386 116.715 100.747V74.9042C116.715 74.2652 116.223 73.7459 115.619 73.7459ZM114.522 99.5887H107.67V76.0626H114.522V99.5887ZM50.4432 54.6933H56.9551C57.56 54.6933 58.0514 54.1741 58.0514 53.535V46.6549C58.0514 46.0158 57.56 45.4965 56.9551 45.4965H50.4432C49.8384 45.4965 49.3469 46.0158 49.3469 46.6549V53.535C49.3469 54.184 49.8384 54.6933 50.4432 54.6933ZM51.5396 47.8232H55.8588V52.3866H51.5396V47.8232ZM60.5844 47.7433C60.5844 47.1042 61.0758 46.585 61.6807 46.585H77.9084C78.5133 46.585 79.0047 47.1042 79.0047 47.7433C79.0047 48.3824 78.5133 48.9016 77.9084 48.9016H61.6807C61.0758 48.9016 60.5844 48.3824 60.5844 47.7433ZM60.5844 52.4565C60.5844 51.8174 61.0758 51.2982 61.6807 51.2982H74.5154C75.1203 51.2982 75.6117 51.8174 75.6117 52.4565C75.6117 53.0956 75.1203 53.6149 74.5154 53.6149H61.6807C61.0758 53.6149 60.5844 53.0956 60.5844 52.4565ZM58.0514 64.609V57.7289C58.0514 57.0899 57.56 56.5706 56.9551 56.5706H50.4432C49.8384 56.5706 49.3469 57.0899 49.3469 57.7289V64.609C49.3469 65.2481 49.8384 65.7674 50.4432 65.7674H56.9551C57.56 65.7674 58.0514 65.2481 58.0514 64.609ZM55.8588 63.4507H51.5396V58.8873H55.8588V63.4507ZM60.5844 58.8174C60.5844 58.1783 61.0758 57.659 61.6807 57.659H77.9084C78.5133 57.659 79.0047 58.1783 79.0047 58.8174C79.0047 59.4565 78.5133 59.9757 77.9084 59.9757H61.6807C61.0758 59.9757 60.5844 59.4565 60.5844 58.8174ZM75.6117 63.5306C75.6117 64.1697 75.1203 64.6889 74.5154 64.6889H61.6807C61.0758 64.6889 60.5844 64.1697 60.5844 63.5306C60.5844 62.8915 61.0758 62.3723 61.6807 62.3723H74.5154C75.1203 62.3723 75.6117 62.8915 75.6117 63.5306ZM55.6414 70.211C55.0365 70.211 54.5451 70.7302 54.5451 71.3693V87.3963C54.5451 88.0353 55.0365 88.5546 55.6414 88.5546H70.8105C71.4154 88.5546 71.9069 88.0353 71.9069 87.3963C71.9069 77.9199 64.6106 70.211 55.6414 70.211ZM56.7377 86.2379V72.5776C63.6276 73.1368 69.1377 78.9684 69.6764 86.2479H56.7377V86.2379Z" stroke="white" stroke-width="1.2" mask="url(#path-3-outside-1_1219_515)"/>
</svg>
