<svg width="654" height="418" viewBox="0 0 654 418" fill="none" xmlns="http://www.w3.org/2000/svg">
<path opacity="0.5" d="M618.319 246.512C613.213 219.863 633.864 196.292 644.661 171.512C663.973 127.107 649.444 71.3302 614.839 38.2304C580.234 5.13052 529.055 -6.17411 482.707 3.14466C410.896 17.5576 347.73 76.671 274.938 68.9188C243.011 65.5144 213.954 49.35 184.263 36.7194C154.572 24.0888 121.079 14.8132 90.7602 25.6121C60.8243 36.2568 39.3424 65.7303 32.6282 97.6583C25.914 129.586 32.6282 163.346 46.0805 192.9C53.1714 208.454 61.8167 227.973 51.2044 241.227C43.5515 250.78 29.6806 251.329 19.1998 257.373C2.38735 267.055 -3.38818 290.491 1.89111 309.535C7.1704 328.58 21.0891 343.832 36.0481 356.283C85.2477 397.265 151.296 415.946 213.882 406.59L210.384 399.849C275.679 394.823 340.722 408.903 405.927 415.237C471.132 421.57 540.451 419.177 596.783 384.752C611.909 375.501 626.079 363.783 635.352 348.408C644.625 333.033 648.583 313.52 642.927 296.35C637.08 278.607 621.846 264.897 618.319 246.512Z" fill="url(#paint0_linear_694_2101)"/>
<path opacity="0.53" d="M207.855 154.046C207.855 154.046 146.931 98.8431 129.336 130.506C123.46 142.619 206.981 159.578 206.981 159.578L207.855 154.046Z" fill="#5A5A66"/>
<path d="M140.521 128.755C140.521 128.755 186.599 141.046 201.445 150.106" stroke="white" stroke-width="0.82" stroke-miterlimit="10"/>
<path d="M173.922 138.791C173.922 138.791 169.641 135.795 166.114 127.623" stroke="white" stroke-width="0.82" stroke-miterlimit="10"/>
<g style="mix-blend-mode:multiply">
<path d="M195.866 157.171L149.925 120.929C174.407 123.788 207.819 154.038 207.819 154.038L207.017 158.932H203.746C201.879 158.528 199.153 157.93 195.866 157.171Z" fill="#7590AA"/>
</g>
<path d="M159.379 134.172C153.579 134.977 147.987 136.896 142.905 139.825" stroke="white" stroke-width="0.82" stroke-miterlimit="10"/>
<g style="mix-blend-mode:multiply">
<path d="M183.506 154.258C196.645 157.488 206.977 159.612 206.977 159.612L207.851 154.048C200.178 147.29 192.043 141.084 183.506 135.475V154.258Z" fill="#5A5A66"/>
</g>
<path d="M216.111 155.359C216.111 155.359 163.412 45.8815 122.874 77.1007C108.493 89.5609 211.975 162.182 211.975 162.182L216.111 155.359Z" fill="#CCCCCC"/>
<path d="M136.164 79.3716C136.164 79.3716 189.424 121.444 210.138 153.438" stroke="white" stroke-width="0.82" stroke-miterlimit="10"/>
<path d="M132.767 92.7948C132.767 92.7948 146.282 91.6481 152.455 92.9402" stroke="white" stroke-width="0.82" stroke-miterlimit="10"/>
<path d="M167.389 89.6724C167.389 89.6724 168.743 102.229 171.862 110.418" stroke="white" stroke-width="0.82" stroke-miterlimit="10"/>
<path d="M172.902 126.145C172.902 126.145 180.918 124.094 187.275 125.661" stroke="white" stroke-width="0.82" stroke-miterlimit="10"/>
<g style="mix-blend-mode:multiply">
<path d="M183.506 141.239C199.33 153.311 211.972 162.186 211.972 162.186L213.815 159.142V150.824C209.158 141.828 197.783 121.05 183.506 103.018V141.239Z" fill="#5A5A66"/>
</g>
<path d="M204.27 296.364C204.27 296.364 105.581 297.172 112.331 268.335C119.081 239.498 165.238 265.193 165.238 265.193C165.238 265.193 128.869 242.72 125.55 214.125C122.231 185.53 193.087 255.883 193.087 255.883C193.087 255.883 171.611 232.585 170.882 202.585C170.152 172.586 218.017 215.716 204.27 296.364Z" fill="url(#paint1_linear_694_2101)"/>
<path opacity="0.39" d="M198.379 281.098C198.379 281.098 121.992 197.64 141.384 224.022C160.775 250.404 198.379 281.098 198.379 281.098Z" fill="white"/>
<path opacity="0.39" d="M126.048 269.24L194.891 282.055C194.891 282.055 134.818 279.31 126.048 269.24Z" fill="white"/>
<path opacity="0.39" d="M181.188 208.731L202.832 262.029C202.832 262.029 193.213 216.984 181.188 208.731Z" fill="#A87D1D"/>
<g style="mix-blend-mode:multiply" opacity="0.39">
<path d="M183.506 196.659V242.689C186.282 247.381 189.478 251.808 193.053 255.916C193.053 255.916 189.278 252.161 183.506 246.742V295.816C195.57 296.47 204.268 296.398 204.268 296.398C213.142 244.32 196.34 207.884 183.506 196.659Z" fill="#A87D1D"/>
</g>
<path d="M516.366 249.813C520.657 247.38 525.105 245.24 529.681 243.409C579.446 222.583 575.951 194.408 588 170.093C561.049 177.006 546.924 216.203 523.413 226.96C499.901 237.716 477.72 256.427 477.72 256.427C477.72 256.427 475.756 262.152 474.321 267.974C473.519 268.62 472.646 269.282 471.812 269.969L473.536 271.487C472.221 278.149 472.373 283.333 478.137 277.697L479.299 276.574L481.937 278.908C481.937 278.908 514.547 284.367 532.944 269.412C551.341 254.456 577.611 252.607 577.611 252.607C577.611 252.607 548.6 243.902 516.366 249.813Z" fill="#CCCCCC"/>
<path d="M487.693 260.185C487.693 260.185 510.139 242.419 534.043 233.278C557.948 224.136 573.716 187.927 573.716 187.927C573.716 187.927 553.01 223.579 533.266 230.274C513.522 236.968 487.741 255.404 487.741 255.404L487.693 260.185Z" fill="#36363D"/>
<path d="M577.573 252.572C577.573 252.572 513.78 250.036 475.71 278.518" stroke="#36363D" stroke-width="0.98" stroke-miterlimit="10"/>
<g style="mix-blend-mode:multiply" opacity="0.53">
<path d="M482.76 279.002C491.254 280.115 499.855 280.115 508.348 279.002V234.862C499.478 240.16 490.933 245.993 482.76 252.329V279.002Z" fill="#5A5A66"/>
</g>
<path d="M491.25 153.748C491.25 153.748 498.825 183.788 527.964 171.99C513.11 165.708 512.621 156.704 512.621 156.704C512.621 156.704 527.772 176.819 546.217 162.445C530.698 156.364 528.293 149.153 528.293 149.153C528.293 149.153 544.646 151.261 549.68 155.403C554.714 159.546 557.905 144.163 557.905 144.163C557.905 144.163 531.932 143.299 529.848 139.535C527.764 135.772 560.254 137.113 560.254 137.113L561.304 129.425C561.304 129.425 537.568 133.463 545.391 128.618C553.215 123.772 558.658 124.871 558.658 124.871L555.973 112.588L538.048 103.705C538.048 103.705 527.699 123.748 523.563 124.426C519.427 125.105 532.806 101.105 532.806 101.105L521.078 102.865C521.078 102.865 516.389 122.432 513.342 123.11C510.296 123.789 515.202 104.876 515.202 104.876C515.202 104.876 506.721 107.775 503.979 123.377C500.933 124.055 497.398 114.631 501.069 108.244C483.923 128.763 484.444 145.447 491.25 153.748Z" fill="url(#paint2_linear_694_2101)"/>
<path opacity="0.53" d="M545.34 120.953C545.34 120.953 507.455 132.799 493.827 151.76C516.874 135.819 545.34 120.953 545.34 120.953Z" fill="#5A5A66"/>
<path opacity="0.53" d="M508.349 111.21C506.096 114.93 504.597 119.063 503.94 123.371C500.894 124.049 497.359 114.625 501.03 108.238C483.923 128.757 484.444 145.441 491.25 153.742C491.25 153.742 495.194 169.392 508.349 173.664V111.21Z" fill="#5A5A66"/>
<path d="M472.238 244.781C472.238 244.781 483.669 223.171 505.105 212.682C526.54 202.192 547.848 184.991 561.66 160.192" stroke="#EDB62B" stroke-width="1.37" stroke-miterlimit="10"/>
<path d="M495.155 218.294C494.037 216.892 493.394 215.168 493.319 213.372C493.244 211.576 493.741 209.803 494.738 208.312C498.065 211.212 496.806 214.942 495.155 218.294Z" fill="#EDB62B"/>
<path d="M495.155 218.291C496.076 219.829 497.462 221.03 499.109 221.719C500.756 222.407 502.578 222.547 504.31 222.119C502.746 217.976 498.843 217.879 495.155 218.291Z" fill="#EDB62B"/>
<path d="M506.651 211.924C505.536 210.521 504.895 208.797 504.821 207.001C504.748 205.205 505.245 203.433 506.242 201.943C509.585 204.818 508.334 208.573 506.651 211.924Z" fill="#EDB62B"/>
<path d="M506.651 211.922C507.574 213.461 508.96 214.662 510.609 215.351C512.257 216.039 514.081 216.179 515.814 215.75C514.275 211.607 510.371 211.51 506.651 211.922Z" fill="#EDB62B"/>
<path d="M516.782 205.719C515.881 204.168 515.497 202.368 515.684 200.581C515.872 198.793 516.621 197.114 517.824 195.787C520.686 199.162 518.907 202.651 516.782 205.719Z" fill="#EDB62B"/>
<path d="M516.783 205.72C517.472 207.376 518.669 208.768 520.2 209.69C521.73 210.613 523.513 211.018 525.288 210.848C524.342 206.527 520.494 205.849 516.783 205.72Z" fill="#EDB62B"/>
<path d="M526.995 198.913C526.094 197.362 525.709 195.561 525.897 193.774C526.084 191.987 526.834 190.308 528.037 188.98C530.899 192.34 529.095 195.844 526.995 198.913Z" fill="#EDB62B"/>
<path d="M526.997 198.915C527.686 200.573 528.885 201.967 530.416 202.891C531.948 203.815 533.733 204.221 535.51 204.05C534.564 199.722 530.7 199.052 526.997 198.915Z" fill="#EDB62B"/>
<path d="M535.968 191.253C534.551 190.162 533.516 188.645 533.014 186.921C532.512 185.197 532.57 183.356 533.178 181.667C537.114 183.678 536.778 187.603 535.968 191.253Z" fill="#EDB62B"/>
<path d="M535.965 191.257C537.23 192.525 538.864 193.353 540.629 193.62C542.394 193.888 544.198 193.58 545.777 192.743C543.268 189.101 539.452 189.957 535.965 191.257Z" fill="#EDB62B"/>
<path d="M545.432 183.222C544.015 182.132 542.98 180.614 542.478 178.89C541.976 177.166 542.034 175.326 542.642 173.637C546.562 175.647 546.242 179.564 545.432 183.222Z" fill="#EDB62B"/>
<path d="M545.436 183.22C546.7 184.488 548.333 185.315 550.097 185.581C551.861 185.847 553.663 185.537 555.24 184.698C552.739 181.064 548.923 181.92 545.436 183.22Z" fill="#EDB62B"/>
<path d="M553.147 172.239C551.693 171.198 550.607 169.716 550.048 168.009C549.489 166.302 549.485 164.46 550.037 162.751C554.045 164.633 553.853 168.565 553.147 172.239Z" fill="#EDB62B"/>
<path d="M553.145 172.238C554.448 173.463 556.107 174.237 557.878 174.445C559.65 174.652 561.44 174.284 562.989 173.392C560.359 169.839 556.608 170.825 553.145 172.238Z" fill="#EDB62B"/>
<path d="M560.217 162.323C561.883 161.681 563.303 160.521 564.269 159.01C565.235 157.5 565.697 155.718 565.588 153.924C561.259 154.748 560.466 158.592 560.217 162.323Z" fill="#EDB62B"/>
<g opacity="0.53">
<path d="M239.261 200.193C239.261 200.193 220.616 184.486 196.863 182.863C173.111 181.24 146.93 173.366 124.893 155.641" stroke="#5A5A66" stroke-width="1.95" stroke-miterlimit="10"/>
<path d="M208.16 184.316C208.665 182.597 208.612 180.761 208.011 179.073C207.41 177.386 206.292 175.936 204.817 174.932C202.837 178.849 205.371 181.837 208.16 184.316Z" fill="#5A5A66"/>
<path d="M208.16 184.324C207.876 186.099 207.037 187.736 205.765 188.997C204.494 190.257 202.855 191.076 201.09 191.334C200.993 186.9 204.577 185.334 208.16 184.324Z" fill="#5A5A66"/>
<path d="M195.098 182.776C195.61 181.054 195.563 179.213 194.963 177.521C194.363 175.829 193.242 174.374 191.763 173.368C189.759 177.317 192.317 180.297 195.098 182.776Z" fill="#5A5A66"/>
<path d="M195.097 182.77C194.816 184.544 193.979 186.181 192.709 187.442C191.438 188.704 189.801 189.522 188.035 189.779C187.939 185.354 191.522 183.819 195.097 182.77Z" fill="#5A5A66"/>
<path d="M183.417 180.842C183.675 179.068 183.365 177.258 182.531 175.673C181.698 174.089 180.385 172.814 178.783 172.032C177.348 176.231 180.306 178.807 183.417 180.842Z" fill="#5A5A66"/>
<path d="M183.418 180.843C183.397 182.641 182.806 184.385 181.732 185.82C180.657 187.255 179.156 188.307 177.446 188.822C176.708 184.453 180.027 182.378 183.418 180.843Z" fill="#5A5A66"/>
<path d="M171.411 178.397C171.67 176.621 171.359 174.808 170.522 173.223C169.686 171.638 168.368 170.364 166.761 169.587C165.343 173.778 168.301 176.354 171.411 178.397Z" fill="#5A5A66"/>
<path d="M171.411 178.398C171.39 180.193 170.8 181.935 169.727 183.369C168.654 184.803 167.155 185.854 165.447 186.368C164.701 182.008 168.028 179.924 171.411 178.398Z" fill="#5A5A66"/>
<path d="M160.247 174.7C161.156 173.154 161.551 171.355 161.373 169.567C161.196 167.779 160.456 166.094 159.261 164.76C156.343 168.103 158.139 171.624 160.247 174.7Z" fill="#5A5A66"/>
<path d="M160.246 174.691C159.548 176.345 158.342 177.731 156.806 178.646C155.271 179.561 153.485 179.958 151.709 179.778C152.679 175.458 156.535 174.804 160.246 174.691Z" fill="#5A5A66"/>
<path d="M148.474 170.828C149.383 169.282 149.777 167.485 149.6 165.698C149.422 163.911 148.682 162.228 147.488 160.895C144.603 164.23 146.366 167.751 148.474 170.828Z" fill="#5A5A66"/>
<path d="M148.474 170.831C147.775 172.485 146.57 173.87 145.034 174.786C143.498 175.701 141.712 176.098 139.937 175.918C140.907 171.598 144.763 170.944 148.474 170.831Z" fill="#5A5A66"/>
<path d="M137.22 163.58C138.178 162.065 138.63 160.281 138.512 158.489C138.394 156.697 137.711 154.99 136.563 153.615C133.565 156.862 135.216 160.407 137.22 163.58Z" fill="#5A5A66"/>
<path d="M137.221 163.569C136.469 165.199 135.219 166.544 133.654 167.407C132.089 168.27 130.291 168.606 128.523 168.366C129.629 164.078 133.501 163.561 137.221 163.569Z" fill="#5A5A66"/>
<path d="M126.992 157.05C125.209 157.086 123.461 156.548 122.004 155.514C120.546 154.48 119.454 153.004 118.887 151.301C123.192 150.412 125.364 153.683 126.992 157.05Z" fill="#5A5A66"/>
</g>
<path d="M505.924 347.885C505.924 349.5 435.268 350.776 348.107 350.776C260.947 350.776 190.283 349.484 190.283 347.885C190.283 346.286 260.939 345.002 348.107 345.002C435.276 345.002 505.924 346.294 505.924 347.885Z" fill="#060526"/>
<path d="M500.096 268.611H190.283V87.4653C190.283 83.4403 191.87 79.58 194.694 76.7331C197.519 73.8863 201.35 72.2858 205.346 72.2837H485.009C489.005 72.2858 492.836 73.8863 495.661 76.7331C498.485 79.58 500.072 83.4403 500.072 87.4653L500.096 268.611Z" fill="#36363D"/>
<path d="M484.271 88.2207H206.107V254.338H484.271V88.2207Z" fill="white"/>
<path d="M485.21 306.359H205.169C201.221 306.359 197.435 304.779 194.643 301.966C191.852 299.154 190.283 295.34 190.283 291.363V268.606H500.096V291.371C500.094 295.347 498.524 299.159 495.733 301.969C492.941 304.78 489.156 306.359 485.21 306.359Z" fill="white"/>
<path d="M379.33 287.929H311.04V339.11H379.33V287.929Z" fill="white"/>
<path opacity="0.53" d="M351.955 294.632C355.887 290.404 355.672 283.765 351.475 279.805C347.278 275.844 340.688 276.061 336.756 280.289C332.824 284.517 333.04 291.155 337.237 295.116C341.434 299.076 348.024 298.86 351.955 294.632Z" fill="#5A5A66"/>
<path d="M397.651 339.108H294.378V347.499H397.651V339.108Z" fill="white"/>
<path d="M379.33 306.364H311.04V316.975H379.33V306.364Z" fill="#28282D"/>
<path opacity="0.53" d="M379.33 335.309H311.04V339.104H379.33V335.309Z" fill="#5A5A66"/>
<path d="M473.457 94.9712H216.736C213.496 94.9712 210.868 97.6177 210.868 100.882V100.995C210.868 104.26 213.496 106.907 216.736 106.907H473.457C476.698 106.907 479.325 104.26 479.325 100.995V100.882C479.325 97.6177 476.698 94.9712 473.457 94.9712Z" fill="#FFC801"/>
<path d="M221.706 100.98C221.706 101.619 221.518 102.244 221.166 102.775C220.813 103.306 220.312 103.72 219.727 103.964C219.141 104.209 218.496 104.273 217.874 104.148C217.252 104.024 216.681 103.716 216.232 103.264C215.784 102.812 215.478 102.237 215.355 101.61C215.231 100.984 215.294 100.334 215.537 99.744C215.78 99.1538 216.191 98.6493 216.718 98.2944C217.245 97.9394 217.865 97.75 218.499 97.75C219.35 97.75 220.165 98.0903 220.767 98.6961C221.368 99.3019 221.706 100.123 221.706 100.98Z" fill="#072847"/>
<path d="M231.454 100.98C231.454 101.619 231.266 102.244 230.914 102.775C230.561 103.306 230.061 103.72 229.475 103.964C228.889 104.209 228.244 104.273 227.622 104.148C227 104.024 226.429 103.716 225.98 103.264C225.532 102.812 225.226 102.237 225.103 101.61C224.979 100.984 225.042 100.334 225.285 99.744C225.528 99.1538 225.939 98.6493 226.466 98.2944C226.993 97.9394 227.613 97.75 228.248 97.75C229.098 97.75 229.914 98.0903 230.515 98.6961C231.116 99.3019 231.454 100.123 231.454 100.98Z" fill="#072847"/>
<path d="M241.203 100.98C241.203 101.619 241.015 102.244 240.662 102.775C240.31 103.306 239.809 103.72 239.223 103.964C238.637 104.209 237.992 104.273 237.37 104.148C236.748 104.024 236.177 103.716 235.729 103.264C235.28 102.812 234.975 102.237 234.851 101.61C234.727 100.984 234.791 100.334 235.034 99.744C235.276 99.1538 235.687 98.6493 236.215 98.2944C236.742 97.9394 237.362 97.75 237.996 97.75C238.846 97.75 239.662 98.0903 240.263 98.6961C240.865 99.3019 241.203 100.123 241.203 100.98Z" fill="#F75C38"/>
<path d="M470.443 112.625H219.75C214.845 112.625 210.868 116.63 210.868 121.572V240.659C210.868 245.6 214.845 249.606 219.75 249.606H470.443C475.348 249.606 479.325 245.6 479.325 240.659V121.572C479.325 116.63 475.348 112.625 470.443 112.625Z" fill="#ECECEC"/>
<path opacity="0.28" d="M464.333 140.835C464.334 142.297 464.049 143.746 463.494 145.097C462.939 146.449 462.125 147.677 461.098 148.711C460.071 149.745 458.852 150.566 457.511 151.125C456.169 151.684 454.731 151.972 453.279 151.97H242.5C241.048 151.97 239.611 151.682 238.27 151.123C236.93 150.563 235.712 149.743 234.686 148.708C233.66 147.674 232.846 146.447 232.292 145.095C231.737 143.744 231.452 142.297 231.453 140.835C231.455 137.885 232.62 135.056 234.691 132.971C236.763 130.886 239.571 129.715 242.5 129.715H453.279C454.73 129.714 456.168 130.001 457.509 130.56C458.85 131.118 460.069 131.938 461.095 132.971C462.122 134.005 462.936 135.232 463.492 136.582C464.047 137.933 464.333 139.381 464.333 140.843V140.835Z" fill="#5A5A66"/>
<path d="M266.582 129.715H242.533C239.654 129.793 236.919 131 234.91 133.079C232.901 135.158 231.776 137.945 231.776 140.847C231.776 143.748 232.901 146.535 234.91 148.614C236.919 150.693 239.654 151.9 242.533 151.978H266.582V129.715Z" fill="white"/>
<path opacity="0.13" d="M441.368 173.094C441.368 175.022 440.607 176.87 439.254 178.233C437.901 179.596 436.066 180.362 434.153 180.362H257.258C255.345 180.362 253.51 179.596 252.157 178.233C250.804 176.87 250.043 175.022 250.043 173.094C250.043 171.166 250.804 169.318 252.157 167.955C253.51 166.592 255.345 165.826 257.258 165.826H434.129C436.042 165.826 437.877 166.592 439.23 167.955C440.583 169.318 441.344 171.166 441.344 173.094H441.368Z" fill="#5A5A66"/>
<path opacity="0.13" d="M441.368 198.645C441.368 200.572 440.607 202.421 439.254 203.784C437.901 205.147 436.066 205.913 434.153 205.913H257.258C255.345 205.913 253.51 205.147 252.157 203.784C250.804 202.421 250.043 200.572 250.043 198.645C250.043 196.717 250.804 194.869 252.157 193.506C253.51 192.143 255.345 191.377 257.258 191.377H434.129C436.042 191.377 437.877 192.143 439.23 193.506C440.583 194.869 441.344 196.717 441.344 198.645H441.368Z" fill="#5A5A66"/>
<path opacity="0.13" d="M278.161 218.043H238.112C236.266 218.043 234.769 219.551 234.769 221.41V235.155C234.769 237.014 236.266 238.522 238.112 238.522H278.161C280.007 238.522 281.504 237.014 281.504 235.155V221.41C281.504 219.551 280.007 218.043 278.161 218.043Z" fill="#5A5A66"/>
<path opacity="0.13" d="M335.806 218.043H295.757C293.911 218.043 292.414 219.551 292.414 221.41V235.155C292.414 237.014 293.911 238.522 295.757 238.522H335.806C337.652 238.522 339.149 237.014 339.149 235.155V221.41C339.149 219.551 337.652 218.043 335.806 218.043Z" fill="#5A5A66"/>
<path opacity="0.13" d="M393.443 218.043H353.394C351.547 218.043 350.051 219.551 350.051 221.41V235.155C350.051 237.014 351.547 238.522 353.394 238.522H393.443C395.289 238.522 396.786 237.014 396.786 235.155V221.41C396.786 219.551 395.289 218.043 393.443 218.043Z" fill="#5A5A66"/>
<path opacity="0.13" d="M451.088 218.043H411.039C409.193 218.043 407.696 219.551 407.696 221.41V235.155C407.696 237.014 409.193 238.522 411.039 238.522H451.088C452.934 238.522 454.431 237.014 454.431 235.155V221.41C454.431 219.551 452.934 218.043 451.088 218.043Z" fill="#5A5A66"/>
<path d="M271.484 173.091H422.487" stroke="#5A5A66" stroke-width="1.81" stroke-miterlimit="10" stroke-linecap="round"/>
<path d="M271.484 198.642H422.487" stroke="#5A5A66" stroke-width="1.81" stroke-miterlimit="10" stroke-linecap="round"/>
<path d="M496.125 379.773C496.125 382.139 461.326 384.053 418.407 384.053C375.488 384.053 340.714 382.139 340.714 379.773C340.714 377.407 375.504 375.485 418.431 375.485C461.359 375.485 496.125 377.407 496.125 379.773Z" fill="#060526"/>
<path d="M436.523 247.122L436.138 254.463L395.095 300.912C391.707 304.742 389.351 309.382 388.249 314.389L375.623 371.813H409.78L419.4 315.245L448.876 271.824L452.347 248.519L436.523 247.122Z" fill="#44444C"/>
<path d="M416.277 333.613L419.404 315.209L444.719 277.909L446.282 270.472C446.282 270.472 415.315 307.368 412.95 313.117C410.586 318.867 416.277 333.613 416.277 333.613Z" fill="#171905"/>
<path d="M474.128 253.885C474.128 253.885 475.86 273.766 464.316 294.488C452.773 315.209 448.131 321.096 448.131 321.096L470.088 371.776H433.045L418.615 328.477C417.498 325.11 417.159 321.53 417.626 318.011C418.093 314.493 419.353 311.128 421.309 308.175L446.28 270.496C446.28 270.496 445.823 262.162 446.28 251.923C448.933 241.731 461.759 248.482 461.759 248.482L474.128 253.885Z" fill="#5A5A66"/>
<path d="M470.123 371.778L474.131 379.199H423.284C423.284 379.199 424.126 371.778 433.024 371.778H470.123Z" fill="#D19F00"/>
<path d="M409.781 371.778L407.48 379.239H363.054C363.054 379.239 364.93 371.818 375.623 371.818L409.781 371.778Z" fill="#D19F00"/>
<path d="M388.252 314.359L386.031 324.469H386.175C389.145 324.466 392.049 323.585 394.526 321.934C397.003 320.283 398.944 317.935 400.108 315.183C401.272 312.43 401.607 309.393 401.073 306.45C400.538 303.507 399.157 300.787 397.101 298.628L395.097 300.897C391.713 304.722 389.356 309.357 388.252 314.359Z" fill="#2F2F35"/>
<path d="M418.623 328.481L419.513 331.154H419.914C422.976 331.139 425.924 329.986 428.194 327.916C430.463 325.846 431.894 323.005 432.212 319.937C432.53 316.87 431.713 313.792 429.917 311.294C428.12 308.797 425.472 307.055 422.479 306.403L421.309 308.18C419.354 311.133 418.096 314.498 417.63 318.017C417.165 321.536 417.504 325.115 418.623 328.481Z" fill="#2F2F35"/>
<path d="M393.684 372.868C393.685 373.011 393.657 373.154 393.603 373.286C393.549 373.419 393.47 373.54 393.369 373.641C393.268 373.743 393.149 373.823 393.017 373.877C392.885 373.932 392.744 373.959 392.602 373.958H376.705C376.563 373.958 376.422 373.93 376.291 373.875C376.16 373.82 376.041 373.74 375.94 373.639C375.84 373.538 375.76 373.417 375.705 373.285C375.651 373.153 375.623 373.011 375.623 372.868C375.623 372.725 375.651 372.583 375.705 372.451C375.76 372.319 375.84 372.198 375.94 372.097C376.041 371.996 376.16 371.916 376.291 371.861C376.422 371.806 376.563 371.778 376.705 371.778H392.602C392.744 371.777 392.885 371.804 393.017 371.859C393.149 371.913 393.268 371.993 393.369 372.095C393.47 372.196 393.549 372.317 393.603 372.45C393.657 372.582 393.685 372.725 393.684 372.868Z" fill="white"/>
<path d="M453.938 372.868C453.939 373.011 453.912 373.154 453.858 373.286C453.804 373.419 453.724 373.54 453.624 373.641C453.523 373.743 453.403 373.823 453.271 373.877C453.14 373.932 452.998 373.959 452.856 373.958H434.13C433.843 373.958 433.568 373.843 433.365 373.639C433.162 373.434 433.048 373.157 433.048 372.868C433.048 372.579 433.162 372.302 433.365 372.097C433.568 371.893 433.843 371.778 434.13 371.778H452.856C452.998 371.777 453.14 371.804 453.271 371.859C453.403 371.913 453.523 371.993 453.624 372.095C453.724 372.196 453.804 372.317 453.858 372.45C453.912 372.582 453.939 372.725 453.938 372.868Z" fill="white"/>
<path d="M448.133 321.098C448.133 321.098 452.75 315.211 464.286 294.49C475.821 273.768 474.098 253.887 474.098 253.887L467.821 251.133C468.23 256.334 468.085 268.576 460.197 282.7C453.544 294.627 445.768 307.249 441.006 314.88C439.621 317.09 438.791 319.607 438.589 322.213C438.386 324.819 438.817 327.435 439.844 329.835L457.777 371.779H470.09L448.133 321.098Z" fill="#44444C"/>
<path d="M460.157 154.189C460.157 154.189 460.037 146.921 462.418 145.047C464.799 143.174 462.963 146.251 463.612 147.47C464.262 148.689 465.777 143.755 470.651 145.282C475.524 146.808 475.316 148.084 473.576 149.142C471.837 150.199 473.256 150.199 475.749 152.372C478.242 154.544 476.831 166.673 470.138 169.839L468.077 167.214L464.334 153.357L460.157 154.189Z" fill="#F75C38"/>
<g style="mix-blend-mode:overlay" opacity="0.37">
<path d="M470.658 145.265C465.784 143.739 464.245 148.649 463.62 147.454C462.995 146.259 464.807 143.198 462.426 145.031C460.045 146.864 460.157 154.189 460.157 154.189L464.309 153.381L465.271 156.934L471.163 155.319C471.163 155.319 468.502 149.392 470.763 148.334C472.016 147.876 473.364 147.74 474.683 147.938C474.827 147.131 473.785 146.251 470.658 145.265Z" fill="white"/>
</g>
<path d="M446.283 175.744C442.234 177.2 438.54 179.507 435.445 182.511C430.675 187.316 407.484 211.203 407.484 211.203L416.302 220.691L441.721 203.2L446.283 175.744Z" fill="#D35854"/>
<path d="M435.9 208.142L441.72 203.2L446.281 175.744C442.233 177.2 438.539 179.507 435.443 182.511C433.84 184.126 430.168 187.881 425.992 192.202C429.327 196.538 434.193 203.402 435.9 208.142Z" fill="#C53A6C"/>
<path d="M435.899 208.139L440.099 204.602C438.023 198.562 432.292 191.464 429.678 188.395L426.015 192.15C429.326 196.535 434.191 203.399 435.899 208.139Z" fill="white"/>
<path d="M474.046 261.545C474.251 258.998 474.278 256.44 474.126 253.889L467.024 250.78L436.522 247.122C436.522 247.122 451.945 261.956 474.046 261.545Z" fill="#171905"/>
<path d="M468.523 174.808C468.523 174.808 489.012 189.917 490.055 195.376C476.186 240.347 474.126 253.889 474.126 253.889C474.126 253.889 450.398 257.378 436.522 247.122C438.037 199.308 440.859 183.804 446.278 175.728L462.719 174.113L468.523 174.808Z" fill="#DC4279"/>
<path d="M468.528 174.808L462.724 174.13L458.46 174.55L458.283 176.447C458.194 177.443 458.312 178.445 458.629 179.392C458.945 180.339 459.455 181.209 460.123 181.946C460.792 182.684 461.606 183.273 462.514 183.676C463.421 184.08 464.402 184.288 465.394 184.289H465.546C467.29 184.287 468.973 183.642 470.278 182.476C471.582 181.309 472.417 179.702 472.624 177.958C470.203 176.052 468.528 174.808 468.528 174.808Z" fill="white"/>
<path d="M470.771 166.24V175.785C470.771 177.188 470.218 178.533 469.233 179.525C468.248 180.517 466.913 181.074 465.52 181.074H465.408C464.678 181.075 463.957 180.923 463.289 180.626C462.621 180.33 462.022 179.897 461.53 179.354C461.038 178.812 460.664 178.171 460.432 177.475C460.2 176.778 460.114 176.04 460.181 175.308L460.718 169.397L467.933 162.081L470.771 166.24Z" fill="#EF7D6E"/>
<path d="M469.518 165.685L462.247 167.849L460.716 169.4L460.227 174.81C462.531 174.465 464.668 173.398 466.336 171.76C468.004 170.122 469.117 167.996 469.518 165.685Z" fill="#171905"/>
<path d="M471.134 162.194L472.737 157.826C472.737 157.826 469.851 151.131 463.919 151.567C460.881 151.713 458.717 155.936 457.129 161.322C455.542 166.709 455.101 171.36 458.572 171.36C462.043 171.36 468.304 171.416 470.132 165.707C470.586 164.575 470.922 163.397 471.134 162.194Z" fill="#EF7D6E"/>
<path d="M475.757 164.67C475.757 165.308 475.568 165.933 475.216 166.464C474.864 166.995 474.363 167.409 473.777 167.654C473.191 167.898 472.546 167.962 471.924 167.838C471.302 167.713 470.731 167.405 470.283 166.954C469.834 166.502 469.529 165.926 469.405 165.3C469.281 164.673 469.345 164.024 469.588 163.433C469.83 162.843 470.241 162.339 470.769 161.984C471.296 161.629 471.916 161.439 472.55 161.439C473.4 161.439 474.216 161.78 474.817 162.386C475.419 162.991 475.757 163.813 475.757 164.67Z" fill="#EF7D6E"/>
<g style="mix-blend-mode:overlay" opacity="0.37">
<path d="M463.91 151.567C460.872 151.712 458.708 155.936 457.121 161.322C455.533 166.708 455.092 171.36 458.564 171.36C459.117 171.36 459.75 171.36 460.423 171.36C461.255 169.881 462.34 168.563 463.63 167.467C468.023 163.696 470.267 158.148 471.181 155.354C469.778 153.457 467.373 151.317 463.91 151.567Z" fill="white"/>
</g>
<path d="M470.124 165.683L473.25 164.318" stroke="#99344C" stroke-width="0.54" stroke-miterlimit="10" stroke-linecap="round"/>
<path d="M463.622 159.465C463.622 159.465 466.219 159.465 466.981 160.66" stroke="#560B0B" stroke-width="0.76" stroke-miterlimit="10" stroke-linecap="round"/>
<path d="M460.046 158.149C460.046 158.149 459.998 157.737 458.507 157.342" stroke="#560B0B" stroke-width="0.76" stroke-miterlimit="10" stroke-linecap="round"/>
<path d="M461.013 159.465L459.273 161.451L461.013 162.081" stroke="#99344C" stroke-width="0.54" stroke-miterlimit="10" stroke-linecap="round"/>
<path d="M458.507 163.938L463.622 165.682C463.622 165.682 459.525 167.741 458.507 163.938Z" fill="white"/>
<path d="M465.633 156.156C466.395 156.198 467.126 156.478 467.723 156.957C468.321 157.436 468.756 158.09 468.968 158.829" stroke="#99344C" stroke-width="1.08" stroke-miterlimit="10" stroke-linecap="round"/>
<path d="M461.762 154.983C461.08 154.724 460.328 154.724 459.646 154.983" stroke="#99344C" stroke-width="1.08" stroke-miterlimit="10" stroke-linecap="round"/>
<path d="M467.177 261.176C465.712 269.991 462.69 278.47 458.254 286.21C449.124 301.714 441.035 314.877 441.035 314.877C441.035 314.877 436.097 318.245 441.035 331.165C445.974 344.086 457.806 371.776 457.806 371.776" stroke="#8E8EA0" stroke-width="1.08" stroke-miterlimit="10"/>
<path d="M450.616 184.272C450.616 184.272 450.833 199.615 461.037 210.04C471.242 220.465 461.037 219.222 455.634 210.888C450.232 202.554 446.889 180.589 450.616 184.272Z" fill="#C53A6C"/>
<path d="M472.558 206.291L468.534 227.755L472.718 228.554L472.558 206.291Z" fill="#171905"/>
<path d="M436.522 239.256C436.522 239.256 464.867 248.656 474.872 250.102L475.553 247.025L436.522 239.256Z" fill="#171905"/>
<path opacity="0.38" d="M386.575 154.032C408.511 131.935 408.511 96.1081 386.575 74.0107C364.64 51.9134 329.075 51.9134 307.139 74.0107C285.203 96.1081 285.203 131.935 307.139 154.032C329.075 176.13 364.64 176.13 386.575 154.032Z" fill="#B4D1ED"/>
<path d="M389.432 152.178L375.23 163.896L400.496 194.969L414.697 183.251L389.432 152.178Z" fill="#2F2F35"/>
<path d="M307.494 66.2347C298.026 74.0463 291.07 84.5107 287.506 96.3045C283.942 108.098 283.93 120.692 287.471 132.493C291.011 144.294 297.946 154.772 307.399 162.603C316.851 170.433 328.396 175.264 340.574 176.485C352.752 177.706 365.016 175.261 375.815 169.461C386.614 163.66 395.462 154.765 401.243 143.898C407.023 133.031 409.474 120.682 408.287 108.412C407.1 96.1421 402.328 84.5021 394.574 74.9641C389.426 68.6299 383.09 63.3794 375.927 59.5125C368.764 55.6456 360.916 53.2381 352.829 52.4274C344.742 51.6168 336.577 52.4189 328.798 54.788C321.019 57.1571 313.78 61.0467 307.494 66.2347ZM380.442 155.927C372.282 162.66 362.324 166.803 351.827 167.834C341.33 168.865 330.765 166.737 321.468 161.719C312.172 156.701 304.561 149.019 299.599 139.644C294.637 130.268 292.546 119.621 293.591 109.048C294.636 98.476 298.77 88.4531 305.47 80.2475C312.17 72.0419 321.135 66.022 331.231 62.9493C341.327 59.8766 352.101 59.889 362.191 62.9849C372.28 66.0808 381.231 72.1213 387.913 80.3423C392.348 85.8009 395.672 92.086 397.695 98.8388C399.719 105.592 400.402 112.68 399.706 119.699C399.01 126.718 396.949 133.53 393.639 139.746C390.329 145.962 385.837 151.46 380.418 155.927H380.442Z" fill="#5A5A66"/>
<path d="M319.133 81.7475C325.133 76.8002 332.393 73.6514 340.084 72.6605C347.775 71.6695 355.588 72.8762 362.631 76.1429C369.674 79.4097 375.664 84.6049 379.918 91.1359C384.171 97.6669 386.516 105.271 386.686 113.08" stroke="white" stroke-width="8.88" stroke-miterlimit="10" stroke-linecap="round"/>
<path d="M461.271 254.46L461.055 254.638C459.625 255.817 457.979 256.701 456.211 257.24C454.442 257.778 452.585 257.96 450.746 257.776C448.908 257.592 447.123 257.044 445.495 256.165C443.866 255.285 442.425 254.091 441.255 252.651L392.107 192.199C390.936 190.76 390.059 189.102 389.524 187.321C388.99 185.54 388.809 183.67 388.992 181.819C389.176 179.967 389.719 178.17 390.592 176.53C391.465 174.89 392.65 173.44 394.079 172.261L394.304 172.076C395.732 170.896 397.378 170.012 399.146 169.474C400.914 168.936 402.77 168.753 404.608 168.938C406.446 169.122 408.23 169.67 409.858 170.549C411.486 171.428 412.926 172.622 414.096 174.062L463.243 234.514C464.414 235.954 465.292 237.612 465.826 239.394C466.361 241.176 466.542 243.046 466.359 244.898C466.176 246.751 465.632 248.548 464.759 250.189C463.886 251.83 462.701 253.281 461.271 254.46Z" fill="#F75C38"/>
<path opacity="0.42" d="M452.253 243.576L403.105 183.124C401.532 181.191 400.495 178.872 400.1 176.404C399.706 173.936 399.968 171.406 400.861 169.073C398.453 169.478 396.192 170.511 394.304 172.069L394.079 172.255C392.65 173.433 391.465 174.884 390.592 176.524C389.719 178.164 389.176 179.961 388.992 181.812C388.809 183.664 388.99 185.534 389.524 187.315C390.059 189.096 390.936 190.754 392.107 192.193L441.255 252.645C442.425 254.085 443.866 255.279 445.495 256.158C447.123 257.038 448.908 257.585 450.746 257.77C452.585 257.954 454.442 257.772 456.211 257.233C457.979 256.695 459.625 255.811 461.055 254.631L461.271 254.454C463.162 252.892 464.616 250.86 465.488 248.559C463.042 248.98 460.528 248.741 458.203 247.866C455.878 246.991 453.825 245.511 452.253 243.576Z" fill="#841111"/>
<path d="M403.977 114.371C403.982 102.884 400.605 91.6527 394.272 82.0987C387.94 72.5446 378.938 65.0969 368.404 60.6974C357.869 56.2979 346.276 55.1443 335.091 57.3826C323.906 59.6208 313.631 65.1502 305.566 73.2716C297.501 81.3929 292.007 91.7413 289.781 103.008C287.554 114.275 288.695 125.953 293.057 136.567C297.42 147.181 304.81 156.253 314.291 162.635C323.773 169.018 334.92 172.425 346.324 172.425C361.61 172.425 376.271 166.309 387.082 155.423C397.894 144.537 403.971 129.77 403.977 114.371ZM380.417 155.951C372.258 162.684 362.3 166.827 351.803 167.858C341.305 168.889 330.74 166.761 321.444 161.743C312.147 156.725 304.537 149.043 299.574 139.668C294.612 130.292 292.521 119.645 293.567 109.072C294.612 98.5 298.745 88.4772 305.445 80.2715C312.145 72.0659 321.11 66.0461 331.207 62.9733C341.303 59.9006 352.077 59.913 362.166 63.0089C372.256 66.1049 381.207 72.1453 387.888 80.3663C396.841 91.3859 401.082 105.536 399.681 119.705C398.28 133.874 391.351 146.903 380.417 155.927V155.951Z" fill="white"/>
<path d="M490.055 195.374C490.839 200.609 491.273 205.892 491.353 211.186C491.49 217.194 491.458 231.18 491.409 240.661C491.403 241.818 491.142 242.96 490.647 244.005C490.152 245.05 489.433 245.971 488.544 246.704C487.654 247.437 486.615 247.963 485.5 248.244C484.385 248.526 483.222 248.556 482.095 248.332L436.522 239.256L428.345 242.13C426.719 242.709 424.959 242.793 423.285 242.374C421.611 241.955 420.095 241.05 418.926 239.772L414.638 235.113L412.874 235.735C412.343 235.923 411.761 235.909 411.239 235.697C410.717 235.484 410.289 235.087 410.036 234.58C409.764 234.032 409.718 233.398 409.907 232.816C410.096 232.234 410.506 231.751 411.046 231.471L425.476 224.009C429.579 221.887 434.267 221.205 438.799 222.071L472.764 228.588L472.603 206.324C472.603 206.324 472.764 194.97 482.519 193.226C488.267 192.184 490.055 195.374 490.055 195.374Z" fill="#EF7D6E"/>
<g style="mix-blend-mode:overlay" opacity="0.37">
<path d="M472.72 228.514L438.755 221.997C434.224 221.131 429.535 221.813 425.432 223.935L423.749 224.807C424.855 224.525 428.487 224.525 440.102 228.514C455.974 233.973 476.608 240.457 482.035 237.332C487.462 234.207 482.035 230.064 482.035 230.064L472.72 228.514Z" fill="white"/>
</g>
<path d="M491.418 219.278C491.418 216.048 491.418 213.165 491.33 211.202C491.249 205.909 490.815 200.626 490.031 195.391C490.031 195.391 488.244 192.201 482.448 193.211C472.692 194.955 472.532 206.309 472.532 206.309L472.628 219.496C477.277 218.301 485.005 217.033 491.418 219.278Z" fill="#C53A6C"/>
<path d="M472.621 214.755V219.479C477.246 218.3 484.934 217.057 491.411 219.277C491.411 217.541 491.411 215.926 491.411 214.497C484.718 213.374 477.158 214.093 472.621 214.755Z" fill="white"/>
<path d="M472.718 228.556L482.033 230.09" stroke="#99344C" stroke-width="0.54" stroke-miterlimit="10" stroke-linecap="round"/>
<path opacity="0.49" d="M488.495 238.818C486.076 238.81 483.744 239.719 481.961 241.365C480.178 243.012 479.077 245.274 478.875 247.701L482.082 248.339C483.209 248.563 484.372 248.533 485.487 248.251C486.602 247.97 487.641 247.444 488.531 246.711C489.42 245.978 490.139 245.057 490.634 244.012C491.129 242.967 491.39 241.825 491.396 240.668C491.396 240.224 491.396 239.755 491.396 239.287C490.459 238.981 489.48 238.823 488.495 238.818Z" fill="#B0322F"/>
<path d="M433.935 243.649C433.935 243.649 436.812 242.034 444.123 243.649C451.434 245.265 466.152 246.29 466.152 246.29L466.328 245.192C436.668 239.151 436.524 239.256 436.524 239.256L431.714 240.944L433.935 243.649Z" fill="#171905"/>
<path d="M409.78 202.691C409.78 202.691 412.065 203.257 412.065 205.171C414.758 206.277 415.432 208.498 414.999 210.016C417.692 211.558 418.101 214.974 413.612 218.632L412.329 217.057L409.78 202.691Z" fill="#171905"/>
<path d="M404.516 211.316C404.286 211.509 404.02 211.654 403.735 211.743C403.449 211.832 403.149 211.864 402.851 211.836C402.553 211.808 402.264 211.722 401.999 211.581C401.735 211.441 401.5 211.249 401.309 211.017C401.118 210.786 400.973 210.518 400.885 210.23C400.797 209.942 400.766 209.639 400.794 209.338C400.822 209.038 400.909 208.746 401.05 208.48C401.191 208.214 401.382 207.978 401.614 207.787L407.362 202.99C407.592 202.797 407.857 202.652 408.143 202.563C408.43 202.474 408.73 202.443 409.028 202.471C409.326 202.5 409.616 202.587 409.88 202.729C410.145 202.871 410.378 203.064 410.568 203.297C410.76 203.529 410.904 203.797 410.992 204.085C411.081 204.373 411.112 204.676 411.084 204.976C411.055 205.277 410.968 205.568 410.828 205.834C410.687 206.101 410.495 206.336 410.264 206.527L404.516 211.316Z" fill="#EF7D6E"/>
<path d="M406.577 216.279C406.042 216.725 405.353 216.939 404.661 216.874C403.97 216.809 403.333 216.47 402.889 215.932C402.446 215.393 402.234 214.699 402.299 214.003C402.363 213.306 402.7 212.664 403.234 212.217L409.871 206.677C410.406 206.232 411.095 206.018 411.786 206.083C412.478 206.148 413.115 206.487 413.559 207.025C414.001 207.564 414.214 208.257 414.149 208.954C414.084 209.65 413.748 210.292 413.214 210.739L406.577 216.279Z" fill="#EF7D6E"/>
<path d="M409.871 219.135C409.655 219.315 409.405 219.451 409.137 219.535C408.868 219.619 408.586 219.648 408.306 219.622C408.026 219.596 407.754 219.514 407.506 219.382C407.257 219.25 407.037 219.07 406.857 218.852C406.678 218.633 406.544 218.382 406.461 218.111C406.379 217.84 406.35 217.555 406.377 217.273C406.404 216.991 406.485 216.718 406.617 216.467C406.749 216.217 406.929 215.996 407.146 215.816L412.565 211.285C413.004 210.921 413.569 210.746 414.136 210.801C414.702 210.855 415.224 211.134 415.587 211.576C415.766 211.794 415.9 212.046 415.983 212.317C416.065 212.588 416.094 212.872 416.067 213.154C416.04 213.436 415.959 213.71 415.827 213.96C415.695 214.211 415.515 214.432 415.298 214.612L409.871 219.135Z" fill="#EF7D6E"/>
<path d="M335.906 379.41C335.906 381.978 302.767 384.054 261.884 384.054C221.001 384.054 187.862 381.978 187.862 379.41C187.862 376.842 221.009 374.767 261.884 374.767C302.759 374.767 335.906 376.818 335.906 379.41Z" fill="#060526"/>
<path d="M284.823 338.169H229.046C227.881 338.169 226.763 337.703 225.939 336.873C225.116 336.043 224.653 334.918 224.653 333.744V333.655C224.653 332.482 225.116 331.356 225.939 330.526C226.763 329.696 227.881 329.23 229.046 329.23H284.823V338.169Z" fill="#BA2B1C"/>
<path d="M273.628 358.187H215.494C214.329 358.185 213.213 357.718 212.39 356.888C211.566 356.059 211.103 354.934 211.101 353.761V353.665C211.103 352.492 211.566 351.367 212.39 350.538C213.213 349.708 214.329 349.241 215.494 349.239H273.628V358.187Z" fill="#BA2B1C"/>
<path d="M264.103 378.782H249.136L290.548 318.016H305.507L264.103 378.782Z" fill="#BA2B1C"/>
<path d="M269.426 190.659V201.965L297.988 236.067C299.921 238.374 301.326 241.084 302.1 244.001C302.875 246.918 303.001 249.972 302.469 252.944L294.685 296.47H264.936L276.304 246.258L255.093 225.553L254.363 191.289L269.426 190.659Z" fill="#44444C"/>
<path d="M259.732 192.017L254.048 320.455H226.047L235.739 192.017H259.732Z" fill="#5A5A66"/>
<path d="M295.599 233.216C293.278 234.233 291.376 236.024 290.212 238.288C289.048 240.552 288.693 243.15 289.208 245.647C289.723 248.143 291.075 250.385 293.038 251.995C295 253.605 297.453 254.484 299.984 254.486C300.741 254.485 301.495 254.409 302.237 254.26L302.469 252.944C303.001 249.972 302.876 246.918 302.101 244.001C301.326 241.083 299.922 238.374 297.988 236.066L295.599 233.216Z" fill="#5A5A66"/>
<path d="M256.775 258.744C255.168 258 253.404 257.665 251.638 257.768C249.873 257.872 248.159 258.412 246.649 259.34C245.139 260.267 243.879 261.555 242.979 263.089C242.079 264.622 241.567 266.356 241.488 268.136C241.41 269.915 241.766 271.688 242.527 273.296C243.288 274.904 244.43 276.3 245.852 277.359C247.274 278.418 248.933 279.109 250.683 279.371C252.432 279.633 254.219 279.457 255.885 278.86L256.775 258.744Z" fill="#44444C"/>
<path d="M226.047 320.455H234.256L241.495 193.268L240.677 192.017H235.739L226.047 320.455Z" fill="#44444C"/>
<g style="mix-blend-mode:multiply" opacity="0.49">
<path d="M227.073 306.872L226.047 320.454H254.048L254.649 306.872H227.073Z" fill="#44444C"/>
</g>
<g style="mix-blend-mode:multiply" opacity="0.49">
<path d="M268.343 281.42L264.944 296.472H294.684L297.378 281.42H268.343Z" fill="#44444C"/>
</g>
<path d="M241.497 193.265L234.258 320.452" stroke="#8E8EA0" stroke-width="1.08" stroke-miterlimit="10"/>
<g style="mix-blend-mode:multiply" opacity="0.49">
<path d="M259.356 200.351L258.113 228.509L264.943 235.171L259.356 200.351Z" fill="#44444C"/>
</g>
<path d="M264.934 296.468L262.666 304.543L300.085 304.446C300.085 304.446 301.336 298.931 294.682 296.5L264.934 296.468Z" fill="#FFC801"/>
<path d="M226.08 320.452L225.23 329.23H259.748C259.748 329.23 260.197 321.833 254.072 320.452H226.08Z" fill="#FFC801"/>
<path d="M252.666 322.982C252.672 323.095 252.654 323.208 252.613 323.314C252.573 323.419 252.511 323.515 252.432 323.595C252.353 323.675 252.258 323.737 252.153 323.778C252.048 323.818 251.936 323.836 251.824 323.83H239.896C239.787 323.83 239.68 323.808 239.58 323.765C239.48 323.722 239.389 323.659 239.314 323.58C239.239 323.5 239.181 323.407 239.143 323.304C239.106 323.201 239.089 323.092 239.094 322.982C239.094 322.768 239.179 322.563 239.329 322.411C239.479 322.26 239.683 322.175 239.896 322.175H251.824C251.933 322.169 252.041 322.186 252.143 322.224C252.245 322.262 252.338 322.321 252.417 322.397C252.496 322.472 252.558 322.563 252.601 322.664C252.644 322.764 252.666 322.873 252.666 322.982Z" fill="#5A5A66"/>
<path d="M293.573 298.643C293.573 298.752 293.551 298.861 293.508 298.962C293.465 299.062 293.402 299.153 293.324 299.229C293.245 299.304 293.152 299.363 293.05 299.401C292.948 299.439 292.839 299.456 292.731 299.45H280.803C280.59 299.45 280.386 299.365 280.236 299.214C280.085 299.062 280.001 298.857 280.001 298.643C279.996 298.534 280.012 298.424 280.05 298.321C280.088 298.219 280.146 298.125 280.221 298.046C280.296 297.966 280.386 297.903 280.486 297.86C280.586 297.817 280.694 297.795 280.803 297.795H292.731C292.843 297.789 292.955 297.807 293.06 297.848C293.164 297.888 293.259 297.951 293.339 298.03C293.418 298.11 293.48 298.206 293.52 298.312C293.56 298.417 293.578 298.53 293.573 298.643Z" fill="#5A5A66"/>
<path d="M306.966 304.514H248.8C245.134 304.514 242.162 307.507 242.162 311.2V311.329C242.162 315.022 245.134 318.016 248.8 318.016H306.966C310.632 318.016 313.603 315.022 313.603 311.329V311.2C313.603 307.507 310.632 304.514 306.966 304.514Z" fill="#F75C38"/>
<path d="M224.853 378.782H209.895L251.299 318.016H266.257L224.853 378.782Z" fill="#BA2B1C"/>
<path d="M305.339 318.016H292.698V378.782H305.339V318.016Z" fill="#F75C38"/>
<path d="M271.7 318.016H259.059V378.782H271.7V318.016Z" fill="#F75C38"/>
<path d="M254.379 192.016H235.742L235.18 199.453C251.213 198.032 269.426 190.659 269.426 190.659L254.363 191.289L254.379 192.016Z" fill="#171905"/>
<path d="M259.582 132.508C264.697 132.122 269.79 133.513 274.011 136.449C281.13 141.375 293.771 149.418 293.771 149.418L304.93 128.907C305.505 127.919 306.274 127.058 307.188 126.378C308.103 125.698 309.146 125.212 310.253 124.95L321.596 121.954C321.982 121.834 322.399 121.866 322.763 122.042C323.127 122.219 323.412 122.528 323.56 122.907C323.623 123.309 323.527 123.72 323.294 124.052C323.06 124.384 322.707 124.61 322.309 124.683L319.287 125.491C319.287 125.491 320.449 132.121 318.389 133.833C316.744 135.082 314.98 136.164 313.123 137.063L302.75 157.17C300.721 161.773 294.316 163.792 289.924 161.208L268.969 149.095L259.582 132.508Z" fill="#A35546"/>
<path d="M290.911 161.674C291.442 160.652 292.183 159.756 293.086 159.047C293.989 158.338 295.032 157.832 296.146 157.563C298.155 157 300.302 157.238 302.142 158.226C300.91 159.969 299.141 161.252 297.109 161.876C295.078 162.5 292.898 162.429 290.911 161.674Z" fill="#844239"/>
<path d="M293.773 149.42L291.392 153.248" stroke="#6D3E3B" stroke-width="0.33" stroke-miterlimit="10" stroke-linecap="round"/>
<path d="M269.425 190.657L267.701 163.944L270.002 160.464C270.91 159.092 271.496 157.528 271.712 155.894C271.929 154.259 271.772 152.596 271.252 151.032L263.076 132.418L255.781 130.27L242.113 134.558L235.556 193.354C246.898 193.352 258.223 192.45 269.425 190.657Z" fill="#DC4279"/>
<path d="M264.985 128.1C264.432 124.66 263.895 121.405 263.655 120.315C263.31 118.749 264.408 116.601 265.346 115.123C266.224 113.737 266.634 112.103 266.516 110.463C266.316 107.395 265.458 102.832 262.244 101.217C257.234 98.7057 248.809 98.7219 244.656 107.33C242.363 112.087 242.027 121.058 242.179 128.1H264.985Z" fill="#571717"/>
<path d="M251.348 117.495L250.546 138.717L251.965 138.668C252.302 138.967 259.244 138.353 259.18 137.861L258.619 125.11L258.113 121.88L251.348 117.495Z" fill="#A35546"/>
<path d="M258.836 129.64L258.635 125.118L251.348 117.495C251.348 117.495 254.651 127.217 258.836 129.64Z" fill="#3A1414"/>
<path d="M262.154 103.415C262.154 103.415 265.729 106.338 265.649 112.79C265.569 119.243 263.565 125.614 260.214 125.461C256.863 125.307 250.595 120.809 250.539 113.089C253 110.465 256.35 109.568 258.098 108.438C259.845 107.307 262.154 103.415 262.154 103.415Z" fill="#A35546"/>
<g style="mix-blend-mode:overlay" opacity="0.4">
<path d="M262.153 103.415C262.153 103.415 259.844 107.315 258.096 108.438C256.822 109.245 254.682 109.964 252.669 111.313C253.407 117.482 254.938 123.595 258.096 124.928C258.265 125 258.433 125.057 258.601 125.121C259.118 125.309 259.657 125.423 260.205 125.461C263.556 125.614 265.568 119.235 265.64 112.79C265.712 106.346 262.153 103.415 262.153 103.415Z" fill="#FEFEFE"/>
</g>
<path d="M259.748 113.841C259.748 113.841 258.265 112.863 255.804 113.841" stroke="#571717" stroke-width="0.98" stroke-miterlimit="10" stroke-linecap="round"/>
<path d="M264.201 113.623C264.145 113.566 264.706 113.332 265.684 113.405" stroke="#571717" stroke-width="0.98" stroke-miterlimit="10" stroke-linecap="round"/>
<path d="M259.751 110.388C259.104 110.02 258.373 109.827 257.63 109.827C256.887 109.827 256.157 110.02 255.51 110.388" stroke="#571717" stroke-width="0.98" stroke-miterlimit="10" stroke-linecap="round"/>
<path d="M263.452 109.825C264.046 109.542 264.709 109.439 265.36 109.526" stroke="#571717" stroke-width="0.98" stroke-miterlimit="10" stroke-linecap="round"/>
<path d="M261.593 117.658H263.076C263.076 117.658 262.554 118.49 261.593 117.658Z" fill="#AF5858"/>
<path d="M263.452 119.541H257.753C257.753 119.541 261.889 122.908 263.452 119.541Z" fill="#FEFEFE"/>
<path d="M251.989 116.619C251.99 117.214 251.817 117.796 251.49 118.291C251.163 118.786 250.698 119.172 250.153 119.401C249.608 119.629 249.009 119.69 248.43 119.575C247.851 119.46 247.319 119.174 246.901 118.755C246.483 118.335 246.198 117.8 246.082 117.217C245.967 116.634 246.025 116.029 246.251 115.48C246.476 114.93 246.858 114.461 247.349 114.13C247.839 113.8 248.416 113.624 249.006 113.624C249.398 113.622 249.785 113.699 250.147 113.849C250.509 113.999 250.838 114.22 251.115 114.498C251.392 114.776 251.611 115.107 251.761 115.471C251.911 115.835 251.989 116.225 251.989 116.619Z" fill="#A35546"/>
<path d="M250.661 119.163C250.661 119.387 250.595 119.605 250.472 119.791C250.348 119.977 250.173 120.122 249.968 120.208C249.763 120.293 249.537 120.316 249.32 120.272C249.102 120.228 248.902 120.121 248.745 119.963C248.588 119.805 248.481 119.603 248.438 119.384C248.395 119.165 248.417 118.937 248.502 118.731C248.587 118.524 248.73 118.347 248.915 118.223C249.1 118.099 249.317 118.033 249.539 118.033C249.836 118.033 250.122 118.152 250.332 118.364C250.543 118.576 250.661 118.863 250.661 119.163Z" fill="#FEFEFE"/>
<path d="M242.113 134.56L238.418 167.668L238.345 168.314C254.226 159.238 243.364 134.14 243.364 134.14L242.113 134.56Z" fill="#A35546"/>
<path d="M246.347 133.25C247.148 136.117 250.355 145.508 257.569 145.508C263.285 145.508 261.906 137.166 260.359 131.635L255.742 130.27L246.347 133.25Z" fill="#A35546"/>
<path d="M267.704 163.946C267.704 163.946 258.814 173.491 249.539 174.823C240.264 176.156 238.885 181.033 248.417 179.426C257.948 177.819 268.826 181.332 268.826 181.332L267.704 163.946Z" fill="#C53A6C"/>
<path d="M305.339 318.016H292.698V323.717H305.339V318.016Z" fill="#7F1C14"/>
<path d="M271.7 318.016H259.059V323.717H271.7V318.016Z" fill="#7F1C14"/>
<path d="M210.461 125.846L204.785 112.756C204.616 112.365 204.317 112.046 203.939 111.854C203.561 111.663 203.129 111.61 202.717 111.706C202.473 111.763 202.244 111.87 202.043 112.021C201.843 112.172 201.676 112.363 201.552 112.583C201.428 112.802 201.351 113.045 201.326 113.295C201.3 113.546 201.326 113.8 201.402 114.04L203.374 120.338L199.486 115.348C199.309 115.12 199.086 114.932 198.832 114.796C198.578 114.66 198.298 114.579 198.011 114.558C197.724 114.538 197.436 114.578 197.166 114.677C196.895 114.775 196.648 114.929 196.44 115.13C196.131 115.427 195.92 115.813 195.839 116.235C195.757 116.658 195.807 117.096 195.983 117.488L198.797 123.811L196.192 121.639C195.958 121.435 195.655 121.331 195.346 121.349C195.038 121.367 194.749 121.506 194.54 121.735C194.374 121.92 194.268 122.152 194.238 122.399C194.208 122.646 194.255 122.897 194.372 123.116L204.793 142.239L210.461 125.846Z" fill="#844239"/>
<path d="M242.114 134.558C242.114 134.558 239.316 135.365 234.899 140.436C230.482 145.508 222.947 151.621 222.947 151.621L210.185 118.754C210.108 118.555 209.993 118.373 209.845 118.22C209.698 118.066 209.522 117.943 209.328 117.858C209.133 117.773 208.924 117.728 208.712 117.725C208.5 117.722 208.289 117.762 208.093 117.842C207.735 117.981 207.439 118.245 207.258 118.586C207.077 118.927 207.023 119.322 207.107 119.699L208.453 125.828C208.453 125.828 201.191 130.092 204.004 139.79C205.656 145.508 211.644 156.587 216.269 164.711C216.924 165.865 217.839 166.849 218.939 167.584C220.04 168.318 221.296 168.782 222.607 168.939C223.918 169.096 225.247 168.942 226.488 168.488C227.729 168.034 228.847 167.294 229.752 166.326L246.058 148.867L242.114 134.558Z" fill="#A35546"/>
<path d="M222.949 151.631L225.971 157.825" stroke="#783D32" stroke-width="0.94" stroke-miterlimit="10"/>
<path d="M229.137 166.863C227.626 165.087 225.506 163.95 223.2 163.679C220.894 163.408 218.571 164.023 216.695 165.401C217.379 166.371 218.257 167.185 219.273 167.791C220.289 168.397 221.42 168.781 222.593 168.919C223.766 169.057 224.955 168.945 226.082 168.591C227.209 168.236 228.25 167.648 229.137 166.863Z" fill="#844239"/>
<path d="M239.431 158.94L239.711 155.645L244.577 150.428L239.431 158.94Z" fill="#3A1414"/>
<path d="M319.526 128.125L315.037 129.643" stroke="#6D3E3B" stroke-width="0.33" stroke-miterlimit="10" stroke-linecap="round"/>
<path d="M319.136 125.461L314.647 126.987" stroke="#6D3E3B" stroke-width="0.33" stroke-miterlimit="10" stroke-linecap="round"/>
<path d="M314.647 126.986L315.042 133.608" stroke="#6D3E3B" stroke-width="0.33" stroke-miterlimit="10" stroke-linecap="round"/>
<defs>
<linearGradient id="paint0_linear_694_2101" x1="0.00180525" y1="209.003" x2="653.277" y2="209.003" gradientUnits="userSpaceOnUse">
<stop offset="0.9999" stop-color="#A9D0FF"/>
<stop offset="1" stop-color="#84B9FB"/>
</linearGradient>
<linearGradient id="paint1_linear_694_2101" x1="159.376" y1="193.022" x2="159.376" y2="296.366" gradientUnits="userSpaceOnUse">
<stop stop-color="#B6DDFE"/>
<stop offset="1" stop-color="#99D4FE"/>
</linearGradient>
<linearGradient id="paint2_linear_694_2101" x1="524.066" y1="101.105" x2="524.066" y2="174.736" gradientUnits="userSpaceOnUse">
<stop stop-color="#B0DBFE"/>
<stop offset="1" stop-color="#9CD5FE"/>
</linearGradient>
</defs>
</svg>
