<svg width="654" height="434" viewBox="0 0 654 434" fill="none" xmlns="http://www.w3.org/2000/svg">
<path opacity="0.5" d="M618.319 258.51C613.213 231.861 633.864 208.29 644.661 183.51C663.973 139.105 649.444 83.3285 614.839 50.2286C580.234 17.1288 529.055 5.82418 482.707 15.1429C410.896 29.5559 347.73 88.6693 274.938 80.9171C243.011 77.5127 213.954 61.3483 184.263 48.7177C154.572 36.0871 121.079 26.8115 90.7602 37.6104C60.8243 48.2551 39.3424 77.7286 32.6282 109.657C25.914 141.585 32.6282 175.344 46.0805 204.898C53.1714 220.452 61.8167 239.971 51.2044 253.225C43.5515 262.778 29.6806 263.327 19.1998 269.371C2.38735 279.053 -3.38818 302.489 1.89111 321.534C7.1704 340.578 21.0891 355.83 36.0481 368.282C85.2477 409.263 151.296 427.944 213.882 418.588L210.384 411.848C275.679 406.821 340.722 420.901 405.927 427.235C471.132 433.569 540.451 431.176 596.783 396.75C611.909 387.499 626.079 375.781 635.352 360.406C644.625 345.031 648.583 325.518 642.927 308.348C637.08 290.605 621.846 276.895 618.319 258.51Z" fill="url(#paint0_linear_694_1901)"/>
<g clip-path="url(#clip0_694_1901)">
<path d="M175.697 364.08H263.937V241.97H175.697V364.08Z" fill="#EBEBEB"/>
<path d="M171.427 241.97H268.217V237.44H171.427V241.97Z" fill="#DBDBDB"/>
<path d="M140.997 241.97H171.437V237.44H140.997V241.97Z" fill="#EBEBEB"/>
<path d="M145.807 364.08H175.707L175.707 241.97H145.807V364.08Z" fill="#DBDBDB"/>
<path d="M254.457 298.5H185.187V259.34H254.457V298.5ZM185.457 298.25H254.227V259.59H185.437L185.457 298.25Z" fill="#C7C7C7"/>
<path d="M216.007 278.54H229.487V270.79H216.007V278.54Z" fill="#C7C7C7"/>
<path d="M225.626 278.08H211.896V271.25H225.626V278.08ZM212.146 277.83H225.376V271.5H212.146V277.83Z" fill="#C7C7C7"/>
<path d="M254.457 347.67H185.187V308.5H254.457V347.67ZM185.457 347.42H254.227V308.75H185.437L185.457 347.42Z" fill="#C7C7C7"/>
<path d="M216.007 327.7H229.487V319.95H216.007V327.7Z" fill="#C7C7C7"/>
<path d="M225.626 327.24H211.896V320.42H225.626V327.24ZM212.146 326.99H225.376V320.67H212.146V326.99Z" fill="#C7C7C7"/>
<path d="M234.184 80.8081C254.712 76.0236 267.474 55.504 262.69 34.9763C257.905 14.4486 237.386 1.68618 216.858 6.47068C196.33 11.2552 183.568 31.7748 188.353 52.3025C193.137 72.8302 213.657 85.5926 234.184 80.8081Z" fill="#EBEBEB"/>
<path d="M253.016 70.25C267.237 56.0287 267.237 32.9713 253.016 18.75C238.794 4.52867 215.737 4.52867 201.516 18.75C187.294 32.9713 187.294 56.0287 201.516 70.25C215.737 84.4713 238.794 84.4713 253.016 70.25Z" fill="#DBDBDB"/>
<path d="M244.413 73.327C260.433 63.5268 265.475 42.5957 255.674 26.5761C245.874 10.5565 224.943 5.51473 208.924 15.3149C192.904 25.1152 187.862 46.0463 197.662 62.0658C207.463 78.0854 228.394 83.1272 244.413 73.327Z" fill="white"/>
<path opacity="0.5" d="M260.618 37.2869C245.081 46.6959 219.538 62.1381 205.262 70.6117C201.233 67.2041 198.046 62.9124 195.948 58.0708L243.142 14.2388C247.564 16.5678 251.421 19.8389 254.441 23.8214C257.46 27.8038 259.569 32.4004 260.618 37.2869Z" fill="#EBEBEB"/>
<path opacity="0.5" d="M261.364 45.6929C261.234 49.4845 260.474 53.2279 259.114 56.7695L216.556 76.9027C214.687 76.2876 212.873 75.5166 211.133 74.5979C224.026 67.114 247.522 53.6512 261.364 45.6929Z" fill="#EBEBEB"/>
<path d="M227.605 12.8428H226.941V18.0083H227.605V12.8428Z" fill="#C7C7C7"/>
<path d="M211.74 16.9122L211.165 17.2444L213.747 21.7178L214.323 21.3857L211.74 16.9122Z" fill="#C7C7C7"/>
<path d="M200.031 28.3685L199.698 28.9438L204.172 31.5266L204.504 30.9513L200.031 28.3685Z" fill="#C7C7C7"/>
<path d="M200.788 44.1609H195.623V44.8252H200.788V44.1609Z" fill="#C7C7C7"/>
<path d="M204.169 57.4355L199.696 60.019L200.029 60.5943L204.502 58.0108L204.169 57.4355Z" fill="#C7C7C7"/>
<path d="M213.743 67.2479L211.163 71.7231L211.739 72.0549L214.318 67.5797L213.743 67.2479Z" fill="#C7C7C7"/>
<path d="M227.605 70.9644H226.941V76.1298H227.605V70.9644Z" fill="#C7C7C7"/>
<path d="M240.793 67.2543L240.217 67.5864L242.8 72.0599L243.375 71.7277L240.793 67.2543Z" fill="#C7C7C7"/>
<path d="M250.367 57.4589L250.035 58.0342L254.508 60.6177L254.84 60.0424L250.367 57.4589Z" fill="#C7C7C7"/>
<path d="M258.91 44.1609H253.745V44.8252H258.91V44.1609Z" fill="#C7C7C7"/>
<path d="M254.503 28.4048L250.03 30.9883L250.362 31.5635L254.835 28.98L254.503 28.4048Z" fill="#C7C7C7"/>
<path d="M242.79 16.9214L240.209 21.3962L240.785 21.7281L243.365 17.2533L242.79 16.9214Z" fill="#C7C7C7"/>
<path d="M227.768 15.1881L228.88 46.7911L225.653 46.7505L226.887 15.1746L227.768 15.1881Z" fill="#C7C7C7"/>
<path d="M247.454 33.4774L226.182 47.0351L224.636 44.2015L247.034 32.7046L247.454 33.4774Z" fill="#A6A6A6"/>
<path d="M228.365 44.4995C228.365 44.7908 228.249 45.0701 228.043 45.2761C227.837 45.482 227.558 45.5977 227.266 45.5977C226.975 45.5977 226.696 45.482 226.49 45.2761C226.284 45.0701 226.168 44.7908 226.168 44.4995C226.168 44.2083 226.284 43.929 226.49 43.723C226.696 43.5171 226.975 43.4014 227.266 43.4014C227.558 43.4014 227.837 43.5171 228.043 43.723C228.249 43.929 228.365 44.2083 228.365 44.4995Z" fill="#C7C7C7"/>
<path d="M518.517 76.5601L526.187 81.3201L527.637 78.9701C527.848 78.6376 528.146 78.3688 528.498 78.1927C528.85 78.0165 529.244 77.9396 529.637 77.9701C530.085 78.0117 530.536 78.0284 530.987 78.0201C531.384 78.0075 531.776 78.1055 532.121 78.3033C532.465 78.5011 532.747 78.7909 532.937 79.1401L534.237 81.5701L542.187 77.3001L540.887 74.8701C540.701 74.5201 540.616 74.1256 540.641 73.7304C540.666 73.3351 540.799 72.9544 541.027 72.6301C541.288 72.2625 541.525 71.8784 541.737 71.4801C541.927 71.1312 542.21 70.8414 542.553 70.6421C542.897 70.4428 543.289 70.3418 543.687 70.3501L546.447 70.4401L546.727 61.4401L544.027 61.3401C543.628 61.325 543.243 61.199 542.912 60.9764C542.582 60.7538 542.32 60.4434 542.157 60.0801C542.067 59.8801 541.967 59.6901 541.857 59.4901C541.747 59.2901 541.647 59.1001 541.537 58.9101C541.329 58.5736 541.218 58.1857 541.218 57.7901C541.218 57.3945 541.329 57.0066 541.537 56.6701L542.997 54.3101L535.337 49.5501L533.807 51.9001C533.597 52.2342 533.3 52.5042 532.947 52.6806C532.594 52.8569 532.2 52.9329 531.807 52.9001C531.36 52.8753 530.913 52.8753 530.467 52.9001C530.069 52.9139 529.676 52.8163 529.332 52.6184C528.987 52.4205 528.705 52.1301 528.517 51.7801L527.217 49.3501L519.217 53.6201L520.527 56.0501C520.713 56.4004 520.797 56.7957 520.771 57.1915C520.744 57.5872 520.608 57.9677 520.377 58.2901C520.127 58.6601 519.887 59.0401 519.677 59.4301C519.489 59.7812 519.207 60.073 518.862 60.2726C518.518 60.4722 518.125 60.5718 517.727 60.5601L515.027 60.4301L514.747 69.4301L517.507 69.5101C517.903 69.5271 518.287 69.6539 518.615 69.8764C518.944 70.0989 519.204 70.4083 519.367 70.7701C519.467 70.9701 519.567 71.1701 519.677 71.3601C519.787 71.5501 519.887 71.7501 519.997 71.9401C520.204 72.2785 520.314 72.6679 520.314 73.0651C520.314 73.4623 520.204 73.8517 519.997 74.1901L518.517 76.5601ZM524.217 68.9301C523.522 67.6433 523.225 66.1795 523.363 64.7237C523.5 63.268 524.067 61.8858 524.99 60.7521C525.914 59.6185 527.153 58.7843 528.551 58.3552C529.949 57.9261 531.443 57.9213 532.843 58.3415C534.244 58.7617 535.488 59.5879 536.419 60.7156C537.35 61.8433 537.925 63.2219 538.072 64.6767C538.219 66.1315 537.931 67.5973 537.245 68.8885C536.559 70.1796 535.505 71.2382 534.217 71.9301C533.361 72.3889 532.424 72.6745 531.458 72.7705C530.492 72.8665 529.517 72.771 528.588 72.4896C527.659 72.2081 526.795 71.7462 526.045 71.1303C525.295 70.5143 524.673 69.7565 524.217 68.9001V68.9301Z" fill="#EBEBEB"/>
<path d="M545.547 36.96L548.707 42.44L550.377 41.44C550.619 41.3004 550.895 41.2311 551.174 41.24C551.453 41.2488 551.724 41.3354 551.957 41.49C552.217 41.6621 552.488 41.819 552.767 41.96C553.017 42.0839 553.228 42.2747 553.376 42.5112C553.524 42.7478 553.604 43.0208 553.607 43.3V45.23H559.927V43.33C559.927 43.0516 560.005 42.7788 560.151 42.5422C560.298 42.3055 560.508 42.1143 560.757 41.99C561.037 41.85 561.307 41.69 561.577 41.52C561.807 41.3652 562.077 41.2784 562.354 41.2695C562.632 41.2607 562.907 41.3302 563.147 41.47L564.827 42.47L568.027 36.96L566.337 35.96C566.098 35.8192 565.903 35.6145 565.774 35.3689C565.645 35.1234 565.587 34.8467 565.607 34.57C565.607 34.41 565.607 34.26 565.607 34.1C565.607 33.94 565.607 33.79 565.607 33.64C565.587 33.3633 565.645 33.0866 565.774 32.841C565.903 32.5955 566.098 32.3908 566.337 32.25L568.027 31.25L564.867 25.78L563.187 26.78C562.943 26.9159 562.667 26.9822 562.388 26.9716C562.11 26.961 561.839 26.874 561.607 26.72C561.346 26.5479 561.075 26.391 560.797 26.25C560.539 26.1306 560.32 25.9403 560.166 25.7012C560.012 25.4622 559.929 25.1843 559.927 24.9V23H553.607V24.9C553.603 25.1764 553.524 25.4466 553.378 25.6812C553.231 25.9157 553.023 26.1055 552.777 26.23C552.495 26.3709 552.221 26.5278 551.957 26.7C551.726 26.8531 551.457 26.9397 551.18 26.9503C550.903 26.9609 550.629 26.895 550.387 26.76L548.707 25.76L545.547 31.23L547.227 32.23C547.464 32.3725 547.658 32.5775 547.786 32.8227C547.915 33.0678 547.974 33.3437 547.957 33.62C547.957 33.78 547.957 33.93 547.957 34.09C547.957 34.25 547.957 34.4 547.957 34.56C547.977 34.8379 547.918 35.1157 547.787 35.3616C547.656 35.6075 547.458 35.8114 547.217 35.95L545.547 36.96ZM551.547 34.13C551.547 33.1051 551.851 32.1032 552.42 31.2511C552.99 30.3991 553.8 29.7351 554.747 29.3434C555.694 28.9516 556.736 28.8496 557.741 29.0503C558.746 29.251 559.669 29.7453 560.393 30.4707C561.117 31.1962 561.61 32.1201 561.808 33.1256C562.007 34.1311 561.903 35.1729 561.509 36.1192C561.116 37.0656 560.45 37.8739 559.597 38.4419C558.744 39.0099 557.742 39.312 556.717 39.31C555.351 39.2994 554.044 38.7487 553.083 37.7781C552.122 36.8075 551.584 35.496 551.587 34.13H551.547Z" fill="#EBEBEB"/>
<path d="M161.106 157.68L164.266 163.15L165.946 162.15C166.187 162.012 166.462 161.944 166.74 161.954C167.018 161.965 167.287 162.054 167.516 162.21C167.786 162.38 168.056 162.53 168.336 162.68C168.584 162.804 168.793 162.993 168.939 163.228C169.086 163.463 169.164 163.733 169.166 164.01V165.95H175.496V164.01C175.499 163.733 175.577 163.463 175.724 163.228C175.87 162.993 176.079 162.804 176.326 162.68C176.606 162.53 176.876 162.38 177.146 162.21C177.376 162.054 177.645 161.965 177.923 161.954C178.2 161.944 178.476 162.012 178.716 162.15L180.396 163.15L183.546 157.68L181.866 156.68C181.628 156.536 181.434 156.329 181.305 156.082C181.177 155.835 181.118 155.558 181.136 155.28C181.136 155.13 181.136 154.97 181.136 154.82C181.136 154.67 181.136 154.51 181.136 154.35C181.119 154.074 181.178 153.798 181.307 153.553C181.435 153.307 181.629 153.102 181.866 152.96L183.546 151.96L180.396 146.48L178.716 147.48C178.475 147.62 178.198 147.689 177.919 147.68C177.64 147.671 177.369 147.585 177.136 147.43C176.876 147.258 176.605 147.101 176.326 146.96C176.077 146.836 175.868 146.644 175.721 146.408C175.575 146.171 175.497 145.898 175.496 145.62V143.69H169.166V145.62C169.166 145.898 169.088 146.171 168.942 146.408C168.795 146.644 168.586 146.836 168.336 146.96C168.058 147.101 167.787 147.258 167.526 147.43C167.294 147.585 167.023 147.671 166.744 147.68C166.464 147.689 166.188 147.62 165.946 147.48L164.266 146.48L161.106 151.96L162.796 152.96C163.035 153.101 163.23 153.305 163.359 153.551C163.488 153.797 163.546 154.073 163.526 154.35C163.526 154.5 163.526 154.66 163.526 154.82C163.526 154.98 163.526 155.13 163.526 155.28C163.545 155.559 163.485 155.838 163.355 156.085C163.224 156.332 163.027 156.538 162.786 156.68L161.106 157.68ZM167.156 154.9C167.156 153.875 167.46 152.873 168.03 152.021C168.6 151.169 169.409 150.505 170.356 150.113C171.304 149.722 172.346 149.62 173.351 149.82C174.356 150.021 175.279 150.515 176.003 151.241C176.727 151.966 177.219 152.89 177.418 153.896C177.617 154.901 177.513 155.943 177.119 156.889C176.726 157.836 176.06 158.644 175.207 159.212C174.354 159.78 173.351 160.082 172.326 160.08C171.647 160.08 170.974 159.946 170.346 159.685C169.718 159.425 169.147 159.043 168.667 158.562C168.187 158.081 167.806 157.51 167.547 156.881C167.288 156.253 167.155 155.58 167.156 154.9Z" fill="#EBEBEB"/>
<path d="M138.457 364.08L193.597 363.84L248.737 363.75L359.027 363.58L469.317 363.75L524.457 363.84L579.597 364.08L524.457 364.32L469.317 364.41L359.027 364.58L248.737 364.41L193.597 364.32L138.457 364.08Z" fill="#263238"/>
<path d="M285.646 433.36C354.815 433.36 410.886 426.599 410.886 418.26C410.886 409.92 354.815 403.16 285.646 403.16C216.478 403.16 160.406 409.92 160.406 418.26C160.406 426.599 216.478 433.36 285.646 433.36Z" fill="#EBEBEB"/>
<path d="M367.227 404.93C440.636 404.93 500.147 398.169 500.147 389.83C500.147 381.49 440.636 374.73 367.227 374.73C293.817 374.73 234.307 381.49 234.307 389.83C234.307 398.169 293.817 404.93 367.227 404.93Z" fill="#EBEBEB"/>
<path d="M521.769 229.974C521.769 229.974 494.469 226.82 500.846 199.704C500.846 199.704 531.369 205.337 521.769 229.974Z" fill="#FFC727"/>
<path opacity="0.1" d="M521.769 229.974C521.769 229.974 494.469 226.82 500.846 199.704C500.846 199.704 531.369 205.337 521.769 229.974Z" fill="black"/>
<path d="M520.393 224.306C519.858 222.936 519.236 221.59 518.532 220.272C518.532 220.089 518.532 219.918 518.462 219.758C518.462 219.381 518.393 219.004 518.351 218.615C518.282 217.804 518.212 216.993 518.157 216.181C518.045 214.559 517.906 212.948 517.879 211.325C517.879 211.307 517.87 211.289 517.854 211.276C517.839 211.264 517.817 211.256 517.795 211.256C517.773 211.256 517.752 211.264 517.736 211.276C517.721 211.289 517.712 211.307 517.712 211.325C517.712 212.948 517.712 214.57 517.712 216.193C517.712 217.008 517.768 217.819 517.879 218.627V219.164C516.349 216.462 514.516 213.884 512.405 211.462C511.476 210.38 510.479 209.338 509.418 208.342C508.334 207.314 507.181 206.343 506.083 205.326C506.083 205.268 505.889 205.326 505.972 205.428C507.927 207.2 509.684 209.112 511.224 211.142C512.057 212.17 512.835 213.233 513.586 214.307L513.336 214.227L512.363 213.907L510.126 213.21L505.736 211.862C505.653 211.862 505.583 211.965 505.736 211.988C507.125 212.468 508.626 212.97 510.057 213.485L512.169 214.227L513.238 214.593C513.469 214.684 513.711 214.753 513.961 214.799C514.517 215.61 515.058 216.433 515.559 217.267C516.829 219.365 517.943 221.525 518.893 223.735L519.101 224.203C518.382 223.863 517.635 223.565 516.864 223.312L514.086 222.249C512.169 221.529 510.265 220.798 508.431 219.964C508.334 219.964 508.265 220.044 508.348 220.089C510.224 220.935 512.071 221.826 513.905 222.661C514.85 223.083 515.795 223.495 516.753 223.872C517.55 224.264 518.418 224.55 519.324 224.717C520.233 226.775 520.83 228.916 521.102 231.094C521.408 234.156 521.38 237.253 521.463 240.327C521.463 240.384 521.56 240.327 521.56 240.327C521.838 237.539 521.991 234.716 522.005 231.928C521.965 229.333 521.421 226.76 520.393 224.306Z" fill="#263238"/>
<path d="M516.184 208.365C515.922 209.948 515.834 211.546 515.92 213.142H516.003C516.114 211.553 516.128 209.977 516.351 208.4C516.364 208.308 516.198 208.274 516.184 208.365Z" fill="#263238"/>
<path d="M508.376 209.725C507.156 209.342 505.984 208.863 504.875 208.297C504.778 208.297 504.694 208.377 504.792 208.423C505.883 209.028 507.077 209.497 508.334 209.817C508.334 209.817 508.446 209.748 508.376 209.725Z" fill="#263238"/>
<path d="M522.644 273.02C522.644 270.541 522.644 268.061 522.533 265.57C522.533 257.331 522.394 249.092 522.213 240.841C522.074 234.297 521.889 227.753 521.657 221.21C521.657 221.21 521.657 221.152 521.588 221.13C521.588 219.347 521.588 217.553 521.588 215.77C521.588 215.77 521.519 215.702 521.449 215.702C521.38 215.702 521.324 215.702 521.324 215.77V221.141C521.324 221.141 521.324 221.141 521.324 221.221C520.921 232.865 520.574 244.521 520.49 256.165C520.49 258.531 520.49 260.907 520.49 263.273C520.389 270.891 520.352 278.486 520.379 286.059C520.379 287.27 520.379 288.47 520.379 289.681C520.379 296.629 520.463 303.588 520.463 310.536C520.463 310.901 520.977 311.096 521.505 311.107C522.033 311.118 522.769 310.924 522.769 310.501C522.769 302.834 522.769 295.177 522.769 287.51C522.672 282.676 522.686 277.808 522.644 273.02Z" fill="#263238"/>
<path d="M511.238 265.478C511.238 265.478 498.109 257.479 485.633 262.884C473.157 268.289 471.212 289.167 471.212 289.167C471.212 289.167 489.523 291.315 501.054 282.31C512.169 273.58 511.238 265.478 511.238 265.478Z" fill="#FFC727"/>
<path d="M514.822 265.969C512.405 265.186 509.789 264.908 507.209 265.158C506.678 265.076 506.138 265.034 505.597 265.032L503.749 264.918C502.471 264.827 501.193 264.77 499.915 264.69C497.331 264.53 494.733 264.404 492.149 264.187C492.052 264.187 492.038 264.312 492.149 264.324C494.719 264.587 497.261 264.895 499.832 265.101C501.221 265.215 502.471 265.33 503.791 265.398L504.75 265.478C504.361 265.558 503.972 265.627 503.583 265.718C501.522 266.21 499.53 266.876 497.637 267.706C496.595 267.866 495.58 268.095 494.552 268.301C492.927 268.609 491.315 268.952 489.704 269.306C486.508 269.992 483.355 270.769 480.187 271.523C480.09 271.523 480.187 271.672 480.187 271.649C483.341 271.02 486.522 270.426 489.69 269.809C491.232 269.512 492.774 269.215 494.316 268.895L495.525 268.666C491.992 270.463 488.839 272.721 486.189 275.351C483.621 277.931 481.438 280.755 479.687 283.761C479.687 283.841 479.784 283.921 479.84 283.841C481.992 280.744 484.631 277.893 487.689 275.363C487.689 275.5 487.564 275.648 487.509 275.797C487.272 276.425 487.022 277.065 486.786 277.705C486.3 278.974 485.8 280.242 485.397 281.522C485.397 281.613 485.522 281.636 485.563 281.522C486.119 280.288 486.633 279.054 487.175 277.808C487.425 277.202 487.689 276.597 487.953 275.98C488.078 275.671 488.217 275.351 488.342 275.031L488.467 274.745C489.931 273.57 491.491 272.479 493.135 271.477C495.295 270.171 497.625 269.067 500.082 268.186L499.957 268.746C499.832 269.238 499.693 269.729 499.568 270.22C499.318 271.249 499.068 272.266 498.831 273.294C498.331 275.385 498.026 277.499 497.553 279.591C497.553 279.682 497.692 279.716 497.706 279.591C498.303 277.488 499.095 275.42 499.623 273.317C499.915 272.266 500.207 271.203 500.471 270.152C500.596 269.66 500.707 269.158 500.832 268.666C500.912 268.395 500.973 268.12 501.013 267.843C501.263 267.763 501.485 267.672 501.735 267.604C505.176 266.385 508.956 265.958 512.669 266.369C514.406 266.637 516.035 267.252 517.414 268.161C518.793 269.07 519.878 270.244 520.574 271.58C520.685 271.809 521.144 271.672 521.074 271.432C520.62 270.184 519.819 269.041 518.733 268.093C517.648 267.144 516.309 266.417 514.822 265.969Z" fill="#263238"/>
<path d="M494.719 274.883C494.344 276.243 493.969 277.614 493.608 278.985C493.185 280.298 492.878 281.635 492.691 282.985C492.691 282.985 492.774 282.985 492.788 282.985C493.276 281.667 493.652 280.323 493.913 278.962L494.872 274.906C494.9 274.826 494.733 274.792 494.719 274.883Z" fill="#263238"/>
<path d="M482.007 278.357C480.34 279.054 478.714 279.854 476.964 280.425C476.95 280.426 476.937 280.43 476.926 280.436C476.915 280.442 476.905 280.45 476.899 280.46C476.892 280.47 476.889 280.481 476.888 280.492C476.888 280.503 476.891 280.514 476.897 280.524C476.903 280.534 476.912 280.543 476.923 280.549C476.934 280.556 476.947 280.56 476.96 280.561C476.974 280.563 476.987 280.562 477 280.558C477.013 280.554 477.024 280.548 477.033 280.539C478.75 279.904 480.424 279.195 482.049 278.414C482.049 278.414 482.049 278.345 482.007 278.357Z" fill="#263238"/>
<path d="M514.197 250.783C514.197 250.783 498.137 251.617 490.676 242.91C483.216 234.202 484.883 221.77 484.883 221.77C484.883 221.77 501.749 223.461 508.501 229.769C515.253 236.076 514.197 250.783 514.197 250.783Z" fill="#FFC727"/>
<path d="M521.727 263.81C521.172 262.393 520.491 260.999 519.838 259.616C519.185 258.233 518.546 256.965 517.837 255.651C516.402 252.993 514.798 250.399 513.03 247.88C511.891 246.269 510.682 244.715 509.432 243.172C509.432 242.944 509.349 242.715 509.307 242.475C509.265 242.235 509.154 241.653 509.085 241.253C508.918 240.418 508.737 239.584 508.571 238.75C508.209 236.922 507.751 235.105 507.39 233.288C507.39 233.197 507.209 233.197 507.223 233.288C507.556 235.093 507.765 236.899 508.084 238.704C508.223 239.596 508.376 240.476 508.529 241.367C508.598 241.687 508.654 242.007 508.723 242.315C506.266 239.375 503.613 236.548 500.777 233.848L499.61 232.774C499.61 232.671 499.498 232.568 499.457 232.465C499.415 232.362 499.221 231.962 499.109 231.711C498.873 231.185 498.637 230.66 498.415 230.134C497.956 229.106 497.553 228.054 497.22 226.992C497.22 226.912 497.025 226.992 497.053 226.992C497.373 228.134 497.72 229.151 498.109 230.225C498.29 230.74 498.498 231.254 498.72 231.757L498.832 232.019C496.775 230.18 494.664 228.397 492.482 226.649C492.466 226.635 492.443 226.627 492.42 226.627C492.396 226.627 492.374 226.635 492.357 226.649C492.341 226.662 492.331 226.681 492.331 226.7C492.331 226.719 492.341 226.738 492.357 226.752C496.509 230.309 500.314 234.13 503.736 238.179C503.347 238.076 502.944 237.996 502.555 237.927C501.318 237.733 500.068 237.585 498.818 237.459C496.206 237.185 493.594 236.91 490.996 236.579C490.885 236.579 490.843 236.693 490.996 236.705C493.483 237.116 495.942 237.573 498.415 238.042C499.582 238.259 500.749 238.442 501.93 238.636C502.872 238.807 503.8 239.029 504.708 239.299C504.958 239.607 505.236 239.904 505.486 240.213C506.667 241.618 507.793 243.058 508.904 244.509L507.265 244.247C506.028 244.052 504.778 243.869 503.527 243.698C501.082 243.367 498.637 243.012 496.22 242.555C496.207 242.551 496.193 242.549 496.179 242.55C496.165 242.551 496.152 242.555 496.141 242.561C496.129 242.567 496.12 242.576 496.113 242.586C496.106 242.596 496.103 242.607 496.103 242.618C496.103 242.63 496.106 242.641 496.113 242.651C496.12 242.661 496.129 242.669 496.141 242.676C496.152 242.682 496.165 242.686 496.179 242.687C496.193 242.687 496.207 242.686 496.22 242.681C498.665 243.161 501.11 243.709 503.541 244.247C504.722 244.498 505.903 244.738 507.084 244.955L508.876 245.275C509.126 245.275 509.376 245.366 509.599 245.378C511.947 248.497 514.142 251.708 516.184 254.965C517.11 256.405 517.971 257.856 518.768 259.319C519.629 260.816 520.366 262.347 521.158 263.89C521.269 264.267 521.866 264.095 521.727 263.81Z" fill="#263238"/>
<path d="M505.292 233.459C504.986 232.202 504.666 230.945 504.333 229.688C504.333 229.597 504.152 229.688 504.166 229.688C504.472 230.922 504.764 232.157 505.042 233.402C505.266 234.648 505.568 235.884 505.945 237.105C505.836 235.878 505.617 234.66 505.292 233.459Z" fill="#263238"/>
<path d="M495.928 233.094C495.192 232.785 494.4 232.545 493.622 232.294L492.413 231.905L491.788 231.7C491.549 231.639 491.32 231.555 491.107 231.448C490.982 231.38 490.913 231.551 491.038 231.563C491.275 231.621 491.503 231.701 491.718 231.803L492.33 232.02L493.497 232.454C494.27 232.747 495.063 233.003 495.872 233.219C495.97 233.242 496.025 233.128 495.928 233.094Z" fill="#263238"/>
<path d="M530.633 240.396C530.633 240.396 540.358 225.472 555.126 223.152C569.894 220.832 578.953 233.357 578.953 233.357C578.953 233.357 568.172 244.681 554.612 246.658C541.052 248.635 530.633 240.396 530.633 240.396Z" fill="#FFC727"/>
<path d="M565.032 229.814C561.184 229.384 557.279 229.422 553.445 229.929L554.098 229.631L557.377 228.249C559.655 227.277 561.947 226.238 564.323 225.461C564.336 225.465 564.35 225.467 564.364 225.466C564.377 225.465 564.391 225.461 564.402 225.455C564.414 225.449 564.423 225.44 564.43 225.43C564.436 225.42 564.44 225.409 564.44 225.398C564.44 225.386 564.436 225.375 564.43 225.365C564.423 225.355 564.414 225.347 564.402 225.34C564.391 225.334 564.377 225.33 564.364 225.329C564.35 225.328 564.336 225.33 564.323 225.335C562.017 226.215 559.613 226.957 557.293 227.837C556.126 228.272 554.987 228.729 553.862 229.231C553.139 229.54 552.333 229.849 551.611 230.226C548.364 230.762 545.21 231.625 542.219 232.797C542.831 232.237 543.456 231.654 544.067 231.14C545.456 229.894 546.846 228.592 548.304 227.46C548.388 227.403 548.305 227.312 548.193 227.369C546.637 228.512 545.012 229.597 543.511 230.797C542.775 231.38 542.122 231.94 541.4 232.602C541.066 232.907 540.733 233.227 540.399 233.562C535.326 235.803 530.918 238.939 527.493 242.746C524.068 246.553 521.71 250.937 520.588 255.582C520.588 255.662 520.713 255.708 520.741 255.582C522.823 249.892 526.557 244.704 531.619 240.464C537.052 235.898 543.897 232.639 551.417 231.037C555.879 230.106 560.494 229.762 565.087 230.02C565.157 230.1 565.157 229.871 565.032 229.814Z" fill="#263238"/>
<path opacity="0.1" d="M578.966 233.357C578.966 233.357 568.171 244.681 554.612 246.658C544.261 248.166 535.745 243.721 532.286 241.539L531.549 240.533C531.549 240.533 538.496 235.676 551.778 232.877C565.059 230.077 578.966 233.357 578.966 233.357Z" fill="black"/>
<path d="M556.446 224.523C555.313 225.065 554.218 225.661 553.167 226.306C552.137 226.946 551.183 227.665 550.319 228.454C550.236 228.523 550.319 228.614 550.444 228.546C551.417 227.849 552.403 227.152 553.431 226.489C554.418 225.816 555.457 225.197 556.543 224.638C556.627 224.592 556.543 224.478 556.446 224.523Z" fill="#263238"/>
<path d="M564.56 227.048C564.018 227.243 563.448 227.403 562.906 227.586L561.267 228.145C561.142 228.145 561.198 228.351 561.267 228.305L562.92 227.757L564.56 227.186C564.712 227.151 564.657 227.014 564.56 227.048Z" fill="#263238"/>
<path d="M528.688 259.182C528.688 259.182 531.285 274.037 544.831 279.168C558.377 284.299 574.868 279.168 574.868 279.168C574.868 279.168 568.38 247.126 528.688 259.182Z" fill="#FFC727"/>
<path d="M565.546 269.535C564.295 269.421 563.045 269.249 561.809 269.066L559.989 268.781L559.044 268.621L557.946 267.787C555.367 265.924 552.576 264.271 549.61 262.85C548.005 262.075 546.35 261.373 544.651 260.747H544.901L549.36 260.907C552.334 261.022 555.307 261.079 558.28 261.239C558.377 261.239 558.377 261.102 558.28 261.102C555.307 260.93 552.334 260.667 549.36 260.45L545.026 260.13L542.803 259.97H542.233C541.455 259.73 540.677 259.513 539.899 259.308C536.206 258.266 532.233 258.088 528.424 258.793C525.02 259.502 521.616 261.342 520.741 264.29C520.741 264.393 520.907 264.473 520.949 264.37C522.227 261.902 525.548 260.656 528.563 260.142C530.583 259.822 532.655 259.787 534.689 260.039C534.824 260.817 535.052 261.583 535.37 262.324C535.745 263.364 536.12 264.416 536.509 265.455C537.273 267.535 538.121 269.592 538.857 271.672C538.857 271.69 538.866 271.707 538.882 271.72C538.897 271.733 538.919 271.74 538.941 271.74C538.963 271.74 538.984 271.733 539 271.72C539.015 271.707 539.024 271.69 539.024 271.672C538.399 269.592 537.871 267.489 537.26 265.41C536.954 264.393 536.648 263.376 536.329 262.347C536.157 261.635 535.93 260.933 535.648 260.245C536.836 260.414 538.009 260.643 539.163 260.93C541.255 261.436 543.306 262.051 545.304 262.77C545.498 263.833 545.79 264.873 546.082 265.912C546.457 267.227 546.86 268.518 547.374 269.798C547.374 269.878 547.54 269.798 547.527 269.798C547.513 269.798 547.527 269.638 547.527 269.558C547.221 268.346 546.901 267.147 546.582 265.935C546.332 264.953 546.109 263.981 545.845 262.999C547.527 263.627 549.18 264.301 550.777 265.055C550.777 265.364 550.903 265.673 550.958 265.947C551.055 266.45 551.167 266.964 551.278 267.467C551.542 268.609 551.819 269.752 552.153 270.895C552.759 273.081 553.534 275.234 554.473 277.34C554.473 277.34 554.473 277.397 554.473 277.42L554.556 277.5C554.556 277.557 554.709 277.5 554.695 277.431C554.07 275.237 553.306 273.054 552.764 270.849C552.472 269.706 552.181 268.655 551.903 267.547L551.528 265.89C551.528 265.741 551.458 265.57 551.43 265.398C556.399 267.811 560.896 270.827 564.768 274.346C564.865 274.437 565.06 274.346 564.962 274.22C563.958 273.093 562.882 272.009 561.739 270.975C561.058 270.38 560.35 269.832 559.627 269.226H559.864C560.489 269.318 561.128 269.398 561.767 269.466C563.017 269.603 564.268 269.706 565.532 269.821C565.601 269.683 565.643 269.546 565.546 269.535Z" fill="#263238"/>
<path d="M556.029 274.563L555.946 274.174C555.946 274.014 555.807 273.854 555.779 273.694C555.501 272.712 555.265 271.706 555.043 270.712C555.043 270.643 554.904 270.712 554.904 270.712C554.987 272.041 555.334 273.349 555.932 274.586H556.029V274.563Z" fill="#263238"/>
<path d="M544.692 274.38C544.692 274.38 544.692 274.323 544.609 274.312C544.234 273.009 543.873 271.695 543.539 270.369C543.372 269.684 543.192 268.987 543.025 268.289L542.775 267.147C542.742 266.812 542.644 266.484 542.483 266.175C542.477 266.163 542.466 266.153 542.452 266.146C542.439 266.138 542.423 266.134 542.407 266.134C542.391 266.134 542.375 266.138 542.361 266.146C542.348 266.153 542.337 266.163 542.33 266.175C542.323 266.849 542.44 267.519 542.678 268.164C542.844 268.884 543.011 269.604 543.206 270.324C543.595 271.786 544.058 273.237 544.595 274.677C544.595 274.757 544.789 274.746 544.776 274.677L544.692 274.38Z" fill="#263238"/>
<path d="M564.31 265.238C561.837 264.964 559.364 264.667 556.891 264.416C556.779 264.416 556.738 264.541 556.891 264.553C559.35 264.85 561.837 265.101 564.31 265.375C564.365 265.421 564.407 265.238 564.31 265.238Z" fill="#263238"/>
<path d="M521.755 224.455C521.755 224.455 513.419 194.561 552.514 182.46C552.514 182.46 563.337 221.815 521.755 224.455Z" fill="#FFC727"/>
<path d="M530.188 207.497L530.605 207.291L532.814 206.274L537.343 204.194C540.316 202.823 543.261 201.395 546.262 200.046C546.359 200.046 546.262 199.886 546.179 199.932C543.164 201.28 540.108 202.537 537.079 203.852L532.605 205.794L530.785 206.594C532.077 204.56 533.481 202.572 534.953 200.652C536.995 198.092 539.218 195.647 541.552 193.259C541.664 193.156 541.483 193.019 541.358 193.11C537.931 195.862 534.901 198.93 532.327 202.252C532.334 202.149 532.334 202.046 532.327 201.943C532.327 201.201 532.397 200.458 532.411 199.658C532.411 198.207 532.411 196.744 532.411 195.281C532.411 195.201 532.244 195.201 532.244 195.281C532.161 196.71 531.952 198.149 531.855 199.578C531.855 200.298 531.772 201.018 531.744 201.726C531.744 202.115 531.744 202.56 531.744 202.983C530.938 204.034 530.174 205.109 529.438 206.183C528.125 208.129 526.96 210.14 525.95 212.205C525.95 211.462 525.853 210.719 525.798 209.919C525.687 208.285 525.436 206.651 525.353 205.017C525.353 204.999 525.344 204.982 525.329 204.969C525.313 204.956 525.292 204.949 525.27 204.949C525.248 204.949 525.226 204.956 525.211 204.969C525.195 204.982 525.186 204.999 525.186 205.017C525.186 206.651 525.186 208.285 525.186 209.931C525.186 210.742 525.186 211.565 525.311 212.388C525.311 212.685 525.311 212.993 525.311 213.29C524.062 215.959 523.077 218.707 522.366 221.507C521.716 224.494 521.253 227.507 520.977 230.534C521.4 227.826 522.092 225.15 523.047 222.535C523.533 221.118 524.047 219.712 524.589 218.33C526.214 217.701 527.77 216.913 529.34 216.193C530.91 215.473 532.605 214.73 534.245 213.987C537.496 212.525 540.747 211.028 544.109 209.725C544.206 209.725 544.109 209.577 544.025 209.611C540.622 210.879 537.19 212.079 533.842 213.462C532.188 214.147 530.549 214.89 528.924 215.644C527.534 216.273 526.145 216.901 524.881 217.621C525.251 216.684 525.654 215.759 526.089 214.845C527.296 212.337 528.664 209.885 530.188 207.497Z" fill="#263238"/>
<path d="M526.895 200.663C526.895 200.572 526.715 200.583 526.729 200.663C526.867 202.366 526.937 204.092 527.159 205.771C527.153 205.784 527.151 205.797 527.153 205.81C527.155 205.823 527.16 205.835 527.169 205.846C527.178 205.857 527.19 205.866 527.204 205.872C527.218 205.878 527.234 205.881 527.25 205.881C527.265 205.881 527.281 205.878 527.295 205.872C527.309 205.866 527.321 205.857 527.33 205.846C527.339 205.835 527.345 205.823 527.346 205.81C527.348 205.797 527.346 205.784 527.34 205.771C527.27 204.069 527.048 202.389 526.895 200.663Z" fill="#263238"/>
<path d="M545.609 206.377C543.164 207.177 540.705 207.954 538.274 208.788C538.274 208.788 538.274 208.902 538.274 208.879C540.747 208.114 543.178 207.291 545.637 206.503C545.65 206.505 545.664 206.504 545.677 206.501C545.69 206.498 545.702 206.492 545.711 206.484C545.721 206.476 545.728 206.467 545.732 206.456C545.736 206.445 545.737 206.434 545.735 206.423C545.732 206.412 545.727 206.402 545.718 206.393C545.71 206.384 545.699 206.377 545.687 206.373C545.674 206.368 545.661 206.366 545.647 206.367C545.634 206.368 545.621 206.371 545.609 206.377Z" fill="#263238"/>
<path d="M549.319 192.584C546.93 193.489 544.611 194.512 542.372 195.647C542.247 195.704 542.372 195.853 542.484 195.795C544.748 194.71 547.054 193.659 549.43 192.699C549.513 192.664 549.416 192.55 549.319 192.584Z" fill="#263238"/>
<path d="M548.735 289.098H492.413V337.926H548.735V289.098Z" fill="#37474F"/>
<path d="M491.426 306.365H488.551V390H491.426V306.365Z" fill="#263238"/>
<path d="M552.306 306.365H549.43V390H552.306V306.365Z" fill="#263238"/>
<path d="M523.394 306.365H520.518V390H523.394V306.365Z" fill="#263238"/>
<path d="M550.861 334.784H489.981V341.549H550.861V334.784Z" fill="#263238"/>
<path d="M348.151 323.258C324.498 323.272 301.282 316.883 280.967 304.769C260.651 292.654 243.994 275.267 232.761 254.452L232.139 253.312L234.418 252.082L235.04 253.221C248.631 278.401 270.235 298.327 296.43 309.84C322.625 321.354 351.913 323.798 379.654 316.785C407.395 309.772 432.003 293.704 449.579 271.124C467.155 248.545 476.695 220.747 476.686 192.133C476.686 190.216 476.686 188.248 476.544 186.15C475.333 158.13 464.898 131.295 446.861 109.819L446.032 108.822L448.027 107.164L448.855 108.161C467.256 130.071 477.901 157.448 479.134 186.033C479.225 188.131 479.276 190.177 479.276 192.133C479.287 209.356 475.902 226.411 469.316 242.325C462.73 258.238 453.072 272.697 440.894 284.875C428.715 297.054 414.256 306.712 398.343 313.298C382.429 319.884 365.374 323.269 348.151 323.258Z" fill="#FFC727"/>
<path d="M221.235 225.313L220.924 224.018C219.219 217.214 218.063 210.285 217.466 203.297C217.155 199.632 217 195.863 217 192.12C217.001 168.401 223.436 145.126 235.619 124.774C247.802 104.423 265.278 87.7569 286.184 76.5523C307.09 65.3476 330.644 60.0235 354.337 61.1473C378.03 62.271 400.975 69.8003 420.727 82.9333L421.815 83.6456L420.377 85.7954L419.302 85.0831C399.939 72.2113 377.447 64.8323 354.221 63.732C330.996 62.6317 307.907 67.8513 287.414 78.835C266.92 89.8186 249.789 106.155 237.846 126.104C225.902 146.054 219.593 168.869 219.59 192.12C219.59 195.785 219.746 199.476 220.056 203.077C220.638 209.933 221.769 216.733 223.436 223.409L223.747 224.704L221.235 225.313Z" fill="#FFC727"/>
<path d="M311.397 299.818L310.18 299.391C287.769 291.378 268.404 276.597 254.764 257.094C252.269 253.534 249.99 249.828 247.939 245.995C239.047 229.435 234.393 210.93 234.393 192.133C234.393 188.922 234.535 185.658 234.807 182.42L234.924 181.125L237.514 181.345L237.41 182.64C237.138 185.8 236.996 188.999 236.996 192.133C236.991 210.501 241.539 228.584 250.231 244.765C252.236 248.508 254.463 252.128 256.901 255.604C270.226 274.668 289.148 289.119 311.047 296.956L312.278 297.383L311.397 299.818Z" fill="#FFC727"/>
<path d="M348.151 305.891H346.856V303.301H348.151C368.55 303.315 388.558 297.705 405.976 287.087C420.033 278.487 432.021 266.893 441.085 253.13C443.169 249.984 445.084 246.728 446.822 243.379C455.087 227.565 459.376 209.976 459.32 192.133C459.317 182.295 458.01 172.501 455.434 163.007C451.307 147.579 443.865 133.238 433.626 120.982C423.645 109.001 411.255 99.2546 397.261 92.3757C383.267 85.4969 367.982 81.6398 352.399 81.0551C351.752 81.0551 351.104 81.0551 350.508 81.0551L350.379 79.7601V81.0551C348.721 81.0551 347.025 81.0551 345.367 81.0551H344.072C343.385 81.0551 342.777 81.0551 342.129 81.1328C341.249 81.1328 340.394 81.2235 339.539 81.3012H338.879C338.218 81.3012 337.584 81.4048 337.001 81.4825H336.716L335.421 81.612L334.126 81.7804C333.258 81.8969 332.507 81.9876 331.769 82.1041L331.043 82.2207C330.305 82.3243 329.658 82.4279 328.997 82.5574C327.702 82.7646 326.511 83.0107 325.306 83.2697C323.895 83.5546 322.483 83.8784 321.097 84.228C314.836 85.7968 308.725 87.916 302.837 90.5609C288.328 97.0755 275.382 106.62 264.868 118.553C254.353 130.485 246.515 144.53 241.878 159.743L241.503 161.038L239.016 160.287L239.392 159.057C245.084 140.271 255.545 123.28 269.754 109.738C283.964 96.1954 301.438 86.5637 320.476 81.7804C321.887 81.4178 323.325 81.094 324.775 80.7961C326.07 80.5371 327.275 80.2781 328.544 80.0709C329.192 79.9414 329.839 79.8378 330.59 79.7342L331.315 79.6176C332.144 79.4881 332.908 79.3845 333.672 79.2939L335.162 79.0996L336.301 78.996C336.461 78.9768 336.621 78.9768 336.781 78.996C337.415 78.9183 338.076 78.8665 338.658 78.8147H339.371C340.225 78.737 341.106 78.6852 341.961 78.6334C342.621 78.6334 343.256 78.6334 343.955 78.5557H345.25C346.947 78.5557 348.682 78.5557 350.431 78.5557H350.586C351.246 78.5557 351.881 78.5557 352.554 78.5557C368.495 79.1581 384.131 83.1073 398.447 90.1466C412.762 97.1859 425.436 107.158 435.646 119.415C449.96 136.634 458.877 157.692 461.282 179.953C463.687 202.215 459.473 224.692 449.166 244.57C447.383 247.999 445.42 251.332 443.287 254.555C434.007 268.634 421.742 280.496 407.362 289.302C389.527 300.173 369.038 305.914 348.151 305.891Z" fill="#FFC727"/>
<path d="M254.44 209.875L252.977 208.814C248.617 183.974 254.134 158.415 268.349 137.585C274.074 129.246 281.065 121.853 289.071 115.672L290.094 114.869L291.674 116.929L290.651 117.719C282.842 123.743 276.025 130.953 270.447 139.087C256.895 158.997 251.478 183.339 255.308 207.117L270.447 204.902C269.771 200.68 269.429 196.41 269.424 192.133C269.424 186.451 270.032 180.785 271.237 175.232L271.522 173.937L274.113 174.481L273.841 175.776C271.648 185.651 271.42 195.859 273.167 205.822L272.092 207.337L254.44 209.875ZM283.01 152.569L280.808 151.183L281.494 150.082C286.587 142.024 293.099 134.955 300.713 129.219L301.749 128.442L303.303 130.501L302.267 131.291C294.909 136.82 288.62 143.645 283.709 151.429L283.01 152.569ZM309.546 106.361L307.823 105.7L300.998 89.9783L301.659 88.2689C312.469 83.4305 323.97 80.3148 335.745 79.035C339.865 78.592 344.007 78.3715 348.151 78.3745C349.705 78.3745 351.104 78.3746 352.451 78.4652H353.746L353.63 81.0553H352.334C351.039 81.0553 349.68 80.9647 348.164 80.9647C344.115 80.9642 340.069 81.1803 336.043 81.6122C324.961 82.8163 314.125 85.6847 303.899 90.1208L309.688 103.512C330.269 94.6126 353.298 93.1207 374.856 99.2898L376.151 99.6395L375.425 102.139L374.13 101.776C352.73 95.656 329.856 97.2935 309.546 106.4V106.361Z" fill="#FFC727"/>
<path d="M348.151 288.706C333.179 288.75 318.406 285.272 305.025 278.553C290.952 271.508 278.801 261.148 269.618 248.365C261.119 236.607 255.422 223.06 252.964 208.762L254.052 207.26L270.447 204.903C269.771 200.68 269.429 196.41 269.424 192.133C269.424 186.451 270.032 180.785 271.237 175.233L271.522 173.938L274.112 174.482L273.84 175.777C271.648 185.651 271.419 195.86 273.167 205.822L272.092 207.337L255.761 209.707C258.276 223.134 263.733 235.836 271.742 246.902C280.679 259.349 292.511 269.435 306.217 276.287C318.169 282.243 331.251 285.587 344.594 286.099C357.938 286.61 371.238 284.276 383.61 279.252L384.814 278.76L385.786 281.169L384.594 281.648C373.021 286.349 360.642 288.747 348.151 288.706ZM407.569 268.283L405.937 266.263L406.96 265.46C412.608 260.93 417.714 255.763 422.177 250.062C435.159 233.525 442.206 213.105 442.186 192.082C442.189 179.734 439.759 167.507 435.034 156.1C430.309 144.692 423.381 134.328 414.648 125.6C405.915 116.871 395.547 109.95 384.137 105.231C372.727 100.512 360.498 98.0884 348.151 98.0986C334.84 98.0633 321.676 100.881 309.545 106.361L308.367 106.892L307.305 104.535L308.483 104.004C329.354 94.6402 352.863 92.9567 374.855 99.2512C395.026 105.024 412.765 117.215 425.384 133.975C438.004 150.736 444.816 171.153 444.789 192.133C444.814 206.255 441.719 220.207 435.723 232.993C429.425 246.438 420.12 258.256 408.527 267.532L407.569 268.283ZM283.009 152.569L280.808 151.183L281.494 150.083C286.587 142.024 293.099 134.955 300.713 129.219L301.749 128.442L303.303 130.501L302.267 131.291C294.909 136.821 288.62 143.645 283.709 151.429L283.009 152.569Z" fill="#FFC727"/>
<path d="M348.151 270.912C343.162 270.909 338.184 270.436 333.284 269.5C317.678 266.495 303.345 258.843 292.165 247.549C280.984 236.255 273.477 221.846 270.629 206.21C268.783 195.948 268.972 185.422 271.185 175.233L271.47 173.937L274.061 174.481L273.789 175.776C271.613 185.654 271.402 195.863 273.167 205.822C275.024 216.08 278.993 225.84 284.823 234.482C290.425 242.885 297.643 250.089 306.056 255.677C314.469 261.264 323.91 265.122 333.828 267.027C338.569 267.904 343.381 268.338 348.203 268.322C367.371 268.32 385.834 261.094 399.912 248.084C413.989 235.075 422.647 217.238 424.159 198.129C424.314 196.161 424.392 194.14 424.392 192.133C424.432 181.813 422.357 171.594 418.294 162.108C414.231 152.621 408.267 144.068 400.77 136.976C395.031 131.511 388.478 126.971 381.344 123.521C364.483 115.366 345.21 113.703 327.203 118.851C309.195 123.998 293.712 135.595 283.709 151.429L283.009 152.53L280.808 151.183L281.494 150.082C286.587 142.024 293.099 134.955 300.713 129.219C312.286 120.506 326.035 115.148 340.452 113.731C354.869 112.315 369.397 114.895 382.445 121.189C389.824 124.757 396.605 129.45 402.544 135.098C410.29 142.426 416.453 151.262 420.653 161.062C424.854 170.862 427.003 181.419 426.969 192.081C426.969 194.153 426.891 196.238 426.736 198.272C425.174 218.027 416.22 236.467 401.66 249.91C387.101 263.353 368.007 270.811 348.19 270.795L348.151 270.912Z" fill="#FFC727"/>
<path d="M348.151 253.04C338.113 253.039 328.23 250.556 319.384 245.811C310.538 241.066 303.003 234.206 297.449 225.844C294.491 221.428 292.135 216.637 290.443 211.598C286.854 200.922 286.285 189.462 288.798 178.483C290.214 172.234 292.623 166.252 295.934 160.767C302.147 150.407 311.302 142.13 322.233 136.989C333.165 131.848 345.379 130.077 357.32 131.9L358.615 132.094L358.227 134.684L356.932 134.49C345.499 132.745 333.806 134.442 323.34 139.363C312.875 144.284 304.11 152.208 298.162 162.126C294.991 167.381 292.678 173.108 291.311 179.092C290.345 183.371 289.863 187.746 289.873 192.133C289.865 198.475 290.898 204.775 292.93 210.782C294.543 215.61 296.795 220.201 299.625 224.432C307.966 236.99 320.849 245.827 335.568 249.087C350.286 252.347 365.696 249.777 378.559 241.915C384.514 238.294 389.777 233.642 394.1 228.175C402.163 217.899 406.509 205.195 406.429 192.133C406.4 181.037 403.22 170.177 397.259 160.818C391.298 151.459 382.801 143.986 372.757 139.269L371.579 138.725L372.68 136.381L373.845 136.925C384.338 141.847 393.216 149.65 399.443 159.425C405.671 169.2 408.992 180.543 409.019 192.133C409.08 205.785 404.515 219.055 396.069 229.781C390.372 237.046 383.098 242.92 374.796 246.959C366.495 250.997 357.383 253.095 348.151 253.092V253.04Z" fill="#FFC727"/>
<path d="M348.151 236.437C337.779 236.435 327.737 232.791 319.776 226.141L318.779 225.313L320.437 223.331L321.434 224.16C328.934 230.412 338.387 233.839 348.151 233.847C355.747 233.838 363.197 231.76 369.701 227.838L370.815 227.164L372.11 229.392L371.009 230.052C364.108 234.209 356.208 236.415 348.151 236.437Z" fill="#FFC727"/>
<path d="M389.166 208.956L386.744 208.037L387.197 206.832C388.97 202.135 389.874 197.154 389.865 192.133C389.865 181.07 385.47 170.46 377.647 162.637C369.825 154.814 359.214 150.419 348.151 150.419C337.088 150.419 326.478 154.814 318.655 162.637C310.832 170.46 306.437 181.07 306.437 192.133C306.429 196.706 307.177 201.248 308.652 205.576L309.066 206.793L306.605 207.635L306.191 206.34C304.21 200.493 303.472 194.298 304.022 188.149C304.572 182 306.4 176.034 309.387 170.632C312.375 165.23 316.457 160.511 321.372 156.776C326.287 153.041 331.928 150.373 337.933 148.943C341.283 148.162 344.711 147.767 348.151 147.764C357.934 147.765 367.442 151.002 375.194 156.971C382.945 162.939 388.504 171.305 391.005 180.763C393.332 189.685 392.838 199.108 389.593 207.739L389.166 208.956Z" fill="#FFC727"/>
<path d="M334.393 132.741L331.908 133.473L337.341 151.908L339.825 151.176L334.393 132.741Z" fill="#FFC727"/>
<path d="M401.532 134.22L387.924 149.223L389.842 150.963L403.45 135.961L401.532 134.22Z" fill="#FFC727"/>
<path d="M394.682 227.131L393.206 229.26L410.053 240.942L411.529 238.814L394.682 227.131Z" fill="#FFC727"/>
<path d="M337.342 249.326L331.96 269.148L334.46 269.827L339.842 250.005L337.342 249.326Z" fill="#FFC727"/>
<path d="M377.721 262.313L375.34 263.334L383.398 282.115L385.778 281.094L377.721 262.313Z" fill="#FFC727"/>
<path d="M273.009 204.484L252.792 207.47L253.171 210.032L273.388 207.047L273.009 204.484Z" fill="#FFC727"/>
<path d="M303.274 253.542L289.833 268.329L291.75 270.072L305.191 255.285L303.274 253.542Z" fill="#FFC727"/>
<path d="M302.853 87.7282L300.478 88.7598L308.333 106.852L310.709 105.82L302.853 87.7282Z" fill="#FFC727"/>
<path d="M298.86 223.373L281.88 234.791L283.326 236.941L300.306 225.522L298.86 223.373Z" fill="#FFC727"/>
<path d="M406.689 195.325L406.471 197.906L426.563 199.604L426.781 197.023L406.689 195.325Z" fill="#FFC727"/>
<path d="M356.162 233.007L353.649 233.636L358.318 252.292L360.831 251.664L356.162 233.007Z" fill="#FFC727"/>
<path d="M255.634 126.276L254.07 128.341L269.669 140.155L271.233 138.091L255.634 126.276Z" fill="#FFC727"/>
<path d="M288.988 177.271L288.519 179.818L306.63 183.155L307.099 180.608L288.988 177.271Z" fill="#FFC727"/>
<path d="M407.105 286.423L404.881 287.75L415.105 304.874L417.329 303.547L407.105 286.423Z" fill="#FFC727"/>
<path d="M447.385 242.221L446.226 244.537L464.076 253.464L465.234 251.147L447.385 242.221Z" fill="#FFC727"/>
<path d="M457.521 161.005L438.79 167.306L439.616 169.761L458.347 163.46L457.521 161.005Z" fill="#FFC727"/>
<path d="M427.861 242.207L426.37 244.324L442.505 255.69L443.997 253.572L427.861 242.207Z" fill="#FFC727"/>
<path d="M309.786 296.531L303.505 315.487L305.964 316.302L312.244 297.345L309.786 296.531Z" fill="#FFC727"/>
<path d="M479.039 184.666L459.608 186.352L459.832 188.933L479.263 187.246L479.039 184.666Z" fill="#FFC727"/>
<path d="M237.249 200.223L217.374 202.025L217.608 204.604L237.483 202.802L237.249 200.223Z" fill="#FFC727"/>
<path d="M456.284 117.866L439.25 128.288L440.602 130.497L457.636 120.075L456.284 117.866Z" fill="#FFC727"/>
<path d="M391.568 87.0257L384.265 105.381L386.674 106.339L393.977 87.984L391.568 87.0257Z" fill="#FFC727"/>
<path d="M349.446 295.544C339.662 295.51 329.923 294.204 320.476 291.659C273.983 279.382 248.509 237.266 244.507 203.245C243.277 192.884 244.857 180.231 245.53 174.831C245.686 173.678 245.789 172.759 245.789 172.513C245.427 172.06 241.477 171.011 238.589 170.234C233.046 168.77 230.818 168.071 230.521 167.138C229.096 161.79 242.94 109.003 295.274 83.5548C315.935 73.3996 339.018 69.2063 361.931 71.4459C386.537 74.0361 410.068 84.3966 429.896 101.621C430.133 101.814 430.407 101.955 430.701 102.035C430.996 102.115 431.304 102.133 431.605 102.087C439.596 101.517 460.395 77.4809 460.602 77.2737L460.913 76.8981L461.651 77.5327L461.34 77.9083C460.472 78.9055 440.062 102.515 431.683 103.058C431.251 103.112 430.813 103.077 430.394 102.957C429.976 102.837 429.586 102.633 429.248 102.359C409.602 85.2902 386.291 74.9426 361.866 72.4302C338.464 70.1066 314.889 74.5826 293.967 85.3214C273.046 96.0602 255.666 112.606 243.912 132.974C233.68 150.432 230.818 164.509 231.466 166.905C231.842 167.449 236.05 168.576 238.835 169.314C245.077 170.972 246.761 171.567 246.761 172.526C246.761 172.837 246.67 173.64 246.502 174.973C245.828 180.335 244.261 192.871 245.466 203.141C249.429 236.813 274.669 278.566 320.735 290.739C338.793 295.724 357.852 295.814 375.956 290.998C389.567 287.294 398.361 281.739 400.368 280.081C401.456 279.174 399.151 275.755 397.299 273.01C395.447 270.264 393.621 267.584 393.997 266.029C394.046 265.815 394.141 265.614 394.275 265.44C394.409 265.265 394.579 265.122 394.774 265.019C409.719 256.731 421.569 241.708 428.147 222.787C434.454 204.656 435.18 184.466 430.116 167.475C418.201 127.445 380.101 103.628 335.278 108.226C293.189 112.538 269.916 154.162 269.916 158.28C269.994 158.863 272.144 160.313 281.961 163.939L283.67 164.574C284.263 163.805 284.808 163.001 285.302 162.165C289.278 155.91 299.858 139.294 320.398 129.789C339.215 121.099 358.305 122.29 364.353 124.867C365.337 125.282 365.894 125.735 366.062 126.227C366.464 127.393 365.881 130.112 365.207 133.208C364.391 137.015 363.265 142.273 364.65 142.908C365.298 143.244 366.036 143.594 366.852 143.995C375.153 147.984 392.43 156.299 398.775 178.626C405.6 202.662 391.109 224.043 386.395 225.585C381.94 227.074 370.051 214.123 368.717 212.634L368.393 212.271L369.105 211.611L369.429 211.973C372.952 215.859 382.794 225.727 386.097 224.652C389.645 223.487 404.797 203.4 397.843 178.885C391.614 156.972 375.231 149.098 366.438 144.85C365.609 144.462 364.858 144.099 364.21 143.762C362.151 142.726 363.174 137.999 364.21 133C364.793 130.268 365.415 127.445 365.091 126.525C365.091 126.409 364.754 126.111 363.925 125.748C358.201 123.313 339.073 122.2 320.761 130.656C300.467 140.02 290.003 156.467 286.066 162.644C284.434 165.235 284.059 165.817 283.476 165.519C283.281 165.416 282.556 165.144 281.624 164.807C272.26 161.349 268.945 159.627 268.945 158.241C268.945 154.045 292.528 111.619 335.188 107.229C380.515 102.579 419.004 126.655 431.023 167.164C436.138 184.337 435.413 204.721 429.041 223.072C422.371 242.239 410.366 257.43 395.227 265.809C395.15 265.847 395.082 265.902 395.028 265.969C394.974 266.036 394.936 266.114 394.916 266.198C394.644 267.338 396.47 270.083 398.076 272.414C400.472 275.963 402.738 279.304 400.951 280.78C400.757 281.013 381.396 295.544 349.446 295.544Z" fill="#263238"/>
<path d="M340.886 201.639C340.852 199.377 341.257 197.129 342.078 195.021C343.123 192.812 344.872 191.013 347.051 189.906C347.789 189.465 348.721 188.947 349.822 188.377C350.955 187.775 352.038 187.082 353.06 186.305C354.096 185.515 354.997 184.562 355.728 183.482C356.461 182.383 356.84 181.086 356.815 179.765C356.834 178.806 356.626 177.857 356.207 176.994C355.83 176.215 355.296 175.523 354.64 174.961C353.969 174.375 353.184 173.934 352.334 173.666C351.476 173.393 350.58 173.254 349.68 173.251C348.646 173.238 347.62 173.432 346.662 173.821C345.79 174.185 344.971 174.664 344.227 175.246C343.5 175.817 342.844 176.474 342.272 177.201C341.743 177.857 341.254 178.545 340.808 179.26L334.268 174.753C334.893 173.241 335.769 171.844 336.858 170.622C337.926 169.425 339.171 168.399 340.549 167.579C341.942 166.744 343.446 166.111 345.017 165.701C346.636 165.274 348.303 165.06 349.977 165.066C351.886 165.064 353.784 165.344 355.611 165.895C357.434 166.415 359.134 167.296 360.61 168.485C362.138 169.74 363.368 171.319 364.21 173.109C365.191 175.211 365.67 177.511 365.609 179.83C365.63 181.266 365.438 182.698 365.039 184.078C364.677 185.269 364.131 186.397 363.42 187.419C362.715 188.423 361.883 189.333 360.947 190.126C359.923 190.977 358.841 191.756 357.709 192.457C356.712 193.053 355.715 193.622 354.704 194.179C353.738 194.712 352.819 195.327 351.959 196.018C351.154 196.671 350.471 197.46 349.939 198.349C349.386 199.323 349.112 200.43 349.149 201.548L340.886 201.639ZM341.029 219.148V208.788H349.369V219.148H341.029Z" fill="#37474F"/>
<path d="M310.449 419.133C308.779 419.671 261.124 419.054 259.327 417.875C258.631 417.439 258.322 410.491 258.18 402.087V401.818C258.18 400.085 258.125 398.304 258.117 396.492C258.117 396.247 258.117 396.002 258.117 395.748C258.053 383.617 258.243 371.026 258.243 371.026L290.127 371.343L289.154 395.819V396.793L288.956 401.858V402.38C288.956 402.38 307.094 410.776 308.937 412.28C310.781 413.783 312.119 418.603 310.449 419.133Z" fill="#D3766A"/>
<path d="M296.133 405.656C296.007 405.656 295.943 405.585 295.936 405.545L296.133 405.656Z" fill="#FFC727"/>
<path d="M310.449 419.133C308.779 419.671 261.124 419.053 259.32 417.874C258.71 417.487 258.394 411.955 258.228 404.825C266.932 406.645 300.802 413.49 301.752 410.602C302.116 409.462 299.22 407.492 297.392 406.384C302.393 408.758 307.933 411.496 308.914 412.295C310.71 413.791 312.127 418.595 310.449 419.133Z" fill="#263238"/>
<path opacity="0.1" d="M280.551 419.053C269.829 418.8 260.158 418.389 259.359 417.874C258.75 417.487 258.433 411.955 258.267 404.825L263.339 405.862L280.551 419.053Z" fill="black"/>
<path d="M248.454 233.75C248.454 233.75 255.608 314.31 256.811 320.427C257.08 321.828 257.246 329.433 257.357 339.222C257.602 360.588 257.46 399.064 257.46 399.064H291.045C291.045 399.064 290.048 332.361 288.568 320.079C287.088 307.797 277.568 233.75 277.568 233.75H248.454Z" fill="#455A64"/>
<path d="M289.502 393.208C284.255 393.097 285.766 393.058 280.52 393.01C277.956 393.01 261.1 392.836 258.702 393.232C258.687 393.232 258.673 393.238 258.663 393.248C258.653 393.258 258.647 393.273 258.647 393.287C258.647 393.302 258.653 393.316 258.663 393.326C258.673 393.337 258.687 393.343 258.702 393.343C261.076 393.738 277.956 393.588 280.52 393.564C285.766 393.517 284.255 393.469 289.502 393.366C289.523 393.366 289.543 393.358 289.558 393.343C289.572 393.328 289.581 393.308 289.581 393.287C289.581 393.266 289.572 393.246 289.558 393.231C289.543 393.216 289.523 393.208 289.502 393.208Z" fill="#263238"/>
<path d="M263.806 355.08C263.764 350.206 263.727 345.333 263.696 340.464C263.696 335.716 263.696 331.015 263.442 326.307C262.991 316.755 261.068 307.37 259.676 297.937C258.283 288.504 257.151 279.015 256.107 269.527C254.943 258.915 253.915 248.224 252.854 237.548C252.854 237.469 252.735 237.477 252.743 237.548C254.326 256.541 256.091 275.533 258.726 294.478C259.38 299.179 260.095 303.872 260.871 308.557C261.662 313.305 262.453 318.053 262.809 322.801C263.165 327.549 263.237 332.202 263.284 336.911L263.427 351.519C263.529 362.329 263.64 378.979 263.743 389.797C263.743 390.003 264.068 389.995 264.068 389.797C263.933 380.206 263.878 364.727 263.806 355.08Z" fill="#263238"/>
<path d="M241.372 233.75C241.372 233.75 255.608 314.31 256.811 320.427C257.08 321.828 257.246 329.433 257.357 339.222L273.342 233.75H241.372Z" fill="#263238"/>
<path d="M271.443 421.974C269.734 422.393 222.245 418.397 220.535 417.099C219.878 416.616 220.053 409.66 220.535 401.272C220.535 401.185 220.535 401.098 220.535 401.011C220.622 399.278 220.725 397.497 220.852 395.693C220.852 395.448 220.852 395.194 220.899 394.949C221.691 382.841 222.775 370.298 222.775 370.298L254.54 372.87L251.849 397.228L251.746 398.194L251.192 403.235L251.137 403.757C251.137 403.757 268.634 413.411 270.367 415.042C272.1 416.672 273.145 421.562 271.443 421.974Z" fill="#D3766A"/>
<path d="M271.435 421.973C269.734 422.393 222.244 418.397 220.535 417.099C219.973 416.687 220.013 411.559 220.329 404.833C227.681 406.716 263.134 415.627 264.218 412.699C264.447 412.082 263.696 411.164 262.635 410.261C266.307 412.39 269.623 414.376 270.327 415.01C272.084 416.664 273.144 421.554 271.435 421.973Z" fill="#263238"/>
<path d="M252.561 400.876L219 399.452C219 399.452 228.164 325.808 228.322 321.282C228.575 314.555 231.804 286.779 234.518 264.304C234.518 264.304 229.375 252.133 238.99 233.742H277.56C277.56 233.742 274.973 251.239 270.549 262.342C267.578 263.38 264.71 264.689 261.978 266.251C261.978 266.251 258.14 316.391 258.022 322.643C257.721 334.988 252.561 400.876 252.561 400.876Z" fill="#455A64"/>
<path d="M251.675 394.727C246.436 394.395 247.948 394.419 242.709 394.142C240.145 394.007 223.313 393.153 220.899 393.445C220.844 393.445 220.844 393.54 220.899 393.548C223.273 394.047 240.129 394.617 242.693 394.704C247.932 394.87 246.428 394.767 251.675 394.878C251.691 394.873 251.705 394.863 251.714 394.849C251.724 394.836 251.729 394.819 251.729 394.803C251.729 394.786 251.724 394.77 251.714 394.756C251.705 394.743 251.691 394.733 251.675 394.727Z" fill="#263238"/>
<path d="M241.395 236.306C241.459 236.179 241.269 236.069 241.197 236.195C236.976 243.961 235.757 253.007 237.771 261.614C238.325 263.988 239.282 266.291 239.354 268.736C239.291 271.343 239.026 273.941 238.562 276.507C237.905 281.706 237.28 286.905 236.631 292.112C235.355 302.463 234.086 312.817 232.825 323.173C231.564 333.529 230.303 343.888 229.042 354.25C227.8 364.537 226.534 374.872 225.37 385.199C225.22 386.513 225.07 387.827 224.927 389.156C224.927 389.243 225.054 389.283 225.07 389.156C226.436 378.874 227.755 368.586 229.026 358.293C230.298 348.001 231.598 337.713 232.928 327.431C234.215 317.127 235.5 306.826 236.782 296.528L238.76 281.073C239.077 278.501 239.393 275.921 239.702 273.349C240.101 271.037 240.101 268.674 239.702 266.362C239.195 264.091 238.38 261.922 237.969 259.627C237.568 257.379 237.38 255.098 237.407 252.814C237.454 248.298 238.301 243.826 239.908 239.606C240.367 238.49 240.857 237.39 241.395 236.306Z" fill="#263238"/>
<path d="M272.021 261.566C268.546 262.827 265.189 264.39 261.986 266.235C261.86 266.306 261.939 266.504 262.073 266.441C265.46 264.993 268.911 263.6 272.203 261.97C272.254 261.944 272.293 261.9 272.312 261.846C272.331 261.792 272.328 261.733 272.305 261.681C272.281 261.629 272.239 261.588 272.186 261.566C272.133 261.545 272.074 261.545 272.021 261.566Z" fill="#263238"/>
<path d="M273.097 238.34C273.097 238.229 272.883 238.197 272.883 238.34C272.886 242.114 272.695 245.886 272.314 249.64C272.163 251.381 270.731 261.012 267.74 260.308C267.233 260.189 266.948 259.69 266.893 258.931C266.906 257.934 267.041 256.943 267.296 255.979C267.629 253.961 267.898 251.943 268.088 249.901C268.44 246.112 268.4 242.295 267.969 238.514C267.963 238.492 267.95 238.473 267.932 238.46C267.914 238.446 267.892 238.439 267.87 238.439C267.848 238.439 267.826 238.446 267.808 238.46C267.79 238.473 267.777 238.492 267.771 238.514C267.861 243.768 267.554 249.022 266.853 254.23C266.473 256.739 265.215 260.506 267.834 260.893C270.454 261.281 272.227 254.966 272.583 253.241C273.398 248.317 273.571 243.308 273.097 238.34Z" fill="#263238"/>
<path d="M267.819 260.569C267.547 261.218 267.32 261.884 267.138 262.563C266.946 263.088 266.849 263.643 266.853 264.201C266.86 264.223 266.872 264.241 266.888 264.256C266.905 264.271 266.925 264.282 266.946 264.287C266.968 264.291 266.99 264.29 267.012 264.284C267.033 264.277 267.052 264.265 267.067 264.249C267.38 263.76 267.617 263.226 267.771 262.666C268.001 262.049 268.238 261.44 268.452 260.814C268.477 260.732 268.471 260.643 268.433 260.566C268.396 260.488 268.33 260.427 268.25 260.396C268.169 260.365 268.08 260.366 268 260.398C267.92 260.43 267.855 260.491 267.819 260.569Z" fill="#263238"/>
<path d="M280.369 192.291C280.375 192.374 280.35 192.456 280.299 192.521C280.247 192.587 280.174 192.632 280.093 192.647L278.723 192.734C277.497 189.569 276.167 186.989 276.516 187.986C277.038 189.544 277.328 191.171 277.378 192.813L274.664 192.956C273.595 187.313 272.226 183.135 272.29 184.425C272.638 189.632 272.29 191.302 271.965 193.09C265.429 193.399 256.85 193.707 250.646 193.794C249.926 190.684 249.301 187.305 249.19 187.543C248.41 189.543 248.038 191.68 248.098 193.826C246.12 193.826 244.545 193.826 243.579 193.755C243.579 193.755 243.12 191.135 243.049 190.273C242.872 188.062 243.108 185.837 243.746 183.713C244.482 181.586 245.442 179.543 246.61 177.619V177.572C247.32 176.286 247.875 174.92 248.264 173.504C248.524 172.482 248.694 171.438 248.771 170.386C249.064 166.54 251.224 163.209 254.84 162.188C261.67 155.746 268.515 158.445 270.58 163.383C270.778 163.858 270.976 164.411 271.166 165.013C271.87 167.237 272.496 170.125 273.073 172.357C273.281 173.233 273.545 174.095 273.865 174.936C275.693 178.988 279.634 181.236 280.369 192.291Z" fill="#263238"/>
<path d="M253.329 163.201C252.182 163.729 251.192 164.547 250.457 165.574C249.721 166.6 249.266 167.801 249.135 169.057C249.028 170.674 248.708 172.271 248.185 173.805C247.492 175.34 246.572 176.762 245.455 178.023C243.729 179.945 242.645 182.357 242.353 184.923C242.006 187.848 242.276 190.814 243.144 193.628C242.417 190.654 242.309 187.561 242.828 184.544C243.342 181.497 245.067 179.574 246.832 177.255C248.238 175.452 249.135 173.303 249.427 171.035C249.468 169.629 249.708 168.235 250.14 166.896C250.877 165.447 252.028 164.249 253.448 163.454C253.462 163.43 253.471 163.403 253.473 163.376C253.474 163.348 253.469 163.32 253.457 163.295C253.446 163.27 253.428 163.248 253.405 163.231C253.383 163.215 253.356 163.204 253.329 163.201Z" fill="#263238"/>
<path d="M277.94 179.241C276.27 177.065 274.521 175.205 273.54 172.499C272.646 170.038 272.132 167.426 271.222 164.965C271.222 164.926 271.15 164.965 271.166 164.965C272.567 169.334 272.844 173.749 275.669 177.421C277.296 179.316 278.669 181.415 279.752 183.665C280.774 186.18 281.311 188.865 281.335 191.579C281.331 191.589 281.33 191.601 281.332 191.612C281.333 191.623 281.338 191.634 281.344 191.643C281.351 191.653 281.36 191.66 281.37 191.665C281.38 191.671 281.391 191.673 281.402 191.673C281.414 191.673 281.425 191.671 281.435 191.665C281.445 191.66 281.454 191.653 281.46 191.643C281.467 191.634 281.471 191.623 281.473 191.612C281.474 191.601 281.473 191.589 281.47 191.579C281.881 187.169 280.621 182.766 277.94 179.241Z" fill="#263238"/>
<path d="M269.385 192.987C281.802 205.325 297.518 231.368 294.709 236.71C291.543 242.653 273.667 225.108 274.197 224.23C274.64 223.486 268.198 207.722 263.514 196.192C258.829 184.662 266.307 189.941 269.385 192.987Z" fill="#D3766A"/>
<path d="M269.385 192.987C281.802 205.325 297.518 231.368 294.709 236.71C291.543 242.653 273.667 225.108 274.197 224.23C274.64 223.486 268.198 207.722 263.514 196.192C258.829 184.662 266.307 189.941 269.385 192.987Z" fill="#DC4279"/>
<path d="M287.215 235.966C281.137 232.294 273.833 224.816 274.173 224.254C274.608 223.51 268.175 207.746 263.49 196.216C263.031 195.084 262.699 194.111 262.445 193.288L287.215 235.966Z" fill="#263238"/>
<path d="M234.542 240.2C235.959 240.801 278.138 236.789 279.214 236.314L273.501 217.765C273.501 217.765 277.457 212.573 275.044 206.686C273.603 203.117 264.542 191.935 263.727 191.286C260.467 188.667 257.207 188.405 254.231 189.703C252.925 190.249 251.398 190.859 250.48 192.156C240.754 205.894 234.542 240.2 234.542 240.2Z" fill="#DC4279"/>
<path d="M268.942 197.007C269.9 198.345 270.937 199.635 271.926 200.964C271.499 200.014 271.071 199.057 270.604 198.123C271.318 199.24 271.92 200.425 272.401 201.661C273.144 202.669 273.818 203.726 274.419 204.826C275.161 206.121 275.675 207.535 275.938 209.004C276.151 210.49 276.057 212.004 275.661 213.452C275.196 215.115 274.576 216.731 273.809 218.279C273.714 218.493 273.429 218.326 273.501 218.121C274.537 215.383 275.685 212.502 275.329 209.511C274.973 206.519 273.382 203.971 271.831 201.478C270.925 199.971 269.921 198.525 268.824 197.15C268.808 197.015 268.903 196.952 268.942 197.007Z" fill="#263238"/>
<path d="M255.742 191.128C255.972 191.872 259.857 196.509 263.284 196.137C264.392 196.01 263.98 189.901 263.98 189.901L264.052 189.442L265.065 183.032L257.341 178.735L256.225 178.173C256.225 178.173 256.067 179.946 255.885 182.13V182.447C255.885 182.573 255.885 182.684 255.845 182.803C255.845 183.135 255.79 183.467 255.766 183.808C255.742 184.148 255.727 184.314 255.719 184.599L255.671 185.39C255.568 187.302 255.592 189.219 255.742 191.128Z" fill="#D3766A"/>
<path d="M255.885 182.154C256.637 183.888 257.757 185.437 259.167 186.696C260.577 187.954 262.244 188.891 264.052 189.442L265.065 183.032L257.341 178.735L256.225 178.173C256.225 178.173 256.067 179.946 255.885 182.154Z" fill="#263238"/>
<path d="M273.429 171.763C276.017 182.842 269.663 185.659 267.265 186.213C265.097 186.72 257.634 188.16 253.915 177.39C250.195 166.619 254.54 161.911 259.454 160.494C264.368 159.078 270.873 160.668 273.429 171.763Z" fill="#D3766A"/>
<path d="M271.507 169.832C271.237 169.832 270.992 169.832 270.715 169.793C270.438 169.817 270.16 169.75 269.924 169.603C269.86 169.54 269.819 169.458 269.806 169.369C269.793 169.281 269.81 169.19 269.853 169.112C269.961 168.969 270.105 168.858 270.271 168.79C270.436 168.722 270.617 168.699 270.794 168.724C271.16 168.719 271.515 168.848 271.791 169.088C271.851 169.148 271.893 169.223 271.911 169.306C271.928 169.388 271.922 169.474 271.892 169.553C271.861 169.632 271.809 169.7 271.74 169.75C271.672 169.799 271.591 169.828 271.507 169.832Z" fill="#263238"/>
<path d="M264.194 172.863C264.463 172.863 264.717 172.863 264.986 172.816C265.265 172.837 265.543 172.765 265.777 172.61C265.842 172.55 265.886 172.47 265.9 172.382C265.914 172.295 265.899 172.205 265.856 172.127C265.747 171.984 265.601 171.873 265.434 171.806C265.267 171.739 265.084 171.719 264.907 171.747C264.54 171.742 264.186 171.878 263.917 172.127C263.857 172.185 263.814 172.259 263.796 172.341C263.777 172.423 263.783 172.508 263.813 172.587C263.842 172.665 263.894 172.733 263.962 172.782C264.03 172.831 264.111 172.86 264.194 172.863Z" fill="#263238"/>
<path d="M266.038 173.939C266.038 173.939 265.983 173.987 265.99 174.011C266.149 174.802 266.212 175.673 265.571 176.052C265.571 176.052 265.571 176.1 265.571 176.092C266.402 175.823 266.307 174.628 266.038 173.939Z" fill="#263238"/>
<path d="M265.207 173.267C263.965 173.401 264.321 175.878 265.468 175.752C266.616 175.625 266.252 173.156 265.207 173.267Z" fill="#263238"/>
<path d="M264.724 173.449C264.527 173.623 264.352 173.9 264.091 173.963C263.83 174.027 263.529 173.813 263.3 173.591C263.3 173.591 263.252 173.591 263.26 173.591C263.316 174.066 263.569 174.525 264.091 174.525C264.614 174.525 264.835 174.058 264.883 173.56C264.914 173.52 264.819 173.393 264.724 173.449Z" fill="#263238"/>
<path d="M270.161 173.053C270.161 173.053 270.224 173.053 270.232 173.108C270.311 173.9 270.533 174.754 271.261 174.913V174.96C270.398 174.952 270.114 173.797 270.161 173.053Z" fill="#263238"/>
<path d="M270.739 172.151C271.965 171.89 272.401 174.359 271.261 174.604C270.121 174.849 269.718 172.372 270.739 172.151Z" fill="#263238"/>
<path d="M271.285 172.23C271.499 172.325 271.736 172.523 271.973 172.499C272.211 172.475 272.393 172.167 272.519 171.882C272.519 171.882 272.559 171.882 272.567 171.882C272.662 172.349 272.567 172.863 272.155 173.037C271.744 173.211 271.364 172.839 271.19 172.388C271.15 172.333 271.198 172.19 271.285 172.23Z" fill="#263238"/>
<path d="M269.631 177.247C269.799 177.794 269.939 178.348 270.05 178.909C270.05 178.957 269.932 179.004 269.75 179.044C269.3 179.201 268.815 179.232 268.349 179.132C267.883 179.033 267.453 178.808 267.106 178.482C267.094 178.473 267.085 178.46 267.082 178.445C267.079 178.431 267.082 178.415 267.091 178.403C267.099 178.39 267.112 178.381 267.127 178.378C267.142 178.375 267.157 178.378 267.17 178.387C267.934 178.749 268.793 178.857 269.623 178.695C269.623 178.537 268.982 176.796 269.061 176.78C269.488 176.752 269.916 176.782 270.335 176.867C269.702 174.493 268.697 172.278 268.096 169.927C268.096 169.84 268.199 169.793 268.23 169.872C269.385 172.23 270.3 174.698 270.96 177.239C271.055 177.54 269.86 177.311 269.631 177.247Z" fill="#263238"/>
<path d="M254.033 177.999C254.736 177.587 255.32 176.998 255.726 176.292C256.133 175.586 256.348 174.786 256.352 173.971C258.271 172.934 259.882 171.408 261.021 169.547C260.958 169.785 260.546 171.526 260.309 172.404C267.431 170.473 269.211 164.767 269.211 164.767C270.698 165.921 271.903 167.399 272.733 169.088C272.733 169.088 272.424 164.657 269.908 161.871C269.089 160.895 268.024 160.156 266.823 159.731C265.622 159.307 264.329 159.212 263.078 159.457C261.259 159.173 259.397 159.382 257.687 160.063C255.976 160.744 254.479 161.871 253.353 163.327C249.071 168.819 254.033 177.999 254.033 177.999Z" fill="#263238"/>
<path d="M265.706 170.766C264.595 171.497 263.382 172.057 262.105 172.428C264.089 171.707 265.834 170.45 267.146 168.796C267.702 168.086 268.167 167.31 268.531 166.485C268.963 165.599 269.213 164.636 269.267 163.652C269.267 163.637 269.273 163.623 269.283 163.613C269.293 163.602 269.307 163.596 269.322 163.596C269.337 163.596 269.351 163.602 269.361 163.613C269.372 163.623 269.378 163.637 269.378 163.652C269.427 164.627 269.312 165.603 269.037 166.54C268.727 167.461 268.249 168.317 267.629 169.065C267.069 169.72 266.422 170.295 265.706 170.774" fill="#263238"/>
<path d="M255.901 177.833C255.901 177.833 252.941 174.667 251.469 175.767C249.997 176.867 252.577 181.71 254.548 182.098C254.797 182.172 255.059 182.195 255.317 182.164C255.576 182.134 255.825 182.052 256.051 181.922C256.276 181.793 256.473 181.619 256.63 181.411C256.786 181.203 256.899 180.966 256.961 180.713L255.901 177.833Z" fill="#D3766A"/>
<path d="M252.245 177.137V177.184C252.89 177.401 253.484 177.749 253.988 178.207C254.492 178.664 254.895 179.221 255.173 179.843C255.077 179.729 254.958 179.636 254.823 179.571C254.689 179.506 254.543 179.47 254.394 179.464C254.245 179.459 254.096 179.485 253.958 179.541C253.819 179.597 253.694 179.681 253.59 179.788C253.59 179.788 253.59 179.867 253.638 179.851C253.859 179.744 254.107 179.709 254.349 179.748C254.591 179.788 254.815 179.901 254.991 180.073C255.287 180.363 255.552 180.684 255.782 181.03C255.861 181.141 256.059 181.03 255.996 180.919C255.703 179.21 254.065 177.05 252.245 177.137Z" fill="#263238"/>
<path d="M254.635 162.37C255.711 161.966 256.732 155.944 252.775 153.071C248.818 150.199 243.738 153.483 245.866 158.421C247.212 161.531 252.348 163.216 254.635 162.37Z" fill="#263238"/>
<path d="M247.236 152.707C246.062 153.685 245.256 155.033 244.949 156.53C244.791 157.226 244.819 157.951 245.031 158.633C245.242 159.315 245.628 159.929 246.151 160.415C247.272 161.403 248.639 162.067 250.108 162.338C250.853 162.497 251.61 162.59 252.371 162.615C253.143 162.673 253.918 162.588 254.658 162.362C253.96 162.751 253.185 162.981 252.387 163.034C251.599 163.128 250.802 163.128 250.013 163.034C248.373 162.857 246.829 162.17 245.597 161.072C244.975 160.483 244.524 159.736 244.292 158.911C244.084 158.089 244.1 157.225 244.339 156.411C244.546 155.63 244.91 154.899 245.408 154.262C245.906 153.626 246.527 153.097 247.236 152.707Z" fill="#263238"/>
<path d="M294.677 236.797C291.607 240.524 284.041 240.69 265.033 242.898C262.406 243.199 255.26 225.219 258.045 224.752C261.567 224.159 275.344 222.616 276.365 222.631C284.983 222.758 296.751 234.264 294.677 236.797Z" fill="#D3766A"/>
<path d="M262.097 224.198C262.097 224.198 254.073 224.784 249.95 226.39C245.71 228.179 241.963 230.964 239.029 234.51C235.864 238.332 230.831 249.767 233.869 251.785C236.615 253.621 241.174 241.671 241.174 241.671C241.174 241.671 234.518 253.091 238.238 254.681C241.957 256.272 246.452 242.115 246.452 242.115C246.452 242.115 239.884 253.985 243.975 255.037C247.069 255.829 251.889 243.214 251.889 243.214C251.889 243.214 246.349 253.502 249.459 254.412C252.941 255.457 258.093 244.125 258.093 244.125C266.505 245.185 270.937 242.249 273.841 239.78C274.521 239.131 262.097 224.198 262.097 224.198Z" fill="#D3766A"/>
<path d="M242.986 237.548C242.195 238.862 241.3 240.184 240.612 241.568C239.923 242.953 239.235 244.354 238.657 245.794C237.864 247.664 237.288 249.618 236.94 251.619C237.818 248.113 240.287 243.127 240.992 241.75C241.696 240.373 242.345 238.957 243.049 237.572C243.057 237.548 243.002 237.548 242.986 237.548Z" fill="#263238"/>
<path d="M248.019 240.041C247.03 241.758 245.985 243.436 245.075 245.201C244.165 246.966 243.492 248.707 242.701 250.519C242.646 250.661 242.701 250.645 242.804 250.519C243.659 248.73 244.585 247.148 245.463 245.383C246.341 243.618 247.148 241.798 248.082 240.065C248.106 240.033 248.035 240.017 248.019 240.041Z" fill="#263238"/>
<path d="M252.72 241.387C251.145 243.993 249.841 246.754 248.826 249.625C248.771 249.759 248.897 249.728 248.961 249.625C250.203 246.863 251.153 244.687 252.815 241.474C252.854 241.395 252.759 241.331 252.72 241.387Z" fill="#263238"/>
<path d="M259.501 224.04L274.078 243.603C274.078 243.603 293.221 240.762 294.891 236.48C296.561 232.199 283.946 222.181 276.389 222.568C268.832 222.956 259.501 224.04 259.501 224.04Z" fill="#DC4279"/>
<path d="M277.505 240.247C275.4 237.786 267.162 227.395 265.532 225.029C265.421 224.863 265.492 224.752 265.634 224.911C272.116 232.136 275.653 237.643 277.592 240.16C277.647 240.223 277.552 240.31 277.505 240.247Z" fill="#263238"/>
<path d="M245.154 197.371C237.581 206.757 229.327 220.692 227.847 232.072C227.127 237.612 236.188 243.776 239.884 242.478C248.589 239.432 261.084 231.589 266.283 226.082C268.111 224.135 252.656 207.92 251.121 210.326C249.586 212.731 248.636 214.148 247.267 214.987C246.602 215.398 250.108 209.669 253.115 199.373C257.214 185.319 247.9 193.968 245.154 197.371Z" fill="#D3766A"/>
<path d="M267.368 187.337C267.368 187.337 265.065 183.728 267.652 182.359C270.24 180.99 271.934 184.923 271.934 184.923L267.368 187.337Z" fill="#FF85BF"/>
<path d="M271.865 184.771L267.299 187.189L281.385 213.793L285.952 211.375L271.865 184.771Z" fill="#FFC727"/>
<path opacity="0.2" d="M271.865 184.771L267.299 187.189L281.385 213.793L285.952 211.375L271.865 184.771Z" fill="black"/>
<path d="M272.165 184.419L266.836 187.24L267.395 188.297L272.725 185.475L272.165 184.419Z" fill="#37474F"/>
<path d="M272.781 185.585L267.451 188.407L268.011 189.463L273.34 186.641L272.781 185.585Z" fill="#37474F"/>
<path d="M285.941 211.378V215.573V216.95L284.793 216.158L281.343 213.808L281.454 212.906L282.245 213.325L282.356 212.423L283.147 212.842L283.25 211.94L284.042 212.36L284.144 211.458L284.936 211.877L285.039 210.975L285.941 211.378Z" fill="white"/>
<path d="M285.964 215.564L285.98 216.949L284.833 216.166L285.964 215.564Z" fill="#37474F"/>
<path d="M279.135 192.694C280.417 194.966 274.537 197.664 274.537 197.664C275.662 197.748 276.722 198.221 277.536 199.002C278.897 200.45 277.228 203.219 277.228 203.219C278.376 203.55 279.398 204.217 280.164 205.135C281.335 206.654 280.053 209.693 280.053 209.693C280.94 210.578 281.479 211.751 281.572 213.001C281.683 216.348 277.212 218.912 274.759 221.049C272.131 223.336 267.265 225.259 265.262 226.913L250.409 211.584C250.409 211.584 257.143 198.875 262.144 195.805C264.938 194.103 277.164 189.213 279.135 192.694Z" fill="#D3766A"/>
<path d="M274.458 197.625C270.984 198.416 267.716 200.054 264.582 201.653C264.511 201.692 264.582 201.803 264.638 201.764C267.74 200.133 271.356 199.287 274.514 197.807C274.538 197.799 274.558 197.783 274.57 197.761C274.582 197.738 274.584 197.712 274.577 197.688C274.57 197.664 274.553 197.644 274.531 197.632C274.508 197.62 274.482 197.617 274.458 197.625Z" fill="#263238"/>
<path d="M277.022 203.038C276.252 203.296 275.517 203.652 274.838 204.098C274.094 204.525 273.358 204.969 272.63 205.428C271.164 206.33 269.723 207.271 268.309 208.253C268.246 208.3 268.309 208.403 268.365 208.363C269.829 207.461 271.301 206.583 272.796 205.744C273.54 205.325 274.292 204.905 275.052 204.502C275.787 204.159 276.482 203.737 277.125 203.243C277.145 203.226 277.159 203.203 277.164 203.177C277.169 203.151 277.165 203.124 277.154 203.101C277.142 203.077 277.122 203.058 277.099 203.047C277.075 203.035 277.048 203.032 277.022 203.038Z" fill="#263238"/>
<path d="M279.99 209.724C279.296 209.967 278.649 210.326 278.075 210.785C277.418 211.212 276.761 211.639 276.096 212.059C274.767 212.898 273.445 213.737 272.092 214.528C272.029 214.575 272.092 214.678 272.147 214.639C273.524 213.847 274.917 213.056 276.286 212.265C276.967 211.869 277.632 211.473 278.304 211.062C278.951 210.75 279.535 210.324 280.029 209.804C280.035 209.801 280.039 209.797 280.043 209.793C280.047 209.789 280.05 209.783 280.052 209.778C280.053 209.772 280.054 209.767 280.054 209.761C280.053 209.755 280.052 209.749 280.049 209.744C280.047 209.739 280.043 209.734 280.039 209.731C280.034 209.727 280.029 209.724 280.024 209.722C280.018 209.72 280.012 209.719 280.006 209.72C280.001 209.72 279.995 209.722 279.99 209.724Z" fill="#263238"/>
<path d="M261.171 196.509C262.604 195.099 264.436 194.162 266.418 193.826C266.505 193.826 266.497 193.826 266.418 193.889C264.569 194.543 262.814 195.434 261.195 196.541C261.195 196.541 261.147 196.533 261.171 196.509Z" fill="#263238"/>
<path d="M266.75 229.176L250.923 209.653L247.655 214.267C247.655 214.267 251.976 205.135 253.685 199.231C255.394 193.328 256.004 186.34 247.417 194.483C239.005 202.397 227.175 225.243 226.945 231.851C226.716 238.459 234.653 243.389 238.902 243.088C243.152 242.787 266.75 229.176 266.75 229.176Z" fill="#DC4279"/>
<path d="M261.891 230.545C259.676 227.902 250.979 216.783 249.23 214.251C249.111 214.077 249.23 213.958 249.341 214.124C256.186 221.864 259.921 227.752 262.002 230.45C262.042 230.521 261.947 230.608 261.891 230.545Z" fill="#263238"/>
<path d="M232.936 230.593C234.083 229.01 235.381 227.562 236.624 226.074C237.866 224.586 239.124 223.09 240.43 221.642C241.736 220.194 243.121 218.785 244.497 217.377L247.204 214.591C247.884 213.903 247.932 214.085 247.275 214.852C246.618 215.62 245.352 217.005 244.719 217.741C243.477 219.197 242.25 220.669 240.968 222.101C239.686 223.534 238.364 224.942 237.011 226.359C235.658 227.775 234.4 229.279 233.007 230.664C232.991 230.719 232.88 230.656 232.936 230.593Z" fill="#263238"/>
<path d="M249.744 208.988C250.536 207.255 251.509 205.538 252.197 203.742C252.197 203.671 252.34 203.742 252.308 203.781C251.817 204.96 251.39 206.155 250.939 207.374L251.042 207.232C251.382 206.789 251.707 206.337 252.023 205.878C252.071 205.815 252.158 205.878 252.118 205.95C251.817 206.414 251.525 206.889 251.24 207.374C251.026 207.765 250.777 208.136 250.496 208.482C250.393 208.743 250.29 209.004 250.171 209.273C249.412 211.03 248.529 212.731 247.528 214.362C247.515 214.384 247.493 214.4 247.468 214.407C247.443 214.414 247.416 214.411 247.393 214.399C247.37 214.387 247.352 214.367 247.343 214.342C247.335 214.318 247.336 214.291 247.346 214.267C248.106 212.478 248.897 210.722 249.744 208.988Z" fill="#263238"/>
<path d="M250.797 209.535C250.868 209.448 251.256 209.954 251.438 210.223C251.438 210.263 251.438 210.278 251.366 210.223C251.295 210.168 251.082 210.017 250.955 209.891C250.448 210.682 247.695 214.338 247.513 214.488C247.331 214.639 247.37 214.488 247.418 214.378C247.6 213.974 250.187 210.334 250.797 209.535Z" fill="#263238"/>
<path d="M245.083 240.714C250.623 237.549 256.281 234.502 262.018 231.677C263.601 230.885 265.089 230.047 266.64 229.224C266.489 229.097 265.215 227.403 265.176 227.34H265.223C265.374 227.49 267.051 229.2 267.162 229.382C267.273 229.564 261.361 232.603 258.584 234.13C255.806 235.657 252.91 237.09 250.045 238.506C248.415 239.313 246.777 240.105 245.131 240.88C245.109 240.886 245.085 240.884 245.065 240.873C245.045 240.861 245.03 240.843 245.024 240.821C245.018 240.799 245.02 240.775 245.031 240.755C245.043 240.735 245.061 240.72 245.083 240.714Z" fill="#263238"/>
<path d="M540.499 58.9361C537.985 80.1756 524.332 84.0639 522.052 89.7356C520.872 93.2977 519.896 96.9239 519.128 100.597H496.938C496.211 96.9229 495.264 93.2961 494.103 89.7356C491.968 84.0347 478.242 80.1172 475.801 58.863C474.179 44.903 484.689 22.8741 508.179 22.9033C531.67 22.9326 542.122 44.9761 540.499 58.9361Z" fill="#FFC727"/>
<path d="M496.794 66.5405L495.371 66.8044L501.922 102.118L503.345 101.854L496.794 66.5405Z" fill="white"/>
<path d="M519.481 66.6138L512.85 101.912L514.272 102.179L520.903 66.881L519.481 66.6138Z" fill="white"/>
<path d="M508.121 78.553C506.045 78.553 504.247 76.6819 502.975 74.3577C502.744 74.6404 502.458 74.8731 502.133 75.0415C501.809 75.2099 501.454 75.3104 501.09 75.3371C497.698 75.3371 496.368 68.4229 496.31 68.1305L497.026 67.999C497.377 69.8408 498.78 74.6208 501.104 74.6208C501.414 74.5778 501.711 74.4696 501.975 74.3033C502.24 74.137 502.466 73.9164 502.639 73.656C501.665 71.712 501.108 69.5861 501.002 67.4143C501.002 65.4409 501.748 64.3153 503.063 64.3153C503.449 64.3043 503.83 64.3993 504.165 64.5901C504.5 64.7808 504.776 65.06 504.964 65.397C506.016 67.2096 505.241 70.8056 503.911 73.086C503.765 73.3198 503.619 73.5537 503.472 73.7584C504.657 76.0241 506.396 77.8221 508.136 77.8221C509.773 77.8221 511.205 76.3603 512.243 74.3577C510.887 72.6698 510.168 70.5585 510.211 68.3937C510.211 65.8794 511.176 64.3153 512.711 64.3153C513.953 64.3153 514.684 65.5578 514.67 67.7066C514.595 69.9666 514.053 72.1866 513.076 74.2261C513.653 74.7732 514.416 75.0813 515.211 75.0886C517.199 75.0886 518.982 70.2793 519.494 68.4229L520.195 68.6275C519.991 69.3584 518.105 75.8195 515.211 75.8195C514.303 75.8134 513.43 75.4754 512.755 74.8693C511.629 76.9596 510.05 78.553 508.121 78.553ZM512.696 65.0462C511.395 65.0462 510.928 66.8588 510.928 68.3937C510.914 70.2798 511.486 72.1236 512.565 73.6707C513.445 71.8001 513.942 69.7723 514.027 67.7066C514.027 66.9027 513.91 65.0462 512.769 65.0462H512.696ZM503.049 65.0462C501.938 65.0462 501.704 66.3326 501.704 67.4143C501.782 69.3554 502.254 71.2603 503.092 73.0129L503.268 72.7205C504.467 70.6448 505.197 67.2827 504.32 65.7625C504.198 65.5345 504.014 65.3461 503.789 65.2192C503.563 65.0923 503.307 65.0323 503.049 65.0462Z" fill="white"/>
<path d="M521.796 99.6532L494.402 99.6245L494.396 104.975L521.79 105.003L521.796 99.6532Z" fill="#455A64"/>
<path d="M521.789 105.88L494.396 105.852L494.39 111.202L521.784 111.23L521.789 105.88Z" fill="#455A64"/>
<path d="M521.783 112.093L494.389 112.064L494.384 117.414L521.777 117.443L521.783 112.093Z" fill="#455A64"/>
<path d="M508.048 13.4603C507.723 11.568 507.571 9.65001 507.594 7.73015C507.571 5.81032 507.723 3.89236 508.048 2C508.365 3.88319 508.512 5.79128 508.486 7.70092C508.509 9.62986 508.362 11.5571 508.048 13.4603Z" fill="#263238"/>
<path d="M487.32 18.8981C486.09 17.4226 484.999 15.8372 484.06 14.162C483.082 12.51 482.255 10.7732 481.59 8.97266C482.815 10.4509 483.906 12.0359 484.849 13.7088C485.822 15.3637 486.648 17.1 487.32 18.8981Z" fill="#263238"/>
<path d="M472.103 34.0129C470.305 33.3413 468.568 32.5147 466.913 31.5425C465.238 30.6033 463.653 29.5121 462.177 28.2827C463.978 28.9485 465.715 29.7753 467.367 30.7531C469.042 31.6923 470.627 32.7835 472.103 34.0129Z" fill="#263238"/>
<path d="M466.46 54.6238C462.664 55.228 458.796 55.228 455 54.6238C458.796 54.0196 462.664 54.0196 466.46 54.6238Z" fill="#263238"/>
<path d="M471.898 75.3372C470.409 76.5688 468.808 77.66 467.118 78.5969C465.466 79.5747 463.729 80.4015 461.929 81.0673C463.421 79.8559 465.021 78.7843 466.709 77.866C468.362 76.8737 470.098 76.0275 471.898 75.3372Z" fill="#263238"/>
<path d="M543.554 75.688C547.145 77.0606 550.496 78.9947 553.48 81.4181C551.677 80.7588 549.939 79.9317 548.291 78.9477C546.615 78.0086 545.03 76.9174 543.554 75.688Z" fill="#263238"/>
<path d="M549.197 55.033C552.993 54.4288 556.861 54.4288 560.657 55.033C556.861 55.6372 552.993 55.6372 549.197 55.033Z" fill="#263238"/>
<path d="M543.759 34.3198C545.243 33.1101 546.827 32.0293 548.495 31.0893C550.147 30.1115 551.884 29.2847 553.684 28.6189C552.214 29.8331 550.639 30.9142 548.977 31.8494C547.316 32.8291 545.569 33.656 543.759 34.3198Z" fill="#263238"/>
<path d="M528.688 19.1027C529.36 17.3046 530.186 15.5683 531.158 13.9134C532.082 12.2377 533.153 10.6478 534.36 9.1626C533.694 10.9631 532.867 12.6999 531.889 14.3519C530.969 16.0299 529.898 17.6201 528.688 19.1027Z" fill="#263238"/>
</g>
<defs>
<linearGradient id="paint0_linear_694_1901" x1="0.00180525" y1="221.001" x2="653.277" y2="221.001" gradientUnits="userSpaceOnUse">
<stop stop-color="#C7E1FE"/>
<stop offset="0.465" stop-color="#A9D0FF"/>
<stop offset="1" stop-color="#C7E1FE"/>
</linearGradient>
<clipPath id="clip0_694_1901">
<rect width="441.14" height="433.36" fill="white" transform="translate(138.457)"/>
</clipPath>
</defs>
</svg>
