<svg width="365" height="378" viewBox="0 0 365 378" fill="none" xmlns="http://www.w3.org/2000/svg">
<path d="M185.174 364.102V362.396C187.999 362.348 190.851 362.232 193.649 362.054L193.758 363.754C190.906 363.938 188.026 364.054 185.174 364.102ZM176.603 364.054C173.764 363.972 170.885 363.822 168.053 363.604L168.182 361.904C170.987 362.116 173.839 362.266 176.658 362.348L176.603 364.054ZM202.268 363.01L202.077 361.31C204.881 361.003 207.706 360.628 210.491 360.177L210.757 361.863C207.952 362.307 205.093 362.696 202.268 363.01ZM159.53 362.764C156.711 362.416 153.859 361.993 151.054 361.515L151.341 359.836C154.125 360.307 156.95 360.723 159.734 361.065L159.53 362.764ZM219.184 360.321L218.836 358.648C221.566 358.075 224.377 357.426 227.1 356.723L227.523 358.375C224.78 359.085 221.975 359.72 219.191 360.321H219.184ZM142.647 359.87C139.87 359.263 137.065 358.573 134.322 357.822L134.772 356.177C137.502 356.915 140.232 357.59 143.009 358.225L142.647 359.87ZM235.766 356.041L235.261 354.409C237.991 353.577 240.666 352.669 243.307 351.679L243.894 353.283C241.219 354.259 238.489 355.201 235.766 356.041ZM126.113 355.399C123.383 354.526 120.654 353.577 117.999 352.573L118.6 350.976C121.247 351.966 123.956 352.908 126.631 353.775L126.113 355.399ZM251.857 350.218L251.175 348.642C253.761 347.57 256.361 346.41 258.913 345.229L259.643 346.771C257.098 347.966 254.464 349.133 251.857 350.218ZM110.008 349.365C107.388 348.239 104.768 347.031 102.209 345.782L102.959 344.246C105.491 345.488 108.091 346.683 110.684 347.795L110.008 349.365ZM267.279 342.915L266.481 341.406C268.965 340.082 271.449 338.676 273.871 337.249L274.738 338.717C272.322 340.171 269.818 341.577 267.307 342.915H267.279ZM94.5863 341.836C92.0956 340.471 89.5981 339.024 87.1687 337.536L88.0558 336.082C90.4646 337.557 92.9417 338.99 95.412 340.341L94.5863 341.836ZM281.992 334.178L281.05 332.751C283.411 331.195 285.752 329.57 288.017 327.919L289.027 329.284C286.748 330.963 284.4 332.608 282.019 334.178H281.992ZM79.9831 332.895C77.6357 331.304 75.2883 329.625 73.0023 327.919L74.0259 326.553C76.2846 328.246 78.6115 329.905 80.9385 331.482L79.9831 332.895ZM295.851 324.089L294.786 322.724C296.977 320.963 299.161 319.12 301.269 317.263L302.402 318.54C300.266 320.451 298.062 322.308 295.851 324.089ZM66.2602 322.622C64.0629 320.806 61.8793 318.922 59.7775 317.011L60.9239 315.748C62.9711 317.639 65.1684 319.509 67.3452 321.304L66.2602 322.622ZM308.687 312.752L307.499 311.523C309.547 309.564 311.519 307.53 313.45 305.475L314.692 306.642C312.747 308.718 310.727 310.772 308.687 312.752ZM53.5678 311.113C51.5206 309.066 49.5484 307.018 47.6377 304.929L48.8933 303.776C50.7904 305.823 52.7694 307.912 54.7688 309.919L53.5678 311.113ZM320.383 300.254L319.086 299.148C320.922 296.998 322.724 294.786 324.45 292.561L325.815 293.605C324.082 295.851 322.232 298.09 320.41 300.254H320.383ZM41.9671 298.472C40.1519 296.288 38.3572 294.028 36.6444 291.769L38.0092 290.738C39.7015 292.977 41.4757 295.216 43.2841 297.38L41.9671 298.472ZM330.919 286.684L329.554 285.701C331.178 283.394 332.768 281.018 334.277 278.643L335.716 279.558C334.16 281.981 332.557 284.377 330.919 286.684ZM31.6834 284.786C30.0798 282.445 28.5103 280.008 27.0159 277.612L28.4625 276.718C29.9433 279.114 31.4992 281.496 33.0892 283.824L31.6834 284.786ZM340.125 272.206L338.644 271.36C340.009 268.916 341.373 266.404 342.684 263.886L344.198 264.657C342.895 267.23 341.523 269.769 340.118 272.234L340.125 272.206ZM22.6964 270.227C21.3316 267.742 19.9667 265.196 18.7248 262.65L20.2533 261.899C21.4953 264.418 22.8191 266.944 24.1839 269.408L22.6964 270.227ZM347.918 256.923L346.362 256.241C347.529 253.661 348.641 251.026 349.678 248.412L351.268 249.04C350.21 251.688 349.084 254.343 347.911 256.951L347.918 256.923ZM15.1149 254.876C13.9753 252.268 12.8903 249.606 11.8736 246.958L13.4704 246.35C14.4735 248.971 15.5176 251.613 16.6776 254.186L15.1149 254.876ZM354.264 240.93L352.646 240.378C353.554 237.716 354.414 234.992 355.199 232.282L356.843 232.76C356.011 235.545 355.144 238.296 354.23 240.985L354.264 240.93ZM9.03486 238.883C8.14775 236.152 7.31523 233.422 6.55778 230.692L8.20236 230.234C8.953 232.965 9.77867 235.695 10.659 238.357L9.03486 238.883ZM359.027 224.473L357.369 224.078C358.051 221.347 358.617 218.549 359.143 215.777L360.822 216.091C360.255 218.945 359.655 221.764 358.993 224.528L359.027 224.473ZM4.46962 222.371C3.84182 219.641 3.27544 216.781 2.7773 213.969L4.45596 213.675C4.94728 216.46 5.51372 219.259 6.1347 221.996L4.46962 222.371ZM362.214 207.641L360.528 207.402C360.917 204.617 361.251 201.784 361.511 198.965L363.21 199.129C362.91 202.044 362.575 204.883 362.18 207.696L362.214 207.641ZM1.48074 205.505C1.11907 202.692 0.798389 199.825 0.586847 196.979L2.286 196.843C2.51801 199.655 2.81821 202.501 3.17306 205.286L1.48074 205.505ZM363.831 190.576L362.132 190.501C362.261 187.696 362.323 184.843 362.323 182.017H364.029C363.967 184.925 363.906 187.805 363.769 190.631L363.831 190.576ZM0.115953 188.426C0.0408902 186.31 0 184.153 0 182.017C0 181.293 0 180.577 0 179.853H1.70598C1.70598 180.57 1.70598 181.28 1.70598 181.996C1.70598 184.112 1.74686 186.249 1.8151 188.344L0.115953 188.426ZM362.268 177.819C362.207 175 362.077 172.147 361.879 169.341L363.578 169.219C363.776 172.051 363.913 174.932 363.974 177.785L362.268 177.819ZM2.01302 171.389L0.313874 171.294C0.477648 168.447 0.709661 165.574 0.996266 162.755L2.68858 162.932C2.35421 165.778 2.12224 168.597 1.95846 171.444L2.01302 171.389ZM361.094 160.891C360.767 158.099 360.371 155.267 359.914 152.482L361.599 152.209C362.057 155.014 362.459 157.874 362.787 160.693L361.094 160.891ZM3.78723 154.516L2.10174 154.256C2.53164 151.444 3.03666 148.605 3.59622 145.82L5.27488 146.154C4.66072 148.966 4.16257 151.779 3.73266 154.57L3.78723 154.516ZM358.338 144.141C357.751 141.41 357.089 138.612 356.366 135.888L358.017 135.451C358.74 138.182 359.382 141.008 360.003 143.786L358.338 144.141ZM7.14462 137.874L5.49321 137.458C6.1756 134.728 6.95351 131.922 7.7792 129.206L9.41013 129.697C8.54349 132.421 7.77928 135.199 7.09006 137.929L7.14462 137.874ZM354.011 127.731C353.158 125.042 352.237 122.339 351.282 119.697L352.879 119.11C353.861 121.779 354.796 124.503 355.649 127.219L354.011 127.731ZM12.0646 121.588L10.461 121.022C11.4164 118.332 12.4468 115.636 13.525 113.001L15.1013 113.643C13.9822 116.332 12.9586 119.001 12.0101 121.663L12.0646 121.588ZM348.156 111.807C347.065 109.22 345.891 106.626 344.669 104.08L346.212 103.343C347.44 105.909 348.62 108.53 349.726 111.138L348.156 111.807ZM18.5133 105.855L16.9711 105.131C18.1721 102.558 19.455 99.9708 20.7788 97.4384L22.2869 98.237C20.9221 100.817 19.6528 103.377 18.4587 105.93L18.5133 105.855ZM340.827 96.5305C339.463 94.0596 338.098 91.5818 336.631 89.1655L338.098 88.285C339.565 90.7286 340.991 93.2268 342.329 95.7183L340.827 96.5305ZM26.4154 90.8037L24.9482 89.9437C26.3881 87.4864 27.9098 85.0359 29.4656 82.6469L30.8919 83.582C29.2951 86.0052 27.787 88.4488 26.3608 90.8788L26.4154 90.8037ZM332.093 82.0052C330.53 79.664 328.892 77.3295 327.221 75.0634L328.585 74.0463C330.271 76.3398 331.922 78.6947 333.499 81.0564L332.093 82.0052ZM35.6959 76.5446L34.3311 75.548C35.9893 73.2477 37.7431 70.9474 39.5037 68.7222L40.8685 69.787C39.0397 72.0873 37.2927 74.4013 35.6277 76.647L35.6959 76.5446ZM322.028 68.3536C320.253 66.1694 318.404 63.9919 316.527 61.8964L317.804 60.7565C319.694 62.8793 321.564 65.0704 323.351 67.2751L322.028 68.3536ZM46.2661 63.2821L44.9832 62.1626C46.8598 60.0193 48.8046 57.8897 50.7767 55.8419L52.0051 57.0296C49.9988 59.1319 48.0677 61.2343 46.2116 63.3571L46.2661 63.2821ZM310.727 55.6986C308.755 53.6508 306.708 51.6918 304.647 49.7738L305.807 48.5247C307.888 50.4564 309.949 52.47 311.949 54.504L310.727 55.6986ZM58.0306 51.0434L56.8569 49.8079C58.904 47.8489 61.0604 45.9172 63.21 44.0606L64.3223 45.3575C62.1386 47.2687 60.0232 49.1799 57.976 51.1185L58.0306 51.0434ZM298.287 44.1493C296.144 42.3336 293.92 40.5385 291.675 38.8184L292.712 37.4532C294.978 39.1869 297.223 40.9958 299.393 42.8319L298.287 44.1493ZM70.8732 39.9651L69.8223 38.5999C72.0606 36.8457 74.367 35.1256 76.6462 33.4806L77.6357 34.8457C75.3224 36.5931 73.0363 38.3064 70.8186 40.0402L70.8732 39.9651ZM284.817 33.8219C282.503 32.211 280.115 30.6342 277.734 29.1394L278.641 27.6923C281.043 29.2008 283.418 30.7912 285.793 32.4226L284.817 33.8219ZM84.6985 30.1496L83.7704 28.7162C86.1656 27.1804 88.6222 25.6787 91.0788 24.2589L91.9318 25.7401C89.4411 27.2077 87.0117 28.6684 84.6438 30.211L84.6985 30.1496ZM270.37 24.8527C267.914 23.4876 265.389 22.1224 262.864 20.8528L263.628 19.3307C266.174 20.6071 268.719 21.9654 271.203 23.3647L270.37 24.8527ZM99.3084 21.7334L98.5238 20.218C101.042 18.9143 103.628 17.6584 106.207 16.4707L106.89 18.0201C104.372 19.1942 101.82 20.4774 99.3153 21.7334H99.3084ZM255.187 17.2147C252.608 16.0611 249.967 14.9622 247.34 13.9383L247.954 12.3479C250.608 13.3854 253.277 14.4912 255.876 15.6516L255.187 17.2147ZM114.696 14.6755L114.062 13.0919C116.703 12.0339 119.405 11.0442 122.087 10.0886L122.646 11.6994C119.999 12.6209 117.324 13.6516 114.703 14.6755H114.696ZM239.342 11.0441C236.667 10.1431 233.938 9.30357 231.235 8.53226L231.699 6.89405C234.429 7.66536 237.158 8.5186 239.888 9.42644L239.342 11.0441ZM130.726 9.09881L130.241 7.4606C132.971 6.65516 135.741 5.9043 138.512 5.22855L138.914 6.88042C136.185 7.55618 133.428 8.30019 130.733 9.09881H130.726ZM223.012 6.40944C220.283 5.77464 217.478 5.19443 214.708 4.68249L215.015 3.00337C217.813 3.51531 220.631 4.10232 223.401 4.75078L223.012 6.40944ZM147.206 5.04428L146.858 3.4129C149.649 2.86684 152.487 2.38222 155.299 1.97267L155.551 3.65862C152.788 4.04087 149.976 4.51867 147.212 5.0579L147.206 5.04428ZM206.328 3.33783C203.537 2.95558 200.698 2.65525 197.894 2.39586L198.037 0.682581C200.869 0.92831 203.735 1.24913 206.546 1.63138L206.328 3.33783ZM164.02 2.58697L163.849 0.887346C166.674 0.607488 169.547 0.389063 172.393 0.204766L172.481 1.91122C169.643 2.10917 166.797 2.32077 163.999 2.60063L164.02 2.58697ZM189.452 1.84981C186.975 1.75425 184.457 1.69962 181.946 1.69962H180.977V0H182.001C184.505 0 187.044 0.0545931 189.507 0.15698L189.452 1.84981Z" fill="#9192FF"/>
<g clip-path="url(#clip0_694_3031)">
<path d="M189.844 323.378C185.826 297.175 191.193 270.401 205.007 247.738C218.822 225.075 240.203 207.966 265.413 199.403C251.283 209.241 242.659 225.152 236.637 241.234C230.615 257.316 226.674 274.201 219.243 289.694C211.813 305.188 200.113 319.654 183.875 325.454L189.844 323.378Z" fill="url(#paint0_linear_694_3031)"/>
<path d="M185.93 323.592C185.351 293.541 179.529 263.818 168.724 235.75C164.896 225.81 160.299 215.891 152.825 208.267C145.352 200.644 134.491 195.631 123.958 197.493C137.072 207.262 143.852 223.333 147.696 239.185C151.54 255.037 152.997 271.494 158.385 286.891C163.772 302.288 174.079 317.129 189.505 322.634L185.93 323.592Z" fill="url(#paint1_linear_694_3031)"/>
<path d="M183.881 325.587C176.354 305.487 168.23 284.885 153.148 269.573C138.066 254.261 114.167 245.498 94.4185 254.058C110.553 257.762 124.941 266.819 135.217 279.738C142.658 289.143 147.658 300.293 155.309 309.527C162.96 318.761 174.633 326.203 186.456 323.972L183.881 325.587Z" fill="#F9D175"/>
<path d="M181.483 324.186C178.413 302.128 175.337 279.716 178.574 257.685C181.811 235.654 192.285 213.655 211.044 201.51C200.662 211.643 197.194 226.987 197.188 241.459C197.183 255.93 200.129 270.268 200.377 284.74C200.624 299.212 197.737 314.577 187.903 325.239L181.483 324.186Z" fill="#F9D175"/>
<path d="M191.844 320.97C199.032 302.743 206.694 283.82 221.335 270.734C230.816 262.299 242.609 256.869 255.208 255.139C246.428 262.094 240.933 272.323 236.39 282.536C231.846 292.749 227.894 303.401 221.292 312.426C214.689 321.452 204.775 328.904 193.554 329.386L191.844 320.97Z" fill="#F9D175"/>
<path d="M228.373 376.433H147.626L135.174 314.625H240.826L228.373 376.433Z" fill="white"/>
<path d="M228.943 377.102H147.072L134.356 313.972H241.643L228.943 377.102ZM148.196 375.765H227.846L240.024 315.31H135.996L148.196 375.765Z" fill="#9192FF"/>
</g>
<defs>
<linearGradient id="paint0_linear_694_3031" x1="224.644" y1="199.403" x2="224.644" y2="325.454" gradientUnits="userSpaceOnUse">
<stop stop-color="#FDAD63"/>
<stop offset="1" stop-color="#E7922B"/>
</linearGradient>
<linearGradient id="paint1_linear_694_3031" x1="156.732" y1="197.103" x2="156.732" y2="323.592" gradientUnits="userSpaceOnUse">
<stop stop-color="#E69B46"/>
<stop offset="1" stop-color="#E37A59"/>
</linearGradient>
<clipPath id="clip0_694_3031">
<rect width="171" height="180" fill="white" transform="translate(94.4185 197.102)"/>
</clipPath>
</defs>
</svg>
