<svg width="21" height="24" viewBox="0 0 21 24" fill="none" xmlns="http://www.w3.org/2000/svg">
<path d="M10.5 0C7.71523 0 5.04451 1.01142 3.07538 2.81177C1.10625 4.61211 0 7.0539 0 9.59997C0 16.08 9.25313 23.3999 9.64688 23.7119C9.88461 23.8979 10.1872 24 10.5 24C10.8128 24 11.1154 23.8979 11.3531 23.7119C11.8125 23.3999 21 16.08 21 9.59997C21 7.0539 19.8938 4.61211 17.9246 2.81177C15.9555 1.01142 13.2848 0 10.5 0ZM10.5 21.1799C7.70437 18.7799 2.625 13.608 2.625 9.59997C2.625 7.69042 3.45469 5.85908 4.93153 4.50882C6.40838 3.15856 8.41142 2.39999 10.5 2.39999C12.5886 2.39999 14.5916 3.15856 16.0685 4.50882C17.5453 5.85908 18.375 7.69042 18.375 9.59997C18.375 13.608 13.2956 18.7919 10.5 21.1799ZM10.5 4.79999C9.46165 4.79999 8.44662 5.0815 7.58326 5.60893C6.7199 6.13636 6.04699 6.88602 5.64963 7.7631C5.25227 8.64018 5.1483 9.6053 5.35088 10.5364C5.55345 11.4675 6.05346 12.3228 6.78769 12.9941C7.52191 13.6654 8.45738 14.1225 9.47578 14.3077C10.4942 14.4929 11.5498 14.3979 12.5091 14.0346C13.4684 13.6713 14.2883 13.0561 14.8652 12.2667C15.4421 11.4773 15.75 10.5493 15.75 9.59997C15.75 8.32694 15.1969 7.10604 14.2123 6.20587C13.2277 5.3057 11.8924 4.79999 10.5 4.79999ZM10.5 12C9.98082 12 9.47331 11.8592 9.04163 11.5955C8.60995 11.3318 8.2735 10.957 8.07482 10.5184C7.87614 10.0799 7.82415 9.59731 7.92544 9.13176C8.02672 8.66621 8.27673 8.23857 8.64385 7.90292C9.01096 7.56728 9.47869 7.3387 9.98789 7.2461C10.4971 7.15349 11.0249 7.20102 11.5045 7.38267C11.9842 7.56432 12.3942 7.87193 12.6826 8.26661C12.971 8.66129 13.125 9.1253 13.125 9.59997C13.125 10.2365 12.8484 10.8469 12.3562 11.297C11.8639 11.7471 11.1962 12 10.5 12Z" fill="#FFFFFF"/>
</svg>
