<svg width="25" height="25" viewBox="0 0 25 25" fill="none" xmlns="http://www.w3.org/2000/svg">
<path d="M21.25 4H3.75C2.75544 4 1.80161 4.35558 1.09835 4.98851C0.395088 5.62145 0 6.47989 0 7.375V18.625C0 19.5201 0.395088 20.3786 1.09835 21.0115C1.80161 21.6444 2.75544 22 3.75 22H21.25C22.2446 22 23.1984 21.6444 23.9017 21.0115C24.6049 20.3786 25 19.5201 25 18.625V7.375C25 6.47989 24.6049 5.62145 23.9017 4.98851C23.1984 4.35558 22.2446 4 21.25 4ZM20.4125 6.25L12.5 11.5938L4.5875 6.25H20.4125ZM21.25 19.75H3.75C3.41848 19.75 3.10054 19.6315 2.86612 19.4205C2.6317 19.2095 2.5 18.9234 2.5 18.625V7.65625L11.75 13.9C11.9664 14.0461 12.2295 14.125 12.5 14.125C12.7705 14.125 13.0336 14.0461 13.25 13.9L22.5 7.65625V18.625C22.5 18.9234 22.3683 19.2095 22.1339 19.4205C21.8995 19.6315 21.5815 19.75 21.25 19.75Z" fill="#FFFFFF"/>
</svg>
