<svg width="22" height="22" viewBox="0 0 22 22" fill="none" xmlns="http://www.w3.org/2000/svg">
<path d="M10.7292 21.4885C12.4604 21.4885 14.1659 21.0704 15.7003 20.2698C17.2346 19.4691 18.5522 18.3097 19.5407 16.8905C20.5292 15.4713 21.1592 13.8344 21.377 12.1194C21.5948 10.4044 21.3938 8.66225 20.7914 7.04158L12.7002 15.1212C12.3112 15.5091 11.784 15.727 11.2342 15.727C10.6845 15.727 10.1572 15.5091 9.76823 15.1212L6.61768 11.9751C6.22917 11.5867 6.01094 11.0602 6.01094 10.5112C6.01094 9.96228 6.22917 9.43577 6.61768 9.04737C7.00723 8.66053 7.53428 8.44339 8.08366 8.44339C8.63305 8.44339 9.1601 8.66053 9.54965 9.04737L11.2342 10.7295L18.5415 3.43268C17.3229 2.13968 15.8015 1.16942 14.1142 0.609131C12.427 0.0488446 10.6267 -0.0838935 8.87527 0.222854C7.12388 0.529601 5.47629 1.26621 4.08068 2.36645C2.68506 3.46669 1.58518 4.89605 0.879941 6.52601C0.1747 8.15596 -0.113785 9.93539 0.0404278 11.7043C0.194641 13.4732 0.786715 15.176 1.76341 16.6598C2.7401 18.1435 4.07079 19.3616 5.63581 20.2045C7.20082 21.0473 8.95109 21.4886 10.7292 21.4885Z" fill="#282F78"/>
</svg>
